<svg width="59" height="28" viewBox="0 0 59 28" fill="none" xmlns="http://www.w3.org/2000/svg">
<path d="M6.03516 7.25391C5.76432 7.52474 5.44141 7.73698 5.06641 7.89062C4.69401 8.04167 4.28776 8.11719 3.84766 8.11719C3.40755 8.11719 3.0013 8.04167 2.62891 7.89062C2.25651 7.73958 1.93229 7.52734 1.65625 7.25391C1.38281 6.97786 1.16927 6.65495 1.01562 6.28516C0.864583 5.91276 0.789062 5.50781 0.789062 5.07031C0.789062 4.63021 0.864583 4.22526 1.01562 3.85547C1.16927 3.48307 1.38281 3.16016 1.65625 2.88672C1.93229 2.61328 2.25651 2.40104 2.62891 2.25C3.0013 2.09896 3.40755 2.02344 3.84766 2.02344C4.28516 2.02344 4.6901 2.10026 5.0625 2.25391C5.4375 2.40495 5.75911 2.61458 6.02734 2.88281L5.42969 3.49219C5.23438 3.27083 5 3.09766 4.72656 2.97266C4.45573 2.84505 4.15885 2.78125 3.83594 2.78125C3.52344 2.78125 3.23568 2.83854 2.97266 2.95312C2.70964 3.0651 2.48047 3.22526 2.28516 3.43359C2.08984 3.63932 1.9375 3.88151 1.82812 4.16016C1.72135 4.4388 1.66797 4.74219 1.66797 5.07031C1.66797 5.39844 1.72135 5.70182 1.82812 5.98047C1.9375 6.25911 2.08984 6.5026 2.28516 6.71094C2.48047 6.91667 2.70964 7.07682 2.97266 7.19141C3.23568 7.30339 3.52344 7.35938 3.83594 7.35938C4.15885 7.35938 4.45573 7.29688 4.72656 7.17188C5 7.04427 5.23307 6.86979 5.42578 6.64844L6.03516 7.25391ZM11.3398 8H10.3828L9.04297 5.70703H7.79688V8H6.9375V2.14062H9.03125C9.46875 2.14062 9.84375 2.21224 10.1562 2.35547C10.4688 2.4987 10.7096 2.70312 10.8789 2.96875C11.0482 3.23438 11.1328 3.55208 11.1328 3.92188C11.1328 4.33594 11.0273 4.6849 10.8164 4.96875C10.6055 5.2526 10.3073 5.45443 9.92188 5.57422L11.3398 8ZM7.79688 4.98047H8.97266C9.3737 4.98047 9.6875 4.88932 9.91406 4.70703C10.1406 4.52214 10.2539 4.26562 10.2539 3.9375C10.2539 3.61198 10.1406 3.35807 9.91406 3.17578C9.6901 2.99089 9.3763 2.89844 8.97266 2.89844H7.79688V4.98047ZM12.1562 8V2.14062H15.8086V2.89844H13.0156V4.65234H15.6484V5.41016H13.0156V7.24219H15.8477V8H12.1562ZM16.9375 8V2.14062H18.7031C19.4167 2.14062 20.0326 2.25911 20.5508 2.49609C21.069 2.73047 21.4674 3.06641 21.7461 3.50391C22.0247 3.94141 22.1641 4.46354 22.1641 5.07031C22.1641 5.67448 22.0247 6.19661 21.7461 6.63672C21.4674 7.07422 21.069 7.41146 20.5508 7.64844C20.0326 7.88281 19.4167 8 18.7031 8H16.9375ZM17.7969 7.24219H18.7383C19.2773 7.24219 19.737 7.15755 20.1172 6.98828C20.4974 6.81641 20.7865 6.56901 20.9844 6.24609C21.1849 5.92057 21.2852 5.52865 21.2852 5.07031C21.2852 4.60938 21.1849 4.21745 20.9844 3.89453C20.7865 3.57161 20.4974 3.32552 20.1172 3.15625C19.737 2.98438 19.2773 2.89844 18.7383 2.89844H17.7969V7.24219ZM23.8984 2.14062V8H23.0391V2.14062H23.8984ZM27.2695 8H26.4102V2.89844H24.5781V2.14062H29.1016V2.89844H27.2695V8ZM31.4141 7.41016L31.8242 6.75C31.9987 6.89062 32.1693 7.00781 32.3359 7.10156C32.5052 7.19271 32.6758 7.26042 32.8477 7.30469C33.0195 7.34635 33.1953 7.36719 33.375 7.36719C33.6198 7.36719 33.8333 7.32812 34.0156 7.25C34.1979 7.17188 34.3398 7.0625 34.4414 6.92188C34.543 6.78125 34.5938 6.61979 34.5938 6.4375C34.5938 6.23177 34.5339 6.0612 34.4141 5.92578C34.2969 5.79036 34.1432 5.67448 33.9531 5.57812C33.763 5.47917 33.5599 5.38542 33.3438 5.29688C33.1536 5.21875 32.9635 5.13411 32.7734 5.04297C32.5859 4.94922 32.4141 4.84115 32.2578 4.71875C32.1042 4.59635 31.9805 4.44792 31.8867 4.27344C31.7956 4.09635 31.75 3.88281 31.75 3.63281C31.75 3.3125 31.8307 3.03125 31.9922 2.78906C32.1536 2.54688 32.3763 2.35938 32.6602 2.22656C32.9466 2.09375 33.276 2.02734 33.6484 2.02734C33.901 2.02734 34.1589 2.0612 34.4219 2.12891C34.6875 2.19401 34.9466 2.29167 35.1992 2.42188L34.8516 3.12109C34.6693 3.01432 34.4753 2.93099 34.2695 2.87109C34.0664 2.8112 33.8698 2.78125 33.6797 2.78125C33.4714 2.78125 33.2878 2.8151 33.1289 2.88281C32.9727 2.95052 32.8503 3.04557 32.7617 3.16797C32.6732 3.29036 32.6289 3.43359 32.6289 3.59766C32.6289 3.78255 32.6849 3.9388 32.7969 4.06641C32.9089 4.19401 33.0547 4.30599 33.2344 4.40234C33.4167 4.49609 33.6094 4.58724 33.8125 4.67578C34.0104 4.76432 34.207 4.85807 34.4023 4.95703C34.6003 5.05339 34.7786 5.16797 34.9375 5.30078C35.099 5.43359 35.2279 5.59245 35.3242 5.77734C35.4232 5.95964 35.4727 6.17969 35.4727 6.4375C35.4727 6.77344 35.3867 7.06771 35.2148 7.32031C35.043 7.57031 34.8021 7.76562 34.4922 7.90625C34.1849 8.04688 33.8242 8.11719 33.4102 8.11719C33.043 8.11719 32.6914 8.05859 32.3555 7.94141C32.0221 7.82161 31.7083 7.64453 31.4141 7.41016ZM41.4023 7.25391C41.1315 7.52474 40.8086 7.73698 40.4336 7.89062C40.0612 8.04167 39.6549 8.11719 39.2148 8.11719C38.7747 8.11719 38.3685 8.04167 37.9961 7.89062C37.6237 7.73958 37.2995 7.52734 37.0234 7.25391C36.75 6.97786 36.5365 6.65495 36.3828 6.28516C36.2318 5.91276 36.1562 5.50781 36.1562 5.07031C36.1562 4.63021 36.2318 4.22526 36.3828 3.85547C36.5365 3.48307 36.75 3.16016 37.0234 2.88672C37.2995 2.61328 37.6237 2.40104 37.9961 2.25C38.3685 2.09896 38.7747 2.02344 39.2148 2.02344C39.6523 2.02344 40.0573 2.10026 40.4297 2.25391C40.8047 2.40495 41.1263 2.61458 41.3945 2.88281L40.7969 3.49219C40.6016 3.27083 40.3672 3.09766 40.0938 2.97266C39.8229 2.84505 39.526 2.78125 39.2031 2.78125C38.8906 2.78125 38.6029 2.83854 38.3398 2.95312C38.0768 3.0651 37.8477 3.22526 37.6523 3.43359C37.457 3.63932 37.3047 3.88151 37.1953 4.16016C37.0885 4.4388 37.0352 4.74219 37.0352 5.07031C37.0352 5.39844 37.0885 5.70182 37.1953 5.98047C37.3047 6.25911 37.457 6.5026 37.6523 6.71094C37.8477 6.91667 38.0768 7.07682 38.3398 7.19141C38.6029 7.30339 38.8906 7.35938 39.2031 7.35938C39.526 7.35938 39.8229 7.29688 40.0938 7.17188C40.3672 7.04427 40.6003 6.86979 40.793 6.64844L41.4023 7.25391ZM45.1523 8.11719C44.7122 8.11719 44.3047 8.04167 43.9297 7.89062C43.5573 7.73958 43.2331 7.52734 42.957 7.25391C42.6836 6.97786 42.4714 6.65495 42.3203 6.28516C42.1693 5.91276 42.0938 5.50781 42.0938 5.07031C42.0938 4.63021 42.1693 4.22526 42.3203 3.85547C42.4714 3.48307 42.6836 3.16016 42.957 2.88672C43.2331 2.61328 43.5573 2.40104 43.9297 2.25C44.3047 2.09896 44.7122 2.02344 45.1523 2.02344C45.5951 2.02344 46.0013 2.09896 46.3711 2.25C46.7435 2.40104 47.0664 2.61328 47.3398 2.88672C47.6159 3.16016 47.8294 3.48307 47.9805 3.85547C48.1315 4.22526 48.207 4.63021 48.207 5.07031C48.207 5.50781 48.1315 5.91276 47.9805 6.28516C47.8294 6.65495 47.6159 6.97786 47.3398 7.25391C47.0664 7.52734 46.7435 7.73958 46.3711 7.89062C46.0013 8.04167 45.5951 8.11719 45.1523 8.11719ZM45.1523 7.35938C45.4648 7.35938 45.7539 7.30208 46.0195 7.1875C46.2852 7.07292 46.5156 6.91276 46.7109 6.70703C46.9062 6.4987 47.0573 6.25651 47.1641 5.98047C47.2734 5.70182 47.3281 5.39844 47.3281 5.07031C47.3281 4.74219 47.2734 4.4388 47.1641 4.16016C47.0573 3.88151 46.9062 3.63932 46.7109 3.43359C46.5156 3.22526 46.2852 3.0651 46.0195 2.95312C45.7539 2.83854 45.4648 2.78125 45.1523 2.78125C44.8398 2.78125 44.5508 2.83854 44.2852 2.95312C44.0221 3.0651 43.7917 3.22526 43.5938 3.43359C43.3984 3.63932 43.2461 3.88151 43.1367 4.16016C43.0273 4.4388 42.9727 4.74219 42.9727 5.07031C42.9727 5.39844 43.0273 5.70182 43.1367 5.98047C43.2461 6.25911 43.3984 6.5026 43.5938 6.71094C43.7917 6.91667 44.0221 7.07682 44.2852 7.19141C44.5508 7.30339 44.8398 7.35938 45.1523 7.35938ZM53.4883 8H52.5312L51.1914 5.70703H49.9453V8H49.0859V2.14062H51.1797C51.6172 2.14062 51.9922 2.21224 52.3047 2.35547C52.6172 2.4987 52.8581 2.70312 53.0273 2.96875C53.1966 3.23438 53.2812 3.55208 53.2812 3.92188C53.2812 4.33594 53.1758 4.6849 52.9648 4.96875C52.7539 5.2526 52.4557 5.45443 52.0703 5.57422L53.4883 8ZM49.9453 4.98047H51.1211C51.5221 4.98047 51.8359 4.88932 52.0625 4.70703C52.2891 4.52214 52.4023 4.26562 52.4023 3.9375C52.4023 3.61198 52.2891 3.35807 52.0625 3.17578C51.8385 2.99089 51.5247 2.89844 51.1211 2.89844H49.9453V4.98047ZM54.3047 8V2.14062H57.957V2.89844H55.1641V4.65234H57.7969V5.41016H55.1641V7.24219H57.9961V8H54.3047Z" fill="#1A535C"/>
<path d="M25.5 18L29.5 22L33.5 18" stroke="#1A535C" stroke-width="2" stroke-linecap="round" stroke-linejoin="round"/>
</svg>
