<svg width="25" height="38" viewBox="0 0 25 38" fill="none" xmlns="http://www.w3.org/2000/svg">
<path d="M3.5 9L12.5 2L21.5 9V20C21.5 20.5304 21.2893 21.0391 20.9142 21.4142C20.5391 21.7893 20.0304 22 19.5 22H5.5C4.96957 22 4.46086 21.7893 4.08579 21.4142C3.71071 21.0391 3.5 20.5304 3.5 20V9Z" stroke="#1A535C" stroke-width="2" stroke-linecap="round" stroke-linejoin="round"/>
<path d="M9.5 22V12H15.5V22" stroke="#1A535C" stroke-width="2" stroke-linecap="round" stroke-linejoin="round"/>
<path d="M1.65234 36H0.792969V30.1406H1.65234V32.7344H4.67578V30.1406H5.53516V36H4.67578V33.4883H1.65234V36ZM9.46875 36.1172C9.02865 36.1172 8.62109 36.0417 8.24609 35.8906C7.8737 35.7396 7.54948 35.5273 7.27344 35.2539C7 34.9779 6.78776 34.6549 6.63672 34.2852C6.48568 33.9128 6.41016 33.5078 6.41016 33.0703C6.41016 32.6302 6.48568 32.2253 6.63672 31.8555C6.78776 31.4831 7 31.1602 7.27344 30.8867C7.54948 30.6133 7.8737 30.401 8.24609 30.25C8.62109 30.099 9.02865 30.0234 9.46875 30.0234C9.91146 30.0234 10.3177 30.099 10.6875 30.25C11.0599 30.401 11.3828 30.6133 11.6562 30.8867C11.9323 31.1602 12.1458 31.4831 12.2969 31.8555C12.4479 32.2253 12.5234 32.6302 12.5234 33.0703C12.5234 33.5078 12.4479 33.9128 12.2969 34.2852C12.1458 34.6549 11.9323 34.9779 11.6562 35.2539C11.3828 35.5273 11.0599 35.7396 10.6875 35.8906C10.3177 36.0417 9.91146 36.1172 9.46875 36.1172ZM9.46875 35.3594C9.78125 35.3594 10.0703 35.3021 10.3359 35.1875C10.6016 35.0729 10.832 34.9128 11.0273 34.707C11.2227 34.4987 11.3737 34.2565 11.4805 33.9805C11.5898 33.7018 11.6445 33.3984 11.6445 33.0703C11.6445 32.7422 11.5898 32.4388 11.4805 32.1602C11.3737 31.8815 11.2227 31.6393 11.0273 31.4336C10.832 31.2253 10.6016 31.0651 10.3359 30.9531C10.0703 30.8385 9.78125 30.7812 9.46875 30.7812C9.15625 30.7812 8.86719 30.8385 8.60156 30.9531C8.33854 31.0651 8.10807 31.2253 7.91016 31.4336C7.71484 31.6393 7.5625 31.8815 7.45312 32.1602C7.34375 32.4388 7.28906 32.7422 7.28906 33.0703C7.28906 33.3984 7.34375 33.7018 7.45312 33.9805C7.5625 34.2591 7.71484 34.5026 7.91016 34.7109C8.10807 34.9167 8.33854 35.0768 8.60156 35.1914C8.86719 35.3034 9.15625 35.3594 9.46875 35.3594ZM19.4258 36H18.5664V31.3555L16.7734 35.0156H16.0469L14.2617 31.375V36H13.4023V30.1406H14.5039L16.4102 34.0898L18.3164 30.1406H19.4258V36ZM20.5508 36V30.1406H24.2031V30.8984H21.4102V32.6523H24.043V33.4102H21.4102V35.2422H24.2422V36H20.5508Z" fill="#1A535C"/>
</svg>
