<svg width="29" height="38" viewBox="0 0 29 38" fill="none" xmlns="http://www.w3.org/2000/svg">
<path d="M14.5 22C20.0228 22 24.5 17.5228 24.5 12C24.5 6.47715 20.0228 2 14.5 2C8.97715 2 4.5 6.47715 4.5 12C4.5 17.5228 8.97715 22 14.5 22Z" stroke="#1A535C" stroke-width="2" stroke-linecap="round" stroke-linejoin="round"/>
<path d="M14.5 18C17.8137 18 20.5 15.3137 20.5 12C20.5 8.68629 17.8137 6 14.5 6C11.1863 6 8.5 8.68629 8.5 12C8.5 15.3137 11.1863 18 14.5 18Z" stroke="#1A535C" stroke-width="2" stroke-linecap="round" stroke-linejoin="round"/>
<path d="M14.5 14C15.6046 14 16.5 13.1046 16.5 12C16.5 10.8954 15.6046 10 14.5 10C13.3954 10 12.5 10.8954 12.5 12C12.5 13.1046 13.3954 14 14.5 14Z" stroke="#1A535C" stroke-width="2" stroke-linecap="round" stroke-linejoin="round"/>
<path d="M5.28516 31.3945C5.08203 31.1966 4.84375 31.0456 4.57031 30.9414C4.29688 30.8346 4.00651 30.7812 3.69922 30.7812C3.38411 30.7812 3.09375 30.8359 2.82812 30.9453C2.5651 31.0547 2.33724 31.2109 2.14453 31.4141C1.95443 31.6172 1.80599 31.8581 1.69922 32.1367C1.59505 32.4154 1.54297 32.7227 1.54297 33.0586C1.54297 33.3945 1.59505 33.7031 1.69922 33.9844C1.80339 34.2656 1.95052 34.5091 2.14062 34.7148C2.33333 34.9206 2.5599 35.0794 2.82031 35.1914C3.08333 35.3034 3.37109 35.3594 3.68359 35.3594C3.96484 35.3594 4.22396 35.3138 4.46094 35.2227C4.69792 35.1315 4.90625 35.0013 5.08594 34.832C5.26562 34.6628 5.41146 34.4596 5.52344 34.2227C5.63542 33.9857 5.70703 33.724 5.73828 33.4375H3.74219V32.7695H6.5L6.52344 33.0898C6.52344 33.5352 6.45443 33.9427 6.31641 34.3125C6.17839 34.6823 5.98177 35.0026 5.72656 35.2734C5.47396 35.5417 5.17318 35.75 4.82422 35.8984C4.47786 36.0443 4.09505 36.1172 3.67578 36.1172C3.24349 36.1172 2.84375 36.0417 2.47656 35.8906C2.11198 35.737 1.79297 35.5234 1.51953 35.25C1.2487 34.974 1.03776 34.651 0.886719 34.2812C0.738281 33.9115 0.664062 33.5104 0.664062 33.0781C0.664062 32.6406 0.739583 32.237 0.890625 31.8672C1.04167 31.4948 1.2526 31.1706 1.52344 30.8945C1.79688 30.6185 2.11719 30.4049 2.48438 30.2539C2.85156 30.1003 3.2513 30.0234 3.68359 30.0234C4.09245 30.0234 4.48177 30.0938 4.85156 30.2344C5.22396 30.375 5.55469 30.5768 5.84375 30.8398L5.28516 31.3945ZM10.207 36.1172C9.76693 36.1172 9.35938 36.0417 8.98438 35.8906C8.61198 35.7396 8.28776 35.5273 8.01172 35.2539C7.73828 34.9779 7.52604 34.6549 7.375 34.2852C7.22396 33.9128 7.14844 33.5078 7.14844 33.0703C7.14844 32.6302 7.22396 32.2253 7.375 31.8555C7.52604 31.4831 7.73828 31.1602 8.01172 30.8867C8.28776 30.6133 8.61198 30.401 8.98438 30.25C9.35938 30.099 9.76693 30.0234 10.207 30.0234C10.6497 30.0234 11.056 30.099 11.4258 30.25C11.7982 30.401 12.1211 30.6133 12.3945 30.8867C12.6706 31.1602 12.8841 31.4831 13.0352 31.8555C13.1862 32.2253 13.2617 32.6302 13.2617 33.0703C13.2617 33.5078 13.1862 33.9128 13.0352 34.2852C12.8841 34.6549 12.6706 34.9779 12.3945 35.2539C12.1211 35.5273 11.7982 35.7396 11.4258 35.8906C11.056 36.0417 10.6497 36.1172 10.207 36.1172ZM10.207 35.3594C10.5195 35.3594 10.8086 35.3021 11.0742 35.1875C11.3398 35.0729 11.5703 34.9128 11.7656 34.707C11.9609 34.4987 12.112 34.2565 12.2188 33.9805C12.3281 33.7018 12.3828 33.3984 12.3828 33.0703C12.3828 32.7422 12.3281 32.4388 12.2188 32.1602C12.112 31.8815 11.9609 31.6393 11.7656 31.4336C11.5703 31.2253 11.3398 31.0651 11.0742 30.9531C10.8086 30.8385 10.5195 30.7812 10.207 30.7812C9.89453 30.7812 9.60547 30.8385 9.33984 30.9531C9.07682 31.0651 8.84635 31.2253 8.64844 31.4336C8.45312 31.6393 8.30078 31.8815 8.19141 32.1602C8.08203 32.4388 8.02734 32.7422 8.02734 33.0703C8.02734 33.3984 8.08203 33.7018 8.19141 33.9805C8.30078 34.2591 8.45312 34.5026 8.64844 34.7109C8.84635 34.9167 9.07682 35.0768 9.33984 35.1914C9.60547 35.3034 9.89453 35.3594 10.207 35.3594ZM14.5117 36H13.6094L15.9922 30.1406H16.9141L19.293 36H18.3906L17.8047 34.5273H15.0977L14.5117 36ZM15.3906 33.7695H17.5117L16.4492 31.0938L15.3906 33.7695ZM23.6797 36H20.0078V30.1406H20.8672V35.2422H23.6797V36ZM24.2188 35.4102L24.6289 34.75C24.8034 34.8906 24.974 35.0078 25.1406 35.1016C25.3099 35.1927 25.4805 35.2604 25.6523 35.3047C25.8242 35.3464 26 35.3672 26.1797 35.3672C26.4245 35.3672 26.638 35.3281 26.8203 35.25C27.0026 35.1719 27.1445 35.0625 27.2461 34.9219C27.3477 34.7812 27.3984 34.6198 27.3984 34.4375C27.3984 34.2318 27.3385 34.0612 27.2188 33.9258C27.1016 33.7904 26.9479 33.6745 26.7578 33.5781C26.5677 33.4792 26.3646 33.3854 26.1484 33.2969C25.9583 33.2188 25.7682 33.1341 25.5781 33.043C25.3906 32.9492 25.2188 32.8411 25.0625 32.7188C24.9089 32.5964 24.7852 32.4479 24.6914 32.2734C24.6003 32.0964 24.5547 31.8828 24.5547 31.6328C24.5547 31.3125 24.6354 31.0312 24.7969 30.7891C24.9583 30.5469 25.181 30.3594 25.4648 30.2266C25.7513 30.0938 26.0807 30.0273 26.4531 30.0273C26.7057 30.0273 26.9635 30.0612 27.2266 30.1289C27.4922 30.194 27.7513 30.2917 28.0039 30.4219L27.6562 31.1211C27.474 31.0143 27.2799 30.931 27.0742 30.8711C26.8711 30.8112 26.6745 30.7812 26.4844 30.7812C26.276 30.7812 26.0924 30.8151 25.9336 30.8828C25.7773 30.9505 25.6549 31.0456 25.5664 31.168C25.4779 31.2904 25.4336 31.4336 25.4336 31.5977C25.4336 31.7826 25.4896 31.9388 25.6016 32.0664C25.7135 32.194 25.8594 32.306 26.0391 32.4023C26.2214 32.4961 26.4141 32.5872 26.6172 32.6758C26.8151 32.7643 27.0117 32.8581 27.207 32.957C27.4049 33.0534 27.5833 33.168 27.7422 33.3008C27.9036 33.4336 28.0326 33.5924 28.1289 33.7773C28.2279 33.9596 28.2773 34.1797 28.2773 34.4375C28.2773 34.7734 28.1914 35.0677 28.0195 35.3203C27.8477 35.5703 27.6068 35.7656 27.2969 35.9062C26.9896 36.0469 26.6289 36.1172 26.2148 36.1172C25.8477 36.1172 25.4961 36.0586 25.1602 35.9414C24.8268 35.8216 24.513 35.6445 24.2188 35.4102Z" fill="#1A535C"/>
</svg>
