<svg width="30" height="38" viewBox="0 0 30 38" fill="none" xmlns="http://www.w3.org/2000/svg">
<path d="M21 8C21 6.4087 20.3679 4.88258 19.2426 3.75736C18.1174 2.63214 16.5913 2 15 2C13.4087 2 11.8826 2.63214 10.7574 3.75736C9.63214 4.88258 9 6.4087 9 8C9 15 6 17 6 17H24C24 17 21 15 21 8Z" stroke="#1A535C" stroke-width="2" stroke-linecap="round" stroke-linejoin="round"/>
<path d="M16.73 21C16.5542 21.3031 16.3019 21.5547 15.9982 21.7295C15.6946 21.9044 15.3504 21.9965 15 21.9965C14.6496 21.9965 14.3054 21.9044 14.0018 21.7295C13.6982 21.5547 13.4458 21.3031 13.27 21" stroke="#1A535C" stroke-width="2" stroke-linecap="round" stroke-linejoin="round"/>
<path d="M1.13672 36H0.234375L2.61719 30.1406H3.53906L5.91797 36H5.01562L4.42969 34.5273H1.72266L1.13672 36ZM2.01562 33.7695H4.13672L3.07422 31.0938L2.01562 33.7695ZM10.3047 36H6.63281V30.1406H7.49219V35.2422H10.3047V36ZM11.1172 36V30.1406H14.7695V30.8984H11.9766V32.6523H14.6094V33.4102H11.9766V35.2422H14.8086V36H11.1172ZM20.3008 36H19.3438L18.0039 33.707H16.7578V36H15.8984V30.1406H17.9922C18.4297 30.1406 18.8047 30.2122 19.1172 30.3555C19.4297 30.4987 19.6706 30.7031 19.8398 30.9688C20.0091 31.2344 20.0938 31.5521 20.0938 31.9219C20.0938 32.3359 19.9883 32.6849 19.7773 32.9688C19.5664 33.2526 19.2682 33.4544 18.8828 33.5742L20.3008 36ZM16.7578 32.9805H17.9336C18.3346 32.9805 18.6484 32.8893 18.875 32.707C19.1016 32.5221 19.2148 32.2656 19.2148 31.9375C19.2148 31.612 19.1016 31.3581 18.875 31.1758C18.651 30.9909 18.3372 30.8984 17.9336 30.8984H16.7578V32.9805ZM23.2461 36H22.3867V30.8984H20.5547V30.1406H25.0781V30.8984H23.2461V36ZM25.4844 35.4102L25.8945 34.75C26.069 34.8906 26.2396 35.0078 26.4062 35.1016C26.5755 35.1927 26.7461 35.2604 26.918 35.3047C27.0898 35.3464 27.2656 35.3672 27.4453 35.3672C27.6901 35.3672 27.9036 35.3281 28.0859 35.25C28.2682 35.1719 28.4102 35.0625 28.5117 34.9219C28.6133 34.7812 28.6641 34.6198 28.6641 34.4375C28.6641 34.2318 28.6042 34.0612 28.4844 33.9258C28.3672 33.7904 28.2135 33.6745 28.0234 33.5781C27.8333 33.4792 27.6302 33.3854 27.4141 33.2969C27.224 33.2188 27.0339 33.1341 26.8438 33.043C26.6562 32.9492 26.4844 32.8411 26.3281 32.7188C26.1745 32.5964 26.0508 32.4479 25.957 32.2734C25.8659 32.0964 25.8203 31.8828 25.8203 31.6328C25.8203 31.3125 25.901 31.0312 26.0625 30.7891C26.224 30.5469 26.4466 30.3594 26.7305 30.2266C27.0169 30.0938 27.3464 30.0273 27.7188 30.0273C27.9714 30.0273 28.2292 30.0612 28.4922 30.1289C28.7578 30.194 29.0169 30.2917 29.2695 30.4219L28.9219 31.1211C28.7396 31.0143 28.5456 30.931 28.3398 30.8711C28.1367 30.8112 27.9401 30.7812 27.75 30.7812C27.5417 30.7812 27.3581 30.8151 27.1992 30.8828C27.043 30.9505 26.9206 31.0456 26.832 31.168C26.7435 31.2904 26.6992 31.4336 26.6992 31.5977C26.6992 31.7826 26.7552 31.9388 26.8672 32.0664C26.9792 32.194 27.125 32.306 27.3047 32.4023C27.487 32.4961 27.6797 32.5872 27.8828 32.6758C28.0807 32.7643 28.2773 32.8581 28.4727 32.957C28.6706 33.0534 28.849 33.168 29.0078 33.3008C29.1693 33.4336 29.2982 33.5924 29.3945 33.7773C29.4935 33.9596 29.543 34.1797 29.543 34.4375C29.543 34.7734 29.457 35.0677 29.2852 35.3203C29.1133 35.5703 28.8724 35.7656 28.5625 35.9062C28.2552 36.0469 27.8945 36.1172 27.4805 36.1172C27.1133 36.1172 26.7617 36.0586 26.4258 35.9414C26.0924 35.8216 25.7786 35.6445 25.4844 35.4102Z" fill="#1A535C"/>
</svg>
