<svg width="27" height="38" viewBox="0 0 27 38" fill="none" xmlns="http://www.w3.org/2000/svg">
<path d="M7.5 2L4.5 6V20C4.5 20.5304 4.71071 21.0391 5.08579 21.4142C5.46086 21.7893 5.96957 22 6.5 22H20.5C21.0304 22 21.5391 21.7893 21.9142 21.4142C22.2893 21.0391 22.5 20.5304 22.5 20V6L19.5 2H7.5Z" stroke="#1A535C" stroke-width="2" stroke-linecap="round" stroke-linejoin="round"/>
<path d="M4.5 6H22.5" stroke="#1A535C" stroke-width="2" stroke-linecap="round" stroke-linejoin="round"/>
<path d="M17.5 10C17.5 11.0609 17.0786 12.0783 16.3284 12.8284C15.5783 13.5786 14.5609 14 13.5 14C12.4391 14 11.4217 13.5786 10.6716 12.8284C9.92143 12.0783 9.5 11.0609 9.5 10" stroke="#1A535C" stroke-width="2" stroke-linecap="round" stroke-linejoin="round"/>
<path d="M0.71875 35.4102L1.12891 34.75C1.30339 34.8906 1.47396 35.0078 1.64062 35.1016C1.8099 35.1927 1.98047 35.2604 2.15234 35.3047C2.32422 35.3464 2.5 35.3672 2.67969 35.3672C2.92448 35.3672 3.13802 35.3281 3.32031 35.25C3.5026 35.1719 3.64453 35.0625 3.74609 34.9219C3.84766 34.7812 3.89844 34.6198 3.89844 34.4375C3.89844 34.2318 3.83854 34.0612 3.71875 33.9258C3.60156 33.7904 3.44792 33.6745 3.25781 33.5781C3.06771 33.4792 2.86458 33.3854 2.64844 33.2969C2.45833 33.2188 2.26823 33.1341 2.07812 33.043C1.89062 32.9492 1.71875 32.8411 1.5625 32.7188C1.40885 32.5964 1.28516 32.4479 1.19141 32.2734C1.10026 32.0964 1.05469 31.8828 1.05469 31.6328C1.05469 31.3125 1.13542 31.0312 1.29688 30.7891C1.45833 30.5469 1.68099 30.3594 1.96484 30.2266C2.2513 30.0938 2.58073 30.0273 2.95312 30.0273C3.20573 30.0273 3.46354 30.0612 3.72656 30.1289C3.99219 30.194 4.2513 30.2917 4.50391 30.4219L4.15625 31.1211C3.97396 31.0143 3.77995 30.931 3.57422 30.8711C3.37109 30.8112 3.17448 30.7812 2.98438 30.7812C2.77604 30.7812 2.59245 30.8151 2.43359 30.8828C2.27734 30.9505 2.15495 31.0456 2.06641 31.168C1.97786 31.2904 1.93359 31.4336 1.93359 31.5977C1.93359 31.7826 1.98958 31.9388 2.10156 32.0664C2.21354 32.194 2.35938 32.306 2.53906 32.4023C2.72135 32.4961 2.91406 32.5872 3.11719 32.6758C3.3151 32.7643 3.51172 32.8581 3.70703 32.957C3.90495 33.0534 4.08333 33.168 4.24219 33.3008C4.40365 33.4336 4.53255 33.5924 4.62891 33.7773C4.72786 33.9596 4.77734 34.1797 4.77734 34.4375C4.77734 34.7734 4.69141 35.0677 4.51953 35.3203C4.34766 35.5703 4.10677 35.7656 3.79688 35.9062C3.48958 36.0469 3.12891 36.1172 2.71484 36.1172C2.34766 36.1172 1.99609 36.0586 1.66016 35.9414C1.32682 35.8216 1.01302 35.6445 0.71875 35.4102ZM7.87891 36H7.01953V30.8984H5.1875V30.1406H9.71094V30.8984H7.87891V36ZM13.1992 36.1172C12.7591 36.1172 12.3516 36.0417 11.9766 35.8906C11.6042 35.7396 11.2799 35.5273 11.0039 35.2539C10.7305 34.9779 10.5182 34.6549 10.3672 34.2852C10.2161 33.9128 10.1406 33.5078 10.1406 33.0703C10.1406 32.6302 10.2161 32.2253 10.3672 31.8555C10.5182 31.4831 10.7305 31.1602 11.0039 30.8867C11.2799 30.6133 11.6042 30.401 11.9766 30.25C12.3516 30.099 12.7591 30.0234 13.1992 30.0234C13.6419 30.0234 14.0482 30.099 14.418 30.25C14.7904 30.401 15.1133 30.6133 15.3867 30.8867C15.6628 31.1602 15.8763 31.4831 16.0273 31.8555C16.1784 32.2253 16.2539 32.6302 16.2539 33.0703C16.2539 33.5078 16.1784 33.9128 16.0273 34.2852C15.8763 34.6549 15.6628 34.9779 15.3867 35.2539C15.1133 35.5273 14.7904 35.7396 14.418 35.8906C14.0482 36.0417 13.6419 36.1172 13.1992 36.1172ZM13.1992 35.3594C13.5117 35.3594 13.8008 35.3021 14.0664 35.1875C14.332 35.0729 14.5625 34.9128 14.7578 34.707C14.9531 34.4987 15.1042 34.2565 15.2109 33.9805C15.3203 33.7018 15.375 33.3984 15.375 33.0703C15.375 32.7422 15.3203 32.4388 15.2109 32.1602C15.1042 31.8815 14.9531 31.6393 14.7578 31.4336C14.5625 31.2253 14.332 31.0651 14.0664 30.9531C13.8008 30.8385 13.5117 30.7812 13.1992 30.7812C12.8867 30.7812 12.5977 30.8385 12.332 30.9531C12.069 31.0651 11.8385 31.2253 11.6406 31.4336C11.4453 31.6393 11.293 31.8815 11.1836 32.1602C11.0742 32.4388 11.0195 32.7422 11.0195 33.0703C11.0195 33.3984 11.0742 33.7018 11.1836 33.9805C11.293 34.2591 11.4453 34.5026 11.6406 34.7109C11.8385 34.9167 12.069 35.0768 12.332 35.1914C12.5977 35.3034 12.8867 35.3594 13.1992 35.3594ZM21.5352 36H20.5781L19.2383 33.707H17.9922V36H17.1328V30.1406H19.2266C19.6641 30.1406 20.0391 30.2122 20.3516 30.3555C20.6641 30.4987 20.9049 30.7031 21.0742 30.9688C21.2435 31.2344 21.3281 31.5521 21.3281 31.9219C21.3281 32.3359 21.2227 32.6849 21.0117 32.9688C20.8008 33.2526 20.5026 33.4544 20.1172 33.5742L21.5352 36ZM17.9922 32.9805H19.168C19.569 32.9805 19.8828 32.8893 20.1094 32.707C20.3359 32.5221 20.4492 32.2656 20.4492 31.9375C20.4492 31.612 20.3359 31.3581 20.1094 31.1758C19.8854 30.9909 19.5716 30.8984 19.168 30.8984H17.9922V32.9805ZM22.3516 36V30.1406H26.0039V30.8984H23.2109V32.6523H25.8438V33.4102H23.2109V35.2422H26.043V36H22.3516Z" fill="#1A535C"/>
</svg>
