<svg width="393" height="837" viewBox="0 0 393 837" fill="none" xmlns="http://www.w3.org/2000/svg">
<g opacity="0.1">
<path d="M614.98 405.987C603.33 395.99 499.068 308.297 426.506 308.297C336.044 308.297 292.372 387.188 281.891 428.912L280.306 435.294C266.81 442.993 254.147 452.066 242.519 462.371C230.116 473.435 219.077 485.939 209.638 499.62C208.885 496.032 208.146 492.444 207.232 488.977C196.563 449.995 179.444 415.514 160.994 382.001C146.078 355.516 129.604 330.186 112.35 305.475L113.197 303.768C131.257 267.326 147.207 179.323 78.4206 107.204C22.3997 48.4422 -123.572 31.6319 -140.019 29.9387L-169.125 26.875L-166.263 56.9213C-164.623 74.175 -148.646 226.946 -92.7194 285.56C-61.5847 318.2 -22.6428 335.467 19.9138 335.467C54.8781 335.467 83.7016 323.884 96.5478 317.73C111.894 342.561 126.051 368.107 138.97 394.283C154.961 427.46 169.487 462.048 176.81 496.596C178.57 505.183 166.463 833.125 166.463 833.125H226.314C226.314 833.125 216.961 562.48 218.614 555.977C225.602 528.927 240.813 503.49 260.862 482.769C269.477 473.963 278.897 465.982 289 458.931C306.509 494.083 349.67 541.679 426.506 541.679C499.068 541.679 603.33 453.999 614.98 444.002L637.125 424.988L614.98 405.987Z" fill="#F7FFF7"/>
</g>
</svg>
