<svg width="97" height="96" viewBox="0 0 97 96" fill="none" xmlns="http://www.w3.org/2000/svg">
<g clip-path="url(#clip0_453_2441)">
<rect x="1.5" width="95" height="96" rx="20" fill="#FF6B6B"/>
<path d="M72.422 46.4922C71.6905 45.8645 65.1438 40.3582 60.5876 40.3582C54.9074 40.3582 52.1652 45.3118 51.5071 47.9317L51.4076 48.3324C50.5602 48.8158 49.7651 49.3856 49.0349 50.0326C48.2561 50.7273 47.563 51.5125 46.9703 52.3715C46.923 52.1462 46.8766 51.9209 46.8193 51.7032C46.1493 49.2555 45.0744 47.0904 43.9159 44.9861C42.9793 43.3231 41.9449 41.7326 40.8615 40.181L40.9147 40.0738C42.0487 37.7856 43.0502 32.2598 38.7311 27.7314C35.2135 24.0417 26.0478 22.9862 25.0151 22.8799L23.1875 22.6875L23.3672 24.5741C23.4702 25.6575 24.4734 35.2501 27.9851 38.9305C29.94 40.98 32.3852 42.0642 35.0574 42.0642C37.2528 42.0642 39.0627 41.3369 39.8693 40.9505C40.8329 42.5096 41.7218 44.1137 42.533 45.7573C43.5371 47.8405 44.4492 50.0123 44.909 52.1816C45.0195 52.7208 44.2593 73.3125 44.2593 73.3125H48.0174C48.0174 73.3125 47.4301 56.3185 47.5339 55.9102C47.9727 54.2117 48.9278 52.6145 50.1867 51.3134C50.7276 50.7605 51.3191 50.2593 51.9535 49.8166C53.0529 52.0238 55.763 55.0124 60.5876 55.0124C65.1438 55.0124 71.6905 49.5069 72.422 48.8792L73.8125 47.6853L72.422 46.4922Z" fill="#F7FFF7"/>
</g>
<defs>
<clipPath id="clip0_453_2441">
<rect width="96" height="96" fill="white" transform="translate(0.5)"/>
</clipPath>
</defs>
</svg>
