<svg width="90" height="60" viewBox="0 0 90 60" fill="none" xmlns="http://www.w3.org/2000/svg">
<g clip-path="url(#clip0_535_160)">
<g clip-path="url(#clip1_535_160)">
<path d="M23.4278 49.979C23.053 53.223 21.6751 56.1909 20.2051 59.0499C20.1565 59.1472 20.1065 59.2431 20.0552 59.3404H4.77681C4.46781 59.2518 4.16279 59.1545 3.85906 59.0499C2.1334 58.4694 0.504258 57.5839 -0.965074 56.4277C-6.586 51.9533 -8.74893 43.4983 -7.77199 35.9223C-7.16452 31.2155 -5.29485 26.4098 -1.65408 23.8748C0.268232 22.5339 2.73747 22.0981 4.95035 22.5964C5.00826 22.608 5.0661 22.6225 5.12523 22.6356C7.02912 23.1092 8.72524 24.2859 9.69038 26.1817C11.4259 29.5884 10.3925 33.8086 9.53918 37.6002C8.68846 41.3919 8.22692 45.9302 10.6962 48.7267C9.88099 46.0755 10.6857 42.9129 12.633 41.1202C14.1043 39.7677 16.1528 39.2607 18.0212 39.6806C18.2 39.7227 18.3762 39.7706 18.5497 39.8287C18.9692 39.9645 19.3736 40.1516 19.7554 40.3866C22.6678 42.1836 23.8472 46.3225 23.4278 49.979Z" fill="#F2F2F2"/>
<path d="M14.3686 59.05C14.7919 59.159 15.2166 59.2548 15.6439 59.3405H13.3338C13.0313 59.2505 12.7302 59.1546 12.4318 59.05C11.7757 58.8234 11.1297 58.5633 10.4937 58.2699C7.94296 57.0874 5.59334 55.3121 3.81568 52.95C2.94628 51.8055 2.23634 50.5241 1.70931 49.1482C1.13781 47.5929 0.774618 45.954 0.631181 44.2829C0.30902 40.8545 0.637729 37.3316 1.25175 33.9642C1.88541 30.474 2.90827 27.0841 4.29693 23.872C4.46392 23.487 4.6366 23.1045 4.81497 22.7244C4.82724 22.6931 4.84581 22.6653 4.86928 22.6431C4.89275 22.621 4.92048 22.605 4.95037 22.5965C5.01107 22.5835 5.07395 22.5976 5.12525 22.6357C5.18683 22.6748 5.23249 22.7384 5.2528 22.8136C5.27311 22.8888 5.26652 22.9697 5.2344 23.0396C3.80262 26.1246 2.71729 29.3913 2.00252 32.7671C1.30304 36.0605 0.905961 39.5064 1.04136 42.8927C1.17022 46.0567 1.91841 49.1685 3.61582 51.7558C5.16602 54.118 7.30655 55.9804 9.6746 57.2486C11.1734 58.0409 12.7479 58.6452 14.3686 59.05Z" fill="white"/>
<path d="M19.4386 59.3405H18.7575C18.6812 59.2446 18.6075 59.1473 18.5353 59.05C16.9839 56.9673 15.9329 54.4861 15.4795 51.8357C14.929 48.5282 15.3573 45.1127 16.701 42.0951C17.0759 41.249 17.5177 40.441 18.0211 39.6807C18.1999 39.7228 18.3762 39.7707 18.5497 39.8288C17.2255 41.7674 16.3348 44.0243 15.9502 46.4155C15.6072 48.6562 15.7213 50.9533 16.2841 53.1391C16.8468 55.3248 17.8441 57.3443 19.2032 59.05C19.2794 59.1473 19.3583 59.2446 19.4386 59.3405Z" fill="white"/>
<path d="M80.7942 56.8701C80.8931 57.7263 81.2567 58.5095 81.6447 59.2641C81.6575 59.2898 81.6707 59.3151 81.6842 59.3408H85.7165C85.798 59.3174 85.8785 59.2917 85.9587 59.2641C86.4141 59.1109 86.8441 58.8772 87.2319 58.572C88.7153 57.3912 89.2862 55.1597 89.0283 53.1603C88.868 51.9181 88.3746 50.6498 87.4137 49.9807C86.8919 49.6296 86.2694 49.5091 85.6707 49.6433C85.6554 49.6464 85.6401 49.6502 85.6245 49.6537C85.3753 49.7069 85.1391 49.8178 84.9315 49.9791C84.7238 50.1404 84.5494 50.3485 84.4197 50.5896C83.9617 51.4887 84.2344 52.6024 84.4596 53.6031C84.6841 54.6038 84.8059 55.8016 84.1543 56.5396C84.2498 56.231 84.2692 55.8998 84.2104 55.5801C84.1517 55.2604 84.017 54.9638 83.8202 54.7207C83.6233 54.4776 83.3714 54.2967 83.0904 54.1968C82.8093 54.0969 82.5093 54.0815 82.2211 54.1522C82.1739 54.1633 82.1274 54.1759 82.0816 54.1913C81.9709 54.2271 81.8641 54.2765 81.7634 54.3385C80.9947 54.8128 80.6835 55.9051 80.7942 56.8701Z" fill="#F2F2F2"/>
<path d="M83.185 59.2646C83.0733 59.2933 82.9612 59.3186 82.8484 59.3412H83.4581C83.5379 59.3175 83.6174 59.2922 83.6961 59.2646C83.8693 59.2048 84.0398 59.1361 84.2076 59.0587C84.8884 58.7533 85.4928 58.2718 85.9701 57.6547C86.1995 57.3526 86.3869 57.0144 86.526 56.6513C86.6768 56.2408 86.7727 55.8083 86.8105 55.3673C86.8797 54.4556 86.8245 53.5375 86.6467 52.644C86.4795 51.7228 86.2096 50.8282 85.8431 49.9805C85.799 49.8789 85.7534 49.7779 85.7063 49.6776C85.7031 49.6693 85.6982 49.662 85.692 49.6561C85.6858 49.6503 85.6785 49.6461 85.6706 49.6438C85.6546 49.6404 85.638 49.6441 85.6245 49.6542C85.6082 49.6645 85.5962 49.6813 85.5908 49.7011C85.5854 49.7209 85.5872 49.7423 85.5957 49.7608C85.9735 50.5749 86.26 51.4371 86.4486 52.328C86.6429 53.2019 86.7282 54.101 86.7023 55.0004C86.6884 55.8368 86.4521 56.6503 86.0228 57.3395C85.6054 57.9602 85.0563 58.458 84.4238 58.7891C84.0282 58.9983 83.6127 59.1577 83.185 59.2646Z" fill="white"/>
<path d="M81.8469 59.3409H82.0267C82.0468 59.3156 82.0662 59.29 82.0853 59.2643C82.4948 58.7146 82.7721 58.0598 82.8918 57.3603C83.0371 56.4874 82.924 55.5859 82.5694 54.7896C82.4705 54.5662 82.3539 54.353 82.221 54.1523C82.1738 54.1635 82.1273 54.1761 82.0815 54.1914C82.431 54.7031 82.6661 55.2987 82.7675 55.9298C82.8581 56.5212 82.828 57.1274 82.6794 57.7043C82.5309 58.2811 82.2677 58.8141 81.909 59.2643C81.8889 59.2899 81.8681 59.3156 81.8469 59.3409Z" fill="white"/>
<path d="M44.4495 37.2122H31.8295L31.6958 32.9251C31.69 32.7392 31.7207 32.5542 31.7858 32.3827C31.851 32.2113 31.9489 32.0574 32.073 31.9318C32.1971 31.8062 32.3444 31.7118 32.5047 31.6551C32.665 31.5984 32.8345 31.5807 33.0015 31.6033L40.3455 32.5969H40.3464C41.4351 32.6001 42.4783 33.08 43.2474 33.9315C44.0165 34.783 44.4488 35.9366 44.4495 37.1396V37.2122Z" fill="#4ECDC4"/>
<path d="M38.8247 22.0059H30.0229C29.9059 22.0058 29.7899 22.0313 29.6818 22.0808C29.5736 22.1302 29.4754 22.2028 29.3926 22.2942C29.3098 22.3857 29.2442 22.4943 29.1994 22.6138C29.1546 22.7333 29.1316 22.8613 29.1316 22.9907V32.7156C29.1316 32.8449 29.1546 32.973 29.1994 33.0925C29.2442 33.212 29.3098 33.3206 29.3926 33.412C29.4754 33.5035 29.5736 33.576 29.6818 33.6255C29.7899 33.675 29.9059 33.7004 30.0229 33.7004H38.8247C38.9418 33.7004 39.0577 33.675 39.1658 33.6255C39.274 33.576 39.3723 33.5035 39.455 33.412C39.5378 33.3206 39.6035 33.212 39.6483 33.0925C39.693 32.973 39.7161 32.8449 39.716 32.7156V22.9907C39.7161 22.8613 39.693 22.7333 39.6483 22.6138C39.6035 22.4943 39.5378 22.3857 39.455 22.2942C39.3723 22.2028 39.274 22.1302 39.1658 22.0808C39.0577 22.0313 38.9418 22.0058 38.8247 22.0059Z" fill="#CCCCCC"/>
<path d="M36.8423 29.2773L32.6866 30.1714C32.4401 30.2241 32.1847 30.1667 31.9765 30.0116C31.7683 29.8566 31.6243 29.6166 31.576 29.3444L31.2565 27.5319C31.2088 27.2595 31.2608 26.9774 31.4012 26.7474C31.5415 26.5173 31.7587 26.3582 32.0051 26.3048L36.1608 25.4107C36.4073 25.358 36.6627 25.4154 36.8709 25.5705C37.0791 25.7255 37.2231 25.9655 37.2714 26.2378L37.5908 28.0502C37.6386 28.3226 37.5865 28.6047 37.4462 28.8348C37.3059 29.0648 37.0887 29.2239 36.8423 29.2773Z" fill="#3F3D56"/>
<path d="M36.0109 27.1363L32.8394 27.8187C32.7814 27.8312 32.7213 27.8177 32.6723 27.7812C32.6233 27.7447 32.5894 27.6882 32.5781 27.6241C32.5668 27.56 32.579 27.4936 32.612 27.4394C32.6451 27.3853 32.6962 27.3478 32.7542 27.3354L35.9257 26.653C35.9837 26.6405 36.0438 26.654 36.0928 26.6905C36.1418 26.727 36.1757 26.7835 36.187 26.8476C36.1983 26.9117 36.1861 26.9781 36.1531 27.0322C36.12 27.0864 36.0689 27.1238 36.0109 27.1363Z" fill="white"/>
<path d="M35.3946 28.147L33.7542 28.5C33.6962 28.5125 33.6361 28.499 33.5871 28.4625C33.5381 28.426 33.5042 28.3695 33.4929 28.3054C33.4816 28.2413 33.4938 28.1749 33.5268 28.1207C33.5599 28.0666 33.611 28.0292 33.669 28.0167L35.3094 27.6637C35.3381 27.6575 35.3677 27.6577 35.3964 27.6641C35.425 27.6705 35.4523 27.6832 35.4766 27.7012C35.5008 27.7193 35.5216 27.7425 35.5378 27.7694C35.5539 27.7964 35.5651 27.8266 35.5707 27.8583C35.5763 27.8901 35.5762 27.9227 35.5704 27.9544C35.5646 27.9861 35.5532 28.0162 35.5368 28.043C35.5204 28.0698 35.4995 28.0928 35.4751 28.1106C35.4507 28.1285 35.4233 28.1409 35.3946 28.147Z" fill="white"/>
<path d="M39.716 22.9907V24.2832H29.1316V22.9907C29.1316 22.8613 29.1546 22.7333 29.1994 22.6138C29.2442 22.4943 29.3098 22.3857 29.3926 22.2942C29.4754 22.2028 29.5736 22.1302 29.6818 22.0808C29.7899 22.0313 29.9059 22.0058 30.0229 22.0059H38.8247C38.9418 22.0058 39.0577 22.0313 39.1658 22.0808C39.274 22.1302 39.3723 22.2028 39.455 22.2942C39.5378 22.3857 39.6035 22.4943 39.6482 22.6138C39.693 22.7333 39.7161 22.8613 39.716 22.9907Z" fill="#B3B3B3"/>
<path d="M60.8521 24.6878C60.791 24.4698 60.6874 24.2693 60.5486 24.1004C60.4098 23.9315 60.2391 23.7983 60.0487 23.7102C59.8582 23.622 59.6526 23.5811 59.4462 23.5902C59.2399 23.5994 59.0379 23.6584 58.8545 23.7631L46.7453 18.9629L46.2119 22.3052L58.2826 25.9727C58.4623 26.3016 58.7449 26.5462 59.0769 26.6602C59.4089 26.7742 59.7672 26.7496 60.0839 26.5913C60.4006 26.4329 60.6538 26.1516 60.7954 25.8008C60.937 25.45 60.9572 25.0539 60.8521 24.6878Z" fill="#FFB8B8"/>
<path opacity="0.2" d="M60.8521 24.6878C60.791 24.4698 60.6874 24.2693 60.5486 24.1004C60.4098 23.9315 60.2391 23.7983 60.0487 23.7102C59.8582 23.622 59.6526 23.5811 59.4462 23.5902C59.2399 23.5994 59.0379 23.6584 58.8545 23.7631L46.7453 18.9629L46.2119 22.3052L58.2826 25.9727C58.4623 26.3016 58.7449 26.5462 59.0769 26.6602C59.4089 26.7742 59.7672 26.7496 60.0839 26.5913C60.4006 26.4329 60.6538 26.1516 60.7954 25.8008C60.937 25.45 60.9572 25.0539 60.8521 24.6878Z" fill="black"/>
<path d="M48.8945 19.5722L47.7511 22.8728C47.7185 22.9668 47.668 23.0518 47.6031 23.1222C47.5381 23.1926 47.4601 23.2468 47.3745 23.2809C47.2889 23.315 47.1977 23.3284 47.107 23.32C47.0163 23.3117 46.9283 23.2818 46.849 23.2325L44.0699 21.5043C43.636 21.3176 43.2868 20.9485 43.0989 20.4778C42.9109 20.0071 42.8996 19.4733 43.0673 18.9933C43.235 18.5134 43.5681 18.1266 43.9936 17.9176C44.4191 17.7086 44.9022 17.6945 45.3371 17.8785L48.4404 18.6389C48.5292 18.6607 48.6128 18.7034 48.6853 18.7641C48.7579 18.8248 48.8178 18.9021 48.8609 18.9907C48.904 19.0792 48.9293 19.177 48.9351 19.2774C48.9409 19.3777 48.9271 19.4783 48.8945 19.5722Z" fill="#4ECDC4"/>
<path d="M61.8053 27.7441L57.4663 29.9232L58.036 32.2928C59.136 36.8686 59.428 41.6357 58.8958 46.3335L62.0682 47.0655L64.6979 39.6566L63.7775 31.2307L61.8053 27.7441Z" fill="#4ECDC4"/>
<path d="M70.3188 38.7119C67.468 38.7119 65.1447 41.0017 65.032 43.8691H75.6056C75.4929 41.0017 73.1697 38.7119 70.3188 38.7119Z" fill="#3F3D56"/>
<path d="M68.0997 39.2064C67.9513 26.2628 61.2794 27.4536 61.2794 27.4536C61.2794 27.4536 61.4042 31.4825 61.4642 31.6078C65.7158 40.4955 58.699 50.9152 49.7674 48.9983C49.599 48.9622 49.4372 48.9255 49.282 48.8883C48.1503 48.6273 47.1511 47.8997 46.4877 46.8536C45.8242 45.8075 45.5463 44.5215 45.7105 43.2571C46.5903 35.4507 42.2143 35.5889 42.2143 35.5889H35.8154L32.4924 32.2845C32.3751 32.1679 32.2337 32.0848 32.0806 32.0424C31.9275 32.0001 31.7674 31.9999 31.6142 32.0417C31.461 32.0836 31.3194 32.1663 31.2019 32.2826C31.0843 32.3989 30.9943 32.5452 30.9397 32.7088L30.5122 33.9909C30.5122 33.9909 24.201 34.7172 24.7269 41.5451H26.6781C26.6734 41.7391 26.6805 41.9332 26.6992 42.1262L41.2611 41.9954C42.1147 41.9877 42.8682 42.7519 42.8717 43.695C42.8726 43.9247 42.8315 44.1521 42.751 44.3638C42.6705 44.5754 42.5521 44.767 42.4031 44.927C42.254 45.087 42.0772 45.2121 41.8834 45.2948C41.6895 45.3776 41.4826 45.4163 41.2749 45.4087L38.9272 45.3222C38.204 48.8814 39.9791 51.2784 41.9349 52.7856C43.7763 54.1841 45.9614 54.9256 48.1958 54.9103H54.5737C62.8572 54.9103 64.3035 47.2108 64.3035 47.2108C68.6425 45.1769 68.0997 39.2064 68.0997 39.2064Z" fill="#3F3D56"/>
<path d="M69.9243 59.1226C74.009 59.1226 77.3202 55.464 77.3202 50.9509C77.3202 46.4379 74.009 42.7793 69.9243 42.7793C65.8396 42.7793 62.5283 46.4379 62.5283 50.9509C62.5283 55.464 65.8396 59.1226 69.9243 59.1226Z" fill="#3F3D56"/>
<path d="M69.9243 52.9539C70.9255 52.9539 71.737 52.0572 71.737 50.9511C71.737 49.845 70.9255 48.9482 69.9243 48.9482C68.9232 48.9482 68.1116 49.845 68.1116 50.9511C68.1116 52.0572 68.9232 52.9539 69.9243 52.9539Z" fill="white"/>
<path d="M32.5829 59.1225C37.2848 59.1225 41.0965 54.9111 41.0965 49.716C41.0965 44.521 37.2848 40.3096 32.5829 40.3096C27.881 40.3096 24.0693 44.521 24.0693 49.716C24.0693 54.9111 27.881 59.1225 32.5829 59.1225Z" fill="#3F3D56"/>
<path d="M32.583 52.0221C33.7354 52.0221 34.6697 50.9899 34.6697 49.7166C34.6697 48.4433 33.7354 47.4111 32.583 47.4111C31.4306 47.4111 30.4963 48.4433 30.4963 49.7166C30.4963 50.9899 31.4306 52.0221 32.583 52.0221Z" fill="white"/>
<path d="M57.4787 30.5668L55.9176 25.8818C55.8362 25.6376 55.7992 25.3781 55.8086 25.1182C55.818 24.8582 55.8736 24.6028 55.9724 24.3666C56.0711 24.1303 56.211 23.9179 56.384 23.7414C56.5571 23.5649 56.7599 23.4278 56.9809 23.338L61.4566 21.5175C61.8454 21.3593 62.2586 21.2873 62.6727 21.3055C63.0867 21.3238 63.4934 21.4319 63.8696 21.6238C64.2458 21.8158 64.5841 22.0877 64.8652 22.4241C65.1463 22.7604 65.3647 23.1547 65.5078 23.5843C65.6369 23.9699 65.7029 24.3778 65.7026 24.789C65.7009 25.311 65.594 25.8261 65.3895 26.2968C65.1851 26.7675 64.8884 27.1819 64.5208 27.51C64.2553 27.7453 63.9569 27.9312 63.6372 28.0604L57.4787 30.5668Z" fill="#3F3D56"/>
<path d="M65.6367 24.7894C65.6363 25.3009 65.5322 25.8057 65.3319 26.2668C65.1317 26.7278 64.8404 27.1335 64.4796 27.4538C63.9259 27.2924 63.4108 26.9998 62.9699 26.5962C62.5289 26.1927 62.1729 25.6879 61.9264 25.1169C61.6799 24.5459 61.5489 23.9225 61.5425 23.2899C61.5361 22.6574 61.6545 22.0309 61.8894 21.454C62.3404 21.3456 62.8076 21.3502 63.2567 21.4675C63.7059 21.5847 64.1256 21.8116 64.485 22.1315C64.8444 22.4514 65.1344 22.8562 65.3337 23.3162C65.533 23.7761 65.6365 24.2795 65.6367 24.7894Z" fill="#4ECDC4"/>
<path d="M25.8444 42.4891C26.8611 42.4891 27.6852 41.3834 27.6852 40.0195C27.6852 38.6555 26.8611 37.5498 25.8444 37.5498C24.8278 37.5498 24.0037 38.6555 24.0037 40.0195C24.0037 41.3834 24.8278 42.4891 25.8444 42.4891Z" fill="#4ECDC4"/>
<path d="M50.177 48.7618H51.789L52.556 44.1426L50.1768 44.1427L50.177 48.7618Z" fill="#FFB8B8"/>
<path d="M49.7659 48.1798L52.9404 48.1797H52.9405C53.2062 48.1797 53.4693 48.2375 53.7147 48.3498C53.9602 48.4622 54.1832 48.6268 54.371 48.8343C54.5589 49.0419 54.7079 49.2883 54.8096 49.5595C54.9113 49.8307 54.9636 50.1214 54.9636 50.4149V50.4875L49.766 50.4877L49.7659 48.1798Z" fill="#2F2E41"/>
<path d="M52.0481 46.8655C52.0293 46.8655 52.0105 46.8646 51.9915 46.8626L49.7607 46.6831C49.6705 46.6739 49.5834 46.6418 49.5062 46.5895C49.4289 46.5372 49.3636 46.466 49.3152 46.3813C49.2668 46.2967 49.2366 46.2009 49.227 46.1014C49.2174 46.0019 49.2287 45.9012 49.2599 45.8072L52.2454 38.3961C52.2667 38.3301 52.2754 38.2598 52.271 38.1899C52.2666 38.1199 52.249 38.0517 52.2196 37.9895C52.1902 37.9267 52.1491 37.8714 52.099 37.8273C52.0489 37.7833 51.9909 37.7514 51.9288 37.7339C50.525 37.3284 46.923 36.2488 43.8049 34.9856C42.4691 34.4444 41.6277 33.6623 41.3043 32.6609C40.8779 31.3409 41.5087 30.137 41.5358 30.0865L41.5569 30.0469L44.4909 30.3415L47.6717 30.6405L54.6421 34.7703C55.2261 35.1192 55.6698 35.6985 55.8847 36.3926C56.0996 37.0868 56.0699 37.8449 55.8016 38.516L52.588 46.4781C52.5415 46.5934 52.4658 46.6914 52.37 46.7601C52.2741 46.8289 52.1623 46.8655 52.0481 46.8655Z" fill="#2F2E41"/>
<path d="M45.0011 15.6791C46.7846 15.6791 48.2305 14.0816 48.2305 12.111C48.2305 10.1404 46.7846 8.54297 45.0011 8.54297C43.2176 8.54297 41.7717 10.1404 41.7717 12.111C41.7717 14.0816 43.2176 15.6791 45.0011 15.6791Z" fill="#FFB8B8"/>
<path d="M49.2566 49.1974H50.8686L51.6355 44.5781L49.2563 44.5783L49.2566 49.1974Z" fill="#FFB8B8"/>
<path d="M48.8455 48.6154L52.02 48.6152H52.0201C52.2858 48.6152 52.5489 48.673 52.7943 48.7854C53.0398 48.8977 53.2628 49.0623 53.4506 49.2699C53.6385 49.4775 53.7875 49.7239 53.8892 49.9951C53.9909 50.2663 54.0432 50.5569 54.0432 50.8504V50.9231L48.8456 50.9233L48.8455 48.6154Z" fill="#2F2E41"/>
<path d="M51.1277 47.3011C51.1089 47.3011 51.0901 47.3001 51.0711 47.2981L48.8403 47.1187C48.7501 47.1094 48.663 47.0774 48.5857 47.0251C48.5085 46.9728 48.4432 46.9015 48.3948 46.8169C48.3464 46.7323 48.3162 46.6365 48.3066 46.5369C48.297 46.4374 48.3083 46.3367 48.3394 46.2428L51.325 38.8317C51.3463 38.7656 51.355 38.6954 51.3506 38.6254C51.3461 38.5554 51.3286 38.4872 51.2992 38.4251C51.2698 38.3622 51.2287 38.3069 51.1786 38.2629C51.1285 38.2188 51.0705 38.187 51.0084 38.1694C49.6046 37.764 46.0026 36.6844 42.8845 35.4212C41.5487 34.8799 40.7073 34.0978 40.3839 33.0965C39.9574 31.7764 40.5883 30.5725 40.6153 30.522L40.6365 30.4824L43.5705 30.7771L46.7513 31.076L53.7217 35.2058C54.3057 35.5548 54.7494 36.134 54.9643 36.8282C55.1791 37.5224 55.1495 38.2805 54.8812 38.9516L51.6676 46.9137C51.6211 47.029 51.5454 47.1269 51.4495 47.1957C51.3537 47.2644 51.2419 47.3011 51.1277 47.3011Z" fill="#2F2E41"/>
<path d="M45.997 17.702L42.5784 16.3945C42.5784 16.3945 40.4323 18.2163 41.4633 22.7355C42.0015 25.0676 41.8447 27.5293 41.0162 29.7552C40.9165 30.0306 40.8015 30.2989 40.6719 30.5587C40.6719 30.5587 44.4849 35.6433 48.035 31.8662L46.6544 24.5298C46.6544 24.5298 48.8239 19.6632 45.997 17.702Z" fill="#4ECDC4"/>
<path d="M45.402 15.8005C44.9424 15.0404 44.5797 13.9864 45.0857 13.2632C45.5852 12.5493 46.5704 12.6545 47.3355 12.3386C48.401 11.8986 49.019 10.5155 48.8262 9.27685C48.6335 8.03819 47.7336 7.01139 46.6615 6.59125C45.5894 6.17112 44.3805 6.30776 43.3306 6.79157C42.0382 7.38715 40.9296 8.53925 40.4647 9.99866C39.9998 11.4581 40.2483 13.2104 41.2127 14.3321C42.2467 15.5347 43.8694 15.8552 45.3706 15.8358" fill="#2F2E41"/>
<path d="M42.398 9.31644C41.8189 9.83737 40.9352 9.606 40.3136 9.14881C39.6919 8.69163 39.1874 8.04063 38.5147 7.68218C37.3288 7.05025 35.8951 7.47034 34.7409 8.17031C33.5868 8.87029 32.5637 9.83733 31.3445 10.3866C30.1254 10.9359 28.5697 10.9631 27.6466 9.92588C27.4194 10.6531 27.4008 11.44 27.5934 12.1793C27.786 12.9187 28.1803 13.5743 28.7226 14.0569C29.2648 14.5394 29.9287 14.8254 30.6235 14.8757C31.3183 14.926 32.0102 14.7383 32.6048 14.338C33.9406 13.439 34.6785 11.5541 36.1767 11.0579C37.0058 10.7833 37.896 11.0044 38.734 11.244C39.5719 11.4835 40.4456 11.7423 41.2912 11.5384C42.1368 11.3345 42.9278 10.4949 42.8202 9.54602L42.398 9.31644Z" fill="#2F2E41"/>
<path d="M60.6914 24.5422C60.6064 24.3343 60.4812 24.1495 60.3246 24.0008C60.168 23.8521 59.9837 23.7431 59.7849 23.6816C59.586 23.6201 59.3774 23.6075 59.1737 23.6447C58.9699 23.6819 58.7761 23.768 58.6057 23.897L46.053 20.7842L45.897 24.1737L58.2849 26.1677C58.5 26.4695 58.8078 26.6737 59.1499 26.7416C59.4921 26.8094 59.845 26.7363 60.1416 26.5359C60.4382 26.3355 60.658 26.0219 60.7594 25.6545C60.8607 25.287 60.8365 24.8913 60.6914 24.5422Z" fill="#FFB8B8"/>
<path d="M48.2541 21.0955L47.4879 24.5268C47.4661 24.6245 47.4255 24.7158 47.3689 24.7945C47.3123 24.8732 47.241 24.9376 47.1598 24.9831C47.0787 25.0287 46.9896 25.0543 46.8987 25.0584C46.8077 25.0625 46.7171 25.0449 46.6329 25.0067L43.682 23.6706C43.2303 23.5448 42.8422 23.2261 42.6029 22.7845C42.3636 22.343 42.2926 21.8145 42.4055 21.3152C42.5184 20.8158 42.806 20.3863 43.2051 20.121C43.6043 19.8556 44.0824 19.776 44.5346 19.8997L47.6991 20.2313C47.7897 20.2408 47.8774 20.2718 47.9562 20.3222C48.035 20.3725 48.103 20.441 48.1557 20.523C48.2084 20.6051 48.2444 20.6986 48.2614 20.7974C48.2783 20.8962 48.2758 20.9979 48.2541 21.0955Z" fill="#4ECDC4"/>
<path d="M59.2414 27.235C59.7497 27.235 60.1618 26.7797 60.1618 26.2181C60.1618 25.6565 59.7497 25.2012 59.2414 25.2012C58.7331 25.2012 58.321 25.6565 58.321 26.2181C58.321 26.7797 58.7331 27.235 59.2414 27.235Z" fill="#4ECDC4"/>
<path d="M100 59.1951C99.9999 59.2336 99.986 59.2705 99.9614 59.2977C99.9367 59.3249 99.9034 59.3402 99.8685 59.3404H-8.86852C-8.90339 59.3404 -8.93683 59.325 -8.96149 59.2978C-8.98615 59.2706 -9 59.2336 -9 59.1951C-9 59.1565 -8.98615 59.1196 -8.96149 59.0924C-8.93683 59.0651 -8.90339 59.0498 -8.86852 59.0498H99.8685C99.9034 59.0499 99.9367 59.0653 99.9614 59.0925C99.986 59.1197 99.9999 59.1566 100 59.1951Z" fill="#3F3D56"/>
</g>
</g>
<defs>
<clipPath id="clip0_535_160">
<rect width="90" height="59.3407" fill="white"/>
</clipPath>
<clipPath id="clip1_535_160">
<rect width="109" height="53" fill="white" transform="translate(-9 6.34082)"/>
</clipPath>
</defs>
</svg>
