<svg width="90" height="60" viewBox="0 0 90 60" fill="none" xmlns="http://www.w3.org/2000/svg">
<g clip-path="url(#clip0_535_608)">
<g clip-path="url(#clip1_535_608)">
<path d="M46.583 55.3291L33.1778 31.167C33.174 31.1079 33.1557 31.0506 33.1245 31.0002C33.0933 30.9499 33.0502 30.9079 32.9989 30.8782C32.9401 30.8445 32.8729 30.8283 32.8052 30.8314C32.8031 30.8313 32.8009 30.8314 32.7987 30.8313C32.7965 30.8314 32.7943 30.8313 32.7922 30.8314C32.7005 30.8272 32.6107 30.8585 32.5415 30.9189C32.4724 30.9792 32.4293 31.064 32.4212 31.1555L18.2137 55.3291C18.19 55.3701 18.1746 55.4153 18.1684 55.4623C18.1622 55.5092 18.1653 55.5569 18.1775 55.6026C18.1898 55.6483 18.2109 55.6911 18.2397 55.7287C18.2685 55.7662 18.3044 55.7977 18.3454 55.8214C18.3864 55.845 18.4317 55.8604 18.4786 55.8666C18.5255 55.8727 18.5732 55.8696 18.6189 55.8573C18.6647 55.8451 18.7075 55.8239 18.7451 55.7951C18.7826 55.7663 18.8141 55.7304 18.8377 55.6894L32.7891 31.9516L45.9589 55.6894C45.9826 55.7304 46.0141 55.7663 46.0516 55.7951C46.0892 55.8239 46.132 55.8451 46.1777 55.8573C46.2235 55.8696 46.2711 55.8727 46.3181 55.8666C46.365 55.8604 46.4103 55.845 46.4513 55.8214C46.4922 55.7977 46.5282 55.7662 46.557 55.7287C46.5858 55.6911 46.6069 55.6483 46.6192 55.6026C46.6314 55.5569 46.6345 55.5092 46.6283 55.4623C46.6221 55.4153 46.6067 55.3701 46.583 55.3291Z" fill="#3F3D56"/>
<path d="M30.5775 51.1837L32.0927 50.8361L31.4729 44.8281L29.2366 45.341L30.5775 51.1837Z" fill="#FFB6B6"/>
<path d="M31.749 48.2807L29.5927 48.7752L28.9033 47.4282L28.8642 47.3805C28.5584 47.0052 28.3886 46.5374 28.3826 46.0534L26.5903 41.3138L26.4438 41.2442C26.3304 41.1903 26.2299 41.1128 26.1488 41.017C26.0678 40.9211 26.0081 40.8091 25.9739 40.6883C25.9396 40.5676 25.9315 40.4409 25.95 40.3168C25.9686 40.1927 26.0135 40.074 26.0816 39.9685L25.8919 39.4668L20.538 39.4767L20.5327 39.4751L13.9583 37.6315L14.6486 33.5176L16.4979 34.6806C17.1073 34.641 27.5464 34.0003 28.5108 36.3391C29.3696 38.4218 30.6071 41.98 31.4941 44.5982C31.5383 44.7157 31.5933 44.8289 31.6583 44.9364C31.7963 45.1489 31.8772 45.3932 31.8934 45.646C31.9039 45.756 31.9249 45.8647 31.9561 45.9707C32.3247 47.0724 31.7631 48.2517 31.7574 48.2635L31.749 48.2807Z" fill="#2F2E41"/>
<path d="M30.0657 50.6808L30.5583 50.5678L32.3022 49.3447L33.5125 49.8902L33.5126 49.8901C34.0952 49.7566 34.707 49.8598 35.2134 50.1771C35.7198 50.4945 36.0794 50.9999 36.2131 51.5823L36.2295 51.6537L30.5861 52.9481L30.0657 50.6808Z" fill="#2F2E41"/>
<path d="M7.69387 50.8164C7.84792 49.14 8.83013 47.4617 10.4055 46.8672C9.83253 48.6059 9.89324 50.4912 10.5769 52.1895C10.8429 52.8435 11.2069 53.5432 10.9981 54.2176C10.8682 54.6373 10.528 54.9661 10.1426 55.1772C9.75729 55.3884 9.3256 55.497 8.89929 55.6035L8.81705 55.6761C8.08613 54.1595 7.53982 52.4927 7.69387 50.8164Z" fill="#F0F0F0"/>
<path d="M10.4223 46.8982C9.52809 47.967 8.9935 49.2903 8.89444 50.6802C8.86781 50.979 8.88845 51.2801 8.95562 51.5725C9.03025 51.8552 9.17925 52.1128 9.38714 52.3185C9.57712 52.5142 9.79412 52.6923 9.93322 52.9308C10.0026 53.0539 10.0452 53.1902 10.0581 53.3309C10.0711 53.4716 10.0542 53.6135 10.0085 53.7472C9.90322 54.0833 9.68345 54.3616 9.45907 54.6263C9.20993 54.9201 8.94651 55.2214 8.84887 55.6035C8.83704 55.6498 8.76587 55.6287 8.77768 55.5825C8.94756 54.9177 9.57509 54.523 9.86104 53.92C9.99446 53.6386 10.0439 53.3153 9.90106 53.0274C9.77618 52.7756 9.55257 52.5917 9.35849 52.3953C9.15275 52.1976 8.99855 51.9526 8.90937 51.6816C8.82753 51.3936 8.79531 51.0937 8.8141 50.7949C8.84567 50.1214 8.98297 49.4571 9.22095 48.8263C9.48857 48.1048 9.87767 47.4344 10.3714 46.8441C10.402 46.8076 10.4527 46.8619 10.4223 46.8982Z" fill="white"/>
<path d="M8.89997 50.2309C8.66898 50.1826 8.46267 50.0539 8.31788 49.8676C8.1731 49.6813 8.09928 49.4496 8.10959 49.2139C8.1101 49.2043 8.11432 49.1952 8.12137 49.1887C8.12841 49.1821 8.13772 49.1785 8.14734 49.1787C8.15696 49.1789 8.16615 49.1828 8.17295 49.1896C8.17975 49.1964 8.18365 49.2056 8.18382 49.2152C8.1738 49.4347 8.24259 49.6505 8.37777 49.8237C8.51295 49.9969 8.7056 50.1161 8.92097 50.1598C8.96776 50.1693 8.94649 50.2404 8.89997 50.2309Z" fill="white"/>
<path d="M9.27768 52.2321C9.68372 51.9717 9.97666 51.5678 10.0981 51.1011C10.1101 51.0549 10.1813 51.0759 10.1693 51.1221C10.042 51.6076 9.7363 52.0272 9.31318 52.2972C9.27283 52.323 9.23756 52.2577 9.27768 52.2321Z" fill="white"/>
<path d="M9.55953 48.1724C9.64502 48.2097 9.73843 48.2251 9.83138 48.2174C9.92433 48.2097 10.0139 48.179 10.0921 48.1282C10.1321 48.1019 10.1673 48.1673 10.1276 48.1933C10.0409 48.2491 9.94197 48.2829 9.83929 48.2916C9.73661 48.3004 9.63336 48.2839 9.53854 48.2435C9.52928 48.2405 9.52154 48.234 9.51688 48.2254C9.51222 48.2169 9.51099 48.2069 9.51344 48.1974C9.51627 48.188 9.5227 48.1801 9.53133 48.1754C9.53996 48.1707 9.55009 48.1696 9.55953 48.1724Z" fill="white"/>
<path d="M15.3563 49.6929C15.3318 49.71 15.3073 49.7271 15.2827 49.7448C14.9544 49.9761 14.6454 50.2336 14.3587 50.515C14.3362 50.5364 14.3137 50.5584 14.2919 50.5804C13.6085 51.2655 13.0584 52.0715 12.6693 52.9574C12.5149 53.3101 12.3874 53.674 12.2882 54.046C12.1512 54.5598 12.0435 55.1277 11.7532 55.5536C11.7234 55.5984 11.6909 55.6413 11.6558 55.6821L8.91189 55.7702C8.90555 55.7672 8.89921 55.7649 8.89284 55.762L8.78345 55.7705C8.78723 55.751 8.79156 55.7308 8.79534 55.7113C8.79749 55.6999 8.80024 55.6885 8.80239 55.6772C8.80401 55.6696 8.80567 55.6621 8.8067 55.6551C8.80723 55.6526 8.80779 55.6501 8.80834 55.6482C8.80937 55.6413 8.81106 55.6349 8.81212 55.6286C8.83606 55.5157 8.86084 55.4028 8.88645 55.2898C8.88643 55.2892 8.88643 55.2892 8.88703 55.2886C9.07396 54.4259 9.3626 53.5885 9.74688 52.7938C9.75867 52.7702 9.77041 52.7461 9.78345 52.7225C9.96191 52.3704 10.1689 52.0335 10.4022 51.7152C10.5306 51.5413 10.6676 51.374 10.8129 51.214C11.189 50.8012 11.6278 50.4501 12.113 50.1736C13.0805 49.6225 14.2134 49.3869 15.2754 49.6705C15.3025 49.6777 15.3291 49.685 15.3563 49.6929Z" fill="#F0F0F0"/>
<path d="M15.3512 49.7282C13.9936 50.0433 12.7698 50.7781 11.8537 51.8282C11.6524 52.0508 11.4876 52.3037 11.3651 52.5776C11.2544 52.8482 11.2183 53.1436 11.2604 53.4329C11.2942 53.7035 11.3602 53.9764 11.3277 54.2505C11.3089 54.3905 11.2608 54.525 11.1864 54.6452C11.112 54.7653 11.0131 54.8684 10.8961 54.9476C10.6096 55.1527 10.2665 55.2426 9.92799 55.3188C9.55211 55.4035 9.16034 55.4855 8.85226 55.7318C8.81494 55.7616 8.7708 55.702 8.80807 55.6722C9.34406 55.2437 10.0828 55.3063 10.6743 54.9969C10.9503 54.8525 11.1844 54.6241 11.2438 54.3083C11.2957 54.0321 11.2279 53.7507 11.1913 53.477C11.1461 53.1953 11.1705 52.9069 11.2625 52.6368C11.3706 52.3576 11.5255 52.0988 11.7205 51.8715C12.1512 51.3528 12.6609 50.905 13.2309 50.5446C13.879 50.1296 14.5934 49.8285 15.3432 49.6544C15.3896 49.6436 15.3973 49.7175 15.3512 49.7282Z" fill="white"/>
<path d="M12.1288 51.4732C11.9735 51.2956 11.8863 51.0686 11.8829 50.8327C11.8795 50.5968 11.9601 50.3674 12.1103 50.1854C12.1408 50.1487 12.1993 50.1944 12.1688 50.2311C12.0286 50.4003 11.9535 50.6141 11.9572 50.8337C11.9608 51.0534 12.0428 51.2645 12.1885 51.429C12.2201 51.4648 12.1603 51.5088 12.1288 51.4732Z" fill="white"/>
<path d="M11.2252 53.2982C11.7062 53.3346 12.1833 53.1885 12.5614 52.8889C12.5988 52.8592 12.643 52.9189 12.6056 52.9485C12.2116 53.2596 11.7148 53.4106 11.2143 53.3715C11.1666 53.3678 11.1778 53.2944 11.2252 53.2982Z" fill="white"/>
<path d="M13.8948 50.2268C13.9406 50.3081 14.0059 50.3767 14.0847 50.4265C14.1636 50.4762 14.2536 50.5057 14.3466 50.5121C14.3944 50.5152 14.3831 50.5886 14.3357 50.5855C14.233 50.5779 14.1336 50.5453 14.0464 50.4905C13.9591 50.4357 13.8866 50.3603 13.8352 50.271C13.8296 50.263 13.8274 50.2532 13.8288 50.2436C13.8302 50.2339 13.8353 50.2252 13.8429 50.2191C13.8508 50.2133 13.8607 50.2109 13.8704 50.2123C13.8802 50.2138 13.8889 50.219 13.8948 50.2268Z" fill="white"/>
<path d="M52.5867 50.8164C52.4326 49.14 51.4504 47.4617 49.875 46.8672C50.448 48.6059 50.3873 50.4912 49.7037 52.1895C49.4376 52.8435 49.0736 53.5432 49.2824 54.2176C49.4123 54.6373 49.7526 54.9661 50.1379 55.1772C50.5232 55.3884 50.9549 55.497 51.3812 55.6035L51.4635 55.6761C52.1944 54.1595 52.7407 52.4927 52.5867 50.8164Z" fill="#F0F0F0"/>
<path d="M49.8582 46.8982C50.7524 47.967 51.287 49.2903 51.3861 50.6802C51.4127 50.979 51.3921 51.2801 51.3249 51.5725C51.2503 51.8552 51.1013 52.1128 50.8934 52.3185C50.7034 52.5142 50.4864 52.6923 50.3473 52.9308C50.2779 53.0539 50.2353 53.1902 50.2224 53.3309C50.2094 53.4716 50.2263 53.6135 50.2721 53.7472C50.3773 54.0833 50.5971 54.3616 50.8215 54.6263C51.0706 54.9201 51.334 55.2214 51.4316 55.6035C51.4435 55.6498 51.5146 55.6287 51.5028 55.5825C51.333 54.9177 50.7054 54.523 50.4195 53.92C50.2861 53.6386 50.2366 53.3153 50.3795 53.0274C50.5043 52.7756 50.7279 52.5917 50.922 52.3953C51.1278 52.1976 51.282 51.9526 51.3711 51.6816C51.453 51.3936 51.4852 51.0937 51.4664 50.7949C51.4348 50.1214 51.2976 49.4571 51.0596 48.8263C50.7919 48.1048 50.4028 47.4344 49.9091 46.8441C49.8785 46.8076 49.8279 46.8619 49.8582 46.8982Z" fill="white"/>
<path d="M51.3807 50.2309C51.6117 50.1827 51.818 50.0539 51.9628 49.8676C52.1076 49.6813 52.1814 49.4496 52.1711 49.2139C52.1706 49.2043 52.1664 49.1952 52.1593 49.1887C52.1523 49.1821 52.143 49.1785 52.1334 49.1787C52.1237 49.1789 52.1145 49.1828 52.1077 49.1896C52.1009 49.1964 52.097 49.2056 52.0969 49.2152C52.1069 49.4347 52.0381 49.6505 51.9029 49.8237C51.7677 49.9969 51.5751 50.1161 51.3597 50.1598C51.3129 50.1693 51.3342 50.2404 51.3807 50.2309Z" fill="white"/>
<path d="M51.0028 52.2321C50.5968 51.9717 50.3038 51.5678 50.1824 51.1011C50.1704 51.0549 50.0992 51.0759 50.1112 51.1221C50.2385 51.6076 50.5442 52.0272 50.9673 52.2972C51.0077 52.323 51.0429 52.2577 51.0028 52.2321Z" fill="white"/>
<path d="M50.721 48.1724C50.6355 48.2097 50.5421 48.2251 50.4491 48.2174C50.3562 48.2097 50.2666 48.179 50.1884 48.1282C50.1484 48.1019 50.1132 48.1673 50.1529 48.1933C50.2396 48.2491 50.3385 48.2829 50.4412 48.2916C50.5439 48.3004 50.6471 48.2839 50.742 48.2435C50.7512 48.2405 50.759 48.234 50.7636 48.2254C50.7683 48.2169 50.7695 48.2069 50.767 48.1974C50.7642 48.188 50.7578 48.1801 50.7492 48.1754C50.7405 48.1707 50.7304 48.1696 50.721 48.1724Z" fill="white"/>
<path d="M44.9243 49.6929C44.9488 49.71 44.9733 49.7271 44.9979 49.7448C45.3262 49.9761 45.6352 50.2336 45.9219 50.515C45.9444 50.5364 45.9669 50.5584 45.9887 50.5804C46.6721 51.2655 47.2222 52.0715 47.6113 52.9574C47.7657 53.3101 47.8932 53.674 47.9924 54.046C48.1295 54.5598 48.2372 55.1277 48.5274 55.5536C48.5572 55.5984 48.5897 55.6413 48.6248 55.6821L51.3687 55.7702C51.3751 55.7672 51.3814 55.7649 51.3878 55.762L51.4972 55.7705C51.4934 55.751 51.489 55.7308 51.4853 55.7113C51.4831 55.6999 51.4804 55.6885 51.4782 55.6772C51.4766 55.6696 51.4749 55.6621 51.4739 55.6551C51.4734 55.6526 51.4728 55.6501 51.4723 55.6482C51.4712 55.6413 51.4695 55.6349 51.4685 55.6287C51.4445 55.5157 51.4198 55.4028 51.3942 55.2898C51.3942 55.2892 51.3942 55.2892 51.3936 55.2886C51.2067 54.4259 50.918 53.5885 50.5337 52.7938C50.5219 52.7702 50.5102 52.7461 50.4972 52.7225C50.3187 52.3704 50.1118 52.0336 49.8784 51.7152C49.7501 51.5413 49.613 51.374 49.4677 51.214C49.0916 50.8012 48.6529 50.4501 48.1676 50.1736C47.2002 49.6225 46.0672 49.3869 45.0052 49.6705C44.9781 49.6777 44.9515 49.685 44.9243 49.6929Z" fill="#F0F0F0"/>
<path d="M44.9293 49.7282C46.287 50.0433 47.5108 50.7781 48.4269 51.8282C48.6281 52.0508 48.793 52.3037 48.9155 52.5776C49.0261 52.8482 49.0623 53.1436 49.0202 53.4329C48.9863 53.7035 48.9204 53.9764 48.9529 54.2504C48.9716 54.3905 49.0198 54.525 49.0941 54.6452C49.1685 54.7653 49.2675 54.8684 49.3845 54.9476C49.671 55.1527 50.014 55.2426 50.3526 55.3188C50.7285 55.4035 51.1202 55.4855 51.4283 55.7318C51.4656 55.7616 51.5098 55.702 51.4725 55.6722C50.9365 55.2436 50.1978 55.3062 49.6063 54.9969C49.3303 54.8525 49.0961 54.6241 49.0368 54.3083C48.9849 54.0321 49.0526 53.7506 49.0893 53.477C49.1345 53.1953 49.1101 52.9069 49.0181 52.6368C48.91 52.3576 48.7551 52.0988 48.5601 51.8715C48.1293 51.3528 47.6196 50.905 47.0497 50.5446C46.4015 50.1296 45.6871 49.8285 44.9374 49.6544C44.891 49.6436 44.8832 49.7175 44.9293 49.7282Z" fill="white"/>
<path d="M48.1518 51.4732C48.3072 51.2956 48.3944 51.0686 48.3978 50.8327C48.4012 50.5968 48.3206 50.3674 48.1704 50.1854C48.1399 50.1487 48.0814 50.1944 48.1119 50.2311C48.2521 50.4003 48.3271 50.6141 48.3235 50.8337C48.3199 51.0534 48.2379 51.2645 48.0922 51.429C48.0606 51.4648 48.1204 51.5088 48.1518 51.4732Z" fill="white"/>
<path d="M49.0555 53.2982C48.5744 53.3346 48.0973 53.1885 47.7193 52.8889C47.6818 52.8592 47.6377 52.9189 47.6751 52.9485C48.0691 53.2596 48.5659 53.4106 49.0664 53.3715C49.1141 53.3678 49.1029 53.2944 49.0555 53.2982Z" fill="white"/>
<path d="M46.3856 50.2268C46.3398 50.3081 46.2745 50.3767 46.1957 50.4265C46.1168 50.4762 46.0268 50.5057 45.9338 50.5121C45.8861 50.5152 45.8973 50.5886 45.9447 50.5855C46.0475 50.5779 46.1468 50.5453 46.2341 50.4905C46.3213 50.4357 46.3938 50.3603 46.4452 50.271C46.4508 50.263 46.4531 50.2532 46.4516 50.2436C46.4502 50.2339 46.4451 50.2252 46.4375 50.2191C46.4296 50.2133 46.4197 50.2109 46.41 50.2123C46.4002 50.2138 46.3915 50.219 46.3856 50.2268Z" fill="white"/>
<path d="M71.5596 55.9048C71.5595 55.9301 71.5495 55.9543 71.5316 55.9721C71.5138 55.99 71.4896 56 71.4643 56.0001H0.095287C0.0700154 56.0001 0.0457785 55.9901 0.0279087 55.9722C0.010039 55.9543 0 55.9301 0 55.9048C0 55.8796 0.010039 55.8553 0.0279087 55.8375C0.0457785 55.8196 0.0700154 55.8096 0.095287 55.8096H71.4643C71.4896 55.8096 71.5138 55.8197 71.5316 55.8375C71.5495 55.8554 71.5595 55.8796 71.5596 55.9048Z" fill="#3F3D56"/>
<path d="M45.9709 19.0544C46.1699 19.0544 46.3313 18.8932 46.3313 18.6942C46.3313 18.4953 46.1699 18.334 45.9709 18.334C45.7719 18.334 45.6106 18.4953 45.6106 18.6942C45.6106 18.8932 45.7719 19.0544 45.9709 19.0544Z" fill="#3F3D56"/>
<path d="M41.4588 21.4693L46.3166 18.4182C46.3605 18.3906 46.4096 18.3722 46.4609 18.3641C46.5121 18.356 46.5645 18.3583 46.6148 18.371C46.6651 18.3837 46.7124 18.4065 46.7537 18.4379C46.7949 18.4694 46.8294 18.5089 46.855 18.554C46.8806 18.5991 46.8968 18.649 46.9025 18.7006C46.9083 18.7521 46.9036 18.8043 46.8886 18.854C46.8737 18.9037 46.8488 18.9498 46.8155 18.9896C46.7822 19.0294 46.7412 19.062 46.6949 19.0856L41.5807 21.6844C41.5523 21.6988 41.5195 21.7017 41.489 21.6926C41.4585 21.6834 41.4327 21.6628 41.417 21.6351C41.4013 21.6074 41.3968 21.5747 41.4046 21.5438C41.4124 21.5129 41.4318 21.4862 41.4588 21.4693Z" fill="#E4E4E4"/>
<path d="M31.7131 28.0388C31.6748 27.982 31.6548 27.9148 31.6558 27.8462C31.6568 27.7777 31.6787 27.7111 31.7186 27.6554C31.8008 27.5453 31.9103 27.4586 32.0362 27.4036C32.2961 27.2714 32.5761 27.1829 32.8648 27.1418C33.0842 27.1107 33.3238 27.1007 33.494 26.9588C33.663 26.8179 33.7573 26.5543 33.9764 26.5323C34.1882 26.511 34.351 26.7428 34.5634 26.7572C34.8252 26.7749 34.9966 26.4686 35.2513 26.4058C35.4218 26.3637 35.5972 26.4379 35.7571 26.5105L36.717 26.9458L37.2089 27.1689C37.3808 27.2469 37.5746 27.3518 37.607 27.5377C37.6516 27.793 37.3676 27.9732 37.1247 28.0639C35.3902 28.7038 33.4843 28.704 31.7498 28.0645" fill="#4ECDC4"/>
<path d="M33.1591 32.7429C40.1242 32.7429 45.7706 31.9365 45.7706 30.9418C45.7706 29.947 40.1242 29.1406 33.1591 29.1406C26.194 29.1406 20.5476 29.947 20.5476 30.9418C20.5476 31.9365 26.194 32.7429 33.1591 32.7429Z" fill="#3F3D56"/>
<path d="M58.7426 42.1094H50.0947C49.6967 42.1094 49.374 42.4319 49.374 42.8298C49.374 43.2277 49.6967 43.5503 50.0947 43.5503H58.7426C59.1406 43.5503 59.4632 43.2277 59.4632 42.8298C59.4632 42.4319 59.1406 42.1094 58.7426 42.1094Z" fill="#3F3D56"/>
<path d="M62.9334 29.2642L60.0772 42.8287L60.8211 46.3005L62.2255 52.8526V55.7977C62.2257 55.8017 62.2254 55.8057 62.2248 55.8097C62.2243 55.8748 62.2123 55.9392 62.1895 56.0002H61.0605C61.0377 55.9392 61.0257 55.8748 61.0252 55.8097C61.0246 55.8057 61.0243 55.8017 61.0245 55.7977V52.9791L59.7497 47.0322L59.4919 45.8314L58.993 43.5044L58.8489 42.8303V42.8295L58.9914 42.1539L59.1011 41.6328L61.7579 29.0177C61.7741 28.9405 61.8053 28.8672 61.8497 28.802C61.8942 28.7368 61.9511 28.6811 62.0171 28.6379C62.0832 28.5947 62.1571 28.565 62.2346 28.5504C62.3122 28.5358 62.3919 28.5366 62.4691 28.5528C62.5463 28.569 62.6196 28.6003 62.6847 28.6448C62.7499 28.6893 62.8056 28.7463 62.8487 28.8123C62.8918 28.8784 62.9215 28.9523 62.936 29.0299C62.9506 29.1074 62.9497 29.187 62.9334 29.2642Z" fill="#3F3D56"/>
<path d="M50.695 42.8289V55.797C50.6952 55.801 50.6949 55.8051 50.6942 55.809C50.6937 55.8741 50.6818 55.9386 50.659 55.9995H49.53C49.5071 55.9386 49.4952 55.8741 49.4947 55.809C49.4941 55.8051 49.4938 55.801 49.4939 55.797V42.8289C49.4939 42.6697 49.5572 42.517 49.6698 42.4044C49.7824 42.2918 49.9352 42.2285 50.0945 42.2285C50.2538 42.2285 50.4065 42.2918 50.5191 42.4044C50.6317 42.517 50.695 42.6697 50.695 42.8289Z" fill="#3F3D56"/>
<path d="M51.536 40.668H57.3012C57.8746 40.668 58.4245 40.8957 58.83 41.301C59.2354 41.7063 59.4632 42.2561 59.4632 42.8293H49.374C49.374 42.2561 49.6018 41.7063 50.0072 41.301C50.4127 40.8957 50.9626 40.668 51.536 40.668Z" fill="#3F3D56"/>
<path d="M60.1839 47.0318H50.0947C49.9354 47.0318 49.7827 46.9686 49.67 46.856C49.5574 46.7434 49.4941 46.5907 49.4941 46.4314C49.4941 46.2722 49.5574 46.1195 49.67 46.0069C49.7827 45.8943 49.9354 45.8311 50.0947 45.8311H60.1839C60.3432 45.8311 60.4959 45.8943 60.6085 46.0069C60.7212 46.1195 60.7844 46.2722 60.7844 46.4314C60.7844 46.5907 60.7212 46.7434 60.6085 46.856C60.4959 46.9686 60.3432 47.0318 60.1839 47.0318Z" fill="#3F3D56"/>
<path d="M13.2537 43.5713H23.4302C23.8282 43.5713 24.1509 43.2487 24.1509 42.8508V42.6325C24.1509 42.2346 23.8282 41.9121 23.4302 41.9121H13.2537C12.8557 41.9121 12.533 42.2346 12.533 42.6325V42.8508C12.533 43.2487 12.8557 43.5713 13.2537 43.5713Z" fill="#3F3D56"/>
<path d="M13.149 42.7518L12.9648 43.5107L12.289 46.29L11.9975 47.4908L10.6443 53.0606V55.4774C10.6446 55.5957 10.6095 55.7114 10.5434 55.8096C10.4914 55.889 10.4208 55.9544 10.3376 56.0001H9.74987C9.66672 55.9544 9.59606 55.889 9.5441 55.8096C9.47799 55.7114 9.44284 55.5957 9.44318 55.4774V52.9166L10.947 46.7287L11.9175 42.7326L8.62646 27.1028C8.61018 27.0256 8.60926 26.946 8.62376 26.8685C8.63826 26.791 8.6679 26.7172 8.71099 26.6511C8.75407 26.5851 8.80975 26.5282 8.87484 26.4837C8.93994 26.4392 9.01317 26.4079 9.09035 26.3917C9.16754 26.3755 9.24716 26.3747 9.32466 26.3893C9.40217 26.4038 9.47603 26.4335 9.54205 26.4767C9.60806 26.5198 9.66492 26.5756 9.70937 26.6407C9.75383 26.7058 9.78501 26.779 9.80113 26.8562L12.8431 41.2997L12.9832 41.9657L13.1466 42.7422L13.149 42.7518Z" fill="#3F3D56"/>
<path d="M23.922 42.742V55.4772C23.9224 55.5955 23.8873 55.7112 23.8211 55.8094C23.7692 55.8887 23.6985 55.9542 23.6154 55.9999H23.0268C22.9441 55.9539 22.8737 55.8885 22.8218 55.8094C22.7557 55.7112 22.7206 55.5955 22.7209 55.4772V42.742C22.7209 42.5827 22.7842 42.43 22.8968 42.3174C23.0095 42.2049 23.1622 42.1416 23.3215 42.1416C23.4808 42.1416 23.6335 42.2049 23.7461 42.3174C23.8588 42.43 23.922 42.5827 23.922 42.742Z" fill="#3F3D56"/>
<path d="M24.1509 42.7422H12.533V42.4147C12.533 42.1309 12.5889 41.8498 12.6976 41.5876C12.8062 41.3254 12.9655 41.0871 13.1662 40.8864C13.367 40.6857 13.6053 40.5265 13.8676 40.4179C14.1299 40.3093 14.4111 40.2534 14.695 40.2534H21.9889C22.5623 40.2534 23.1122 40.4811 23.5177 40.8864C23.9231 41.2917 24.1509 41.8415 24.1509 42.4147L24.1509 42.7422Z" fill="#3F3D56"/>
<path d="M23.3212 47.4908H11.7033C11.5441 47.4908 11.3913 47.4275 11.2787 47.3149C11.1661 47.2024 11.1028 47.0496 11.1028 46.8904C11.1028 46.7312 11.1661 46.5785 11.2787 46.4659C11.3913 46.3533 11.5441 46.29 11.7033 46.29H23.3212C23.4805 46.29 23.6332 46.3533 23.7459 46.4659C23.8585 46.5785 23.9218 46.7312 23.9218 46.8904C23.9218 47.0496 23.8585 47.2024 23.7459 47.3149C23.6332 47.4275 23.4805 47.4908 23.3212 47.4908Z" fill="#3F3D56"/>
<path d="M38.2519 52.7275L36.9897 52.124L38.7236 46.8496L40.5865 47.7402L38.2519 52.7275Z" fill="#9E616A"/>
<path d="M46.8059 52.2498L45.4487 52.5846L43.4822 47.3936L45.4854 46.8994L46.8059 52.2498Z" fill="#9E616A"/>
<path d="M41.6038 29.8021C41.7839 30.0944 42.0711 30.3048 42.4041 30.3883C42.7371 30.4718 43.0897 30.4219 43.3864 30.2492C43.4461 30.2131 43.5026 30.1721 43.5555 30.1267L47.5461 32.4161L47.3728 30.0659L43.6098 28.2522C43.4051 28.0465 43.1379 27.9147 42.8501 27.8772C42.5623 27.8397 42.2702 27.8988 42.0196 28.0451C41.8753 28.1317 41.7498 28.2463 41.6505 28.3821C41.5512 28.518 41.4801 28.6723 41.4414 28.836C41.4026 28.9997 41.397 29.1696 41.4249 29.3355C41.4528 29.5014 41.5137 29.6601 41.6038 29.8021Z" fill="#9E616A"/>
<path d="M45.8306 31.554L46.536 31.9838L49.704 33.9151C49.9121 34.0452 50.1438 34.1331 50.3859 34.1737C50.6279 34.2143 50.8757 34.2067 51.1148 34.1516C51.354 34.0964 51.58 33.9946 51.7798 33.852C51.9796 33.7095 52.1493 33.529 52.2793 33.3208C52.5139 32.9345 52.5968 32.4749 52.5123 32.0309L51.1042 24.9984C51.0522 24.7223 50.9412 24.4607 50.7787 24.2315C50.6163 24.0022 50.4062 23.8108 50.1629 23.6702C49.9196 23.5296 49.6489 23.4431 49.3691 23.4168C49.0893 23.3905 48.8071 23.4248 48.5419 23.5175C48.096 23.6742 47.7266 23.9947 47.5087 24.414C47.2909 24.8333 47.241 25.3198 47.3693 25.7746L48.8416 30.7655L46.5848 29.7136L45.8306 31.554Z" fill="#E6E6E6"/>
<path d="M44.1626 50.7951L41.9907 46.4404L41.991 46.4305L42.2054 38.4433C42.2081 38.3723 42.2139 38.301 42.2225 38.2308C42.2604 37.9105 42.3617 37.601 42.5204 37.3203C42.6792 37.0395 42.8923 36.7932 43.1472 36.5957C43.3914 36.4047 43.6712 36.2642 43.9703 36.1824C44.2693 36.1007 44.5817 36.0792 44.8891 36.1194L51.0996 36.9229L51.3149 36.0425L51.3551 36.0279L57.3056 33.8477L57.3399 33.9035C58.1192 35.1712 58.6641 37.7034 58.8125 38.4493L58.8146 38.4601C58.8177 38.4758 58.8196 38.4853 58.8203 38.4881C59.1266 39.761 57.8608 41.8695 56.5999 42.1864C53.9438 42.8632 51.5685 42.3353 48.818 41.7239C47.8317 41.5046 46.8124 41.278 45.6896 41.082L45.723 41.7426C45.7503 42.2511 45.856 42.7523 46.0362 43.2286C46.2364 43.8147 46.3945 44.2777 46.0602 45.243L45.8984 45.71C45.9823 45.9418 46.0112 46.19 45.9828 46.4349C45.9544 46.6798 45.8694 46.9147 45.7347 47.1212L45.7022 47.1709L47.1345 50.7943L44.1626 50.7951Z" fill="#2F2E41"/>
<path d="M40.5941 48.869L38.0042 48.6284L38.9217 45.6948C39.1111 43.7793 39.5882 41.9032 40.3369 40.1299L41.5885 37.1647C41.5914 37.0987 41.597 37.0323 41.605 36.9672C41.6429 36.647 41.7442 36.3375 41.9029 36.0567C42.0617 35.776 42.2748 35.5297 42.5297 35.3322C42.7739 35.1413 43.0537 35.0008 43.3528 34.9191C43.6518 34.8373 43.9641 34.8159 44.2716 34.856L50.4729 35.6583L50.743 33.392L56.6951 32.5957L56.7224 32.64C57.7628 34.3323 58.4233 35.6571 58.801 36.8093C58.82 36.8681 58.8368 36.928 58.8512 36.9878C59.1596 38.2692 58.3897 39.5684 57.1349 39.8839C53.9372 40.6989 50.0919 40.6763 45.0362 39.8123L42.5894 45.6335C42.3555 46.1895 42.066 46.7205 41.7252 47.2182L40.5941 48.869Z" fill="#2F2E41"/>
<path d="M49.6283 19.4818C51.2852 19.4818 52.6284 18.1091 52.6284 16.4157C52.6284 14.7224 51.2852 13.3496 49.6283 13.3496C47.9714 13.3496 46.6282 14.7224 46.6282 16.4157C46.6282 18.1091 47.9714 19.4818 49.6283 19.4818Z" fill="#9E616A"/>
<path d="M50.4947 35.7661L50.0642 34.2244L49.9584 33.4639L49.3397 33.4845L48.1254 30.6825L47.6537 29.9437C47.5576 29.8424 47.4704 29.7451 47.3923 29.6516C46.9009 29.0963 46.5069 28.462 46.2269 27.7754C46.0307 27.2821 45.9155 26.7604 45.8857 26.2304C45.7977 24.6648 46.4578 23.0084 47.904 21.1669C47.8803 21.1017 47.8645 21.0339 47.8569 20.9649C47.831 20.7412 47.8946 20.5164 48.0337 20.3393C48.1728 20.1622 48.3763 20.0471 48.5998 20.0192L49.9946 19.8627C50.1031 19.8504 50.2129 19.8598 50.3177 19.8903C50.4225 19.9209 50.5202 19.9719 50.605 20.0406C50.6936 20.1116 50.7672 20.1995 50.8215 20.2992C50.8758 20.3989 50.9097 20.5084 50.9212 20.6214C50.9399 20.7961 50.9055 20.9723 50.8225 21.1272C51.5335 21.2175 52.2033 21.5108 52.7517 21.9721C53.3001 22.4334 53.7037 23.0431 53.9141 23.728C54.7487 25.2856 55.414 26.9282 55.8984 28.6275C55.9939 28.9604 55.9514 29.3033 55.9103 29.635C55.8723 29.9414 55.833 30.2582 55.8991 30.5739C55.9662 30.895 56.1278 31.2172 56.299 31.5583C56.4949 31.9489 56.6976 32.3528 56.7524 32.7646L56.7562 32.7935L50.4947 35.7661Z" fill="#E4E4E4"/>
<path opacity="0.2" d="M46.2639 27.7598C46.5427 28.4423 46.9345 29.0731 47.423 29.6254C47.5067 29.7253 47.5951 29.8234 47.6875 29.9217L48.1621 30.6661C49.9116 29.3552 51.329 24.1934 51.329 24.1934L49.3551 23.8096L46.2639 27.7598Z" fill="black"/>
<path d="M45.0688 19.7687C45.2416 20.0655 45.2918 20.418 45.2086 20.7513C45.1254 21.0845 44.9155 21.3721 44.6234 21.553C44.5634 21.5888 44.5006 21.6196 44.4356 21.645L44.5753 26.2427L42.5837 24.9894L42.7564 20.8155C42.6716 20.5377 42.6813 20.2398 42.7837 19.968C42.8862 19.6963 43.0758 19.4662 43.3229 19.3135C43.4668 19.2265 43.6267 19.1692 43.7931 19.1449C43.9596 19.1207 44.1292 19.1301 44.2919 19.1726C44.4547 19.215 44.6073 19.2896 44.7407 19.392C44.8741 19.4944 44.9857 19.6225 45.0688 19.7687Z" fill="#9E616A"/>
<path d="M44.7505 24.5067L42.5603 24.8181L42.6545 29.3522C42.6599 29.6757 42.748 29.9924 42.9104 30.2722C43.0728 30.552 43.304 30.7857 43.5822 30.951C43.922 31.1509 44.3176 31.2349 44.7094 31.1905C45.1011 31.146 45.4678 30.9754 45.7542 30.7045L50.9249 25.7324C51.2887 25.3874 51.5064 24.9161 51.5333 24.4155C51.5602 23.9149 51.3941 23.423 51.0694 23.0411C50.9086 22.8509 50.7113 22.6949 50.4892 22.5824C50.267 22.4699 50.0245 22.4032 49.776 22.3862C49.5276 22.3692 49.2782 22.4022 49.0428 22.4834C48.8074 22.5646 48.5907 22.6922 48.4055 22.8587C48.3544 22.9044 48.3058 22.9528 48.2599 23.0037L44.8457 26.9303L44.7505 24.5067Z" fill="#E6E6E6"/>
<path d="M26.4324 54.0815L27.9869 54.0814L28.7265 48.0869L26.4321 48.087L26.4324 54.0815Z" fill="#FFB6B6"/>
<path d="M17.621 19.5708C19.3346 19.5708 20.7237 18.1821 20.7237 16.469C20.7237 14.7559 19.3346 13.3672 17.621 13.3672C15.9074 13.3672 14.5183 14.7559 14.5183 16.469C14.5183 18.1821 15.9074 19.5708 17.621 19.5708Z" fill="#FFB6B6"/>
<path d="M28.4944 52.2348H26.293L25.7318 51.4828L25.5799 50.7742L25.4491 50.6477C25.2718 50.4775 25.1571 50.2524 25.1237 50.0089C25.0903 49.7654 25.1401 49.5177 25.2651 49.306L23.6697 41.8645C23.2519 41.8277 18.5395 41.4065 15.2638 40.8269C14.4254 40.6787 13.7709 40.2712 13.3184 39.6161C12.2063 38.0062 12.6827 35.4014 12.6876 35.3753L12.6931 35.3462L12.7225 35.3429L20.3738 34.4844L20.3841 34.4893C20.6381 34.6095 26.6139 37.4456 27.5905 38.4219C28.0315 38.8628 29.0153 41.482 29.2356 44.2667C29.275 44.7655 29.133 45.2736 28.9957 45.7649C28.8672 46.2246 28.7344 46.6999 28.7606 47.1493C28.8011 47.8427 28.8395 48.57 28.8747 49.3111C28.8803 49.4292 28.9694 49.5514 29.0554 49.6695C29.1453 49.793 29.2302 49.9096 29.2356 50.0317C29.2879 51.2151 28.5142 52.2097 28.5064 52.2196L28.4944 52.2348Z" fill="#2F2E41"/>
<path d="M28.9955 24.7303C28.8288 24.6847 28.6542 24.6763 28.4839 24.7055C28.3136 24.7347 28.1518 24.8009 28.0098 24.8994C27.8679 24.9979 27.7493 25.1264 27.6623 25.2756C27.5754 25.4249 27.5223 25.5915 27.5067 25.7635L24.9287 26.569L25.0363 28.2546L28.6609 27.0659C28.9517 27.073 29.235 26.9731 29.4571 26.7852C29.6792 26.5974 29.8247 26.3346 29.8659 26.0467C29.9072 25.7588 29.8413 25.4658 29.6809 25.2232C29.5205 24.9806 29.2766 24.8052 28.9955 24.7303Z" fill="#FFB6B6"/>
<path d="M27.3135 27.5198L25.3868 28.2488L25.3375 28.3444C25.2194 28.5735 25.0151 28.7463 24.7695 28.8248C24.524 28.9032 24.2573 28.881 24.0281 28.7629L19.6974 30.4015C19.6974 30.4015 17.7634 28.4667 16.3865 26.74L16.8558 23.8543C16.9644 23.1848 17.1955 22.541 17.5373 21.9551C20.3611 22.5741 21.9821 26.5205 21.9821 26.5205L27.0714 25.5497L27.3135 27.5198Z" fill="#4ECDC4"/>
<path d="M17.1799 19.405C16.4032 19.6147 15.5468 19.3359 14.9406 18.807C14.3345 18.2781 13.9553 17.5286 13.7368 16.7545C13.5768 16.1875 13.5009 15.5581 13.7534 15.0259C14.0059 14.4936 14.6855 14.1345 15.2098 14.4034C14.8864 14.0266 15.048 13.4035 15.4257 13.0813C15.8035 12.759 16.3222 12.6666 16.8162 12.6161C17.5332 12.5428 18.2738 12.5346 18.9561 12.7668C19.6384 12.999 20.2583 13.5067 20.4718 14.1949C20.6899 14.2964 20.9355 14.3227 21.1702 14.2697C21.4048 14.2168 21.6153 14.0875 21.7686 13.9022C21.8081 14.115 21.7764 14.335 21.6782 14.528C21.5801 14.721 21.4211 14.8763 21.2259 14.9699L22.2712 14.631C22.451 15.0115 22.136 15.4823 21.7331 15.6041C21.3303 15.726 20.8955 15.5928 20.5132 15.4168C20.1309 15.2408 19.7604 15.0183 19.3452 14.9496C18.93 14.881 18.4422 15.0144 18.2502 15.3888C18.1496 15.5848 18.1443 15.8145 18.0859 16.027C18.0275 16.2395 17.8796 16.4598 17.6598 16.4772C17.521 16.4882 17.385 16.4142 17.2466 16.4294C17.0749 16.4481 16.9436 16.6035 16.8979 16.77C16.8634 16.9396 16.863 17.1144 16.8966 17.2842L17.1622 19.3133" fill="#2F2E41"/>
<path d="M13.336 39.9872C13.3354 39.9872 13.3348 39.9872 13.3342 39.987L13.3097 39.9829L13.3026 39.959C13.2134 39.6591 13.0999 39.352 12.9901 39.0551C12.8285 38.6439 12.6919 38.2232 12.5814 37.7954C12.4943 37.3864 12.434 36.9722 12.4007 36.5554C12.3701 36.2527 12.3384 35.9398 12.2846 35.6318C12.2606 35.495 12.3513 35.3655 12.4389 35.2402C12.5201 35.1241 12.5969 35.0143 12.5808 34.9106C12.5643 34.8044 12.4466 34.6879 12.3327 34.5752C12.2079 34.4516 12.0789 34.3238 12.0606 34.1894C11.8119 32.3546 11.6961 30.5043 11.7142 28.6528C11.7399 26.0912 11.8557 24.3451 12.0584 23.4631C12.6034 21.0914 15.1211 20.6586 15.5152 20.6052C15.5572 20.4934 15.6217 20.3915 15.7048 20.3057C15.7879 20.22 15.8877 20.1522 15.9981 20.1067C16.1085 20.0612 16.2271 20.0389 16.3465 20.0412C16.4659 20.0435 16.5836 20.0703 16.6921 20.12L18.481 20.9386C18.8439 21.1053 19.1686 21.3448 19.435 21.6422C19.7014 21.9396 19.9037 22.2886 20.0295 22.6675L20.2952 23.4774L20.4283 28.9144L19.6907 32.7431L21.132 34.9044C13.4503 39.1207 13.3607 39.9872 13.336 39.9872Z" fill="#4ECDC4"/>
<path d="M25.5959 53.4781L26.1014 53.4781L28.0747 52.6758L29.1323 53.4779H29.1325C29.7301 53.478 30.3033 53.7153 30.726 54.1378C31.1486 54.5603 31.3861 55.1334 31.3861 55.7309V55.8041L25.5961 55.8043L25.5959 53.4781Z" fill="#2F2E41"/>
<path d="M29.641 28.6108C29.492 28.5234 29.3256 28.4697 29.1536 28.4535C28.9816 28.4372 28.8081 28.4589 28.6453 28.517C28.4826 28.5751 28.3346 28.6681 28.2117 28.7896C28.0888 28.911 27.9941 29.0579 27.9341 29.2199L25.2352 29.3252L24.8716 30.582L28.7085 30.7783C28.9874 30.8609 29.2869 30.8384 29.5504 30.715C29.8138 30.5916 30.0228 30.3758 30.1377 30.1087C30.2527 29.8415 30.2656 29.5415 30.1741 29.2654C30.0825 28.9893 29.8929 28.7564 29.641 28.6108Z" fill="#FFB6B6"/>
<path d="M27.424 30.9138L24.6517 30.8792L24.3008 30.8745L18.6604 30.8034C18.6604 30.8034 17.1287 29.3426 15.7949 27.8385L15.9819 26.4868C16.1642 25.1602 16.8225 23.945 17.8341 23.0674C19.7444 24.3434 20.8521 26.8692 20.8521 26.8692L22.7096 27.7001C24.0167 27.7585 25.2905 28.1315 26.4227 28.7872L27.0335 29.141L27.424 30.9138Z" fill="#4ECDC4"/>
<path d="M47.7965 54.8065L46.874 55.0341L46.4944 54.2041L46.2877 55.1788L43.8411 55.7824C43.7239 55.8113 43.6004 55.802 43.4888 55.7559C43.3772 55.7097 43.2833 55.6291 43.2207 55.5257C43.1582 55.4224 43.1303 55.3018 43.1412 55.1816C43.1521 55.0613 43.2012 54.9477 43.2812 54.8572L44.902 53.0263L44.6847 52.1461L46.7699 51.7617L47.7965 54.8065Z" fill="#2F2E41"/>
<path d="M38.0242 55.0914L37.1445 54.7324L37.3265 53.8381L36.5854 54.5042L34.2523 53.5522C34.1405 53.5066 34.0462 53.4264 33.9831 53.3234C33.9201 53.2204 33.8917 53.0999 33.902 52.9796C33.9123 52.8593 33.9608 52.7454 34.0404 52.6546C34.12 52.5638 34.2266 52.5008 34.3445 52.4748L36.7329 51.9487L37.0756 51.1094L38.9875 52.026L38.0242 55.0914Z" fill="#2F2E41"/>
<path d="M34.9607 30.622H34.24C33.4652 30.6211 32.7223 30.313 32.1744 29.7653C31.6265 29.2175 31.3183 28.4748 31.3174 27.7002V27.6602H37.8834V27.7002C37.8825 28.4748 37.5743 29.2175 37.0264 29.7653C36.4785 30.313 35.7356 30.6211 34.9607 30.622Z" fill="#E4E4E4"/>
<path d="M34.2402 26.619C34.2402 26.818 33.8799 26.9792 33.8799 26.9792C33.8799 26.9792 33.5195 26.818 33.5195 26.619C33.5195 26.4201 33.8799 26.2588 33.8799 26.2588C33.8799 26.2588 34.2402 26.4201 34.2402 26.619Z" fill="#3F3D56"/>
<path d="M36.4021 26.619C36.4021 26.818 36.0417 26.9792 36.0417 26.9792C36.0417 26.9792 35.6814 26.818 35.6814 26.619C35.6814 26.4201 36.0417 26.2588 36.0417 26.2588C36.0417 26.2588 36.4021 26.4201 36.4021 26.619Z" fill="#3F3D56"/>
<path d="M34.9609 27.3397C34.9609 27.5387 34.6006 27.6999 34.6006 27.6999C34.6006 27.6999 34.2402 27.5387 34.2402 27.3397C34.2402 27.1408 34.6006 26.9795 34.6006 26.9795C34.6006 26.9795 34.9609 27.1408 34.9609 27.3397Z" fill="#3F3D56"/>
<path d="M32.4385 25.8591C32.6375 25.8591 32.7988 25.6978 32.7988 25.4989C32.7988 25.3 32.6375 25.1387 32.4385 25.1387C32.2394 25.1387 32.0781 25.3 32.0781 25.4989C32.0781 25.6978 32.2394 25.8591 32.4385 25.8591Z" fill="#3F3D56"/>
<path d="M27.1981 24.7248L32.8811 25.5094C32.9325 25.5165 32.9819 25.534 33.0264 25.5607C33.0709 25.5874 33.1095 25.6229 33.1399 25.665C33.1703 25.707 33.1918 25.7548 33.2032 25.8054C33.2146 25.856 33.2157 25.9084 33.2062 25.9595C33.1968 26.0105 33.1771 26.0591 33.1484 26.1023C33.1197 26.1455 33.0825 26.1824 33.0391 26.2109C32.9957 26.2393 32.947 26.2587 32.8959 26.2677C32.8448 26.2768 32.7924 26.2755 32.7418 26.2637L27.1532 24.9679C27.1222 24.9607 27.0951 24.9419 27.0776 24.9152C27.0602 24.8886 27.0536 24.8562 27.0594 24.8249C27.0652 24.7936 27.0829 24.7657 27.1087 24.7471C27.1345 24.7284 27.1665 24.7204 27.1981 24.7248Z" fill="#E4E4E4"/>
<path d="M34.104 6.82381V-4H33.3833V6.82381C32.3987 6.91363 31.4832 7.36813 30.8165 8.0981C30.1498 8.82807 29.7801 9.78079 29.78 10.7692V11.8499H32.3023C32.3023 12.2321 32.4542 12.5986 32.7245 12.8688C32.9948 13.139 33.3614 13.2908 33.7436 13.2908C34.1259 13.2908 34.4925 13.139 34.7628 12.8688C35.0331 12.5986 35.185 12.2321 35.185 11.8499H37.7073V10.7692C37.7071 9.78079 37.3375 8.82807 36.6708 8.0981C36.0041 7.36813 35.0886 6.91363 34.104 6.82381Z" fill="#F0F0F0"/>
<path d="M43.3824 4.11786V-4H42.8419V4.11786C42.1034 4.18522 41.4167 4.5261 40.9167 5.07358C40.4167 5.62105 40.1395 6.33559 40.1394 7.07694V7.88745H42.0311C42.0311 8.17406 42.145 8.44894 42.3477 8.6516C42.5505 8.85427 42.8254 8.96813 43.1121 8.96813C43.3988 8.96813 43.6738 8.85427 43.8765 8.6516C44.0792 8.44894 44.1931 8.17406 44.1931 7.88745H46.0848V7.07694C46.0847 6.33559 45.8075 5.62105 45.3075 5.07358C44.8075 4.5261 44.1208 4.18522 43.3824 4.11786Z" fill="#F0F0F0"/>
<path d="M25.1258 4.11786V-4H24.5853V4.11786C23.8468 4.18522 23.1602 4.5261 22.6602 5.07358C22.1602 5.62105 21.8829 6.33559 21.8828 7.07694V7.88745H23.7745C23.7745 8.17406 23.8884 8.44894 24.0912 8.6516C24.2939 8.85427 24.5688 8.96813 24.8555 8.96813C25.1422 8.96813 25.4172 8.85427 25.6199 8.6516C25.8226 8.44894 25.9365 8.17406 25.9365 7.88745H27.8282V7.07694C27.8281 6.33559 27.5509 5.62105 27.0509 5.07358C26.5509 4.5261 25.8643 4.18522 25.1258 4.11786Z" fill="#F0F0F0"/>
<path d="M57.6564 15.0857C57.1465 14.4912 56.904 13.7024 56.4963 13.0273C56.0887 12.3521 55.3792 11.7479 54.6298 11.905C54.1131 12.0133 53.7138 12.4691 53.5117 12.9772C53.3096 13.4853 53.2717 14.0457 53.2363 14.5946C53.2488 13.4665 52.5054 12.3729 51.4812 12.0129C50.4572 11.6529 49.2316 12.0545 48.588 12.9608C48.3072 12.7006 47.9407 12.5524 47.5578 12.5444C47.175 12.5363 46.8026 12.669 46.5111 12.9172C45.9355 13.4315 45.8081 14.4104 46.2314 15.0664C46.6547 15.7224 47.5715 15.9668 48.2442 15.603L48.482 15.8217C48.3482 16.2898 48.6078 16.8427 49.0442 17.0189C49.3981 17.1618 49.8977 17.138 50.0301 17.5093C50.1226 17.7687 49.9497 18.0456 49.7657 18.2449C49.5817 18.4443 49.3633 18.6501 49.3412 18.926C49.3078 19.3422 49.738 19.6338 50.1291 19.7216C51.0722 19.9333 52.1186 19.4967 52.6621 18.6647C52.6726 18.6487 52.684 18.6326 52.6963 18.6165C53.0012 18.2267 53.2235 17.7787 53.3494 17.3001C53.4754 16.8215 53.5024 16.3222 53.4288 15.8328C53.3982 15.6405 53.429 15.4974 53.5616 15.4519C54.1349 15.255 55.7409 15.6682 56.2269 16.0416C56.7129 16.4149 57.1022 16.9091 57.5703 17.3066C58.0385 17.704 58.6351 18.0106 59.2296 17.9024C59.7057 17.8157 60.1107 17.4702 60.3831 17.0534C60.6555 16.6366 60.8123 16.1508 60.9528 15.6679C59.9 16.2759 58.4591 16.0214 57.6564 15.0857Z" fill="#2F2E41"/>
</g>
</g>
<defs>
<clipPath id="clip0_535_608">
<rect width="90" height="60" fill="white"/>
</clipPath>
<clipPath id="clip1_535_608">
<rect width="71.5596" height="60" fill="white" transform="translate(0 -4)"/>
</clipPath>
</defs>
</svg>
