<svg width="291" height="233" viewBox="0 0 291 233" fill="none" xmlns="http://www.w3.org/2000/svg">
<path d="M29.959 32.6426C28.7402 33.8613 27.2871 34.8164 25.5996 35.5078C23.9238 36.1875 22.0957 36.5273 20.1152 36.5273C18.1348 36.5273 16.3066 36.1875 14.6309 35.5078C12.9551 34.8281 11.4961 33.873 10.2539 32.6426C9.02344 31.4004 8.0625 29.9473 7.37109 28.2832C6.69141 26.6074 6.35156 24.7852 6.35156 22.8164C6.35156 20.8359 6.69141 19.0137 7.37109 17.3496C8.0625 15.6738 9.02344 14.2207 10.2539 12.9902C11.4961 11.7598 12.9551 10.8047 14.6309 10.125C16.3066 9.44531 18.1348 9.10547 20.1152 9.10547C22.084 9.10547 23.9062 9.45117 25.582 10.1426C27.2695 10.8223 28.7168 11.7656 29.9238 12.9727L27.2344 15.7148C26.3555 14.7187 25.3008 13.9395 24.0703 13.377C22.8516 12.8027 21.5156 12.5156 20.0625 12.5156C18.6562 12.5156 17.3613 12.7734 16.1777 13.2891C14.9941 13.793 13.9629 14.5137 13.084 15.4512C12.2051 16.377 11.5195 17.4668 11.0273 18.7207C10.5469 19.9746 10.3066 21.3398 10.3066 22.8164C10.3066 24.293 10.5469 25.6582 11.0273 26.9121C11.5195 28.166 12.2051 29.2617 13.084 30.1992C13.9629 31.125 14.9941 31.8457 16.1777 32.3613C17.3613 32.8652 18.6562 33.1172 20.0625 33.1172C21.5156 33.1172 22.8516 32.8359 24.0703 32.2734C25.3008 31.6992 26.3496 30.9141 27.2168 29.918L29.959 32.6426ZM41.8242 36.3516C40.0664 36.3516 38.4844 35.9531 37.0781 35.1562C35.6719 34.3594 34.5645 33.2754 33.7559 31.9043C32.9473 30.5215 32.543 28.957 32.543 27.2109C32.543 25.4766 32.9473 23.9238 33.7559 22.5527C34.5645 21.1699 35.6719 20.0801 37.0781 19.2832C38.4844 18.4746 40.0664 18.0703 41.8242 18.0703C43.5938 18.0703 45.1758 18.4746 46.5703 19.2832C47.9648 20.0801 49.0605 21.1699 49.8574 22.5527C50.666 23.9238 51.0703 25.4766 51.0703 27.2109C51.0703 28.957 50.666 30.5215 49.8574 31.9043C49.0605 33.2754 47.9648 34.3594 46.5703 35.1562C45.1758 35.9531 43.5938 36.3516 41.8242 36.3516ZM41.8066 33.1172C42.873 33.1172 43.8223 32.8594 44.6543 32.3438C45.498 31.8164 46.1602 31.1133 46.6406 30.2344C47.1328 29.3438 47.3789 28.3301 47.3789 27.1934C47.3789 26.0801 47.1328 25.084 46.6406 24.2051C46.1602 23.3145 45.498 22.6113 44.6543 22.0957C43.8223 21.5684 42.873 21.3047 41.8066 21.3047C40.752 21.3047 39.8027 21.5684 38.959 22.0957C38.1152 22.6113 37.4473 23.3145 36.9551 24.2051C36.4746 25.084 36.2344 26.0801 36.2344 27.1934C36.2344 28.3301 36.4746 29.3438 36.9551 30.2344C37.4473 31.1133 38.1152 31.8164 38.959 32.3438C39.8027 32.8594 40.752 33.1172 41.8066 33.1172ZM71.6543 36H68.0508V26.4551C68.0508 24.8965 67.623 23.6543 66.7676 22.7285C65.9238 21.8027 64.7871 21.3398 63.3574 21.3398C61.8809 21.3398 60.6914 21.832 59.7891 22.8164C58.8867 23.8008 58.4355 25.1074 58.4355 26.7363V36H54.832V18.4219H57.873L57.9961 21.252C58.6406 20.2207 59.4844 19.4355 60.5273 18.8965C61.5703 18.3457 62.7949 18.0703 64.2012 18.0703C66.5098 18.0703 68.3262 18.7676 69.6504 20.1621C70.9863 21.5566 71.6543 23.4785 71.6543 25.9277V36ZM93.2051 36H89.6016V26.4551C89.6016 24.8965 89.1738 23.6543 88.3184 22.7285C87.4746 21.8027 86.3379 21.3398 84.9082 21.3398C83.4316 21.3398 82.2422 21.832 81.3398 22.8164C80.4375 23.8008 79.9863 25.1074 79.9863 26.7363V36H76.3828V18.4219H79.4238L79.5469 21.252C80.1914 20.2207 81.0352 19.4355 82.0781 18.8965C83.1211 18.3457 84.3457 18.0703 85.752 18.0703C88.0605 18.0703 89.877 18.7676 91.2012 20.1621C92.5371 21.5566 93.2051 23.4785 93.2051 25.9277V36ZM113.613 33.9082C111.434 35.5371 109.037 36.3516 106.424 36.3516C104.561 36.3516 102.891 35.9414 101.414 35.1211C99.9375 34.3008 98.7715 33.1816 97.916 31.7637C97.0605 30.3457 96.6328 28.7461 96.6328 26.9648C96.6328 25.2656 97.0254 23.748 97.8105 22.4121C98.5957 21.0645 99.668 20.0039 101.027 19.2305C102.387 18.457 103.928 18.0703 105.65 18.0703C107.432 18.0703 108.996 18.4922 110.344 19.3359C111.703 20.1797 112.758 21.3574 113.508 22.8691C114.27 24.3691 114.65 26.1094 114.65 28.0898V28.6523H100.535C100.746 29.5664 101.145 30.3691 101.73 31.0605C102.316 31.7402 103.043 32.2734 103.91 32.6602C104.777 33.0352 105.756 33.2227 106.846 33.2227C108.791 33.2227 110.578 32.5898 112.207 31.3242L113.613 33.9082ZM100.377 26.1562H111.293C111.176 25.1719 110.871 24.3164 110.379 23.5898C109.887 22.8516 109.248 22.2773 108.463 21.8672C107.689 21.4453 106.816 21.2344 105.844 21.2344C104.859 21.2344 103.975 21.4453 103.189 21.8672C102.404 22.2773 101.766 22.8516 101.273 23.5898C100.793 24.3281 100.494 25.1836 100.377 26.1562ZM133.354 33.3809C132.498 34.3301 131.473 35.0625 130.277 35.5781C129.082 36.0938 127.787 36.3516 126.393 36.3516C124.635 36.3516 123.053 35.9531 121.646 35.1562C120.252 34.3594 119.15 33.2695 118.342 31.8867C117.533 30.5039 117.129 28.9453 117.129 27.2109C117.129 25.4648 117.533 23.9062 118.342 22.5352C119.15 21.1523 120.252 20.0625 121.646 19.2656C123.053 18.4688 124.635 18.0703 126.393 18.0703C127.775 18.0703 129.064 18.3281 130.26 18.8438C131.455 19.3477 132.48 20.0742 133.336 21.0234L131.209 23.2559C130.635 22.6465 129.943 22.1777 129.135 21.8496C128.338 21.5098 127.488 21.3398 126.586 21.3398C125.473 21.3398 124.482 21.5918 123.615 22.0957C122.748 22.5996 122.068 23.291 121.576 24.1699C121.084 25.0371 120.838 26.0449 120.838 27.1934C120.838 28.3301 121.084 29.3438 121.576 30.2344C122.068 31.125 122.748 31.8223 123.615 32.3262C124.482 32.8301 125.473 33.082 126.586 33.082C127.488 33.082 128.344 32.9121 129.152 32.5723C129.961 32.2324 130.646 31.7637 131.209 31.166L133.354 33.3809ZM147.82 35.5605C146.59 36.0879 145.4 36.3516 144.252 36.3516C143.104 36.3516 142.096 36.1055 141.229 35.6133C140.373 35.1211 139.699 34.4297 139.207 33.5391C138.727 32.6367 138.486 31.5996 138.486 30.4277V21.6387H135.41V18.4219H138.662V14.0273H142.09V18.4219H147.223V21.6387H142.09V29.7598C142.09 30.791 142.365 31.6113 142.916 32.2207C143.479 32.8184 144.199 33.1172 145.078 33.1172C145.816 33.1172 146.549 32.8945 147.275 32.4492L147.82 35.5605ZM170.848 35.5605C169.617 36.0879 168.428 36.3516 167.279 36.3516C166.131 36.3516 165.123 36.1055 164.256 35.6133C163.4 35.1211 162.727 34.4297 162.234 33.5391C161.754 32.6367 161.514 31.5996 161.514 30.4277V21.6387H158.438V18.4219H161.689V14.0273H165.117V18.4219H170.25V21.6387H165.117V29.7598C165.117 30.791 165.393 31.6113 165.943 32.2207C166.506 32.8184 167.227 33.1172 168.105 33.1172C168.844 33.1172 169.576 32.8945 170.303 32.4492L170.848 35.5605ZM182.379 36.3516C180.621 36.3516 179.039 35.9531 177.633 35.1562C176.227 34.3594 175.119 33.2754 174.311 31.9043C173.502 30.5215 173.098 28.957 173.098 27.2109C173.098 25.4766 173.502 23.9238 174.311 22.5527C175.119 21.1699 176.227 20.0801 177.633 19.2832C179.039 18.4746 180.621 18.0703 182.379 18.0703C184.148 18.0703 185.73 18.4746 187.125 19.2832C188.52 20.0801 189.615 21.1699 190.412 22.5527C191.221 23.9238 191.625 25.4766 191.625 27.2109C191.625 28.957 191.221 30.5215 190.412 31.9043C189.615 33.2754 188.52 34.3594 187.125 35.1562C185.73 35.9531 184.148 36.3516 182.379 36.3516ZM182.361 33.1172C183.428 33.1172 184.377 32.8594 185.209 32.3438C186.053 31.8164 186.715 31.1133 187.195 30.2344C187.688 29.3438 187.934 28.3301 187.934 27.1934C187.934 26.0801 187.688 25.084 187.195 24.2051C186.715 23.3145 186.053 22.6113 185.209 22.0957C184.377 21.5684 183.428 21.3047 182.361 21.3047C181.307 21.3047 180.357 21.5684 179.514 22.0957C178.67 22.6113 178.002 23.3145 177.51 24.2051C177.029 25.084 176.789 26.0801 176.789 27.1934C176.789 28.3301 177.029 29.3438 177.51 30.2344C178.002 31.1133 178.67 31.8164 179.514 32.3438C180.357 32.8594 181.307 33.1172 182.361 33.1172ZM203.965 36V9.63281H213.457C216.082 9.63281 218.133 10.2187 219.609 11.3906C221.098 12.5625 221.842 14.1855 221.842 16.2598C221.842 17.666 221.496 18.8965 220.805 19.9512C220.125 21.0059 219.211 21.7793 218.062 22.2715C219.633 22.6816 220.863 23.4492 221.754 24.5742C222.645 25.6875 223.09 27.0527 223.09 28.6699C223.09 30.1348 222.727 31.418 222 32.5195C221.285 33.6211 220.271 34.4766 218.959 35.0859C217.658 35.6953 216.135 36 214.389 36H203.965ZM207.832 21.0762H213.299C214.74 21.0762 215.889 20.707 216.744 19.9688C217.6 19.2305 218.027 18.2461 218.027 17.0156C218.027 15.7852 217.588 14.8184 216.709 14.1152C215.842 13.4004 214.652 13.043 213.141 13.043H207.832V21.0762ZM207.832 32.5898H213.492C214.629 32.5898 215.619 32.4082 216.463 32.0449C217.307 31.6699 217.963 31.1543 218.432 30.498C218.9 29.8301 219.135 29.0566 219.135 28.1777C219.135 27.3223 218.912 26.5781 218.467 25.9453C218.033 25.3125 217.412 24.832 216.604 24.5039C215.795 24.1641 214.846 23.9941 213.756 23.9941H207.832V32.5898ZM241.67 36H238.559L238.348 33.75C237.703 34.5703 236.889 35.209 235.904 35.666C234.92 36.123 233.83 36.3516 232.635 36.3516C231.381 36.3516 230.262 36.1055 229.277 35.6133C228.293 35.1211 227.52 34.4473 226.957 33.5918C226.395 32.7363 226.113 31.7637 226.113 30.6738C226.113 29.5254 226.418 28.5176 227.027 27.6504C227.637 26.7715 228.469 26.0859 229.523 25.5938C230.578 25.0898 231.779 24.8379 233.127 24.8379C233.971 24.8379 234.826 24.9375 235.693 25.1367C236.572 25.3359 237.363 25.6172 238.066 25.9805V25.3301C238.066 24.4746 237.844 23.7422 237.398 23.1328C236.965 22.5117 236.367 22.0371 235.605 21.709C234.855 21.3809 234.023 21.2168 233.109 21.2168C232.301 21.2168 231.475 21.3574 230.631 21.6387C229.799 21.9199 229.014 22.3535 228.275 22.9395L227.186 20.0039C228.252 19.3711 229.359 18.8906 230.508 18.5625C231.668 18.2344 232.805 18.0703 233.918 18.0703C235.512 18.0703 236.883 18.3867 238.031 19.0195C239.191 19.6523 240.088 20.5547 240.721 21.7266C241.354 22.8867 241.67 24.2578 241.67 25.8398V36ZM233.338 33.293C234.17 33.293 234.938 33.123 235.641 32.7832C236.344 32.4316 236.912 31.9395 237.346 31.3066C237.791 30.6621 238.031 29.9121 238.066 29.0566V28.8105C237.469 28.3652 236.795 28.0195 236.045 27.7734C235.307 27.5156 234.551 27.3867 233.777 27.3867C232.594 27.3867 231.609 27.668 230.824 28.2305C230.039 28.793 229.646 29.5137 229.646 30.3926C229.646 30.9434 229.805 31.4414 230.121 31.8867C230.449 32.3203 230.889 32.666 231.439 32.9238C232.002 33.1699 232.635 33.293 233.338 33.293ZM263.221 36H259.617V26.4551C259.617 24.8965 259.189 23.6543 258.334 22.7285C257.49 21.8027 256.354 21.3398 254.924 21.3398C253.447 21.3398 252.258 21.832 251.355 22.8164C250.453 23.8008 250.002 25.1074 250.002 26.7363V36H246.398V18.4219H249.439L249.562 21.252C250.207 20.2207 251.051 19.4355 252.094 18.8965C253.137 18.3457 254.361 18.0703 255.768 18.0703C258.076 18.0703 259.893 18.7676 261.217 20.1621C262.553 21.5566 263.221 23.4785 263.221 25.9277V36ZM271.553 36H267.949V9.63281H271.553V27.4043L273.047 25.6113L279.832 18.4219H284.35L277.09 26.1211L285.369 36H280.711L274.594 28.582L271.553 31.7109V36Z" fill="#F7FFF7"/>
<path d="M23.3789 77.7617C22.5664 78.5742 21.5977 79.2109 20.4727 79.6719C19.3555 80.125 18.1367 80.3516 16.8164 80.3516C15.4961 80.3516 14.2773 80.125 13.1602 79.6719C12.043 79.2188 11.0703 78.582 10.2422 77.7617C9.42188 76.9336 8.78125 75.9648 8.32031 74.8555C7.86719 73.7383 7.64062 72.5234 7.64062 71.2109C7.64062 69.8906 7.86719 68.6758 8.32031 67.5664C8.78125 66.4492 9.42188 65.4805 10.2422 64.6602C11.0703 63.8398 12.043 63.2031 13.1602 62.75C14.2773 62.2969 15.4961 62.0703 16.8164 62.0703C18.1289 62.0703 19.3438 62.3008 20.4609 62.7617C21.5859 63.2148 22.5508 63.8438 23.3555 64.6484L21.5625 66.4766C20.9766 65.8125 20.2734 65.293 19.4531 64.918C18.6406 64.5352 17.75 64.3438 16.7812 64.3438C15.8438 64.3438 14.9805 64.5156 14.1914 64.8594C13.4023 65.1953 12.7148 65.6758 12.1289 66.3008C11.543 66.918 11.0859 67.6445 10.7578 68.4805C10.4375 69.3164 10.2773 70.2266 10.2773 71.2109C10.2773 72.1953 10.4375 73.1055 10.7578 73.9414C11.0859 74.7773 11.543 75.5078 12.1289 76.1328C12.7148 76.75 13.4023 77.2305 14.1914 77.5742C14.9805 77.9102 15.8438 78.0781 16.7812 78.0781C17.75 78.0781 18.6406 77.8906 19.4531 77.5156C20.2734 77.1328 20.9727 76.6094 21.5508 75.9453L23.3789 77.7617ZM31.2891 80.2344C30.1172 80.2344 29.0625 79.9688 28.125 79.4375C27.1875 78.9062 26.4492 78.1836 25.9102 77.2695C25.3711 76.3477 25.1016 75.3047 25.1016 74.1406C25.1016 72.9844 25.3711 71.9492 25.9102 71.0352C26.4492 70.1133 27.1875 69.3867 28.125 68.8555C29.0625 68.3164 30.1172 68.0469 31.2891 68.0469C32.4688 68.0469 33.5234 68.3164 34.4531 68.8555C35.3828 69.3867 36.1133 70.1133 36.6445 71.0352C37.1836 71.9492 37.4531 72.9844 37.4531 74.1406C37.4531 75.3047 37.1836 76.3477 36.6445 77.2695C36.1133 78.1836 35.3828 78.9062 34.4531 79.4375C33.5234 79.9688 32.4688 80.2344 31.2891 80.2344ZM31.2773 78.0781C31.9883 78.0781 32.6211 77.9062 33.1758 77.5625C33.7383 77.2109 34.1797 76.7422 34.5 76.1562C34.8281 75.5625 34.9922 74.8867 34.9922 74.1289C34.9922 73.3867 34.8281 72.7227 34.5 72.1367C34.1797 71.543 33.7383 71.0742 33.1758 70.7305C32.6211 70.3789 31.9883 70.2031 31.2773 70.2031C30.5742 70.2031 29.9414 70.3789 29.3789 70.7305C28.8164 71.0742 28.3711 71.543 28.043 72.1367C27.7227 72.7227 27.5625 73.3867 27.5625 74.1289C27.5625 74.8867 27.7227 75.5625 28.043 76.1562C28.3711 76.7422 28.8164 77.2109 29.3789 77.5625C29.9414 77.9062 30.5742 78.0781 31.2773 78.0781ZM51.1758 80H48.7734V73.6367C48.7734 72.5977 48.4883 71.7695 47.918 71.1523C47.3555 70.5352 46.5977 70.2266 45.6445 70.2266C44.6602 70.2266 43.8672 70.5547 43.2656 71.2109C42.6641 71.8672 42.3633 72.7383 42.3633 73.8242V80H39.9609V68.2812H41.9883L42.0703 70.168C42.5 69.4805 43.0625 68.957 43.7578 68.5977C44.4531 68.2305 45.2695 68.0469 46.207 68.0469C47.7461 68.0469 48.957 68.5117 49.8398 69.4414C50.7305 70.3711 51.1758 71.6523 51.1758 73.2852V80ZM65.543 80H63.1406V73.6367C63.1406 72.5977 62.8555 71.7695 62.2852 71.1523C61.7227 70.5352 60.9648 70.2266 60.0117 70.2266C59.0273 70.2266 58.2344 70.5547 57.6328 71.2109C57.0312 71.8672 56.7305 72.7383 56.7305 73.8242V80H54.3281V68.2812H56.3555L56.4375 70.168C56.8672 69.4805 57.4297 68.957 58.125 68.5977C58.8203 68.2305 59.6367 68.0469 60.5742 68.0469C62.1133 68.0469 63.3242 68.5117 64.207 69.4414C65.0977 70.3711 65.543 71.6523 65.543 73.2852V80ZM79.1484 78.6055C77.6953 79.6914 76.0977 80.2344 74.3555 80.2344C73.1133 80.2344 72 79.9609 71.0156 79.4141C70.0312 78.8672 69.2539 78.1211 68.6836 77.1758C68.1133 76.2305 67.8281 75.1641 67.8281 73.9766C67.8281 72.8438 68.0898 71.832 68.6133 70.9414C69.1367 70.043 69.8516 69.3359 70.7578 68.8203C71.6641 68.3047 72.6914 68.0469 73.8398 68.0469C75.0273 68.0469 76.0703 68.3281 76.9688 68.8906C77.875 69.4531 78.5781 70.2383 79.0781 71.2461C79.5859 72.2461 79.8398 73.4062 79.8398 74.7266V75.1016H70.4297C70.5703 75.7109 70.8359 76.2461 71.2266 76.707C71.6172 77.1602 72.1016 77.5156 72.6797 77.7734C73.2578 78.0234 73.9102 78.1484 74.6367 78.1484C75.9336 78.1484 77.125 77.7266 78.2109 76.8828L79.1484 78.6055ZM70.3242 73.4375H77.6016C77.5234 72.7812 77.3203 72.2109 76.9922 71.7266C76.6641 71.2344 76.2383 70.8516 75.7148 70.5781C75.1992 70.2969 74.6172 70.1562 73.9688 70.1562C73.3125 70.1562 72.7227 70.2969 72.1992 70.5781C71.6758 70.8516 71.25 71.2344 70.9219 71.7266C70.6016 72.2188 70.4023 72.7891 70.3242 73.4375ZM92.3086 78.2539C91.7383 78.8867 91.0547 79.375 90.2578 79.7188C89.4609 80.0625 88.5977 80.2344 87.668 80.2344C86.4961 80.2344 85.4414 79.9688 84.5039 79.4375C83.5742 78.9062 82.8398 78.1797 82.3008 77.2578C81.7617 76.3359 81.4922 75.2969 81.4922 74.1406C81.4922 72.9766 81.7617 71.9375 82.3008 71.0234C82.8398 70.1016 83.5742 69.375 84.5039 68.8438C85.4414 68.3125 86.4961 68.0469 87.668 68.0469C88.5898 68.0469 89.4492 68.2188 90.2461 68.5625C91.043 68.8984 91.7266 69.3828 92.2969 70.0156L90.8789 71.5039C90.4961 71.0977 90.0352 70.7852 89.4961 70.5664C88.9648 70.3398 88.3984 70.2266 87.7969 70.2266C87.0547 70.2266 86.3945 70.3945 85.8164 70.7305C85.2383 71.0664 84.7852 71.5273 84.457 72.1133C84.1289 72.6914 83.9648 73.3633 83.9648 74.1289C83.9648 74.8867 84.1289 75.5625 84.457 76.1562C84.7852 76.75 85.2383 77.2148 85.8164 77.5508C86.3945 77.8867 87.0547 78.0547 87.7969 78.0547C88.3984 78.0547 88.9688 77.9414 89.5078 77.7148C90.0469 77.4883 90.5039 77.1758 90.8789 76.7773L92.3086 78.2539ZM101.953 79.707C101.133 80.0586 100.34 80.2344 99.5742 80.2344C98.8086 80.2344 98.1367 80.0703 97.5586 79.7422C96.9883 79.4141 96.5391 78.9531 96.2109 78.3594C95.8906 77.7578 95.7305 77.0664 95.7305 76.2852V70.4258H93.6797V68.2812H95.8477V65.3516H98.1328V68.2812H101.555V70.4258H98.1328V75.8398C98.1328 76.5273 98.3164 77.0742 98.6836 77.4805C99.0586 77.8789 99.5391 78.0781 100.125 78.0781C100.617 78.0781 101.105 77.9297 101.59 77.6328L101.953 79.707ZM117.305 79.707C116.484 80.0586 115.691 80.2344 114.926 80.2344C114.16 80.2344 113.488 80.0703 112.91 79.7422C112.34 79.4141 111.891 78.9531 111.562 78.3594C111.242 77.7578 111.082 77.0664 111.082 76.2852V70.4258H109.031V68.2812H111.199V65.3516H113.484V68.2812H116.906V70.4258H113.484V75.8398C113.484 76.5273 113.668 77.0742 114.035 77.4805C114.41 77.8789 114.891 78.0781 115.477 78.0781C115.969 78.0781 116.457 77.9297 116.941 77.6328L117.305 79.707ZM124.992 80.2344C123.82 80.2344 122.766 79.9688 121.828 79.4375C120.891 78.9062 120.152 78.1836 119.613 77.2695C119.074 76.3477 118.805 75.3047 118.805 74.1406C118.805 72.9844 119.074 71.9492 119.613 71.0352C120.152 70.1133 120.891 69.3867 121.828 68.8555C122.766 68.3164 123.82 68.0469 124.992 68.0469C126.172 68.0469 127.227 68.3164 128.156 68.8555C129.086 69.3867 129.816 70.1133 130.348 71.0352C130.887 71.9492 131.156 72.9844 131.156 74.1406C131.156 75.3047 130.887 76.3477 130.348 77.2695C129.816 78.1836 129.086 78.9062 128.156 79.4375C127.227 79.9688 126.172 80.2344 124.992 80.2344ZM124.98 78.0781C125.691 78.0781 126.324 77.9062 126.879 77.5625C127.441 77.2109 127.883 76.7422 128.203 76.1562C128.531 75.5625 128.695 74.8867 128.695 74.1289C128.695 73.3867 128.531 72.7227 128.203 72.1367C127.883 71.543 127.441 71.0742 126.879 70.7305C126.324 70.3789 125.691 70.2031 124.98 70.2031C124.277 70.2031 123.645 70.3789 123.082 70.7305C122.52 71.0742 122.074 71.543 121.746 72.1367C121.426 72.7227 121.266 73.3867 121.266 74.1289C121.266 74.8867 121.426 75.5625 121.746 76.1562C122.074 76.7422 122.52 77.2109 123.082 77.5625C123.645 77.9062 124.277 78.0781 124.98 78.0781ZM144.129 85.8594H141.539L143.988 79.9297L138.281 68.2812H140.965L145.137 77.1758L148.816 68.2812H151.395L144.129 85.8594ZM158.602 80.2344C157.43 80.2344 156.375 79.9688 155.438 79.4375C154.5 78.9062 153.762 78.1836 153.223 77.2695C152.684 76.3477 152.414 75.3047 152.414 74.1406C152.414 72.9844 152.684 71.9492 153.223 71.0352C153.762 70.1133 154.5 69.3867 155.438 68.8555C156.375 68.3164 157.43 68.0469 158.602 68.0469C159.781 68.0469 160.836 68.3164 161.766 68.8555C162.695 69.3867 163.426 70.1133 163.957 71.0352C164.496 71.9492 164.766 72.9844 164.766 74.1406C164.766 75.3047 164.496 76.3477 163.957 77.2695C163.426 78.1836 162.695 78.9062 161.766 79.4375C160.836 79.9688 159.781 80.2344 158.602 80.2344ZM158.59 78.0781C159.301 78.0781 159.934 77.9062 160.488 77.5625C161.051 77.2109 161.492 76.7422 161.812 76.1562C162.141 75.5625 162.305 74.8867 162.305 74.1289C162.305 73.3867 162.141 72.7227 161.812 72.1367C161.492 71.543 161.051 71.0742 160.488 70.7305C159.934 70.3789 159.301 70.2031 158.59 70.2031C157.887 70.2031 157.254 70.3789 156.691 70.7305C156.129 71.0742 155.684 71.543 155.355 72.1367C155.035 72.7227 154.875 73.3867 154.875 74.1289C154.875 74.8867 155.035 75.5625 155.355 76.1562C155.684 76.7422 156.129 77.2109 156.691 77.5625C157.254 77.9062 157.887 78.0781 158.59 78.0781ZM178.254 80H176.215L176.133 78.1133C175.703 78.8008 175.141 79.3281 174.445 79.6953C173.758 80.0547 172.941 80.2344 171.996 80.2344C170.465 80.2344 169.254 79.7695 168.363 78.8398C167.48 77.9023 167.039 76.6211 167.039 74.9961V68.2812H169.441V74.6445C169.441 75.6836 169.723 76.5117 170.285 77.1289C170.848 77.7461 171.605 78.0547 172.559 78.0547C173.543 78.0547 174.336 77.7266 174.938 77.0703C175.547 76.4062 175.852 75.5352 175.852 74.457V68.2812H178.254V80ZM184.043 80H181.641V68.2812H183.738L183.832 70.5078C184.238 69.7344 184.797 69.1328 185.508 68.7031C186.227 68.2656 187.051 68.0469 187.98 68.0469C188.207 68.0469 188.434 68.0625 188.66 68.0938C188.895 68.1172 189.129 68.1562 189.363 68.2109L189.059 70.3789C188.605 70.2617 188.16 70.2031 187.723 70.2031C186.996 70.2031 186.355 70.3789 185.801 70.7305C185.246 71.0742 184.812 71.5508 184.5 72.1602C184.195 72.7695 184.043 73.4727 184.043 74.2695V80ZM199.324 85.8594H196.922V68.2812H199.043L199.172 69.957C199.703 69.3633 200.34 68.8984 201.082 68.5625C201.832 68.2188 202.652 68.0469 203.543 68.0469C204.668 68.0469 205.672 68.3125 206.555 68.8438C207.445 69.375 208.145 70.1016 208.652 71.0234C209.168 71.9375 209.426 72.9766 209.426 74.1406C209.426 75.2969 209.168 76.3359 208.652 77.2578C208.145 78.1797 207.445 78.9062 206.555 79.4375C205.672 79.9688 204.668 80.2344 203.543 80.2344C202.699 80.2344 201.918 80.082 201.199 79.7773C200.48 79.4727 199.855 79.0469 199.324 78.5V85.8594ZM203.156 78.0547C203.898 78.0547 204.555 77.8867 205.125 77.5508C205.695 77.2148 206.141 76.7539 206.461 76.168C206.789 75.5742 206.953 74.8945 206.953 74.1289C206.953 73.3633 206.789 72.6875 206.461 72.1016C206.141 71.5078 205.695 71.043 205.125 70.707C204.555 70.3711 203.902 70.2031 203.168 70.2031C202.473 70.2031 201.844 70.3594 201.281 70.6719C200.727 70.9766 200.273 71.3984 199.922 71.9375C199.578 72.4766 199.379 73.0898 199.324 73.7773V74.5039C199.379 75.1914 199.574 75.8047 199.91 76.3438C200.254 76.875 200.703 77.293 201.258 77.5977C201.82 77.9023 202.453 78.0547 203.156 78.0547ZM214.348 80H211.945V68.2812H214.043L214.137 70.5078C214.543 69.7344 215.102 69.1328 215.812 68.7031C216.531 68.2656 217.355 68.0469 218.285 68.0469C218.512 68.0469 218.738 68.0625 218.965 68.0938C219.199 68.1172 219.434 68.1562 219.668 68.2109L219.363 70.3789C218.91 70.2617 218.465 70.2031 218.027 70.2031C217.301 70.2031 216.66 70.3789 216.105 70.7305C215.551 71.0742 215.117 71.5508 214.805 72.1602C214.5 72.7695 214.348 73.4727 214.348 74.2695V80ZM222.75 64.8828C222.383 64.8828 222.074 64.7539 221.824 64.4961C221.574 64.2383 221.449 63.9258 221.449 63.5586C221.449 63.1914 221.574 62.8828 221.824 62.6328C222.074 62.375 222.383 62.2461 222.75 62.2461C223.125 62.2461 223.438 62.375 223.688 62.6328C223.945 62.8828 224.074 63.1914 224.074 63.5586C224.074 63.9258 223.945 64.2383 223.688 64.4961C223.438 64.7539 223.125 64.8828 222.75 64.8828ZM223.945 80H221.543V68.2812H223.945V80ZM246.094 80H243.691V73.8711C243.691 72.707 243.441 71.8047 242.941 71.1641C242.449 70.5234 241.754 70.2031 240.855 70.2031C239.941 70.2031 239.227 70.5273 238.711 71.1758C238.195 71.8242 237.938 72.7227 237.938 73.8711V80H235.535V73.8711C235.535 72.707 235.285 71.8047 234.785 71.1641C234.285 70.5234 233.586 70.2031 232.688 70.2031C231.773 70.2031 231.059 70.5273 230.543 71.1758C230.027 71.8242 229.77 72.7227 229.77 73.8711V80H227.367V68.2812H229.312L229.406 70.3203C229.797 69.5781 230.324 69.0156 230.988 68.6328C231.66 68.2422 232.449 68.0469 233.355 68.0469C234.316 68.0469 235.141 68.2578 235.828 68.6797C236.516 69.1016 237.035 69.707 237.387 70.4961C237.777 69.6914 238.316 69.082 239.004 68.668C239.699 68.2539 240.523 68.0469 241.477 68.0469C242.93 68.0469 244.062 68.5078 244.875 69.4297C245.688 70.3516 246.094 71.6367 246.094 73.2852V80ZM259.02 80H256.945L256.805 78.5C256.375 79.0469 255.832 79.4727 255.176 79.7773C254.52 80.082 253.793 80.2344 252.996 80.2344C252.16 80.2344 251.414 80.0703 250.758 79.7422C250.102 79.4141 249.586 78.9648 249.211 78.3945C248.836 77.8242 248.648 77.1758 248.648 76.4492C248.648 75.6836 248.852 75.0117 249.258 74.4336C249.664 73.8477 250.219 73.3906 250.922 73.0625C251.625 72.7266 252.426 72.5586 253.324 72.5586C253.887 72.5586 254.457 72.625 255.035 72.7578C255.621 72.8906 256.148 73.0781 256.617 73.3203V72.8867C256.617 72.3164 256.469 71.8281 256.172 71.4219C255.883 71.0078 255.484 70.6914 254.977 70.4727C254.477 70.2539 253.922 70.1445 253.312 70.1445C252.773 70.1445 252.223 70.2383 251.66 70.4258C251.105 70.6133 250.582 70.9023 250.09 71.293L249.363 69.3359C250.074 68.9141 250.812 68.5938 251.578 68.375C252.352 68.1562 253.109 68.0469 253.852 68.0469C254.914 68.0469 255.828 68.2578 256.594 68.6797C257.367 69.1016 257.965 69.7031 258.387 70.4844C258.809 71.2578 259.02 72.1719 259.02 73.2266V80ZM253.465 78.1953C254.02 78.1953 254.531 78.082 255 77.8555C255.469 77.6211 255.848 77.293 256.137 76.8711C256.434 76.4414 256.594 75.9414 256.617 75.3711V75.207C256.219 74.9102 255.77 74.6797 255.27 74.5156C254.777 74.3438 254.273 74.2578 253.758 74.2578C252.969 74.2578 252.312 74.4453 251.789 74.8203C251.266 75.1953 251.004 75.6758 251.004 76.2617C251.004 76.6289 251.109 76.9609 251.32 77.2578C251.539 77.5469 251.832 77.7773 252.199 77.9492C252.574 78.1133 252.996 78.1953 253.465 78.1953ZM264.574 80H262.172V68.2812H264.27L264.363 70.5078C264.77 69.7344 265.328 69.1328 266.039 68.7031C266.758 68.2656 267.582 68.0469 268.512 68.0469C268.738 68.0469 268.965 68.0625 269.191 68.0938C269.426 68.1172 269.66 68.1562 269.895 68.2109L269.59 70.3789C269.137 70.2617 268.691 70.2031 268.254 70.2031C267.527 70.2031 266.887 70.3789 266.332 70.7305C265.777 71.0742 265.344 71.5508 265.031 72.1602C264.727 72.7695 264.574 73.4727 264.574 74.2695V80ZM276.48 85.8594H273.891L276.34 79.9297L270.633 68.2812H273.316L277.488 77.1758L281.168 68.2812H283.746L276.48 85.8594ZM43.8398 114.254C43.2695 114.887 42.5859 115.375 41.7891 115.719C40.9922 116.062 40.1289 116.234 39.1992 116.234C38.0273 116.234 36.9727 115.969 36.0352 115.438C35.1055 114.906 34.3711 114.18 33.832 113.258C33.293 112.336 33.0234 111.297 33.0234 110.141C33.0234 108.977 33.293 107.938 33.832 107.023C34.3711 106.102 35.1055 105.375 36.0352 104.844C36.9727 104.312 38.0273 104.047 39.1992 104.047C40.1211 104.047 40.9805 104.219 41.7773 104.562C42.5742 104.898 43.2578 105.383 43.8281 106.016L42.4102 107.504C42.0273 107.098 41.5664 106.785 41.0273 106.566C40.4961 106.34 39.9297 106.227 39.3281 106.227C38.5859 106.227 37.9258 106.395 37.3477 106.73C36.7695 107.066 36.3164 107.527 35.9883 108.113C35.6602 108.691 35.4961 109.363 35.4961 110.129C35.4961 110.887 35.6602 111.562 35.9883 112.156C36.3164 112.75 36.7695 113.215 37.3477 113.551C37.9258 113.887 38.5859 114.055 39.3281 114.055C39.9297 114.055 40.5 113.941 41.0391 113.715C41.5781 113.488 42.0352 113.176 42.4102 112.777L43.8398 114.254ZM46.3359 116V98.4219H48.7383V105.91C49.6055 104.668 50.9219 104.047 52.6875 104.047C54.2109 104.047 55.4023 104.508 56.2617 105.43C57.1211 106.352 57.5508 107.637 57.5508 109.285V116H55.1484V109.871C55.1484 108.707 54.8672 107.805 54.3047 107.164C53.75 106.523 52.9727 106.203 51.9727 106.203C50.9648 106.203 50.1719 106.531 49.5938 107.188C49.0234 107.836 48.7383 108.73 48.7383 109.871V116H46.3359ZM71.1562 114.605C69.7031 115.691 68.1055 116.234 66.3633 116.234C65.1211 116.234 64.0078 115.961 63.0234 115.414C62.0391 114.867 61.2617 114.121 60.6914 113.176C60.1211 112.23 59.8359 111.164 59.8359 109.977C59.8359 108.844 60.0977 107.832 60.6211 106.941C61.1445 106.043 61.8594 105.336 62.7656 104.82C63.6719 104.305 64.6992 104.047 65.8477 104.047C67.0352 104.047 68.0781 104.328 68.9766 104.891C69.8828 105.453 70.5859 106.238 71.0859 107.246C71.5938 108.246 71.8477 109.406 71.8477 110.727V111.102H62.4375C62.5781 111.711 62.8438 112.246 63.2344 112.707C63.625 113.16 64.1094 113.516 64.6875 113.773C65.2656 114.023 65.918 114.148 66.6445 114.148C67.9414 114.148 69.1328 113.727 70.2188 112.883L71.1562 114.605ZM62.332 109.438H69.6094C69.5312 108.781 69.3281 108.211 69 107.727C68.6719 107.234 68.2461 106.852 67.7227 106.578C67.207 106.297 66.625 106.156 65.9766 106.156C65.3203 106.156 64.7305 106.297 64.207 106.578C63.6836 106.852 63.2578 107.234 62.9297 107.727C62.6094 108.219 62.4102 108.789 62.332 109.438ZM84.3164 114.254C83.7461 114.887 83.0625 115.375 82.2656 115.719C81.4688 116.062 80.6055 116.234 79.6758 116.234C78.5039 116.234 77.4492 115.969 76.5117 115.438C75.582 114.906 74.8477 114.18 74.3086 113.258C73.7695 112.336 73.5 111.297 73.5 110.141C73.5 108.977 73.7695 107.938 74.3086 107.023C74.8477 106.102 75.582 105.375 76.5117 104.844C77.4492 104.312 78.5039 104.047 79.6758 104.047C80.5977 104.047 81.457 104.219 82.2539 104.562C83.0508 104.898 83.7344 105.383 84.3047 106.016L82.8867 107.504C82.5039 107.098 82.043 106.785 81.5039 106.566C80.9727 106.34 80.4062 106.227 79.8047 106.227C79.0625 106.227 78.4023 106.395 77.8242 106.73C77.2461 107.066 76.793 107.527 76.4648 108.113C76.1367 108.691 75.9727 109.363 75.9727 110.129C75.9727 110.887 76.1367 111.562 76.4648 112.156C76.793 112.75 77.2461 113.215 77.8242 113.551C78.4023 113.887 79.0625 114.055 79.8047 114.055C80.4062 114.055 80.9766 113.941 81.5156 113.715C82.0547 113.488 82.5117 113.176 82.8867 112.777L84.3164 114.254ZM89.2148 116H86.8125V98.4219H89.2148V110.27L90.2109 109.074L94.7344 104.281H97.7461L92.9062 109.414L98.4258 116H95.3203L91.2422 111.055L89.2148 113.141V116ZM101.812 100.883C101.445 100.883 101.137 100.754 100.887 100.496C100.637 100.238 100.512 99.9258 100.512 99.5586C100.512 99.1914 100.637 98.8828 100.887 98.6328C101.137 98.375 101.445 98.2461 101.812 98.2461C102.188 98.2461 102.5 98.375 102.75 98.6328C103.008 98.8828 103.137 99.1914 103.137 99.5586C103.137 99.9258 103.008 100.238 102.75 100.496C102.5 100.754 102.188 100.883 101.812 100.883ZM103.008 116H100.605V104.281H103.008V116ZM117.645 116H115.242V109.637C115.242 108.598 114.957 107.77 114.387 107.152C113.824 106.535 113.066 106.227 112.113 106.227C111.129 106.227 110.336 106.555 109.734 107.211C109.133 107.867 108.832 108.738 108.832 109.824V116H106.43V104.281H108.457L108.539 106.168C108.969 105.48 109.531 104.957 110.227 104.598C110.922 104.23 111.738 104.047 112.676 104.047C114.215 104.047 115.426 104.512 116.309 105.441C117.199 106.371 117.645 107.652 117.645 109.285V116ZM125.719 116.047C124.617 116.047 123.629 115.785 122.754 115.262C121.879 114.738 121.188 114.023 120.68 113.117C120.18 112.211 119.93 111.188 119.93 110.047C119.93 108.898 120.18 107.875 120.68 106.977C121.188 106.07 121.879 105.355 122.754 104.832C123.629 104.309 124.621 104.047 125.73 104.047C126.605 104.047 127.41 104.215 128.145 104.551C128.887 104.887 129.516 105.348 130.031 105.934L130.148 104.281H132.27V115.684C132.27 116.996 132 118.129 131.461 119.082C130.93 120.043 130.176 120.785 129.199 121.309C128.223 121.832 127.066 122.094 125.73 122.094C123.848 122.094 122.188 121.48 120.75 120.254L121.77 118.309C122.824 119.395 124.098 119.938 125.59 119.938C126.457 119.938 127.207 119.758 127.84 119.398C128.48 119.039 128.977 118.535 129.328 117.887C129.688 117.246 129.867 116.488 129.867 115.613V114.336C129.352 114.867 128.738 115.285 128.027 115.59C127.316 115.895 126.547 116.047 125.719 116.047ZM126.117 113.914C126.805 113.914 127.43 113.758 127.992 113.445C128.562 113.133 129.016 112.707 129.352 112.168C129.695 111.621 129.867 111 129.867 110.305V109.777C129.867 109.082 129.695 108.465 129.352 107.926C129.016 107.387 128.562 106.961 127.992 106.648C127.43 106.336 126.805 106.18 126.117 106.18C125.398 106.18 124.758 106.352 124.195 106.695C123.633 107.031 123.188 107.492 122.859 108.078C122.531 108.656 122.367 109.312 122.367 110.047C122.367 110.781 122.531 111.441 122.859 112.027C123.188 112.613 123.633 113.074 124.195 113.41C124.758 113.746 125.398 113.914 126.117 113.914ZM151.043 116H148.969L148.828 114.5C148.398 115.047 147.855 115.473 147.199 115.777C146.543 116.082 145.816 116.234 145.02 116.234C144.184 116.234 143.438 116.07 142.781 115.742C142.125 115.414 141.609 114.965 141.234 114.395C140.859 113.824 140.672 113.176 140.672 112.449C140.672 111.684 140.875 111.012 141.281 110.434C141.688 109.848 142.242 109.391 142.945 109.062C143.648 108.727 144.449 108.559 145.348 108.559C145.91 108.559 146.48 108.625 147.059 108.758C147.645 108.891 148.172 109.078 148.641 109.32V108.887C148.641 108.316 148.492 107.828 148.195 107.422C147.906 107.008 147.508 106.691 147 106.473C146.5 106.254 145.945 106.145 145.336 106.145C144.797 106.145 144.246 106.238 143.684 106.426C143.129 106.613 142.605 106.902 142.113 107.293L141.387 105.336C142.098 104.914 142.836 104.594 143.602 104.375C144.375 104.156 145.133 104.047 145.875 104.047C146.938 104.047 147.852 104.258 148.617 104.68C149.391 105.102 149.988 105.703 150.41 106.484C150.832 107.258 151.043 108.172 151.043 109.227V116ZM145.488 114.195C146.043 114.195 146.555 114.082 147.023 113.855C147.492 113.621 147.871 113.293 148.16 112.871C148.457 112.441 148.617 111.941 148.641 111.371V111.207C148.242 110.91 147.793 110.68 147.293 110.516C146.801 110.344 146.297 110.258 145.781 110.258C144.992 110.258 144.336 110.445 143.812 110.82C143.289 111.195 143.027 111.676 143.027 112.262C143.027 112.629 143.133 112.961 143.344 113.258C143.562 113.547 143.855 113.777 144.223 113.949C144.598 114.113 145.02 114.195 145.488 114.195ZM164.145 114.254C163.574 114.887 162.891 115.375 162.094 115.719C161.297 116.062 160.434 116.234 159.504 116.234C158.332 116.234 157.277 115.969 156.34 115.438C155.41 114.906 154.676 114.18 154.137 113.258C153.598 112.336 153.328 111.297 153.328 110.141C153.328 108.977 153.598 107.938 154.137 107.023C154.676 106.102 155.41 105.375 156.34 104.844C157.277 104.312 158.332 104.047 159.504 104.047C160.426 104.047 161.285 104.219 162.082 104.562C162.879 104.898 163.562 105.383 164.133 106.016L162.715 107.504C162.332 107.098 161.871 106.785 161.332 106.566C160.801 106.34 160.234 106.227 159.633 106.227C158.891 106.227 158.23 106.395 157.652 106.73C157.074 107.066 156.621 107.527 156.293 108.113C155.965 108.691 155.801 109.363 155.801 110.129C155.801 110.887 155.965 111.562 156.293 112.156C156.621 112.75 157.074 113.215 157.652 113.551C158.23 113.887 158.891 114.055 159.633 114.055C160.234 114.055 160.805 113.941 161.344 113.715C161.883 113.488 162.34 113.176 162.715 112.777L164.145 114.254ZM176.59 114.254C176.02 114.887 175.336 115.375 174.539 115.719C173.742 116.062 172.879 116.234 171.949 116.234C170.777 116.234 169.723 115.969 168.785 115.438C167.855 114.906 167.121 114.18 166.582 113.258C166.043 112.336 165.773 111.297 165.773 110.141C165.773 108.977 166.043 107.938 166.582 107.023C167.121 106.102 167.855 105.375 168.785 104.844C169.723 104.312 170.777 104.047 171.949 104.047C172.871 104.047 173.73 104.219 174.527 104.562C175.324 104.898 176.008 105.383 176.578 106.016L175.16 107.504C174.777 107.098 174.316 106.785 173.777 106.566C173.246 106.34 172.68 106.227 172.078 106.227C171.336 106.227 170.676 106.395 170.098 106.73C169.52 107.066 169.066 107.527 168.738 108.113C168.41 108.691 168.246 109.363 168.246 110.129C168.246 110.887 168.41 111.562 168.738 112.156C169.066 112.75 169.52 113.215 170.098 113.551C170.676 113.887 171.336 114.055 172.078 114.055C172.68 114.055 173.25 113.941 173.789 113.715C174.328 113.488 174.785 113.176 175.16 112.777L176.59 114.254ZM184.406 116.234C183.234 116.234 182.18 115.969 181.242 115.438C180.305 114.906 179.566 114.184 179.027 113.27C178.488 112.348 178.219 111.305 178.219 110.141C178.219 108.984 178.488 107.949 179.027 107.035C179.566 106.113 180.305 105.387 181.242 104.855C182.18 104.316 183.234 104.047 184.406 104.047C185.586 104.047 186.641 104.316 187.57 104.855C188.5 105.387 189.23 106.113 189.762 107.035C190.301 107.949 190.57 108.984 190.57 110.141C190.57 111.305 190.301 112.348 189.762 113.27C189.23 114.184 188.5 114.906 187.57 115.438C186.641 115.969 185.586 116.234 184.406 116.234ZM184.395 114.078C185.105 114.078 185.738 113.906 186.293 113.562C186.855 113.211 187.297 112.742 187.617 112.156C187.945 111.562 188.109 110.887 188.109 110.129C188.109 109.387 187.945 108.723 187.617 108.137C187.297 107.543 186.855 107.074 186.293 106.73C185.738 106.379 185.105 106.203 184.395 106.203C183.691 106.203 183.059 106.379 182.496 106.73C181.934 107.074 181.488 107.543 181.16 108.137C180.84 108.723 180.68 109.387 180.68 110.129C180.68 110.887 180.84 111.562 181.16 112.156C181.488 112.742 181.934 113.211 182.496 113.562C183.059 113.906 183.691 114.078 184.395 114.078ZM204.059 116H202.02L201.938 114.113C201.508 114.801 200.945 115.328 200.25 115.695C199.562 116.055 198.746 116.234 197.801 116.234C196.27 116.234 195.059 115.77 194.168 114.84C193.285 113.902 192.844 112.621 192.844 110.996V104.281H195.246V110.645C195.246 111.684 195.527 112.512 196.09 113.129C196.652 113.746 197.41 114.055 198.363 114.055C199.348 114.055 200.141 113.727 200.742 113.07C201.352 112.406 201.656 111.535 201.656 110.457V104.281H204.059V116ZM218.66 116H216.258V109.637C216.258 108.598 215.973 107.77 215.402 107.152C214.84 106.535 214.082 106.227 213.129 106.227C212.145 106.227 211.352 106.555 210.75 107.211C210.148 107.867 209.848 108.738 209.848 109.824V116H207.445V104.281H209.473L209.555 106.168C209.984 105.48 210.547 104.957 211.242 104.598C211.938 104.23 212.754 104.047 213.691 104.047C215.23 104.047 216.441 104.512 217.324 105.441C218.215 106.371 218.66 107.652 218.66 109.285V116ZM228.844 115.707C228.023 116.059 227.23 116.234 226.465 116.234C225.699 116.234 225.027 116.07 224.449 115.742C223.879 115.414 223.43 114.953 223.102 114.359C222.781 113.758 222.621 113.066 222.621 112.285V106.426H220.57V104.281H222.738V101.352H225.023V104.281H228.445V106.426H225.023V111.84C225.023 112.527 225.207 113.074 225.574 113.48C225.949 113.879 226.43 114.078 227.016 114.078C227.508 114.078 227.996 113.93 228.48 113.633L228.844 115.707ZM242.25 116.234C241.078 116.234 240.023 115.969 239.086 115.438C238.148 114.906 237.41 114.184 236.871 113.27C236.332 112.348 236.062 111.305 236.062 110.141C236.062 108.984 236.332 107.949 236.871 107.035C237.41 106.113 238.148 105.387 239.086 104.855C240.023 104.316 241.078 104.047 242.25 104.047C243.43 104.047 244.484 104.316 245.414 104.855C246.344 105.387 247.074 106.113 247.605 107.035C248.145 107.949 248.414 108.984 248.414 110.141C248.414 111.305 248.145 112.348 247.605 113.27C247.074 114.184 246.344 114.906 245.414 115.438C244.484 115.969 243.43 116.234 242.25 116.234ZM242.238 114.078C242.949 114.078 243.582 113.906 244.137 113.562C244.699 113.211 245.141 112.742 245.461 112.156C245.789 111.562 245.953 110.887 245.953 110.129C245.953 109.387 245.789 108.723 245.461 108.137C245.141 107.543 244.699 107.074 244.137 106.73C243.582 106.379 242.949 106.203 242.238 106.203C241.535 106.203 240.902 106.379 240.34 106.73C239.777 107.074 239.332 107.543 239.004 108.137C238.684 108.723 238.523 109.387 238.523 110.129C238.523 110.887 238.684 111.562 239.004 112.156C239.332 112.742 239.777 113.211 240.34 113.562C240.902 113.906 241.535 114.078 242.238 114.078ZM253.324 116H250.922V104.281H253.02L253.113 106.508C253.52 105.734 254.078 105.133 254.789 104.703C255.508 104.266 256.332 104.047 257.262 104.047C257.488 104.047 257.715 104.062 257.941 104.094C258.176 104.117 258.41 104.156 258.645 104.211L258.34 106.379C257.887 106.262 257.441 106.203 257.004 106.203C256.277 106.203 255.637 106.379 255.082 106.73C254.527 107.074 254.094 107.551 253.781 108.16C253.477 108.77 253.324 109.473 253.324 110.27V116ZM34.2656 150.254C33.6953 150.887 33.0117 151.375 32.2148 151.719C31.418 152.062 30.5547 152.234 29.625 152.234C28.4531 152.234 27.3984 151.969 26.4609 151.438C25.5312 150.906 24.7969 150.18 24.2578 149.258C23.7188 148.336 23.4492 147.297 23.4492 146.141C23.4492 144.977 23.7188 143.938 24.2578 143.023C24.7969 142.102 25.5312 141.375 26.4609 140.844C27.3984 140.312 28.4531 140.047 29.625 140.047C30.5469 140.047 31.4062 140.219 32.2031 140.562C33 140.898 33.6836 141.383 34.2539 142.016L32.8359 143.504C32.4531 143.098 31.9922 142.785 31.4531 142.566C30.9219 142.34 30.3555 142.227 29.7539 142.227C29.0117 142.227 28.3516 142.395 27.7734 142.73C27.1953 143.066 26.7422 143.527 26.4141 144.113C26.0859 144.691 25.9219 145.363 25.9219 146.129C25.9219 146.887 26.0859 147.562 26.4141 148.156C26.7422 148.75 27.1953 149.215 27.7734 149.551C28.3516 149.887 29.0117 150.055 29.7539 150.055C30.3555 150.055 30.9258 149.941 31.4648 149.715C32.0039 149.488 32.4609 149.176 32.8359 148.777L34.2656 150.254ZM39.1641 152H36.7617V140.281H38.8594L38.9531 142.508C39.3594 141.734 39.918 141.133 40.6289 140.703C41.3477 140.266 42.1719 140.047 43.1016 140.047C43.3281 140.047 43.5547 140.062 43.7812 140.094C44.0156 140.117 44.25 140.156 44.4844 140.211L44.1797 142.379C43.7266 142.262 43.2812 142.203 42.8438 142.203C42.1172 142.203 41.4766 142.379 40.9219 142.73C40.3672 143.074 39.9336 143.551 39.6211 144.16C39.3164 144.77 39.1641 145.473 39.1641 146.27V152ZM56.7773 150.605C55.3242 151.691 53.7266 152.234 51.9844 152.234C50.7422 152.234 49.6289 151.961 48.6445 151.414C47.6602 150.867 46.8828 150.121 46.3125 149.176C45.7422 148.23 45.457 147.164 45.457 145.977C45.457 144.844 45.7188 143.832 46.2422 142.941C46.7656 142.043 47.4805 141.336 48.3867 140.82C49.293 140.305 50.3203 140.047 51.4688 140.047C52.6562 140.047 53.6992 140.328 54.5977 140.891C55.5039 141.453 56.207 142.238 56.707 143.246C57.2148 144.246 57.4688 145.406 57.4688 146.727V147.102H48.0586C48.1992 147.711 48.4648 148.246 48.8555 148.707C49.2461 149.16 49.7305 149.516 50.3086 149.773C50.8867 150.023 51.5391 150.148 52.2656 150.148C53.5625 150.148 54.7539 149.727 55.8398 148.883L56.7773 150.605ZM47.9531 145.438H55.2305C55.1523 144.781 54.9492 144.211 54.6211 143.727C54.293 143.234 53.8672 142.852 53.3438 142.578C52.8281 142.297 52.2461 142.156 51.5977 142.156C50.9414 142.156 50.3516 142.297 49.8281 142.578C49.3047 142.852 48.8789 143.234 48.5508 143.727C48.2305 144.219 48.0312 144.789 47.9531 145.438ZM71.6367 152H69.5156L69.3867 150.324C68.8555 150.918 68.2148 151.387 67.4648 151.73C66.7227 152.066 65.9062 152.234 65.0156 152.234C63.8906 152.234 62.8828 151.969 61.9922 151.438C61.1016 150.906 60.3984 150.18 59.8828 149.258C59.375 148.336 59.1211 147.297 59.1211 146.141C59.1211 144.977 59.375 143.938 59.8828 143.023C60.3984 142.102 61.1016 141.375 61.9922 140.844C62.8828 140.312 63.8906 140.047 65.0156 140.047C65.8594 140.047 66.6406 140.199 67.3594 140.504C68.0859 140.809 68.7109 141.234 69.2344 141.781V134.422H71.6367V152ZM65.4141 150.078C66.125 150.078 66.7656 149.914 67.3359 149.586C67.9141 149.258 68.375 148.812 68.7188 148.25C69.0625 147.688 69.2344 147.047 69.2344 146.328V145.93C69.2344 145.211 69.0625 144.57 68.7188 144.008C68.375 143.445 67.9141 143.004 67.3359 142.684C66.7656 142.363 66.125 142.203 65.4141 142.203C64.6875 142.203 64.0352 142.375 63.457 142.719C62.8789 143.062 62.4219 143.531 62.0859 144.125C61.75 144.711 61.582 145.379 61.582 146.129C61.582 146.879 61.75 147.551 62.0859 148.145C62.4219 148.738 62.8789 149.211 63.457 149.562C64.0352 149.906 64.6875 150.078 65.4141 150.078ZM76.2539 136.883C75.8867 136.883 75.5781 136.754 75.3281 136.496C75.0781 136.238 74.9531 135.926 74.9531 135.559C74.9531 135.191 75.0781 134.883 75.3281 134.633C75.5781 134.375 75.8867 134.246 76.2539 134.246C76.6289 134.246 76.9414 134.375 77.1914 134.633C77.4492 134.883 77.5781 135.191 77.5781 135.559C77.5781 135.926 77.4492 136.238 77.1914 136.496C76.9414 136.754 76.6289 136.883 76.2539 136.883ZM77.4492 152H75.0469V140.281H77.4492V152ZM88.1367 151.707C87.3164 152.059 86.5234 152.234 85.7578 152.234C84.9922 152.234 84.3203 152.07 83.7422 151.742C83.1719 151.414 82.7227 150.953 82.3945 150.359C82.0742 149.758 81.9141 149.066 81.9141 148.285V142.426H79.8633V140.281H82.0312V137.352H84.3164V140.281H87.7383V142.426H84.3164V147.84C84.3164 148.527 84.5 149.074 84.8672 149.48C85.2422 149.879 85.7227 150.078 86.3086 150.078C86.8008 150.078 87.2891 149.93 87.7734 149.633L88.1367 151.707ZM106.172 150.254C105.602 150.887 104.918 151.375 104.121 151.719C103.324 152.062 102.461 152.234 101.531 152.234C100.359 152.234 99.3047 151.969 98.3672 151.438C97.4375 150.906 96.7031 150.18 96.1641 149.258C95.625 148.336 95.3555 147.297 95.3555 146.141C95.3555 144.977 95.625 143.938 96.1641 143.023C96.7031 142.102 97.4375 141.375 98.3672 140.844C99.3047 140.312 100.359 140.047 101.531 140.047C102.453 140.047 103.312 140.219 104.109 140.562C104.906 140.898 105.59 141.383 106.16 142.016L104.742 143.504C104.359 143.098 103.898 142.785 103.359 142.566C102.828 142.34 102.262 142.227 101.66 142.227C100.918 142.227 100.258 142.395 99.6797 142.73C99.1016 143.066 98.6484 143.527 98.3203 144.113C97.9922 144.691 97.8281 145.363 97.8281 146.129C97.8281 146.887 97.9922 147.562 98.3203 148.156C98.6484 148.75 99.1016 149.215 99.6797 149.551C100.258 149.887 100.918 150.055 101.66 150.055C102.262 150.055 102.832 149.941 103.371 149.715C103.91 149.488 104.367 149.176 104.742 148.777L106.172 150.254ZM118.453 152H116.379L116.238 150.5C115.809 151.047 115.266 151.473 114.609 151.777C113.953 152.082 113.227 152.234 112.43 152.234C111.594 152.234 110.848 152.07 110.191 151.742C109.535 151.414 109.02 150.965 108.645 150.395C108.27 149.824 108.082 149.176 108.082 148.449C108.082 147.684 108.285 147.012 108.691 146.434C109.098 145.848 109.652 145.391 110.355 145.062C111.059 144.727 111.859 144.559 112.758 144.559C113.32 144.559 113.891 144.625 114.469 144.758C115.055 144.891 115.582 145.078 116.051 145.32V144.887C116.051 144.316 115.902 143.828 115.605 143.422C115.316 143.008 114.918 142.691 114.41 142.473C113.91 142.254 113.355 142.145 112.746 142.145C112.207 142.145 111.656 142.238 111.094 142.426C110.539 142.613 110.016 142.902 109.523 143.293L108.797 141.336C109.508 140.914 110.246 140.594 111.012 140.375C111.785 140.156 112.543 140.047 113.285 140.047C114.348 140.047 115.262 140.258 116.027 140.68C116.801 141.102 117.398 141.703 117.82 142.484C118.242 143.258 118.453 144.172 118.453 145.227V152ZM112.898 150.195C113.453 150.195 113.965 150.082 114.434 149.855C114.902 149.621 115.281 149.293 115.57 148.871C115.867 148.441 116.027 147.941 116.051 147.371V147.207C115.652 146.91 115.203 146.68 114.703 146.516C114.211 146.344 113.707 146.258 113.191 146.258C112.402 146.258 111.746 146.445 111.223 146.82C110.699 147.195 110.438 147.676 110.438 148.262C110.438 148.629 110.543 148.961 110.754 149.258C110.973 149.547 111.266 149.777 111.633 149.949C112.008 150.113 112.43 150.195 112.898 150.195ZM124.008 152H121.605V140.281H123.703L123.797 142.508C124.203 141.734 124.762 141.133 125.473 140.703C126.191 140.266 127.016 140.047 127.945 140.047C128.172 140.047 128.398 140.062 128.625 140.094C128.859 140.117 129.094 140.156 129.328 140.211L129.023 142.379C128.57 142.262 128.125 142.203 127.688 142.203C126.961 142.203 126.32 142.379 125.766 142.73C125.211 143.074 124.777 143.551 124.465 144.16C124.16 144.77 124.008 145.473 124.008 146.27V152ZM142.816 152H140.695L140.566 150.324C140.035 150.918 139.395 151.387 138.645 151.73C137.902 152.066 137.086 152.234 136.195 152.234C135.07 152.234 134.062 151.969 133.172 151.438C132.281 150.906 131.578 150.18 131.062 149.258C130.555 148.336 130.301 147.297 130.301 146.141C130.301 144.977 130.555 143.938 131.062 143.023C131.578 142.102 132.281 141.375 133.172 140.844C134.062 140.312 135.07 140.047 136.195 140.047C137.039 140.047 137.82 140.199 138.539 140.504C139.266 140.809 139.891 141.234 140.414 141.781V134.422H142.816V152ZM136.594 150.078C137.305 150.078 137.945 149.914 138.516 149.586C139.094 149.258 139.555 148.812 139.898 148.25C140.242 147.688 140.414 147.047 140.414 146.328V145.93C140.414 145.211 140.242 144.57 139.898 144.008C139.555 143.445 139.094 143.004 138.516 142.684C137.945 142.363 137.305 142.203 136.594 142.203C135.867 142.203 135.215 142.375 134.637 142.719C134.059 143.062 133.602 143.531 133.266 144.125C132.93 144.711 132.762 145.379 132.762 146.129C132.762 146.879 132.93 147.551 133.266 148.145C133.602 148.738 134.059 149.211 134.637 149.562C135.215 149.906 135.867 150.078 136.594 150.078ZM164.824 152H162.059L159.668 143.621L157.277 152H154.512L150.762 140.281H153.305L155.871 149.258L158.578 140.281H160.758L163.465 149.27L166.043 140.281H168.586L164.824 152ZM170.824 152V134.422H173.227V141.91C174.094 140.668 175.41 140.047 177.176 140.047C178.699 140.047 179.891 140.508 180.75 141.43C181.609 142.352 182.039 143.637 182.039 145.285V152H179.637V145.871C179.637 144.707 179.355 143.805 178.793 143.164C178.238 142.523 177.461 142.203 176.461 142.203C175.453 142.203 174.66 142.531 174.082 143.188C173.512 143.836 173.227 144.73 173.227 145.871V152H170.824ZM195.645 150.605C194.191 151.691 192.594 152.234 190.852 152.234C189.609 152.234 188.496 151.961 187.512 151.414C186.527 150.867 185.75 150.121 185.18 149.176C184.609 148.23 184.324 147.164 184.324 145.977C184.324 144.844 184.586 143.832 185.109 142.941C185.633 142.043 186.348 141.336 187.254 140.82C188.16 140.305 189.188 140.047 190.336 140.047C191.523 140.047 192.566 140.328 193.465 140.891C194.371 141.453 195.074 142.238 195.574 143.246C196.082 144.246 196.336 145.406 196.336 146.727V147.102H186.926C187.066 147.711 187.332 148.246 187.723 148.707C188.113 149.16 188.598 149.516 189.176 149.773C189.754 150.023 190.406 150.148 191.133 150.148C192.43 150.148 193.621 149.727 194.707 148.883L195.645 150.605ZM186.82 145.438H194.098C194.02 144.781 193.816 144.211 193.488 143.727C193.16 143.234 192.734 142.852 192.211 142.578C191.695 142.297 191.113 142.156 190.465 142.156C189.809 142.156 189.219 142.297 188.695 142.578C188.172 142.852 187.746 143.234 187.418 143.727C187.098 144.219 186.898 144.789 186.82 145.438ZM201.258 152H198.855V140.281H200.953L201.047 142.508C201.453 141.734 202.012 141.133 202.723 140.703C203.441 140.266 204.266 140.047 205.195 140.047C205.422 140.047 205.648 140.062 205.875 140.094C206.109 140.117 206.344 140.156 206.578 140.211L206.273 142.379C205.82 142.262 205.375 142.203 204.938 142.203C204.211 142.203 203.57 142.379 203.016 142.73C202.461 143.074 202.027 143.551 201.715 144.16C201.41 144.77 201.258 145.473 201.258 146.27V152ZM218.871 150.605C217.418 151.691 215.82 152.234 214.078 152.234C212.836 152.234 211.723 151.961 210.738 151.414C209.754 150.867 208.977 150.121 208.406 149.176C207.836 148.23 207.551 147.164 207.551 145.977C207.551 144.844 207.812 143.832 208.336 142.941C208.859 142.043 209.574 141.336 210.48 140.82C211.387 140.305 212.414 140.047 213.562 140.047C214.75 140.047 215.793 140.328 216.691 140.891C217.598 141.453 218.301 142.238 218.801 143.246C219.309 144.246 219.562 145.406 219.562 146.727V147.102H210.152C210.293 147.711 210.559 148.246 210.949 148.707C211.34 149.16 211.824 149.516 212.402 149.773C212.98 150.023 213.633 150.148 214.359 150.148C215.656 150.148 216.848 149.727 217.934 148.883L218.871 150.605ZM210.047 145.438H217.324C217.246 144.781 217.043 144.211 216.715 143.727C216.387 143.234 215.961 142.852 215.438 142.578C214.922 142.297 214.34 142.156 213.691 142.156C213.035 142.156 212.445 142.297 211.922 142.578C211.398 142.852 210.973 143.234 210.645 143.727C210.324 144.219 210.125 144.789 210.047 145.438ZM232.547 157.859H229.957L232.406 151.93L226.699 140.281H229.383L233.555 149.176L237.234 140.281H239.812L232.547 157.859ZM247.02 152.234C245.848 152.234 244.793 151.969 243.855 151.438C242.918 150.906 242.18 150.184 241.641 149.27C241.102 148.348 240.832 147.305 240.832 146.141C240.832 144.984 241.102 143.949 241.641 143.035C242.18 142.113 242.918 141.387 243.855 140.855C244.793 140.316 245.848 140.047 247.02 140.047C248.199 140.047 249.254 140.316 250.184 140.855C251.113 141.387 251.844 142.113 252.375 143.035C252.914 143.949 253.184 144.984 253.184 146.141C253.184 147.305 252.914 148.348 252.375 149.27C251.844 150.184 251.113 150.906 250.184 151.438C249.254 151.969 248.199 152.234 247.02 152.234ZM247.008 150.078C247.719 150.078 248.352 149.906 248.906 149.562C249.469 149.211 249.91 148.742 250.23 148.156C250.559 147.562 250.723 146.887 250.723 146.129C250.723 145.387 250.559 144.723 250.23 144.137C249.91 143.543 249.469 143.074 248.906 142.73C248.352 142.379 247.719 142.203 247.008 142.203C246.305 142.203 245.672 142.379 245.109 142.73C244.547 143.074 244.102 143.543 243.773 144.137C243.453 144.723 243.293 145.387 243.293 146.129C243.293 146.887 243.453 147.562 243.773 148.156C244.102 148.742 244.547 149.211 245.109 149.562C245.672 149.906 246.305 150.078 247.008 150.078ZM266.672 152H264.633L264.551 150.113C264.121 150.801 263.559 151.328 262.863 151.695C262.176 152.055 261.359 152.234 260.414 152.234C258.883 152.234 257.672 151.77 256.781 150.84C255.898 149.902 255.457 148.621 255.457 146.996V140.281H257.859V146.645C257.859 147.684 258.141 148.512 258.703 149.129C259.266 149.746 260.023 150.055 260.977 150.055C261.961 150.055 262.754 149.727 263.355 149.07C263.965 148.406 264.27 147.535 264.27 146.457V140.281H266.672V152ZM36.7266 186.254C36.1562 186.887 35.4727 187.375 34.6758 187.719C33.8789 188.062 33.0156 188.234 32.0859 188.234C30.9141 188.234 29.8594 187.969 28.9219 187.438C27.9922 186.906 27.2578 186.18 26.7188 185.258C26.1797 184.336 25.9102 183.297 25.9102 182.141C25.9102 180.977 26.1797 179.938 26.7188 179.023C27.2578 178.102 27.9922 177.375 28.9219 176.844C29.8594 176.312 30.9141 176.047 32.0859 176.047C33.0078 176.047 33.8672 176.219 34.6641 176.562C35.4609 176.898 36.1445 177.383 36.7148 178.016L35.2969 179.504C34.9141 179.098 34.4531 178.785 33.9141 178.566C33.3828 178.34 32.8164 178.227 32.2148 178.227C31.4727 178.227 30.8125 178.395 30.2344 178.73C29.6562 179.066 29.2031 179.527 28.875 180.113C28.5469 180.691 28.3828 181.363 28.3828 182.129C28.3828 182.887 28.5469 183.562 28.875 184.156C29.2031 184.75 29.6562 185.215 30.2344 185.551C30.8125 185.887 31.4727 186.055 32.2148 186.055C32.8164 186.055 33.3867 185.941 33.9258 185.715C34.4648 185.488 34.9219 185.176 35.2969 184.777L36.7266 186.254ZM44.543 188.234C43.3711 188.234 42.3164 187.969 41.3789 187.438C40.4414 186.906 39.7031 186.184 39.1641 185.27C38.625 184.348 38.3555 183.305 38.3555 182.141C38.3555 180.984 38.625 179.949 39.1641 179.035C39.7031 178.113 40.4414 177.387 41.3789 176.855C42.3164 176.316 43.3711 176.047 44.543 176.047C45.7227 176.047 46.7773 176.316 47.707 176.855C48.6367 177.387 49.3672 178.113 49.8984 179.035C50.4375 179.949 50.707 180.984 50.707 182.141C50.707 183.305 50.4375 184.348 49.8984 185.27C49.3672 186.184 48.6367 186.906 47.707 187.438C46.7773 187.969 45.7227 188.234 44.543 188.234ZM44.5312 186.078C45.2422 186.078 45.875 185.906 46.4297 185.562C46.9922 185.211 47.4336 184.742 47.7539 184.156C48.082 183.562 48.2461 182.887 48.2461 182.129C48.2461 181.387 48.082 180.723 47.7539 180.137C47.4336 179.543 46.9922 179.074 46.4297 178.73C45.875 178.379 45.2422 178.203 44.5312 178.203C43.8281 178.203 43.1953 178.379 42.6328 178.73C42.0703 179.074 41.625 179.543 41.2969 180.137C40.9766 180.723 40.8164 181.387 40.8164 182.129C40.8164 182.887 40.9766 183.562 41.2969 184.156C41.625 184.742 42.0703 185.211 42.6328 185.562C43.1953 185.906 43.8281 186.078 44.5312 186.078ZM64.4297 188H62.0273V181.637C62.0273 180.598 61.7422 179.77 61.1719 179.152C60.6094 178.535 59.8516 178.227 58.8984 178.227C57.9141 178.227 57.1211 178.555 56.5195 179.211C55.918 179.867 55.6172 180.738 55.6172 181.824V188H53.2148V176.281H55.2422L55.3242 178.168C55.7539 177.48 56.3164 176.957 57.0117 176.598C57.707 176.23 58.5234 176.047 59.4609 176.047C61 176.047 62.2109 176.512 63.0938 177.441C63.9844 178.371 64.4297 179.652 64.4297 181.285V188ZM79.2305 188H77.1094L76.9805 186.324C76.4492 186.918 75.8086 187.387 75.0586 187.73C74.3164 188.066 73.5 188.234 72.6094 188.234C71.4844 188.234 70.4766 187.969 69.5859 187.438C68.6953 186.906 67.9922 186.18 67.4766 185.258C66.9688 184.336 66.7148 183.297 66.7148 182.141C66.7148 180.977 66.9688 179.938 67.4766 179.023C67.9922 178.102 68.6953 177.375 69.5859 176.844C70.4766 176.312 71.4844 176.047 72.6094 176.047C73.4531 176.047 74.2344 176.199 74.9531 176.504C75.6797 176.809 76.3047 177.234 76.8281 177.781V170.422H79.2305V188ZM73.0078 186.078C73.7188 186.078 74.3594 185.914 74.9297 185.586C75.5078 185.258 75.9688 184.812 76.3125 184.25C76.6562 183.688 76.8281 183.047 76.8281 182.328V181.93C76.8281 181.211 76.6562 180.57 76.3125 180.008C75.9688 179.445 75.5078 179.004 74.9297 178.684C74.3594 178.363 73.7188 178.203 73.0078 178.203C72.2812 178.203 71.6289 178.375 71.0508 178.719C70.4727 179.062 70.0156 179.531 69.6797 180.125C69.3438 180.711 69.1758 181.379 69.1758 182.129C69.1758 182.879 69.3438 183.551 69.6797 184.145C70.0156 184.738 70.4727 185.211 71.0508 185.562C71.6289 185.906 72.2812 186.078 73.0078 186.078ZM93.5859 188H91.5469L91.4648 186.113C91.0352 186.801 90.4727 187.328 89.7773 187.695C89.0898 188.055 88.2734 188.234 87.3281 188.234C85.7969 188.234 84.5859 187.77 83.6953 186.84C82.8125 185.902 82.3711 184.621 82.3711 182.996V176.281H84.7734V182.645C84.7734 183.684 85.0547 184.512 85.6172 185.129C86.1797 185.746 86.9375 186.055 87.8906 186.055C88.875 186.055 89.668 185.727 90.2695 185.07C90.8789 184.406 91.1836 183.535 91.1836 182.457V176.281H93.5859V188ZM106.922 186.254C106.352 186.887 105.668 187.375 104.871 187.719C104.074 188.062 103.211 188.234 102.281 188.234C101.109 188.234 100.055 187.969 99.1172 187.438C98.1875 186.906 97.4531 186.18 96.9141 185.258C96.375 184.336 96.1055 183.297 96.1055 182.141C96.1055 180.977 96.375 179.938 96.9141 179.023C97.4531 178.102 98.1875 177.375 99.1172 176.844C100.055 176.312 101.109 176.047 102.281 176.047C103.203 176.047 104.062 176.219 104.859 176.562C105.656 176.898 106.34 177.383 106.91 178.016L105.492 179.504C105.109 179.098 104.648 178.785 104.109 178.566C103.578 178.34 103.012 178.227 102.41 178.227C101.668 178.227 101.008 178.395 100.43 178.73C99.8516 179.066 99.3984 179.527 99.0703 180.113C98.7422 180.691 98.5781 181.363 98.5781 182.129C98.5781 182.887 98.7422 183.562 99.0703 184.156C99.3984 184.75 99.8516 185.215 100.43 185.551C101.008 185.887 101.668 186.055 102.41 186.055C103.012 186.055 103.582 185.941 104.121 185.715C104.66 185.488 105.117 185.176 105.492 184.777L106.922 186.254ZM116.566 187.707C115.746 188.059 114.953 188.234 114.188 188.234C113.422 188.234 112.75 188.07 112.172 187.742C111.602 187.414 111.152 186.953 110.824 186.359C110.504 185.758 110.344 185.066 110.344 184.285V178.426H108.293V176.281H110.461V173.352H112.746V176.281H116.168V178.426H112.746V183.84C112.746 184.527 112.93 185.074 113.297 185.48C113.672 185.879 114.152 186.078 114.738 186.078C115.23 186.078 115.719 185.93 116.203 185.633L116.566 187.707ZM143.379 188H140.977V181.871C140.977 180.707 140.727 179.805 140.227 179.164C139.734 178.523 139.039 178.203 138.141 178.203C137.227 178.203 136.512 178.527 135.996 179.176C135.48 179.824 135.223 180.723 135.223 181.871V188H132.82V181.871C132.82 180.707 132.57 179.805 132.07 179.164C131.57 178.523 130.871 178.203 129.973 178.203C129.059 178.203 128.344 178.527 127.828 179.176C127.312 179.824 127.055 180.723 127.055 181.871V188H124.652V176.281H126.598L126.691 178.32C127.082 177.578 127.609 177.016 128.273 176.633C128.945 176.242 129.734 176.047 130.641 176.047C131.602 176.047 132.426 176.258 133.113 176.68C133.801 177.102 134.32 177.707 134.672 178.496C135.062 177.691 135.602 177.082 136.289 176.668C136.984 176.254 137.809 176.047 138.762 176.047C140.215 176.047 141.348 176.508 142.16 177.43C142.973 178.352 143.379 179.637 143.379 181.285V188ZM151.84 188.234C150.668 188.234 149.613 187.969 148.676 187.438C147.738 186.906 147 186.184 146.461 185.27C145.922 184.348 145.652 183.305 145.652 182.141C145.652 180.984 145.922 179.949 146.461 179.035C147 178.113 147.738 177.387 148.676 176.855C149.613 176.316 150.668 176.047 151.84 176.047C153.02 176.047 154.074 176.316 155.004 176.855C155.934 177.387 156.664 178.113 157.195 179.035C157.734 179.949 158.004 180.984 158.004 182.141C158.004 183.305 157.734 184.348 157.195 185.27C156.664 186.184 155.934 186.906 155.004 187.438C154.074 187.969 153.02 188.234 151.84 188.234ZM151.828 186.078C152.539 186.078 153.172 185.906 153.727 185.562C154.289 185.211 154.73 184.742 155.051 184.156C155.379 183.562 155.543 182.887 155.543 182.129C155.543 181.387 155.379 180.723 155.051 180.137C154.73 179.543 154.289 179.074 153.727 178.73C153.172 178.379 152.539 178.203 151.828 178.203C151.125 178.203 150.492 178.379 149.93 178.73C149.367 179.074 148.922 179.543 148.594 180.137C148.273 180.723 148.113 181.387 148.113 182.129C148.113 182.887 148.273 183.562 148.594 184.156C148.922 184.742 149.367 185.211 149.93 185.562C150.492 185.906 151.125 186.078 151.828 186.078ZM159.691 186.98L160.277 184.824C160.543 185.09 160.859 185.324 161.227 185.527C161.602 185.73 161.996 185.891 162.41 186.008C162.832 186.117 163.246 186.172 163.652 186.172C164.293 186.172 164.809 186.035 165.199 185.762C165.59 185.488 165.785 185.125 165.785 184.672C165.785 184.336 165.676 184.059 165.457 183.84C165.246 183.613 164.961 183.418 164.602 183.254C164.25 183.09 163.871 182.93 163.465 182.773C162.941 182.578 162.418 182.352 161.895 182.094C161.379 181.836 160.945 181.492 160.594 181.062C160.242 180.633 160.066 180.066 160.066 179.363C160.066 178.691 160.238 178.109 160.582 177.617C160.926 177.117 161.406 176.73 162.023 176.457C162.641 176.184 163.352 176.047 164.156 176.047C165.406 176.047 166.645 176.359 167.871 176.984L167.168 179.035C166.918 178.855 166.621 178.695 166.277 178.555C165.934 178.414 165.582 178.305 165.223 178.227C164.863 178.141 164.531 178.098 164.227 178.098C163.719 178.098 163.309 178.211 162.996 178.438C162.691 178.664 162.539 178.969 162.539 179.352C162.539 179.586 162.613 179.801 162.762 179.996C162.91 180.184 163.145 180.371 163.465 180.559C163.793 180.738 164.234 180.941 164.789 181.168C165.32 181.379 165.852 181.621 166.383 181.895C166.914 182.168 167.355 182.523 167.707 182.961C168.066 183.398 168.246 183.973 168.246 184.684C168.246 185.387 168.059 186.008 167.684 186.547C167.309 187.078 166.785 187.492 166.113 187.789C165.449 188.086 164.676 188.234 163.793 188.234C162.332 188.234 160.965 187.816 159.691 186.98ZM177.949 187.707C177.129 188.059 176.336 188.234 175.57 188.234C174.805 188.234 174.133 188.07 173.555 187.742C172.984 187.414 172.535 186.953 172.207 186.359C171.887 185.758 171.727 185.066 171.727 184.285V178.426H169.676V176.281H171.844V173.352H174.129V176.281H177.551V178.426H174.129V183.84C174.129 184.527 174.312 185.074 174.68 185.48C175.055 185.879 175.535 186.078 176.121 186.078C176.613 186.078 177.102 185.93 177.586 185.633L177.949 187.707ZM191.355 188.234C190.184 188.234 189.129 187.969 188.191 187.438C187.254 186.906 186.516 186.184 185.977 185.27C185.438 184.348 185.168 183.305 185.168 182.141C185.168 180.984 185.438 179.949 185.977 179.035C186.516 178.113 187.254 177.387 188.191 176.855C189.129 176.316 190.184 176.047 191.355 176.047C192.535 176.047 193.59 176.316 194.52 176.855C195.449 177.387 196.18 178.113 196.711 179.035C197.25 179.949 197.52 180.984 197.52 182.141C197.52 183.305 197.25 184.348 196.711 185.27C196.18 186.184 195.449 186.906 194.52 187.438C193.59 187.969 192.535 188.234 191.355 188.234ZM191.344 186.078C192.055 186.078 192.688 185.906 193.242 185.562C193.805 185.211 194.246 184.742 194.566 184.156C194.895 183.562 195.059 182.887 195.059 182.129C195.059 181.387 194.895 180.723 194.566 180.137C194.246 179.543 193.805 179.074 193.242 178.73C192.688 178.379 192.055 178.203 191.344 178.203C190.641 178.203 190.008 178.379 189.445 178.73C188.883 179.074 188.438 179.543 188.109 180.137C187.789 180.723 187.629 181.387 187.629 182.129C187.629 182.887 187.789 183.562 188.109 184.156C188.438 184.742 188.883 185.211 189.445 185.562C190.008 185.906 190.641 186.078 191.344 186.078ZM203.332 188H200.93V178.426H198.879V176.281H200.93V173.996C200.93 173.23 201.098 172.555 201.434 171.969C201.777 171.375 202.246 170.91 202.84 170.574C203.441 170.238 204.133 170.07 204.914 170.07C205.398 170.07 205.887 170.137 206.379 170.27C206.871 170.402 207.355 170.609 207.832 170.891L206.918 172.777C206.66 172.59 206.391 172.453 206.109 172.367C205.836 172.273 205.562 172.227 205.289 172.227C204.719 172.227 204.25 172.43 203.883 172.836C203.516 173.242 203.332 173.785 203.332 174.465V176.281H206.918V178.426H203.332V188ZM220.523 193.859H217.934L220.383 187.93L214.676 176.281H217.359L221.531 185.176L225.211 176.281H227.789L220.523 193.859ZM234.996 188.234C233.824 188.234 232.77 187.969 231.832 187.438C230.895 186.906 230.156 186.184 229.617 185.27C229.078 184.348 228.809 183.305 228.809 182.141C228.809 180.984 229.078 179.949 229.617 179.035C230.156 178.113 230.895 177.387 231.832 176.855C232.77 176.316 233.824 176.047 234.996 176.047C236.176 176.047 237.23 176.316 238.16 176.855C239.09 177.387 239.82 178.113 240.352 179.035C240.891 179.949 241.16 180.984 241.16 182.141C241.16 183.305 240.891 184.348 240.352 185.27C239.82 186.184 239.09 186.906 238.16 187.438C237.23 187.969 236.176 188.234 234.996 188.234ZM234.984 186.078C235.695 186.078 236.328 185.906 236.883 185.562C237.445 185.211 237.887 184.742 238.207 184.156C238.535 183.562 238.699 182.887 238.699 182.129C238.699 181.387 238.535 180.723 238.207 180.137C237.887 179.543 237.445 179.074 236.883 178.73C236.328 178.379 235.695 178.203 234.984 178.203C234.281 178.203 233.648 178.379 233.086 178.73C232.523 179.074 232.078 179.543 231.75 180.137C231.43 180.723 231.27 181.387 231.27 182.129C231.27 182.887 231.43 183.562 231.75 184.156C232.078 184.742 232.523 185.211 233.086 185.562C233.648 185.906 234.281 186.078 234.984 186.078ZM254.648 188H252.609L252.527 186.113C252.098 186.801 251.535 187.328 250.84 187.695C250.152 188.055 249.336 188.234 248.391 188.234C246.859 188.234 245.648 187.77 244.758 186.84C243.875 185.902 243.434 184.621 243.434 182.996V176.281H245.836V182.645C245.836 183.684 246.117 184.512 246.68 185.129C247.242 185.746 248 186.055 248.953 186.055C249.938 186.055 250.73 185.727 251.332 185.07C251.941 184.406 252.246 183.535 252.246 182.457V176.281H254.648V188ZM260.438 188H258.035V176.281H260.133L260.227 178.508C260.633 177.734 261.191 177.133 261.902 176.703C262.621 176.266 263.445 176.047 264.375 176.047C264.602 176.047 264.828 176.062 265.055 176.094C265.289 176.117 265.523 176.156 265.758 176.211L265.453 178.379C265 178.262 264.555 178.203 264.117 178.203C263.391 178.203 262.75 178.379 262.195 178.73C261.641 179.074 261.207 179.551 260.895 180.16C260.59 180.77 260.438 181.473 260.438 182.27V188ZM226.852 224.234C226.461 224.234 226.145 224.113 225.902 223.871C225.668 223.629 225.551 223.316 225.551 222.934C225.551 222.535 225.668 222.215 225.902 221.973C226.145 221.73 226.461 221.609 226.852 221.609C227.234 221.609 227.551 221.73 227.801 221.973C228.051 222.215 228.176 222.535 228.176 222.934C228.176 223.316 228.051 223.629 227.801 223.871C227.551 224.113 227.234 224.234 226.852 224.234Z" fill="#F7FFF7"/>
<path d="M74.7305 224H72.6094L72.4805 222.324C71.9492 222.918 71.3086 223.387 70.5586 223.73C69.8164 224.066 69 224.234 68.1094 224.234C66.9844 224.234 65.9766 223.969 65.0859 223.438C64.1953 222.906 63.4922 222.18 62.9766 221.258C62.4688 220.336 62.2148 219.297 62.2148 218.141C62.2148 216.977 62.4688 215.938 62.9766 215.023C63.4922 214.102 64.1953 213.375 65.0859 212.844C65.9766 212.312 66.9844 212.047 68.1094 212.047C68.9531 212.047 69.7344 212.199 70.4531 212.504C71.1797 212.809 71.8047 213.234 72.3281 213.781V206.422H74.7305V224ZM68.5078 222.078C69.2188 222.078 69.8594 221.914 70.4297 221.586C71.0078 221.258 71.4688 220.812 71.8125 220.25C72.1562 219.688 72.3281 219.047 72.3281 218.328V217.93C72.3281 217.211 72.1562 216.57 71.8125 216.008C71.4688 215.445 71.0078 215.004 70.4297 214.684C69.8594 214.363 69.2188 214.203 68.5078 214.203C67.7812 214.203 67.1289 214.375 66.5508 214.719C65.9727 215.062 65.5156 215.531 65.1797 216.125C64.8438 216.711 64.6758 217.379 64.6758 218.129C64.6758 218.879 64.8438 219.551 65.1797 220.145C65.5156 220.738 65.9727 221.211 66.5508 221.562C67.1289 221.906 67.7812 222.078 68.5078 222.078ZM87.8906 224H85.8164L85.6758 222.5C85.2461 223.047 84.7031 223.473 84.0469 223.777C83.3906 224.082 82.6641 224.234 81.8672 224.234C81.0312 224.234 80.2852 224.07 79.6289 223.742C78.9727 223.414 78.457 222.965 78.082 222.395C77.707 221.824 77.5195 221.176 77.5195 220.449C77.5195 219.684 77.7227 219.012 78.1289 218.434C78.5352 217.848 79.0898 217.391 79.793 217.062C80.4961 216.727 81.2969 216.559 82.1953 216.559C82.7578 216.559 83.3281 216.625 83.9062 216.758C84.4922 216.891 85.0195 217.078 85.4883 217.32V216.887C85.4883 216.316 85.3398 215.828 85.043 215.422C84.7539 215.008 84.3555 214.691 83.8477 214.473C83.3477 214.254 82.793 214.145 82.1836 214.145C81.6445 214.145 81.0938 214.238 80.5312 214.426C79.9766 214.613 79.4531 214.902 78.9609 215.293L78.2344 213.336C78.9453 212.914 79.6836 212.594 80.4492 212.375C81.2227 212.156 81.9805 212.047 82.7227 212.047C83.7852 212.047 84.6992 212.258 85.4648 212.68C86.2383 213.102 86.8359 213.703 87.2578 214.484C87.6797 215.258 87.8906 216.172 87.8906 217.227V224ZM82.3359 222.195C82.8906 222.195 83.4023 222.082 83.8711 221.855C84.3398 221.621 84.7188 221.293 85.0078 220.871C85.3047 220.441 85.4648 219.941 85.4883 219.371V219.207C85.0898 218.91 84.6406 218.68 84.1406 218.516C83.6484 218.344 83.1445 218.258 82.6289 218.258C81.8398 218.258 81.1836 218.445 80.6602 218.82C80.1367 219.195 79.875 219.676 79.875 220.262C79.875 220.629 79.9805 220.961 80.1914 221.258C80.4102 221.547 80.7031 221.777 81.0703 221.949C81.4453 222.113 81.8672 222.195 82.3359 222.195ZM92.2852 208.883C91.918 208.883 91.6094 208.754 91.3594 208.496C91.1094 208.238 90.9844 207.926 90.9844 207.559C90.9844 207.191 91.1094 206.883 91.3594 206.633C91.6094 206.375 91.918 206.246 92.2852 206.246C92.6602 206.246 92.9727 206.375 93.2227 206.633C93.4805 206.883 93.6094 207.191 93.6094 207.559C93.6094 207.926 93.4805 208.238 93.2227 208.496C92.9727 208.754 92.6602 208.883 92.2852 208.883ZM93.4805 224H91.0781V212.281H93.4805V224ZM99.457 224H96.9023V205.953H99.457V224ZM107.227 229.859H104.637L107.086 223.93L101.379 212.281H104.062L108.234 221.176L111.914 212.281H114.492L107.227 229.859ZM121.629 222.98L122.215 220.824C122.48 221.09 122.797 221.324 123.164 221.527C123.539 221.73 123.934 221.891 124.348 222.008C124.77 222.117 125.184 222.172 125.59 222.172C126.23 222.172 126.746 222.035 127.137 221.762C127.527 221.488 127.723 221.125 127.723 220.672C127.723 220.336 127.613 220.059 127.395 219.84C127.184 219.613 126.898 219.418 126.539 219.254C126.188 219.09 125.809 218.93 125.402 218.773C124.879 218.578 124.355 218.352 123.832 218.094C123.316 217.836 122.883 217.492 122.531 217.062C122.18 216.633 122.004 216.066 122.004 215.363C122.004 214.691 122.176 214.109 122.52 213.617C122.863 213.117 123.344 212.73 123.961 212.457C124.578 212.184 125.289 212.047 126.094 212.047C127.344 212.047 128.582 212.359 129.809 212.984L129.105 215.035C128.855 214.855 128.559 214.695 128.215 214.555C127.871 214.414 127.52 214.305 127.16 214.227C126.801 214.141 126.469 214.098 126.164 214.098C125.656 214.098 125.246 214.211 124.934 214.438C124.629 214.664 124.477 214.969 124.477 215.352C124.477 215.586 124.551 215.801 124.699 215.996C124.848 216.184 125.082 216.371 125.402 216.559C125.73 216.738 126.172 216.941 126.727 217.168C127.258 217.379 127.789 217.621 128.32 217.895C128.852 218.168 129.293 218.523 129.645 218.961C130.004 219.398 130.184 219.973 130.184 220.684C130.184 221.387 129.996 222.008 129.621 222.547C129.246 223.078 128.723 223.492 128.051 223.789C127.387 224.086 126.613 224.234 125.73 224.234C124.27 224.234 122.902 223.816 121.629 222.98ZM135.141 229.859H132.738V212.281H134.859L134.988 213.957C135.52 213.363 136.156 212.898 136.898 212.562C137.648 212.219 138.469 212.047 139.359 212.047C140.484 212.047 141.488 212.312 142.371 212.844C143.262 213.375 143.961 214.102 144.469 215.023C144.984 215.938 145.242 216.977 145.242 218.141C145.242 219.297 144.984 220.336 144.469 221.258C143.961 222.18 143.262 222.906 142.371 223.438C141.488 223.969 140.484 224.234 139.359 224.234C138.516 224.234 137.734 224.082 137.016 223.777C136.297 223.473 135.672 223.047 135.141 222.5V229.859ZM138.973 222.055C139.715 222.055 140.371 221.887 140.941 221.551C141.512 221.215 141.957 220.754 142.277 220.168C142.605 219.574 142.77 218.895 142.77 218.129C142.77 217.363 142.605 216.688 142.277 216.102C141.957 215.508 141.512 215.043 140.941 214.707C140.371 214.371 139.719 214.203 138.984 214.203C138.289 214.203 137.66 214.359 137.098 214.672C136.543 214.977 136.09 215.398 135.738 215.938C135.395 216.477 135.195 217.09 135.141 217.777V218.504C135.195 219.191 135.391 219.805 135.727 220.344C136.07 220.875 136.52 221.293 137.074 221.598C137.637 221.902 138.27 222.055 138.973 222.055ZM158.215 222.605C156.762 223.691 155.164 224.234 153.422 224.234C152.18 224.234 151.066 223.961 150.082 223.414C149.098 222.867 148.32 222.121 147.75 221.176C147.18 220.23 146.895 219.164 146.895 217.977C146.895 216.844 147.156 215.832 147.68 214.941C148.203 214.043 148.918 213.336 149.824 212.82C150.73 212.305 151.758 212.047 152.906 212.047C154.094 212.047 155.137 212.328 156.035 212.891C156.941 213.453 157.645 214.238 158.145 215.246C158.652 216.246 158.906 217.406 158.906 218.727V219.102H149.496C149.637 219.711 149.902 220.246 150.293 220.707C150.684 221.16 151.168 221.516 151.746 221.773C152.324 222.023 152.977 222.148 153.703 222.148C155 222.148 156.191 221.727 157.277 220.883L158.215 222.605ZM149.391 217.438H156.668C156.59 216.781 156.387 216.211 156.059 215.727C155.73 215.234 155.305 214.852 154.781 214.578C154.266 214.297 153.684 214.156 153.035 214.156C152.379 214.156 151.789 214.297 151.266 214.578C150.742 214.852 150.316 215.234 149.988 215.727C149.668 216.219 149.469 216.789 149.391 217.438ZM172.641 224H170.238V217.637C170.238 216.598 169.953 215.77 169.383 215.152C168.82 214.535 168.062 214.227 167.109 214.227C166.125 214.227 165.332 214.555 164.73 215.211C164.129 215.867 163.828 216.738 163.828 217.824V224H161.426V212.281H163.453L163.535 214.168C163.965 213.48 164.527 212.957 165.223 212.598C165.918 212.23 166.734 212.047 167.672 212.047C169.211 212.047 170.422 212.512 171.305 213.441C172.195 214.371 172.641 215.652 172.641 217.285V224ZM187.441 224H185.32L185.191 222.324C184.66 222.918 184.02 223.387 183.27 223.73C182.527 224.066 181.711 224.234 180.82 224.234C179.695 224.234 178.688 223.969 177.797 223.438C176.906 222.906 176.203 222.18 175.688 221.258C175.18 220.336 174.926 219.297 174.926 218.141C174.926 216.977 175.18 215.938 175.688 215.023C176.203 214.102 176.906 213.375 177.797 212.844C178.688 212.312 179.695 212.047 180.82 212.047C181.664 212.047 182.445 212.199 183.164 212.504C183.891 212.809 184.516 213.234 185.039 213.781V206.422H187.441V224ZM181.219 222.078C181.93 222.078 182.57 221.914 183.141 221.586C183.719 221.258 184.18 220.812 184.523 220.25C184.867 219.688 185.039 219.047 185.039 218.328V217.93C185.039 217.211 184.867 216.57 184.523 216.008C184.18 215.445 183.719 215.004 183.141 214.684C182.57 214.363 181.93 214.203 181.219 214.203C180.492 214.203 179.84 214.375 179.262 214.719C178.684 215.062 178.227 215.531 177.891 216.125C177.555 216.711 177.387 217.379 177.387 218.129C177.387 218.879 177.555 219.551 177.891 220.145C178.227 220.738 178.684 221.211 179.262 221.562C179.84 221.906 180.492 222.078 181.219 222.078ZM192.059 208.883C191.691 208.883 191.383 208.754 191.133 208.496C190.883 208.238 190.758 207.926 190.758 207.559C190.758 207.191 190.883 206.883 191.133 206.633C191.383 206.375 191.691 206.246 192.059 206.246C192.434 206.246 192.746 206.375 192.996 206.633C193.254 206.883 193.383 207.191 193.383 207.559C193.383 207.926 193.254 208.238 192.996 208.496C192.746 208.754 192.434 208.883 192.059 208.883ZM193.254 224H190.852V212.281H193.254V224ZM207.891 224H205.488V217.637C205.488 216.598 205.203 215.77 204.633 215.152C204.07 214.535 203.312 214.227 202.359 214.227C201.375 214.227 200.582 214.555 199.98 215.211C199.379 215.867 199.078 216.738 199.078 217.824V224H196.676V212.281H198.703L198.785 214.168C199.215 213.48 199.777 212.957 200.473 212.598C201.168 212.23 201.984 212.047 202.922 212.047C204.461 212.047 205.672 212.512 206.555 213.441C207.445 214.371 207.891 215.652 207.891 217.285V224ZM215.965 224.047C214.863 224.047 213.875 223.785 213 223.262C212.125 222.738 211.434 222.023 210.926 221.117C210.426 220.211 210.176 219.188 210.176 218.047C210.176 216.898 210.426 215.875 210.926 214.977C211.434 214.07 212.125 213.355 213 212.832C213.875 212.309 214.867 212.047 215.977 212.047C216.852 212.047 217.656 212.215 218.391 212.551C219.133 212.887 219.762 213.348 220.277 213.934L220.395 212.281H222.516V223.684C222.516 224.996 222.246 226.129 221.707 227.082C221.176 228.043 220.422 228.785 219.445 229.309C218.469 229.832 217.312 230.094 215.977 230.094C214.094 230.094 212.434 229.48 210.996 228.254L212.016 226.309C213.07 227.395 214.344 227.938 215.836 227.938C216.703 227.938 217.453 227.758 218.086 227.398C218.727 227.039 219.223 226.535 219.574 225.887C219.934 225.246 220.113 224.488 220.113 223.613V222.336C219.598 222.867 218.984 223.285 218.273 223.59C217.562 223.895 216.793 224.047 215.965 224.047ZM216.363 221.914C217.051 221.914 217.676 221.758 218.238 221.445C218.809 221.133 219.262 220.707 219.598 220.168C219.941 219.621 220.113 219 220.113 218.305V217.777C220.113 217.082 219.941 216.465 219.598 215.926C219.262 215.387 218.809 214.961 218.238 214.648C217.676 214.336 217.051 214.18 216.363 214.18C215.645 214.18 215.004 214.352 214.441 214.695C213.879 215.031 213.434 215.492 213.105 216.078C212.777 216.656 212.613 217.312 212.613 218.047C212.613 218.781 212.777 219.441 213.105 220.027C213.434 220.613 213.879 221.074 214.441 221.41C215.004 221.746 215.645 221.914 216.363 221.914Z" fill="#1A535C"/>
</svg>
