<svg width="291" height="269" viewBox="0 0 291 269" fill="none" xmlns="http://www.w3.org/2000/svg">
<path d="M112.207 9.63281V36H108.34V9.63281H112.207ZM134.092 36H130.488V26.4551C130.488 24.8965 130.061 23.6543 129.205 22.7285C128.361 21.8027 127.225 21.3398 125.795 21.3398C124.318 21.3398 123.129 21.832 122.227 22.8164C121.324 23.8008 120.873 25.1074 120.873 26.7363V36H117.27V18.4219H120.311L120.434 21.252C121.078 20.2207 121.922 19.4355 122.965 18.8965C124.008 18.3457 125.232 18.0703 126.639 18.0703C128.947 18.0703 130.764 18.7676 132.088 20.1621C133.424 21.5566 134.092 23.4785 134.092 25.9277V36ZM149.367 35.5605C148.137 36.0879 146.947 36.3516 145.799 36.3516C144.65 36.3516 143.643 36.1055 142.775 35.6133C141.92 35.1211 141.246 34.4297 140.754 33.5391C140.273 32.6367 140.033 31.5996 140.033 30.4277V21.6387H136.957V18.4219H140.209V14.0273H143.637V18.4219H148.77V21.6387H143.637V29.7598C143.637 30.791 143.912 31.6113 144.463 32.2207C145.025 32.8184 145.746 33.1172 146.625 33.1172C147.363 33.1172 148.096 32.8945 148.822 32.4492L149.367 35.5605ZM155.994 36H152.391V18.4219H155.537L155.678 21.7617C156.287 20.6016 157.125 19.6992 158.191 19.0547C159.27 18.3984 160.506 18.0703 161.9 18.0703C162.24 18.0703 162.58 18.0938 162.92 18.1406C163.271 18.1758 163.623 18.2344 163.975 18.3164L163.518 21.5684C162.838 21.3926 162.17 21.3047 161.514 21.3047C160.424 21.3047 159.463 21.5684 158.631 22.0957C157.799 22.6113 157.148 23.3262 156.68 24.2402C156.223 25.1543 155.994 26.209 155.994 27.4043V36ZM174.715 36.3516C172.957 36.3516 171.375 35.9531 169.969 35.1562C168.562 34.3594 167.455 33.2754 166.646 31.9043C165.838 30.5215 165.434 28.957 165.434 27.2109C165.434 25.4766 165.838 23.9238 166.646 22.5527C167.455 21.1699 168.562 20.0801 169.969 19.2832C171.375 18.4746 172.957 18.0703 174.715 18.0703C176.484 18.0703 178.066 18.4746 179.461 19.2832C180.855 20.0801 181.951 21.1699 182.748 22.5527C183.557 23.9238 183.961 25.4766 183.961 27.2109C183.961 28.957 183.557 30.5215 182.748 31.9043C181.951 33.2754 180.855 34.3594 179.461 35.1562C178.066 35.9531 176.484 36.3516 174.715 36.3516ZM174.697 33.1172C175.764 33.1172 176.713 32.8594 177.545 32.3438C178.389 31.8164 179.051 31.1133 179.531 30.2344C180.023 29.3438 180.27 28.3301 180.27 27.1934C180.27 26.0801 180.023 25.084 179.531 24.2051C179.051 23.3145 178.389 22.6113 177.545 22.0957C176.713 21.5684 175.764 21.3047 174.697 21.3047C173.643 21.3047 172.693 21.5684 171.85 22.0957C171.006 22.6113 170.338 23.3145 169.846 24.2051C169.365 25.084 169.125 26.0801 169.125 27.1934C169.125 28.3301 169.365 29.3438 169.846 30.2344C170.338 31.1133 171.006 31.8164 171.85 32.3438C172.693 32.8594 173.643 33.1172 174.697 33.1172Z" fill="#F7FFF7"/>
<path d="M34.4062 62.4219V72.125C34.4062 73.8281 34.1055 75.2969 33.5039 76.5312C32.9102 77.7656 32.0547 78.7109 30.9375 79.3672C29.8203 80.0234 28.4844 80.3516 26.9297 80.3516C25.375 80.3516 24.0391 80.0234 22.9219 79.3672C21.8047 78.7109 20.9453 77.7656 20.3438 76.5312C19.75 75.2969 19.4531 73.8281 19.4531 72.125V62.4219H22.0312V71.8672C22.0312 73.1953 22.2227 74.3242 22.6055 75.2539C22.9883 76.1758 23.543 76.8789 24.2695 77.3633C25.0039 77.8398 25.8906 78.0781 26.9297 78.0781C27.9688 78.0781 28.8516 77.8398 29.5781 77.3633C30.3125 76.8789 30.8711 76.1758 31.2539 75.2539C31.6367 74.3242 31.8281 73.1953 31.8281 71.8672V62.4219H34.4062ZM48.9961 80H46.5938V73.6367C46.5938 72.5977 46.3086 71.7695 45.7383 71.1523C45.1758 70.5352 44.418 70.2266 43.4648 70.2266C42.4805 70.2266 41.6875 70.5547 41.0859 71.2109C40.4844 71.8672 40.1836 72.7383 40.1836 73.8242V80H37.7812V68.2812H39.8086L39.8906 70.168C40.3203 69.4805 40.8828 68.957 41.5781 68.5977C42.2734 68.2305 43.0898 68.0469 44.0273 68.0469C45.5664 68.0469 46.7773 68.5117 47.6602 69.4414C48.5508 70.3711 48.9961 71.6523 48.9961 73.2852V80ZM54.7031 80H52.1484V61.9531H54.7031V80ZM59.3203 64.8828C58.9531 64.8828 58.6445 64.7539 58.3945 64.4961C58.1445 64.2383 58.0195 63.9258 58.0195 63.5586C58.0195 63.1914 58.1445 62.8828 58.3945 62.6328C58.6445 62.375 58.9531 62.2461 59.3203 62.2461C59.6953 62.2461 60.0078 62.375 60.2578 62.6328C60.5156 62.8828 60.6445 63.1914 60.6445 63.5586C60.6445 63.9258 60.5156 64.2383 60.2578 64.4961C60.0078 64.7539 59.6953 64.8828 59.3203 64.8828ZM60.5156 80H58.1133V68.2812H60.5156V80ZM66.3398 80H63.9375V62.4219H66.3398V74.2695L67.3359 73.0742L71.8594 68.2812H74.8711L70.0312 73.4141L75.5508 80H72.4453L68.3672 75.0547L66.3398 77.1406V80ZM87.9141 78.6055C86.4609 79.6914 84.8633 80.2344 83.1211 80.2344C81.8789 80.2344 80.7656 79.9609 79.7812 79.4141C78.7969 78.8672 78.0195 78.1211 77.4492 77.1758C76.8789 76.2305 76.5938 75.1641 76.5938 73.9766C76.5938 72.8438 76.8555 71.832 77.3789 70.9414C77.9023 70.043 78.6172 69.3359 79.5234 68.8203C80.4297 68.3047 81.457 68.0469 82.6055 68.0469C83.793 68.0469 84.8359 68.3281 85.7344 68.8906C86.6406 69.4531 87.3438 70.2383 87.8438 71.2461C88.3516 72.2461 88.6055 73.4062 88.6055 74.7266V75.1016H79.1953C79.3359 75.7109 79.6016 76.2461 79.9922 76.707C80.3828 77.1602 80.8672 77.5156 81.4453 77.7734C82.0234 78.0234 82.6758 78.1484 83.4023 78.1484C84.6992 78.1484 85.8906 77.7266 86.9766 76.8828L87.9141 78.6055ZM79.0898 73.4375H86.3672C86.2891 72.7812 86.0859 72.2109 85.7578 71.7266C85.4297 71.2344 85.0039 70.8516 84.4805 70.5781C83.9648 70.2969 83.3828 70.1562 82.7344 70.1562C82.0781 70.1562 81.4883 70.2969 80.9648 70.5781C80.4414 70.8516 80.0156 71.2344 79.6875 71.7266C79.3672 72.2188 79.168 72.7891 79.0898 73.4375ZM115.57 80H113.168V73.8711C113.168 72.707 112.918 71.8047 112.418 71.1641C111.926 70.5234 111.23 70.2031 110.332 70.2031C109.418 70.2031 108.703 70.5273 108.188 71.1758C107.672 71.8242 107.414 72.7227 107.414 73.8711V80H105.012V73.8711C105.012 72.707 104.762 71.8047 104.262 71.1641C103.762 70.5234 103.062 70.2031 102.164 70.2031C101.25 70.2031 100.535 70.5273 100.02 71.1758C99.5039 71.8242 99.2461 72.7227 99.2461 73.8711V80H96.8438V68.2812H98.7891L98.8828 70.3203C99.2734 69.5781 99.8008 69.0156 100.465 68.6328C101.137 68.2422 101.926 68.0469 102.832 68.0469C103.793 68.0469 104.617 68.2578 105.305 68.6797C105.992 69.1016 106.512 69.707 106.863 70.4961C107.254 69.6914 107.793 69.082 108.48 68.668C109.176 68.2539 110 68.0469 110.953 68.0469C112.406 68.0469 113.539 68.5078 114.352 69.4297C115.164 70.3516 115.57 71.6367 115.57 73.2852V80ZM124.031 80.2344C122.859 80.2344 121.805 79.9688 120.867 79.4375C119.93 78.9062 119.191 78.1836 118.652 77.2695C118.113 76.3477 117.844 75.3047 117.844 74.1406C117.844 72.9844 118.113 71.9492 118.652 71.0352C119.191 70.1133 119.93 69.3867 120.867 68.8555C121.805 68.3164 122.859 68.0469 124.031 68.0469C125.211 68.0469 126.266 68.3164 127.195 68.8555C128.125 69.3867 128.855 70.1133 129.387 71.0352C129.926 71.9492 130.195 72.9844 130.195 74.1406C130.195 75.3047 129.926 76.3477 129.387 77.2695C128.855 78.1836 128.125 78.9062 127.195 79.4375C126.266 79.9688 125.211 80.2344 124.031 80.2344ZM124.02 78.0781C124.73 78.0781 125.363 77.9062 125.918 77.5625C126.48 77.2109 126.922 76.7422 127.242 76.1562C127.57 75.5625 127.734 74.8867 127.734 74.1289C127.734 73.3867 127.57 72.7227 127.242 72.1367C126.922 71.543 126.48 71.0742 125.918 70.7305C125.363 70.3789 124.73 70.2031 124.02 70.2031C123.316 70.2031 122.684 70.3789 122.121 70.7305C121.559 71.0742 121.113 71.543 120.785 72.1367C120.465 72.7227 120.305 73.3867 120.305 74.1289C120.305 74.8867 120.465 75.5625 120.785 76.1562C121.113 76.7422 121.559 77.2109 122.121 77.5625C122.684 77.9062 123.316 78.0781 124.02 78.0781ZM131.883 78.9805L132.469 76.8242C132.734 77.0898 133.051 77.3242 133.418 77.5273C133.793 77.7305 134.188 77.8906 134.602 78.0078C135.023 78.1172 135.438 78.1719 135.844 78.1719C136.484 78.1719 137 78.0352 137.391 77.7617C137.781 77.4883 137.977 77.125 137.977 76.6719C137.977 76.3359 137.867 76.0586 137.648 75.8398C137.438 75.6133 137.152 75.418 136.793 75.2539C136.441 75.0898 136.062 74.9297 135.656 74.7734C135.133 74.5781 134.609 74.3516 134.086 74.0938C133.57 73.8359 133.137 73.4922 132.785 73.0625C132.434 72.6328 132.258 72.0664 132.258 71.3633C132.258 70.6914 132.43 70.1094 132.773 69.6172C133.117 69.1172 133.598 68.7305 134.215 68.457C134.832 68.1836 135.543 68.0469 136.348 68.0469C137.598 68.0469 138.836 68.3594 140.062 68.9844L139.359 71.0352C139.109 70.8555 138.812 70.6953 138.469 70.5547C138.125 70.4141 137.773 70.3047 137.414 70.2266C137.055 70.1406 136.723 70.0977 136.418 70.0977C135.91 70.0977 135.5 70.2109 135.188 70.4375C134.883 70.6641 134.73 70.9688 134.73 71.3516C134.73 71.5859 134.805 71.8008 134.953 71.9961C135.102 72.1836 135.336 72.3711 135.656 72.5586C135.984 72.7383 136.426 72.9414 136.98 73.168C137.512 73.3789 138.043 73.6211 138.574 73.8945C139.105 74.168 139.547 74.5234 139.898 74.9609C140.258 75.3984 140.438 75.9727 140.438 76.6836C140.438 77.3867 140.25 78.0078 139.875 78.5469C139.5 79.0781 138.977 79.4922 138.305 79.7891C137.641 80.0859 136.867 80.2344 135.984 80.2344C134.523 80.2344 133.156 79.8164 131.883 78.9805ZM150.141 79.707C149.32 80.0586 148.527 80.2344 147.762 80.2344C146.996 80.2344 146.324 80.0703 145.746 79.7422C145.176 79.4141 144.727 78.9531 144.398 78.3594C144.078 77.7578 143.918 77.0664 143.918 76.2852V70.4258H141.867V68.2812H144.035V65.3516H146.32V68.2812H149.742V70.4258H146.32V75.8398C146.32 76.5273 146.504 77.0742 146.871 77.4805C147.246 77.8789 147.727 78.0781 148.312 78.0781C148.805 78.0781 149.293 77.9297 149.777 77.6328L150.141 79.707ZM160.348 80H158.227V62.4219H160.629V69.7812C161.16 69.2344 161.781 68.8086 162.492 68.5039C163.211 68.1992 163.992 68.0469 164.836 68.0469C165.969 68.0469 166.977 68.3125 167.859 68.8438C168.742 69.375 169.438 70.1016 169.945 71.0234C170.461 71.9375 170.719 72.9766 170.719 74.1406C170.719 75.2969 170.461 76.3359 169.945 77.2578C169.438 78.1797 168.742 78.9062 167.859 79.4375C166.977 79.9688 165.969 80.2344 164.836 80.2344C163.945 80.2344 163.125 80.0664 162.375 79.7305C161.633 79.3867 160.996 78.918 160.465 78.3242L160.348 80ZM164.449 78.0781C165.176 78.0781 165.824 77.9062 166.395 77.5625C166.973 77.2188 167.426 76.75 167.754 76.1562C168.09 75.5625 168.258 74.8906 168.258 74.1406C168.258 73.3906 168.09 72.7188 167.754 72.125C167.426 71.5312 166.973 71.0625 166.395 70.7188C165.824 70.375 165.176 70.2031 164.449 70.2031C163.754 70.2031 163.125 70.3594 162.562 70.6719C162.008 70.9844 161.559 71.4141 161.215 71.9609C160.871 72.5078 160.676 73.1328 160.629 73.8359V74.4336C160.676 75.1289 160.867 75.7539 161.203 76.3086C161.547 76.8555 161.996 77.2891 162.551 77.6094C163.113 77.9219 163.746 78.0781 164.449 78.0781ZM184.207 80H182.168L182.086 78.1133C181.656 78.8008 181.094 79.3281 180.398 79.6953C179.711 80.0547 178.895 80.2344 177.949 80.2344C176.418 80.2344 175.207 79.7695 174.316 78.8398C173.434 77.9023 172.992 76.6211 172.992 74.9961V68.2812H175.395V74.6445C175.395 75.6836 175.676 76.5117 176.238 77.1289C176.801 77.7461 177.559 78.0547 178.512 78.0547C179.496 78.0547 180.289 77.7266 180.891 77.0703C181.5 76.4062 181.805 75.5352 181.805 74.457V68.2812H184.207V80ZM199.242 80H197.121L196.992 78.3242C196.461 78.918 195.82 79.3867 195.07 79.7305C194.328 80.0664 193.512 80.2344 192.621 80.2344C191.496 80.2344 190.488 79.9688 189.598 79.4375C188.707 78.9062 188.004 78.1797 187.488 77.2578C186.98 76.3359 186.727 75.2969 186.727 74.1406C186.727 72.9766 186.98 71.9375 187.488 71.0234C188.004 70.1016 188.707 69.375 189.598 68.8438C190.488 68.3125 191.496 68.0469 192.621 68.0469C193.465 68.0469 194.246 68.1992 194.965 68.5039C195.691 68.8086 196.316 69.2344 196.84 69.7812V62.4219H199.242V80ZM193.02 78.0781C193.73 78.0781 194.371 77.9141 194.941 77.5859C195.52 77.2578 195.98 76.8125 196.324 76.25C196.668 75.6875 196.84 75.0469 196.84 74.3281V73.9297C196.84 73.2109 196.668 72.5703 196.324 72.0078C195.98 71.4453 195.52 71.0039 194.941 70.6836C194.371 70.3633 193.73 70.2031 193.02 70.2031C192.293 70.2031 191.641 70.375 191.062 70.7188C190.484 71.0625 190.027 71.5312 189.691 72.125C189.355 72.7109 189.188 73.3789 189.188 74.1289C189.188 74.8789 189.355 75.5508 189.691 76.1445C190.027 76.7383 190.484 77.2109 191.062 77.5625C191.641 77.9062 192.293 78.0781 193.02 78.0781ZM207.539 80.0469C206.438 80.0469 205.449 79.7852 204.574 79.2617C203.699 78.7383 203.008 78.0234 202.5 77.1172C202 76.2109 201.75 75.1875 201.75 74.0469C201.75 72.8984 202 71.875 202.5 70.9766C203.008 70.0703 203.699 69.3555 204.574 68.832C205.449 68.3086 206.441 68.0469 207.551 68.0469C208.426 68.0469 209.23 68.2148 209.965 68.5508C210.707 68.8867 211.336 69.3477 211.852 69.9336L211.969 68.2812H214.09V79.6836C214.09 80.9961 213.82 82.1289 213.281 83.082C212.75 84.043 211.996 84.7852 211.02 85.3086C210.043 85.832 208.887 86.0938 207.551 86.0938C205.668 86.0938 204.008 85.4805 202.57 84.2539L203.59 82.3086C204.645 83.3945 205.918 83.9375 207.41 83.9375C208.277 83.9375 209.027 83.7578 209.66 83.3984C210.301 83.0391 210.797 82.5352 211.148 81.8867C211.508 81.2461 211.688 80.4883 211.688 79.6133V78.3359C211.172 78.8672 210.559 79.2852 209.848 79.5898C209.137 79.8945 208.367 80.0469 207.539 80.0469ZM207.938 77.9141C208.625 77.9141 209.25 77.7578 209.812 77.4453C210.383 77.1328 210.836 76.707 211.172 76.168C211.516 75.6211 211.688 75 211.688 74.3047V73.7773C211.688 73.082 211.516 72.4648 211.172 71.9258C210.836 71.3867 210.383 70.9609 209.812 70.6484C209.25 70.3359 208.625 70.1797 207.938 70.1797C207.219 70.1797 206.578 70.3516 206.016 70.6953C205.453 71.0312 205.008 71.4922 204.68 72.0781C204.352 72.6562 204.188 73.3125 204.188 74.0469C204.188 74.7812 204.352 75.4414 204.68 76.0273C205.008 76.6133 205.453 77.0742 206.016 77.4102C206.578 77.7461 207.219 77.9141 207.938 77.9141ZM227.812 78.6055C226.359 79.6914 224.762 80.2344 223.02 80.2344C221.777 80.2344 220.664 79.9609 219.68 79.4141C218.695 78.8672 217.918 78.1211 217.348 77.1758C216.777 76.2305 216.492 75.1641 216.492 73.9766C216.492 72.8438 216.754 71.832 217.277 70.9414C217.801 70.043 218.516 69.3359 219.422 68.8203C220.328 68.3047 221.355 68.0469 222.504 68.0469C223.691 68.0469 224.734 68.3281 225.633 68.8906C226.539 69.4531 227.242 70.2383 227.742 71.2461C228.25 72.2461 228.504 73.4062 228.504 74.7266V75.1016H219.094C219.234 75.7109 219.5 76.2461 219.891 76.707C220.281 77.1602 220.766 77.5156 221.344 77.7734C221.922 78.0234 222.574 78.1484 223.301 78.1484C224.598 78.1484 225.789 77.7266 226.875 76.8828L227.812 78.6055ZM218.988 73.4375H226.266C226.188 72.7812 225.984 72.2109 225.656 71.7266C225.328 71.2344 224.902 70.8516 224.379 70.5781C223.863 70.2969 223.281 70.1562 222.633 70.1562C221.977 70.1562 221.387 70.2969 220.863 70.5781C220.34 70.8516 219.914 71.2344 219.586 71.7266C219.266 72.2188 219.066 72.7891 218.988 73.4375ZM237.938 79.707C237.117 80.0586 236.324 80.2344 235.559 80.2344C234.793 80.2344 234.121 80.0703 233.543 79.7422C232.973 79.4141 232.523 78.9531 232.195 78.3594C231.875 77.7578 231.715 77.0664 231.715 76.2852V70.4258H229.664V68.2812H231.832V65.3516H234.117V68.2812H237.539V70.4258H234.117V75.8398C234.117 76.5273 234.301 77.0742 234.668 77.4805C235.043 77.8789 235.523 78.0781 236.109 78.0781C236.602 78.0781 237.09 77.9297 237.574 77.6328L237.938 79.707ZM241.195 64.8828C240.828 64.8828 240.52 64.7539 240.27 64.4961C240.02 64.2383 239.895 63.9258 239.895 63.5586C239.895 63.1914 240.02 62.8828 240.27 62.6328C240.52 62.375 240.828 62.2461 241.195 62.2461C241.57 62.2461 241.883 62.375 242.133 62.6328C242.391 62.8828 242.52 63.1914 242.52 63.5586C242.52 63.9258 242.391 64.2383 242.133 64.4961C241.883 64.7539 241.57 64.8828 241.195 64.8828ZM242.391 80H239.988V68.2812H242.391V80ZM257.027 80H254.625V73.6367C254.625 72.5977 254.34 71.7695 253.77 71.1523C253.207 70.5352 252.449 70.2266 251.496 70.2266C250.512 70.2266 249.719 70.5547 249.117 71.2109C248.516 71.8672 248.215 72.7383 248.215 73.8242V80H245.812V68.2812H247.84L247.922 70.168C248.352 69.4805 248.914 68.957 249.609 68.5977C250.305 68.2305 251.121 68.0469 252.059 68.0469C253.598 68.0469 254.809 68.5117 255.691 69.4414C256.582 70.3711 257.027 71.6523 257.027 73.2852V80ZM265.102 80.0469C264 80.0469 263.012 79.7852 262.137 79.2617C261.262 78.7383 260.57 78.0234 260.062 77.1172C259.562 76.2109 259.312 75.1875 259.312 74.0469C259.312 72.8984 259.562 71.875 260.062 70.9766C260.57 70.0703 261.262 69.3555 262.137 68.832C263.012 68.3086 264.004 68.0469 265.113 68.0469C265.988 68.0469 266.793 68.2148 267.527 68.5508C268.27 68.8867 268.898 69.3477 269.414 69.9336L269.531 68.2812H271.652V79.6836C271.652 80.9961 271.383 82.1289 270.844 83.082C270.312 84.043 269.559 84.7852 268.582 85.3086C267.605 85.832 266.449 86.0938 265.113 86.0938C263.23 86.0938 261.57 85.4805 260.133 84.2539L261.152 82.3086C262.207 83.3945 263.48 83.9375 264.973 83.9375C265.84 83.9375 266.59 83.7578 267.223 83.3984C267.863 83.0391 268.359 82.5352 268.711 81.8867C269.07 81.2461 269.25 80.4883 269.25 79.6133V78.3359C268.734 78.8672 268.121 79.2852 267.41 79.5898C266.699 79.8945 265.93 80.0469 265.102 80.0469ZM265.5 77.9141C266.188 77.9141 266.812 77.7578 267.375 77.4453C267.945 77.1328 268.398 76.707 268.734 76.168C269.078 75.6211 269.25 75 269.25 74.3047V73.7773C269.25 73.082 269.078 72.4648 268.734 71.9258C268.398 71.3867 267.945 70.9609 267.375 70.6484C266.812 70.3359 266.188 70.1797 265.5 70.1797C264.781 70.1797 264.141 70.3516 263.578 70.6953C263.016 71.0312 262.57 71.4922 262.242 72.0781C261.914 72.6562 261.75 73.3125 261.75 74.0469C261.75 74.7812 261.914 75.4414 262.242 76.0273C262.57 76.6133 263.016 77.0742 263.578 77.4102C264.141 77.7461 264.781 77.9141 265.5 77.9141ZM23.9414 116H21.8672L21.7266 114.5C21.2969 115.047 20.7539 115.473 20.0977 115.777C19.4414 116.082 18.7148 116.234 17.918 116.234C17.082 116.234 16.3359 116.07 15.6797 115.742C15.0234 115.414 14.5078 114.965 14.1328 114.395C13.7578 113.824 13.5703 113.176 13.5703 112.449C13.5703 111.684 13.7734 111.012 14.1797 110.434C14.5859 109.848 15.1406 109.391 15.8438 109.062C16.5469 108.727 17.3477 108.559 18.2461 108.559C18.8086 108.559 19.3789 108.625 19.957 108.758C20.543 108.891 21.0703 109.078 21.5391 109.32V108.887C21.5391 108.316 21.3906 107.828 21.0938 107.422C20.8047 107.008 20.4062 106.691 19.8984 106.473C19.3984 106.254 18.8438 106.145 18.2344 106.145C17.6953 106.145 17.1445 106.238 16.582 106.426C16.0273 106.613 15.5039 106.902 15.0117 107.293L14.2852 105.336C14.9961 104.914 15.7344 104.594 16.5 104.375C17.2734 104.156 18.0312 104.047 18.7734 104.047C19.8359 104.047 20.75 104.258 21.5156 104.68C22.2891 105.102 22.8867 105.703 23.3086 106.484C23.7305 107.258 23.9414 108.172 23.9414 109.227V116ZM18.3867 114.195C18.9414 114.195 19.4531 114.082 19.9219 113.855C20.3906 113.621 20.7695 113.293 21.0586 112.871C21.3555 112.441 21.5156 111.941 21.5391 111.371V111.207C21.1406 110.91 20.6914 110.68 20.1914 110.516C19.6992 110.344 19.1953 110.258 18.6797 110.258C17.8906 110.258 17.2344 110.445 16.7109 110.82C16.1875 111.195 15.9258 111.676 15.9258 112.262C15.9258 112.629 16.0312 112.961 16.2422 113.258C16.4609 113.547 16.7539 113.777 17.1211 113.949C17.4961 114.113 17.918 114.195 18.3867 114.195ZM29.4961 121.859H27.0938V104.281H29.2148L29.3438 105.957C29.875 105.363 30.5117 104.898 31.2539 104.562C32.0039 104.219 32.8242 104.047 33.7148 104.047C34.8398 104.047 35.8438 104.312 36.7266 104.844C37.6172 105.375 38.3164 106.102 38.8242 107.023C39.3398 107.938 39.5977 108.977 39.5977 110.141C39.5977 111.297 39.3398 112.336 38.8242 113.258C38.3164 114.18 37.6172 114.906 36.7266 115.438C35.8438 115.969 34.8398 116.234 33.7148 116.234C32.8711 116.234 32.0898 116.082 31.3711 115.777C30.6523 115.473 30.0273 115.047 29.4961 114.5V121.859ZM33.3281 114.055C34.0703 114.055 34.7266 113.887 35.2969 113.551C35.8672 113.215 36.3125 112.754 36.6328 112.168C36.9609 111.574 37.125 110.895 37.125 110.129C37.125 109.363 36.9609 108.688 36.6328 108.102C36.3125 107.508 35.8672 107.043 35.2969 106.707C34.7266 106.371 34.0742 106.203 33.3398 106.203C32.6445 106.203 32.0156 106.359 31.4531 106.672C30.8984 106.977 30.4453 107.398 30.0938 107.938C29.75 108.477 29.5508 109.09 29.4961 109.777V110.504C29.5508 111.191 29.7461 111.805 30.082 112.344C30.4258 112.875 30.875 113.293 31.4297 113.598C31.9922 113.902 32.625 114.055 33.3281 114.055ZM44.5195 121.859H42.1172V104.281H44.2383L44.3672 105.957C44.8984 105.363 45.5352 104.898 46.2773 104.562C47.0273 104.219 47.8477 104.047 48.7383 104.047C49.8633 104.047 50.8672 104.312 51.75 104.844C52.6406 105.375 53.3398 106.102 53.8477 107.023C54.3633 107.938 54.6211 108.977 54.6211 110.141C54.6211 111.297 54.3633 112.336 53.8477 113.258C53.3398 114.18 52.6406 114.906 51.75 115.438C50.8672 115.969 49.8633 116.234 48.7383 116.234C47.8945 116.234 47.1133 116.082 46.3945 115.777C45.6758 115.473 45.0508 115.047 44.5195 114.5V121.859ZM48.3516 114.055C49.0938 114.055 49.75 113.887 50.3203 113.551C50.8906 113.215 51.3359 112.754 51.6562 112.168C51.9844 111.574 52.1484 110.895 52.1484 110.129C52.1484 109.363 51.9844 108.688 51.6562 108.102C51.3359 107.508 50.8906 107.043 50.3203 106.707C49.75 106.371 49.0977 106.203 48.3633 106.203C47.668 106.203 47.0391 106.359 46.4766 106.672C45.9219 106.977 45.4688 107.398 45.1172 107.938C44.7734 108.477 44.5742 109.09 44.5195 109.777V110.504C44.5742 111.191 44.7695 111.805 45.1055 112.344C45.4492 112.875 45.8984 113.293 46.4531 113.598C47.0156 113.902 47.6484 114.055 48.3516 114.055ZM56.3203 114.98L56.9062 112.824C57.1719 113.09 57.4883 113.324 57.8555 113.527C58.2305 113.73 58.625 113.891 59.0391 114.008C59.4609 114.117 59.875 114.172 60.2812 114.172C60.9219 114.172 61.4375 114.035 61.8281 113.762C62.2188 113.488 62.4141 113.125 62.4141 112.672C62.4141 112.336 62.3047 112.059 62.0859 111.84C61.875 111.613 61.5898 111.418 61.2305 111.254C60.8789 111.09 60.5 110.93 60.0938 110.773C59.5703 110.578 59.0469 110.352 58.5234 110.094C58.0078 109.836 57.5742 109.492 57.2227 109.062C56.8711 108.633 56.6953 108.066 56.6953 107.363C56.6953 106.691 56.8672 106.109 57.2109 105.617C57.5547 105.117 58.0352 104.73 58.6523 104.457C59.2695 104.184 59.9805 104.047 60.7852 104.047C62.0352 104.047 63.2734 104.359 64.5 104.984L63.7969 107.035C63.5469 106.855 63.25 106.695 62.9062 106.555C62.5625 106.414 62.2109 106.305 61.8516 106.227C61.4922 106.141 61.1602 106.098 60.8555 106.098C60.3477 106.098 59.9375 106.211 59.625 106.438C59.3203 106.664 59.168 106.969 59.168 107.352C59.168 107.586 59.2422 107.801 59.3906 107.996C59.5391 108.184 59.7734 108.371 60.0938 108.559C60.4219 108.738 60.8633 108.941 61.418 109.168C61.9492 109.379 62.4805 109.621 63.0117 109.895C63.543 110.168 63.9844 110.523 64.3359 110.961C64.6953 111.398 64.875 111.973 64.875 112.684C64.875 113.387 64.6875 114.008 64.3125 114.547C63.9375 115.078 63.4141 115.492 62.7422 115.789C62.0781 116.086 61.3047 116.234 60.4219 116.234C58.9609 116.234 57.5938 115.816 56.3203 114.98ZM68.6602 118.812H66.9609L67.875 113.844H69.9609L68.6602 118.812ZM91.6172 116H88.8516L86.4609 107.621L84.0703 116H81.3047L77.5547 104.281H80.0977L82.6641 113.258L85.3711 104.281H87.5508L90.2578 113.27L92.8359 104.281H95.3789L91.6172 116ZM107.719 114.605C106.266 115.691 104.668 116.234 102.926 116.234C101.684 116.234 100.57 115.961 99.5859 115.414C98.6016 114.867 97.8242 114.121 97.2539 113.176C96.6836 112.23 96.3984 111.164 96.3984 109.977C96.3984 108.844 96.6602 107.832 97.1836 106.941C97.707 106.043 98.4219 105.336 99.3281 104.82C100.234 104.305 101.262 104.047 102.41 104.047C103.598 104.047 104.641 104.328 105.539 104.891C106.445 105.453 107.148 106.238 107.648 107.246C108.156 108.246 108.41 109.406 108.41 110.727V111.102H99C99.1406 111.711 99.4062 112.246 99.7969 112.707C100.188 113.16 100.672 113.516 101.25 113.773C101.828 114.023 102.48 114.148 103.207 114.148C104.504 114.148 105.695 113.727 106.781 112.883L107.719 114.605ZM98.8945 109.438H106.172C106.094 108.781 105.891 108.211 105.562 107.727C105.234 107.234 104.809 106.852 104.285 106.578C103.77 106.297 103.188 106.156 102.539 106.156C101.883 106.156 101.293 106.297 100.77 106.578C100.246 106.852 99.8203 107.234 99.4922 107.727C99.1719 108.219 98.9727 108.789 98.8945 109.438ZM116.648 116V98.4219H119.051V105.91C119.918 104.668 121.234 104.047 123 104.047C124.523 104.047 125.715 104.508 126.574 105.43C127.434 106.352 127.863 107.637 127.863 109.285V116H125.461V109.871C125.461 108.707 125.18 107.805 124.617 107.164C124.062 106.523 123.285 106.203 122.285 106.203C121.277 106.203 120.484 106.531 119.906 107.188C119.336 107.836 119.051 108.73 119.051 109.871V116H116.648ZM141.469 114.605C140.016 115.691 138.418 116.234 136.676 116.234C135.434 116.234 134.32 115.961 133.336 115.414C132.352 114.867 131.574 114.121 131.004 113.176C130.434 112.23 130.148 111.164 130.148 109.977C130.148 108.844 130.41 107.832 130.934 106.941C131.457 106.043 132.172 105.336 133.078 104.82C133.984 104.305 135.012 104.047 136.16 104.047C137.348 104.047 138.391 104.328 139.289 104.891C140.195 105.453 140.898 106.238 141.398 107.246C141.906 108.246 142.16 109.406 142.16 110.727V111.102H132.75C132.891 111.711 133.156 112.246 133.547 112.707C133.938 113.16 134.422 113.516 135 113.773C135.578 114.023 136.23 114.148 136.957 114.148C138.254 114.148 139.445 113.727 140.531 112.883L141.469 114.605ZM132.645 109.438H139.922C139.844 108.781 139.641 108.211 139.312 107.727C138.984 107.234 138.559 106.852 138.035 106.578C137.52 106.297 136.938 106.156 136.289 106.156C135.633 106.156 135.043 106.297 134.52 106.578C133.996 106.852 133.57 107.234 133.242 107.727C132.922 108.219 132.723 108.789 132.645 109.438ZM147.234 116H144.68V97.9531H147.234V116ZM153.012 121.859H150.609V104.281H152.73L152.859 105.957C153.391 105.363 154.027 104.898 154.77 104.562C155.52 104.219 156.34 104.047 157.23 104.047C158.355 104.047 159.359 104.312 160.242 104.844C161.133 105.375 161.832 106.102 162.34 107.023C162.855 107.938 163.113 108.977 163.113 110.141C163.113 111.297 162.855 112.336 162.34 113.258C161.832 114.18 161.133 114.906 160.242 115.438C159.359 115.969 158.355 116.234 157.23 116.234C156.387 116.234 155.605 116.082 154.887 115.777C154.168 115.473 153.543 115.047 153.012 114.5V121.859ZM156.844 114.055C157.586 114.055 158.242 113.887 158.812 113.551C159.383 113.215 159.828 112.754 160.148 112.168C160.477 111.574 160.641 110.895 160.641 110.129C160.641 109.363 160.477 108.688 160.148 108.102C159.828 107.508 159.383 107.043 158.812 106.707C158.242 106.371 157.59 106.203 156.855 106.203C156.16 106.203 155.531 106.359 154.969 106.672C154.414 106.977 153.961 107.398 153.609 107.938C153.266 108.477 153.066 109.09 153.012 109.777V110.504C153.066 111.191 153.262 111.805 153.598 112.344C153.941 112.875 154.391 113.293 154.945 113.598C155.508 113.902 156.141 114.055 156.844 114.055ZM176.098 121.859H173.508L175.957 115.93L170.25 104.281H172.934L177.105 113.176L180.785 104.281H183.363L176.098 121.859ZM190.57 116.234C189.398 116.234 188.344 115.969 187.406 115.438C186.469 114.906 185.73 114.184 185.191 113.27C184.652 112.348 184.383 111.305 184.383 110.141C184.383 108.984 184.652 107.949 185.191 107.035C185.73 106.113 186.469 105.387 187.406 104.855C188.344 104.316 189.398 104.047 190.57 104.047C191.75 104.047 192.805 104.316 193.734 104.855C194.664 105.387 195.395 106.113 195.926 107.035C196.465 107.949 196.734 108.984 196.734 110.141C196.734 111.305 196.465 112.348 195.926 113.27C195.395 114.184 194.664 114.906 193.734 115.438C192.805 115.969 191.75 116.234 190.57 116.234ZM190.559 114.078C191.27 114.078 191.902 113.906 192.457 113.562C193.02 113.211 193.461 112.742 193.781 112.156C194.109 111.562 194.273 110.887 194.273 110.129C194.273 109.387 194.109 108.723 193.781 108.137C193.461 107.543 193.02 107.074 192.457 106.73C191.902 106.379 191.27 106.203 190.559 106.203C189.855 106.203 189.223 106.379 188.66 106.73C188.098 107.074 187.652 107.543 187.324 108.137C187.004 108.723 186.844 109.387 186.844 110.129C186.844 110.887 187.004 111.562 187.324 112.156C187.652 112.742 188.098 113.211 188.66 113.562C189.223 113.906 189.855 114.078 190.559 114.078ZM210.223 116H208.184L208.102 114.113C207.672 114.801 207.109 115.328 206.414 115.695C205.727 116.055 204.91 116.234 203.965 116.234C202.434 116.234 201.223 115.77 200.332 114.84C199.449 113.902 199.008 112.621 199.008 110.996V104.281H201.41V110.645C201.41 111.684 201.691 112.512 202.254 113.129C202.816 113.746 203.574 114.055 204.527 114.055C205.512 114.055 206.305 113.727 206.906 113.07C207.516 112.406 207.82 111.535 207.82 110.457V104.281H210.223V116ZM222.633 116H220.23V106.426H218.18V104.281H220.23V101.996C220.23 101.23 220.398 100.555 220.734 99.9688C221.078 99.375 221.547 98.9102 222.141 98.5742C222.742 98.2383 223.434 98.0703 224.215 98.0703C224.699 98.0703 225.188 98.1367 225.68 98.2695C226.172 98.4023 226.656 98.6094 227.133 98.8906L226.219 100.777C225.961 100.59 225.691 100.453 225.41 100.367C225.137 100.273 224.863 100.227 224.59 100.227C224.02 100.227 223.551 100.43 223.184 100.836C222.816 101.242 222.633 101.785 222.633 102.465V104.281H226.219V106.426H222.633V116ZM234.445 116.234C233.273 116.234 232.219 115.969 231.281 115.438C230.344 114.906 229.605 114.184 229.066 113.27C228.527 112.348 228.258 111.305 228.258 110.141C228.258 108.984 228.527 107.949 229.066 107.035C229.605 106.113 230.344 105.387 231.281 104.855C232.219 104.316 233.273 104.047 234.445 104.047C235.625 104.047 236.68 104.316 237.609 104.855C238.539 105.387 239.27 106.113 239.801 107.035C240.34 107.949 240.609 108.984 240.609 110.141C240.609 111.305 240.34 112.348 239.801 113.27C239.27 114.184 238.539 114.906 237.609 115.438C236.68 115.969 235.625 116.234 234.445 116.234ZM234.434 114.078C235.145 114.078 235.777 113.906 236.332 113.562C236.895 113.211 237.336 112.742 237.656 112.156C237.984 111.562 238.148 110.887 238.148 110.129C238.148 109.387 237.984 108.723 237.656 108.137C237.336 107.543 236.895 107.074 236.332 106.73C235.777 106.379 235.145 106.203 234.434 106.203C233.73 106.203 233.098 106.379 232.535 106.73C231.973 107.074 231.527 107.543 231.199 108.137C230.879 108.723 230.719 109.387 230.719 110.129C230.719 110.887 230.879 111.562 231.199 112.156C231.527 112.742 231.973 113.211 232.535 113.562C233.098 113.906 233.73 114.078 234.434 114.078ZM253.066 114.254C252.496 114.887 251.812 115.375 251.016 115.719C250.219 116.062 249.355 116.234 248.426 116.234C247.254 116.234 246.199 115.969 245.262 115.438C244.332 114.906 243.598 114.18 243.059 113.258C242.52 112.336 242.25 111.297 242.25 110.141C242.25 108.977 242.52 107.938 243.059 107.023C243.598 106.102 244.332 105.375 245.262 104.844C246.199 104.312 247.254 104.047 248.426 104.047C249.348 104.047 250.207 104.219 251.004 104.562C251.801 104.898 252.484 105.383 253.055 106.016L251.637 107.504C251.254 107.098 250.793 106.785 250.254 106.566C249.723 106.34 249.156 106.227 248.555 106.227C247.812 106.227 247.152 106.395 246.574 106.73C245.996 107.066 245.543 107.527 245.215 108.113C244.887 108.691 244.723 109.363 244.723 110.129C244.723 110.887 244.887 111.562 245.215 112.156C245.543 112.75 245.996 113.215 246.574 113.551C247.152 113.887 247.812 114.055 248.555 114.055C249.156 114.055 249.727 113.941 250.266 113.715C250.805 113.488 251.262 113.176 251.637 112.777L253.066 114.254ZM266.543 116H264.504L264.422 114.113C263.992 114.801 263.43 115.328 262.734 115.695C262.047 116.055 261.23 116.234 260.285 116.234C258.754 116.234 257.543 115.77 256.652 114.84C255.77 113.902 255.328 112.621 255.328 110.996V104.281H257.73V110.645C257.73 111.684 258.012 112.512 258.574 113.129C259.137 113.746 259.895 114.055 260.848 114.055C261.832 114.055 262.625 113.727 263.227 113.07C263.836 112.406 264.141 111.535 264.141 110.457V104.281H266.543V116ZM269.109 114.98L269.695 112.824C269.961 113.09 270.277 113.324 270.645 113.527C271.02 113.73 271.414 113.891 271.828 114.008C272.25 114.117 272.664 114.172 273.07 114.172C273.711 114.172 274.227 114.035 274.617 113.762C275.008 113.488 275.203 113.125 275.203 112.672C275.203 112.336 275.094 112.059 274.875 111.84C274.664 111.613 274.379 111.418 274.02 111.254C273.668 111.09 273.289 110.93 272.883 110.773C272.359 110.578 271.836 110.352 271.312 110.094C270.797 109.836 270.363 109.492 270.012 109.062C269.66 108.633 269.484 108.066 269.484 107.363C269.484 106.691 269.656 106.109 270 105.617C270.344 105.117 270.824 104.73 271.441 104.457C272.059 104.184 272.77 104.047 273.574 104.047C274.824 104.047 276.062 104.359 277.289 104.984L276.586 107.035C276.336 106.855 276.039 106.695 275.695 106.555C275.352 106.414 275 106.305 274.641 106.227C274.281 106.141 273.949 106.098 273.645 106.098C273.137 106.098 272.727 106.211 272.414 106.438C272.109 106.664 271.957 106.969 271.957 107.352C271.957 107.586 272.031 107.801 272.18 107.996C272.328 108.184 272.562 108.371 272.883 108.559C273.211 108.738 273.652 108.941 274.207 109.168C274.738 109.379 275.27 109.621 275.801 109.895C276.332 110.168 276.773 110.523 277.125 110.961C277.484 111.398 277.664 111.973 277.664 112.684C277.664 113.387 277.477 114.008 277.102 114.547C276.727 115.078 276.203 115.492 275.531 115.789C274.867 116.086 274.094 116.234 273.211 116.234C271.75 116.234 270.383 115.816 269.109 114.98ZM36.9492 152.234C35.7773 152.234 34.7227 151.969 33.7852 151.438C32.8477 150.906 32.1094 150.184 31.5703 149.27C31.0312 148.348 30.7617 147.305 30.7617 146.141C30.7617 144.984 31.0312 143.949 31.5703 143.035C32.1094 142.113 32.8477 141.387 33.7852 140.855C34.7227 140.316 35.7773 140.047 36.9492 140.047C38.1289 140.047 39.1836 140.316 40.1133 140.855C41.043 141.387 41.7734 142.113 42.3047 143.035C42.8438 143.949 43.1133 144.984 43.1133 146.141C43.1133 147.305 42.8438 148.348 42.3047 149.27C41.7734 150.184 41.043 150.906 40.1133 151.438C39.1836 151.969 38.1289 152.234 36.9492 152.234ZM36.9375 150.078C37.6484 150.078 38.2812 149.906 38.8359 149.562C39.3984 149.211 39.8398 148.742 40.1602 148.156C40.4883 147.562 40.6523 146.887 40.6523 146.129C40.6523 145.387 40.4883 144.723 40.1602 144.137C39.8398 143.543 39.3984 143.074 38.8359 142.73C38.2812 142.379 37.6484 142.203 36.9375 142.203C36.2344 142.203 35.6016 142.379 35.0391 142.73C34.4766 143.074 34.0312 143.543 33.7031 144.137C33.3828 144.723 33.2227 145.387 33.2227 146.129C33.2227 146.887 33.3828 147.562 33.7031 148.156C34.0312 148.742 34.4766 149.211 35.0391 149.562C35.6016 149.906 36.2344 150.078 36.9375 150.078ZM56.8359 152H54.4336V145.637C54.4336 144.598 54.1484 143.77 53.5781 143.152C53.0156 142.535 52.2578 142.227 51.3047 142.227C50.3203 142.227 49.5273 142.555 48.9258 143.211C48.3242 143.867 48.0234 144.738 48.0234 145.824V152H45.6211V140.281H47.6484L47.7305 142.168C48.1602 141.48 48.7227 140.957 49.418 140.598C50.1133 140.23 50.9297 140.047 51.8672 140.047C53.4062 140.047 54.6172 140.512 55.5 141.441C56.3906 142.371 56.8359 143.652 56.8359 145.285V152ZM21.0938 188H18.3281L15.9375 179.621L13.5469 188H10.7812L7.03125 176.281H9.57422L12.1406 185.258L14.8477 176.281H17.0273L19.7344 185.27L22.3125 176.281H24.8555L21.0938 188ZM28.3359 172.883C27.9688 172.883 27.6602 172.754 27.4102 172.496C27.1602 172.238 27.0352 171.926 27.0352 171.559C27.0352 171.191 27.1602 170.883 27.4102 170.633C27.6602 170.375 27.9688 170.246 28.3359 170.246C28.7109 170.246 29.0234 170.375 29.2734 170.633C29.5312 170.883 29.6602 171.191 29.6602 171.559C29.6602 171.926 29.5312 172.238 29.2734 172.496C29.0234 172.754 28.7109 172.883 28.3359 172.883ZM29.5312 188H27.1289V176.281H29.5312V188ZM40.2188 187.707C39.3984 188.059 38.6055 188.234 37.8398 188.234C37.0742 188.234 36.4023 188.07 35.8242 187.742C35.2539 187.414 34.8047 186.953 34.4766 186.359C34.1562 185.758 33.9961 185.066 33.9961 184.285V178.426H31.9453V176.281H34.1133V173.352H36.3984V176.281H39.8203V178.426H36.3984V183.84C36.3984 184.527 36.582 185.074 36.9492 185.48C37.3242 185.879 37.8047 186.078 38.3906 186.078C38.8828 186.078 39.3711 185.93 39.8555 185.633L40.2188 187.707ZM42.5859 188V170.422H44.9883V177.91C45.8555 176.668 47.1719 176.047 48.9375 176.047C50.4609 176.047 51.6523 176.508 52.5117 177.43C53.3711 178.352 53.8008 179.637 53.8008 181.285V188H51.3984V181.871C51.3984 180.707 51.1172 179.805 50.5547 179.164C50 178.523 49.2227 178.203 48.2227 178.203C47.2148 178.203 46.4219 178.531 45.8438 179.188C45.2734 179.836 44.9883 180.73 44.9883 181.871V188H42.5859ZM58.1953 172.883C57.8281 172.883 57.5195 172.754 57.2695 172.496C57.0195 172.238 56.8945 171.926 56.8945 171.559C56.8945 171.191 57.0195 170.883 57.2695 170.633C57.5195 170.375 57.8281 170.246 58.1953 170.246C58.5703 170.246 58.8828 170.375 59.1328 170.633C59.3906 170.883 59.5195 171.191 59.5195 171.559C59.5195 171.926 59.3906 172.238 59.1328 172.496C58.8828 172.754 58.5703 172.883 58.1953 172.883ZM59.3906 188H56.9883V176.281H59.3906V188ZM74.0273 188H71.625V181.637C71.625 180.598 71.3398 179.77 70.7695 179.152C70.207 178.535 69.4492 178.227 68.4961 178.227C67.5117 178.227 66.7188 178.555 66.1172 179.211C65.5156 179.867 65.2148 180.738 65.2148 181.824V188H62.8125V176.281H64.8398L64.9219 178.168C65.3516 177.48 65.9141 176.957 66.6094 176.598C67.3047 176.23 68.1211 176.047 69.0586 176.047C70.5977 176.047 71.8086 176.512 72.6914 177.441C73.582 178.371 74.0273 179.652 74.0273 181.285V188ZM90.1641 187.707C89.3438 188.059 88.5508 188.234 87.7852 188.234C87.0195 188.234 86.3477 188.07 85.7695 187.742C85.1992 187.414 84.75 186.953 84.4219 186.359C84.1016 185.758 83.9414 185.066 83.9414 184.285V178.426H81.8906V176.281H84.0586V173.352H86.3438V176.281H89.7656V178.426H86.3438V183.84C86.3438 184.527 86.5273 185.074 86.8945 185.48C87.2695 185.879 87.75 186.078 88.3359 186.078C88.8281 186.078 89.3164 185.93 89.8008 185.633L90.1641 187.707ZM92.5312 188V170.422H94.9336V177.91C95.8008 176.668 97.1172 176.047 98.8828 176.047C100.406 176.047 101.598 176.508 102.457 177.43C103.316 178.352 103.746 179.637 103.746 181.285V188H101.344V181.871C101.344 180.707 101.062 179.805 100.5 179.164C99.9453 178.523 99.168 178.203 98.168 178.203C97.1602 178.203 96.3672 178.531 95.7891 179.188C95.2188 179.836 94.9336 180.73 94.9336 181.871V188H92.5312ZM117.352 186.605C115.898 187.691 114.301 188.234 112.559 188.234C111.316 188.234 110.203 187.961 109.219 187.414C108.234 186.867 107.457 186.121 106.887 185.176C106.316 184.23 106.031 183.164 106.031 181.977C106.031 180.844 106.293 179.832 106.816 178.941C107.34 178.043 108.055 177.336 108.961 176.82C109.867 176.305 110.895 176.047 112.043 176.047C113.23 176.047 114.273 176.328 115.172 176.891C116.078 177.453 116.781 178.238 117.281 179.246C117.789 180.246 118.043 181.406 118.043 182.727V183.102H108.633C108.773 183.711 109.039 184.246 109.43 184.707C109.82 185.16 110.305 185.516 110.883 185.773C111.461 186.023 112.113 186.148 112.84 186.148C114.137 186.148 115.328 185.727 116.414 184.883L117.352 186.605ZM108.527 181.438H115.805C115.727 180.781 115.523 180.211 115.195 179.727C114.867 179.234 114.441 178.852 113.918 178.578C113.402 178.297 112.82 178.156 112.172 178.156C111.516 178.156 110.926 178.297 110.402 178.578C109.879 178.852 109.453 179.234 109.125 179.727C108.805 180.219 108.605 180.789 108.527 181.438ZM145.008 188H142.605V181.871C142.605 180.707 142.355 179.805 141.855 179.164C141.363 178.523 140.668 178.203 139.77 178.203C138.855 178.203 138.141 178.527 137.625 179.176C137.109 179.824 136.852 180.723 136.852 181.871V188H134.449V181.871C134.449 180.707 134.199 179.805 133.699 179.164C133.199 178.523 132.5 178.203 131.602 178.203C130.688 178.203 129.973 178.527 129.457 179.176C128.941 179.824 128.684 180.723 128.684 181.871V188H126.281V176.281H128.227L128.32 178.32C128.711 177.578 129.238 177.016 129.902 176.633C130.574 176.242 131.363 176.047 132.27 176.047C133.23 176.047 134.055 176.258 134.742 176.68C135.43 177.102 135.949 177.707 136.301 178.496C136.691 177.691 137.23 177.082 137.918 176.668C138.613 176.254 139.438 176.047 140.391 176.047C141.844 176.047 142.977 176.508 143.789 177.43C144.602 178.352 145.008 179.637 145.008 181.285V188ZM153.469 188.234C152.297 188.234 151.242 187.969 150.305 187.438C149.367 186.906 148.629 186.184 148.09 185.27C147.551 184.348 147.281 183.305 147.281 182.141C147.281 180.984 147.551 179.949 148.09 179.035C148.629 178.113 149.367 177.387 150.305 176.855C151.242 176.316 152.297 176.047 153.469 176.047C154.648 176.047 155.703 176.316 156.633 176.855C157.562 177.387 158.293 178.113 158.824 179.035C159.363 179.949 159.633 180.984 159.633 182.141C159.633 183.305 159.363 184.348 158.824 185.27C158.293 186.184 157.562 186.906 156.633 187.438C155.703 187.969 154.648 188.234 153.469 188.234ZM153.457 186.078C154.168 186.078 154.801 185.906 155.355 185.562C155.918 185.211 156.359 184.742 156.68 184.156C157.008 183.562 157.172 182.887 157.172 182.129C157.172 181.387 157.008 180.723 156.68 180.137C156.359 179.543 155.918 179.074 155.355 178.73C154.801 178.379 154.168 178.203 153.457 178.203C152.754 178.203 152.121 178.379 151.559 178.73C150.996 179.074 150.551 179.543 150.223 180.137C149.902 180.723 149.742 181.387 149.742 182.129C149.742 182.887 149.902 183.562 150.223 184.156C150.551 184.742 150.996 185.211 151.559 185.562C152.121 185.906 152.754 186.078 153.457 186.078ZM161.32 186.98L161.906 184.824C162.172 185.09 162.488 185.324 162.855 185.527C163.23 185.73 163.625 185.891 164.039 186.008C164.461 186.117 164.875 186.172 165.281 186.172C165.922 186.172 166.438 186.035 166.828 185.762C167.219 185.488 167.414 185.125 167.414 184.672C167.414 184.336 167.305 184.059 167.086 183.84C166.875 183.613 166.59 183.418 166.23 183.254C165.879 183.09 165.5 182.93 165.094 182.773C164.57 182.578 164.047 182.352 163.523 182.094C163.008 181.836 162.574 181.492 162.223 181.062C161.871 180.633 161.695 180.066 161.695 179.363C161.695 178.691 161.867 178.109 162.211 177.617C162.555 177.117 163.035 176.73 163.652 176.457C164.27 176.184 164.98 176.047 165.785 176.047C167.035 176.047 168.273 176.359 169.5 176.984L168.797 179.035C168.547 178.855 168.25 178.695 167.906 178.555C167.562 178.414 167.211 178.305 166.852 178.227C166.492 178.141 166.16 178.098 165.855 178.098C165.348 178.098 164.938 178.211 164.625 178.438C164.32 178.664 164.168 178.969 164.168 179.352C164.168 179.586 164.242 179.801 164.391 179.996C164.539 180.184 164.773 180.371 165.094 180.559C165.422 180.738 165.863 180.941 166.418 181.168C166.949 181.379 167.48 181.621 168.012 181.895C168.543 182.168 168.984 182.523 169.336 182.961C169.695 183.398 169.875 183.973 169.875 184.684C169.875 185.387 169.688 186.008 169.312 186.547C168.938 187.078 168.414 187.492 167.742 187.789C167.078 188.086 166.305 188.234 165.422 188.234C163.961 188.234 162.594 187.816 161.32 186.98ZM179.578 187.707C178.758 188.059 177.965 188.234 177.199 188.234C176.434 188.234 175.762 188.07 175.184 187.742C174.613 187.414 174.164 186.953 173.836 186.359C173.516 185.758 173.355 185.066 173.355 184.285V178.426H171.305V176.281H173.473V173.352H175.758V176.281H179.18V178.426H175.758V183.84C175.758 184.527 175.941 185.074 176.309 185.48C176.684 185.879 177.164 186.078 177.75 186.078C178.242 186.078 178.73 185.93 179.215 185.633L179.578 187.707ZM197.613 186.254C197.043 186.887 196.359 187.375 195.562 187.719C194.766 188.062 193.902 188.234 192.973 188.234C191.801 188.234 190.746 187.969 189.809 187.438C188.879 186.906 188.145 186.18 187.605 185.258C187.066 184.336 186.797 183.297 186.797 182.141C186.797 180.977 187.066 179.938 187.605 179.023C188.145 178.102 188.879 177.375 189.809 176.844C190.746 176.312 191.801 176.047 192.973 176.047C193.895 176.047 194.754 176.219 195.551 176.562C196.348 176.898 197.031 177.383 197.602 178.016L196.184 179.504C195.801 179.098 195.34 178.785 194.801 178.566C194.27 178.34 193.703 178.227 193.102 178.227C192.359 178.227 191.699 178.395 191.121 178.73C190.543 179.066 190.09 179.527 189.762 180.113C189.434 180.691 189.27 181.363 189.27 182.129C189.27 182.887 189.434 183.562 189.762 184.156C190.09 184.75 190.543 185.215 191.121 185.551C191.699 185.887 192.359 186.055 193.102 186.055C193.703 186.055 194.273 185.941 194.812 185.715C195.352 185.488 195.809 185.176 196.184 184.777L197.613 186.254ZM205.43 188.234C204.258 188.234 203.203 187.969 202.266 187.438C201.328 186.906 200.59 186.184 200.051 185.27C199.512 184.348 199.242 183.305 199.242 182.141C199.242 180.984 199.512 179.949 200.051 179.035C200.59 178.113 201.328 177.387 202.266 176.855C203.203 176.316 204.258 176.047 205.43 176.047C206.609 176.047 207.664 176.316 208.594 176.855C209.523 177.387 210.254 178.113 210.785 179.035C211.324 179.949 211.594 180.984 211.594 182.141C211.594 183.305 211.324 184.348 210.785 185.27C210.254 186.184 209.523 186.906 208.594 187.438C207.664 187.969 206.609 188.234 205.43 188.234ZM205.418 186.078C206.129 186.078 206.762 185.906 207.316 185.562C207.879 185.211 208.32 184.742 208.641 184.156C208.969 183.562 209.133 182.887 209.133 182.129C209.133 181.387 208.969 180.723 208.641 180.137C208.32 179.543 207.879 179.074 207.316 178.73C206.762 178.379 206.129 178.203 205.418 178.203C204.715 178.203 204.082 178.379 203.52 178.73C202.957 179.074 202.512 179.543 202.184 180.137C201.863 180.723 201.703 181.387 201.703 182.129C201.703 182.887 201.863 183.562 202.184 184.156C202.512 184.742 202.957 185.211 203.52 185.562C204.082 185.906 204.715 186.078 205.418 186.078ZM232.828 188H230.426V181.871C230.426 180.707 230.176 179.805 229.676 179.164C229.184 178.523 228.488 178.203 227.59 178.203C226.676 178.203 225.961 178.527 225.445 179.176C224.93 179.824 224.672 180.723 224.672 181.871V188H222.27V181.871C222.27 180.707 222.02 179.805 221.52 179.164C221.02 178.523 220.32 178.203 219.422 178.203C218.508 178.203 217.793 178.527 217.277 179.176C216.762 179.824 216.504 180.723 216.504 181.871V188H214.102V176.281H216.047L216.141 178.32C216.531 177.578 217.059 177.016 217.723 176.633C218.395 176.242 219.184 176.047 220.09 176.047C221.051 176.047 221.875 176.258 222.562 176.68C223.25 177.102 223.77 177.707 224.121 178.496C224.512 177.691 225.051 177.082 225.738 176.668C226.434 176.254 227.258 176.047 228.211 176.047C229.664 176.047 230.797 176.508 231.609 177.43C232.422 178.352 232.828 179.637 232.828 181.285V188ZM254.695 188H252.293V181.871C252.293 180.707 252.043 179.805 251.543 179.164C251.051 178.523 250.355 178.203 249.457 178.203C248.543 178.203 247.828 178.527 247.312 179.176C246.797 179.824 246.539 180.723 246.539 181.871V188H244.137V181.871C244.137 180.707 243.887 179.805 243.387 179.164C242.887 178.523 242.188 178.203 241.289 178.203C240.375 178.203 239.66 178.527 239.145 179.176C238.629 179.824 238.371 180.723 238.371 181.871V188H235.969V176.281H237.914L238.008 178.32C238.398 177.578 238.926 177.016 239.59 176.633C240.262 176.242 241.051 176.047 241.957 176.047C242.918 176.047 243.742 176.258 244.43 176.68C245.117 177.102 245.637 177.707 245.988 178.496C246.379 177.691 246.918 177.082 247.605 176.668C248.301 176.254 249.125 176.047 250.078 176.047C251.531 176.047 252.664 176.508 253.477 177.43C254.289 178.352 254.695 179.637 254.695 181.285V188ZM263.156 188.234C261.984 188.234 260.93 187.969 259.992 187.438C259.055 186.906 258.316 186.184 257.777 185.27C257.238 184.348 256.969 183.305 256.969 182.141C256.969 180.984 257.238 179.949 257.777 179.035C258.316 178.113 259.055 177.387 259.992 176.855C260.93 176.316 261.984 176.047 263.156 176.047C264.336 176.047 265.391 176.316 266.32 176.855C267.25 177.387 267.98 178.113 268.512 179.035C269.051 179.949 269.32 180.984 269.32 182.141C269.32 183.305 269.051 184.348 268.512 185.27C267.98 186.184 267.25 186.906 266.32 187.438C265.391 187.969 264.336 188.234 263.156 188.234ZM263.145 186.078C263.855 186.078 264.488 185.906 265.043 185.562C265.605 185.211 266.047 184.742 266.367 184.156C266.695 183.562 266.859 182.887 266.859 182.129C266.859 181.387 266.695 180.723 266.367 180.137C266.047 179.543 265.605 179.074 265.043 178.73C264.488 178.379 263.855 178.203 263.145 178.203C262.441 178.203 261.809 178.379 261.246 178.73C260.684 179.074 260.238 179.543 259.91 180.137C259.59 180.723 259.43 181.387 259.43 182.129C259.43 182.887 259.59 183.562 259.91 184.156C260.238 184.742 260.684 185.211 261.246 185.562C261.809 185.906 262.441 186.078 263.145 186.078ZM283.043 188H280.641V181.637C280.641 180.598 280.355 179.77 279.785 179.152C279.223 178.535 278.465 178.227 277.512 178.227C276.527 178.227 275.734 178.555 275.133 179.211C274.531 179.867 274.23 180.738 274.23 181.824V188H271.828V176.281H273.855L273.938 178.168C274.367 177.48 274.93 176.957 275.625 176.598C276.32 176.23 277.137 176.047 278.074 176.047C279.613 176.047 280.824 176.512 281.707 177.441C282.598 178.371 283.043 179.652 283.043 181.285V188ZM35.6953 224H33.5742L33.4453 222.324C32.9141 222.918 32.2734 223.387 31.5234 223.73C30.7812 224.066 29.9648 224.234 29.0742 224.234C27.9492 224.234 26.9414 223.969 26.0508 223.438C25.1602 222.906 24.457 222.18 23.9414 221.258C23.4336 220.336 23.1797 219.297 23.1797 218.141C23.1797 216.977 23.4336 215.938 23.9414 215.023C24.457 214.102 25.1602 213.375 26.0508 212.844C26.9414 212.312 27.9492 212.047 29.0742 212.047C29.918 212.047 30.6992 212.199 31.418 212.504C32.1445 212.809 32.7695 213.234 33.293 213.781V206.422H35.6953V224ZM29.4727 222.078C30.1836 222.078 30.8242 221.914 31.3945 221.586C31.9727 221.258 32.4336 220.812 32.7773 220.25C33.1211 219.688 33.293 219.047 33.293 218.328V217.93C33.293 217.211 33.1211 216.57 32.7773 216.008C32.4336 215.445 31.9727 215.004 31.3945 214.684C30.8242 214.363 30.1836 214.203 29.4727 214.203C28.7461 214.203 28.0938 214.375 27.5156 214.719C26.9375 215.062 26.4805 215.531 26.1445 216.125C25.8086 216.711 25.6406 217.379 25.6406 218.129C25.6406 218.879 25.8086 219.551 26.1445 220.145C26.4805 220.738 26.9375 221.211 27.5156 221.562C28.0938 221.906 28.7461 222.078 29.4727 222.078ZM40.3125 208.883C39.9453 208.883 39.6367 208.754 39.3867 208.496C39.1367 208.238 39.0117 207.926 39.0117 207.559C39.0117 207.191 39.1367 206.883 39.3867 206.633C39.6367 206.375 39.9453 206.246 40.3125 206.246C40.6875 206.246 41 206.375 41.25 206.633C41.5078 206.883 41.6367 207.191 41.6367 207.559C41.6367 207.926 41.5078 208.238 41.25 208.496C41 208.754 40.6875 208.883 40.3125 208.883ZM41.5078 224H39.1055V212.281H41.5078V224ZM44.1094 222.98L44.6953 220.824C44.9609 221.09 45.2773 221.324 45.6445 221.527C46.0195 221.73 46.4141 221.891 46.8281 222.008C47.25 222.117 47.6641 222.172 48.0703 222.172C48.7109 222.172 49.2266 222.035 49.6172 221.762C50.0078 221.488 50.2031 221.125 50.2031 220.672C50.2031 220.336 50.0938 220.059 49.875 219.84C49.6641 219.613 49.3789 219.418 49.0195 219.254C48.668 219.09 48.2891 218.93 47.8828 218.773C47.3594 218.578 46.8359 218.352 46.3125 218.094C45.7969 217.836 45.3633 217.492 45.0117 217.062C44.6602 216.633 44.4844 216.066 44.4844 215.363C44.4844 214.691 44.6562 214.109 45 213.617C45.3438 213.117 45.8242 212.73 46.4414 212.457C47.0586 212.184 47.7695 212.047 48.5742 212.047C49.8242 212.047 51.0625 212.359 52.2891 212.984L51.5859 215.035C51.3359 214.855 51.0391 214.695 50.6953 214.555C50.3516 214.414 50 214.305 49.6406 214.227C49.2812 214.141 48.9492 214.098 48.6445 214.098C48.1367 214.098 47.7266 214.211 47.4141 214.438C47.1094 214.664 46.957 214.969 46.957 215.352C46.957 215.586 47.0312 215.801 47.1797 215.996C47.3281 216.184 47.5625 216.371 47.8828 216.559C48.2109 216.738 48.6523 216.941 49.207 217.168C49.7383 217.379 50.2695 217.621 50.8008 217.895C51.332 218.168 51.7734 218.523 52.125 218.961C52.4844 219.398 52.6641 219.973 52.6641 220.684C52.6641 221.387 52.4766 222.008 52.1016 222.547C51.7266 223.078 51.2031 223.492 50.5312 223.789C49.8672 224.086 49.0938 224.234 48.2109 224.234C46.75 224.234 45.3828 223.816 44.1094 222.98ZM65.168 222.254C64.5977 222.887 63.9141 223.375 63.1172 223.719C62.3203 224.062 61.457 224.234 60.5273 224.234C59.3555 224.234 58.3008 223.969 57.3633 223.438C56.4336 222.906 55.6992 222.18 55.1602 221.258C54.6211 220.336 54.3516 219.297 54.3516 218.141C54.3516 216.977 54.6211 215.938 55.1602 215.023C55.6992 214.102 56.4336 213.375 57.3633 212.844C58.3008 212.312 59.3555 212.047 60.5273 212.047C61.4492 212.047 62.3086 212.219 63.1055 212.562C63.9023 212.898 64.5859 213.383 65.1562 214.016L63.7383 215.504C63.3555 215.098 62.8945 214.785 62.3555 214.566C61.8242 214.34 61.2578 214.227 60.6562 214.227C59.9141 214.227 59.2539 214.395 58.6758 214.73C58.0977 215.066 57.6445 215.527 57.3164 216.113C56.9883 216.691 56.8242 217.363 56.8242 218.129C56.8242 218.887 56.9883 219.562 57.3164 220.156C57.6445 220.75 58.0977 221.215 58.6758 221.551C59.2539 221.887 59.9141 222.055 60.6562 222.055C61.2578 222.055 61.8281 221.941 62.3672 221.715C62.9062 221.488 63.3633 221.176 63.7383 220.777L65.168 222.254ZM70.0664 224H67.6641V212.281H69.7617L69.8555 214.508C70.2617 213.734 70.8203 213.133 71.5312 212.703C72.25 212.266 73.0742 212.047 74.0039 212.047C74.2305 212.047 74.457 212.062 74.6836 212.094C74.918 212.117 75.1523 212.156 75.3867 212.211L75.082 214.379C74.6289 214.262 74.1836 214.203 73.7461 214.203C73.0195 214.203 72.3789 214.379 71.8242 214.73C71.2695 215.074 70.8359 215.551 70.5234 216.16C70.2188 216.77 70.0664 217.473 70.0664 218.27V224ZM87.6797 222.605C86.2266 223.691 84.6289 224.234 82.8867 224.234C81.6445 224.234 80.5312 223.961 79.5469 223.414C78.5625 222.867 77.7852 222.121 77.2148 221.176C76.6445 220.23 76.3594 219.164 76.3594 217.977C76.3594 216.844 76.6211 215.832 77.1445 214.941C77.668 214.043 78.3828 213.336 79.2891 212.82C80.1953 212.305 81.2227 212.047 82.3711 212.047C83.5586 212.047 84.6016 212.328 85.5 212.891C86.4062 213.453 87.1094 214.238 87.6094 215.246C88.1172 216.246 88.3711 217.406 88.3711 218.727V219.102H78.9609C79.1016 219.711 79.3672 220.246 79.7578 220.707C80.1484 221.16 80.6328 221.516 81.2109 221.773C81.7891 222.023 82.4414 222.148 83.168 222.148C84.4648 222.148 85.6562 221.727 86.7422 220.883L87.6797 222.605ZM78.8555 217.438H86.1328C86.0547 216.781 85.8516 216.211 85.5234 215.727C85.1953 215.234 84.7695 214.852 84.2461 214.578C83.7305 214.297 83.1484 214.156 82.5 214.156C81.8438 214.156 81.2539 214.297 80.7305 214.578C80.207 214.852 79.7812 215.234 79.4531 215.727C79.1328 216.219 78.9336 216.789 78.8555 217.438ZM97.8047 223.707C96.9844 224.059 96.1914 224.234 95.4258 224.234C94.6602 224.234 93.9883 224.07 93.4102 223.742C92.8398 223.414 92.3906 222.953 92.0625 222.359C91.7422 221.758 91.582 221.066 91.582 220.285V214.426H89.5312V212.281H91.6992V209.352H93.9844V212.281H97.4062V214.426H93.9844V219.84C93.9844 220.527 94.168 221.074 94.5352 221.48C94.9102 221.879 95.3906 222.078 95.9766 222.078C96.4688 222.078 96.957 221.93 97.4414 221.633L97.8047 223.707ZM101.062 208.883C100.695 208.883 100.387 208.754 100.137 208.496C99.8867 208.238 99.7617 207.926 99.7617 207.559C99.7617 207.191 99.8867 206.883 100.137 206.633C100.387 206.375 100.695 206.246 101.062 206.246C101.438 206.246 101.75 206.375 102 206.633C102.258 206.883 102.387 207.191 102.387 207.559C102.387 207.926 102.258 208.238 102 208.496C101.75 208.754 101.438 208.883 101.062 208.883ZM102.258 224H99.8555V212.281H102.258V224ZM111 224.234C109.828 224.234 108.773 223.969 107.836 223.438C106.898 222.906 106.16 222.184 105.621 221.27C105.082 220.348 104.812 219.305 104.812 218.141C104.812 216.984 105.082 215.949 105.621 215.035C106.16 214.113 106.898 213.387 107.836 212.855C108.773 212.316 109.828 212.047 111 212.047C112.18 212.047 113.234 212.316 114.164 212.855C115.094 213.387 115.824 214.113 116.355 215.035C116.895 215.949 117.164 216.984 117.164 218.141C117.164 219.305 116.895 220.348 116.355 221.27C115.824 222.184 115.094 222.906 114.164 223.438C113.234 223.969 112.18 224.234 111 224.234ZM110.988 222.078C111.699 222.078 112.332 221.906 112.887 221.562C113.449 221.211 113.891 220.742 114.211 220.156C114.539 219.562 114.703 218.887 114.703 218.129C114.703 217.387 114.539 216.723 114.211 216.137C113.891 215.543 113.449 215.074 112.887 214.73C112.332 214.379 111.699 214.203 110.988 214.203C110.285 214.203 109.652 214.379 109.09 214.73C108.527 215.074 108.082 215.543 107.754 216.137C107.434 216.723 107.273 217.387 107.273 218.129C107.273 218.887 107.434 219.562 107.754 220.156C108.082 220.742 108.527 221.211 109.09 221.562C109.652 221.906 110.285 222.078 110.988 222.078ZM130.887 224H128.484V217.637C128.484 216.598 128.199 215.77 127.629 215.152C127.066 214.535 126.309 214.227 125.355 214.227C124.371 214.227 123.578 214.555 122.977 215.211C122.375 215.867 122.074 216.738 122.074 217.824V224H119.672V212.281H121.699L121.781 214.168C122.211 213.48 122.773 212.957 123.469 212.598C124.164 212.23 124.98 212.047 125.918 212.047C127.457 212.047 128.668 212.512 129.551 213.441C130.441 214.371 130.887 215.652 130.887 217.285V224ZM143.824 224H141.75L141.609 222.5C141.18 223.047 140.637 223.473 139.98 223.777C139.324 224.082 138.598 224.234 137.801 224.234C136.965 224.234 136.219 224.07 135.562 223.742C134.906 223.414 134.391 222.965 134.016 222.395C133.641 221.824 133.453 221.176 133.453 220.449C133.453 219.684 133.656 219.012 134.062 218.434C134.469 217.848 135.023 217.391 135.727 217.062C136.43 216.727 137.23 216.559 138.129 216.559C138.691 216.559 139.262 216.625 139.84 216.758C140.426 216.891 140.953 217.078 141.422 217.32V216.887C141.422 216.316 141.273 215.828 140.977 215.422C140.688 215.008 140.289 214.691 139.781 214.473C139.281 214.254 138.727 214.145 138.117 214.145C137.578 214.145 137.027 214.238 136.465 214.426C135.91 214.613 135.387 214.902 134.895 215.293L134.168 213.336C134.879 212.914 135.617 212.594 136.383 212.375C137.156 212.156 137.914 212.047 138.656 212.047C139.719 212.047 140.633 212.258 141.398 212.68C142.172 213.102 142.77 213.703 143.191 214.484C143.613 215.258 143.824 216.172 143.824 217.227V224ZM138.27 222.195C138.824 222.195 139.336 222.082 139.805 221.855C140.273 221.621 140.652 221.293 140.941 220.871C141.238 220.441 141.398 219.941 141.422 219.371V219.207C141.023 218.91 140.574 218.68 140.074 218.516C139.582 218.344 139.078 218.258 138.562 218.258C137.773 218.258 137.117 218.445 136.594 218.82C136.07 219.195 135.809 219.676 135.809 220.262C135.809 220.629 135.914 220.961 136.125 221.258C136.344 221.547 136.637 221.777 137.004 221.949C137.379 222.113 137.801 222.195 138.27 222.195ZM149.379 224H146.977V212.281H149.074L149.168 214.508C149.574 213.734 150.133 213.133 150.844 212.703C151.562 212.266 152.387 212.047 153.316 212.047C153.543 212.047 153.77 212.062 153.996 212.094C154.23 212.117 154.465 212.156 154.699 212.211L154.395 214.379C153.941 214.262 153.496 214.203 153.059 214.203C152.332 214.203 151.691 214.379 151.137 214.73C150.582 215.074 150.148 215.551 149.836 216.16C149.531 216.77 149.379 217.473 149.379 218.27V224ZM161.285 229.859H158.695L161.145 223.93L155.438 212.281H158.121L162.293 221.176L165.973 212.281H168.551L161.285 229.859ZM195.234 224H192.832V217.871C192.832 216.707 192.582 215.805 192.082 215.164C191.59 214.523 190.895 214.203 189.996 214.203C189.082 214.203 188.367 214.527 187.852 215.176C187.336 215.824 187.078 216.723 187.078 217.871V224H184.676V217.871C184.676 216.707 184.426 215.805 183.926 215.164C183.426 214.523 182.727 214.203 181.828 214.203C180.914 214.203 180.199 214.527 179.684 215.176C179.168 215.824 178.91 216.723 178.91 217.871V224H176.508V212.281H178.453L178.547 214.32C178.938 213.578 179.465 213.016 180.129 212.633C180.801 212.242 181.59 212.047 182.496 212.047C183.457 212.047 184.281 212.258 184.969 212.68C185.656 213.102 186.176 213.707 186.527 214.496C186.918 213.691 187.457 213.082 188.145 212.668C188.84 212.254 189.664 212.047 190.617 212.047C192.07 212.047 193.203 212.508 194.016 213.43C194.828 214.352 195.234 215.637 195.234 217.285V224ZM203.695 224.234C202.523 224.234 201.469 223.969 200.531 223.438C199.594 222.906 198.855 222.184 198.316 221.27C197.777 220.348 197.508 219.305 197.508 218.141C197.508 216.984 197.777 215.949 198.316 215.035C198.855 214.113 199.594 213.387 200.531 212.855C201.469 212.316 202.523 212.047 203.695 212.047C204.875 212.047 205.93 212.316 206.859 212.855C207.789 213.387 208.52 214.113 209.051 215.035C209.59 215.949 209.859 216.984 209.859 218.141C209.859 219.305 209.59 220.348 209.051 221.27C208.52 222.184 207.789 222.906 206.859 223.438C205.93 223.969 204.875 224.234 203.695 224.234ZM203.684 222.078C204.395 222.078 205.027 221.906 205.582 221.562C206.145 221.211 206.586 220.742 206.906 220.156C207.234 219.562 207.398 218.887 207.398 218.129C207.398 217.387 207.234 216.723 206.906 216.137C206.586 215.543 206.145 215.074 205.582 214.73C205.027 214.379 204.395 214.203 203.684 214.203C202.98 214.203 202.348 214.379 201.785 214.73C201.223 215.074 200.777 215.543 200.449 216.137C200.129 216.723 199.969 217.387 199.969 218.129C199.969 218.887 200.129 219.562 200.449 220.156C200.777 220.742 201.223 221.211 201.785 221.562C202.348 221.906 202.98 222.078 203.684 222.078ZM223.582 224H221.18V217.637C221.18 216.598 220.895 215.77 220.324 215.152C219.762 214.535 219.004 214.227 218.051 214.227C217.066 214.227 216.273 214.555 215.672 215.211C215.07 215.867 214.77 216.738 214.77 217.824V224H212.367V212.281H214.395L214.477 214.168C214.906 213.48 215.469 212.957 216.164 212.598C216.859 212.23 217.676 212.047 218.613 212.047C220.152 212.047 221.363 212.512 222.246 213.441C223.137 214.371 223.582 215.652 223.582 217.285V224ZM233.766 223.707C232.945 224.059 232.152 224.234 231.387 224.234C230.621 224.234 229.949 224.07 229.371 223.742C228.801 223.414 228.352 222.953 228.023 222.359C227.703 221.758 227.543 221.066 227.543 220.285V214.426H225.492V212.281H227.66V209.352H229.945V212.281H233.367V214.426H229.945V219.84C229.945 220.527 230.129 221.074 230.496 221.48C230.871 221.879 231.352 222.078 231.938 222.078C232.43 222.078 232.918 221.93 233.402 221.633L233.766 223.707ZM236.133 224V206.422H238.535V213.91C239.402 212.668 240.719 212.047 242.484 212.047C244.008 212.047 245.199 212.508 246.059 213.43C246.918 214.352 247.348 215.637 247.348 217.285V224H244.945V217.871C244.945 216.707 244.664 215.805 244.102 215.164C243.547 214.523 242.77 214.203 241.77 214.203C240.762 214.203 239.969 214.531 239.391 215.188C238.82 215.836 238.535 216.73 238.535 217.871V224H236.133ZM253.055 224H250.5V205.953H253.055V224ZM260.824 229.859H258.234L260.684 223.93L254.977 212.281H257.66L261.832 221.176L265.512 212.281H268.09L260.824 229.859ZM30.8672 258.98L31.4531 256.824C31.7188 257.09 32.0352 257.324 32.4023 257.527C32.7773 257.73 33.1719 257.891 33.5859 258.008C34.0078 258.117 34.4219 258.172 34.8281 258.172C35.4688 258.172 35.9844 258.035 36.375 257.762C36.7656 257.488 36.9609 257.125 36.9609 256.672C36.9609 256.336 36.8516 256.059 36.6328 255.84C36.4219 255.613 36.1367 255.418 35.7773 255.254C35.4258 255.09 35.0469 254.93 34.6406 254.773C34.1172 254.578 33.5938 254.352 33.0703 254.094C32.5547 253.836 32.1211 253.492 31.7695 253.062C31.418 252.633 31.2422 252.066 31.2422 251.363C31.2422 250.691 31.4141 250.109 31.7578 249.617C32.1016 249.117 32.582 248.73 33.1992 248.457C33.8164 248.184 34.5273 248.047 35.332 248.047C36.582 248.047 37.8203 248.359 39.0469 248.984L38.3438 251.035C38.0938 250.855 37.7969 250.695 37.4531 250.555C37.1094 250.414 36.7578 250.305 36.3984 250.227C36.0391 250.141 35.707 250.098 35.4023 250.098C34.8945 250.098 34.4844 250.211 34.1719 250.438C33.8672 250.664 33.7148 250.969 33.7148 251.352C33.7148 251.586 33.7891 251.801 33.9375 251.996C34.0859 252.184 34.3203 252.371 34.6406 252.559C34.9688 252.738 35.4102 252.941 35.9648 253.168C36.4961 253.379 37.0273 253.621 37.5586 253.895C38.0898 254.168 38.5312 254.523 38.8828 254.961C39.2422 255.398 39.4219 255.973 39.4219 256.684C39.4219 257.387 39.2344 258.008 38.8594 258.547C38.4844 259.078 37.9609 259.492 37.2891 259.789C36.625 260.086 35.8516 260.234 34.9688 260.234C33.5078 260.234 32.1406 259.816 30.8672 258.98ZM44.3789 265.859H41.9766V248.281H44.0977L44.2266 249.957C44.7578 249.363 45.3945 248.898 46.1367 248.562C46.8867 248.219 47.707 248.047 48.5977 248.047C49.7227 248.047 50.7266 248.312 51.6094 248.844C52.5 249.375 53.1992 250.102 53.707 251.023C54.2227 251.938 54.4805 252.977 54.4805 254.141C54.4805 255.297 54.2227 256.336 53.707 257.258C53.1992 258.18 52.5 258.906 51.6094 259.438C50.7266 259.969 49.7227 260.234 48.5977 260.234C47.7539 260.234 46.9727 260.082 46.2539 259.777C45.5352 259.473 44.9102 259.047 44.3789 258.5V265.859ZM48.2109 258.055C48.9531 258.055 49.6094 257.887 50.1797 257.551C50.75 257.215 51.1953 256.754 51.5156 256.168C51.8438 255.574 52.0078 254.895 52.0078 254.129C52.0078 253.363 51.8438 252.688 51.5156 252.102C51.1953 251.508 50.75 251.043 50.1797 250.707C49.6094 250.371 48.957 250.203 48.2227 250.203C47.5273 250.203 46.8984 250.359 46.3359 250.672C45.7812 250.977 45.3281 251.398 44.9766 251.938C44.6328 252.477 44.4336 253.09 44.3789 253.777V254.504C44.4336 255.191 44.6289 255.805 44.9648 256.344C45.3086 256.875 45.7578 257.293 46.3125 257.598C46.875 257.902 47.5078 258.055 48.2109 258.055ZM67.4531 258.605C66 259.691 64.4023 260.234 62.6602 260.234C61.418 260.234 60.3047 259.961 59.3203 259.414C58.3359 258.867 57.5586 258.121 56.9883 257.176C56.418 256.23 56.1328 255.164 56.1328 253.977C56.1328 252.844 56.3945 251.832 56.918 250.941C57.4414 250.043 58.1562 249.336 59.0625 248.82C59.9688 248.305 60.9961 248.047 62.1445 248.047C63.332 248.047 64.375 248.328 65.2734 248.891C66.1797 249.453 66.8828 250.238 67.3828 251.246C67.8906 252.246 68.1445 253.406 68.1445 254.727V255.102H58.7344C58.875 255.711 59.1406 256.246 59.5312 256.707C59.9219 257.16 60.4062 257.516 60.9844 257.773C61.5625 258.023 62.2148 258.148 62.9414 258.148C64.2383 258.148 65.4297 257.727 66.5156 256.883L67.4531 258.605ZM58.6289 253.438H65.9062C65.8281 252.781 65.625 252.211 65.2969 251.727C64.9688 251.234 64.543 250.852 64.0195 250.578C63.5039 250.297 62.9219 250.156 62.2734 250.156C61.6172 250.156 61.0273 250.297 60.5039 250.578C59.9805 250.852 59.5547 251.234 59.2266 251.727C58.9062 252.219 58.707 252.789 58.6289 253.438ZM81.8789 260H79.4766V253.637C79.4766 252.598 79.1914 251.77 78.6211 251.152C78.0586 250.535 77.3008 250.227 76.3477 250.227C75.3633 250.227 74.5703 250.555 73.9688 251.211C73.3672 251.867 73.0664 252.738 73.0664 253.824V260H70.6641V248.281H72.6914L72.7734 250.168C73.2031 249.48 73.7656 248.957 74.4609 248.598C75.1562 248.23 75.9727 248.047 76.9102 248.047C78.4492 248.047 79.6602 248.512 80.543 249.441C81.4336 250.371 81.8789 251.652 81.8789 253.285V260ZM96.6797 260H94.5586L94.4297 258.324C93.8984 258.918 93.2578 259.387 92.5078 259.73C91.7656 260.066 90.9492 260.234 90.0586 260.234C88.9336 260.234 87.9258 259.969 87.0352 259.438C86.1445 258.906 85.4414 258.18 84.9258 257.258C84.418 256.336 84.1641 255.297 84.1641 254.141C84.1641 252.977 84.418 251.938 84.9258 251.023C85.4414 250.102 86.1445 249.375 87.0352 248.844C87.9258 248.312 88.9336 248.047 90.0586 248.047C90.9023 248.047 91.6836 248.199 92.4023 248.504C93.1289 248.809 93.7539 249.234 94.2773 249.781V242.422H96.6797V260ZM90.457 258.078C91.168 258.078 91.8086 257.914 92.3789 257.586C92.957 257.258 93.418 256.812 93.7617 256.25C94.1055 255.688 94.2773 255.047 94.2773 254.328V253.93C94.2773 253.211 94.1055 252.57 93.7617 252.008C93.418 251.445 92.957 251.004 92.3789 250.684C91.8086 250.363 91.168 250.203 90.457 250.203C89.7305 250.203 89.0781 250.375 88.5 250.719C87.9219 251.062 87.4648 251.531 87.1289 252.125C86.793 252.711 86.625 253.379 86.625 254.129C86.625 254.879 86.793 255.551 87.1289 256.145C87.4648 256.738 87.9219 257.211 88.5 257.562C89.0781 257.906 89.7305 258.078 90.457 258.078ZM101.297 244.883C100.93 244.883 100.621 244.754 100.371 244.496C100.121 244.238 99.9961 243.926 99.9961 243.559C99.9961 243.191 100.121 242.883 100.371 242.633C100.621 242.375 100.93 242.246 101.297 242.246C101.672 242.246 101.984 242.375 102.234 242.633C102.492 242.883 102.621 243.191 102.621 243.559C102.621 243.926 102.492 244.238 102.234 244.496C101.984 244.754 101.672 244.883 101.297 244.883ZM102.492 260H100.09V248.281H102.492V260ZM117.129 260H114.727V253.637C114.727 252.598 114.441 251.77 113.871 251.152C113.309 250.535 112.551 250.227 111.598 250.227C110.613 250.227 109.82 250.555 109.219 251.211C108.617 251.867 108.316 252.738 108.316 253.824V260H105.914V248.281H107.941L108.023 250.168C108.453 249.48 109.016 248.957 109.711 248.598C110.406 248.23 111.223 248.047 112.16 248.047C113.699 248.047 114.91 248.512 115.793 249.441C116.684 250.371 117.129 251.652 117.129 253.285V260ZM125.203 260.047C124.102 260.047 123.113 259.785 122.238 259.262C121.363 258.738 120.672 258.023 120.164 257.117C119.664 256.211 119.414 255.188 119.414 254.047C119.414 252.898 119.664 251.875 120.164 250.977C120.672 250.07 121.363 249.355 122.238 248.832C123.113 248.309 124.105 248.047 125.215 248.047C126.09 248.047 126.895 248.215 127.629 248.551C128.371 248.887 129 249.348 129.516 249.934L129.633 248.281H131.754V259.684C131.754 260.996 131.484 262.129 130.945 263.082C130.414 264.043 129.66 264.785 128.684 265.309C127.707 265.832 126.551 266.094 125.215 266.094C123.332 266.094 121.672 265.48 120.234 264.254L121.254 262.309C122.309 263.395 123.582 263.938 125.074 263.938C125.941 263.938 126.691 263.758 127.324 263.398C127.965 263.039 128.461 262.535 128.812 261.887C129.172 261.246 129.352 260.488 129.352 259.613V258.336C128.836 258.867 128.223 259.285 127.512 259.59C126.801 259.895 126.031 260.047 125.203 260.047ZM125.602 257.914C126.289 257.914 126.914 257.758 127.477 257.445C128.047 257.133 128.5 256.707 128.836 256.168C129.18 255.621 129.352 255 129.352 254.305V253.777C129.352 253.082 129.18 252.465 128.836 251.926C128.5 251.387 128.047 250.961 127.477 250.648C126.914 250.336 126.289 250.18 125.602 250.18C124.883 250.18 124.242 250.352 123.68 250.695C123.117 251.031 122.672 251.492 122.344 252.078C122.016 252.656 121.852 253.312 121.852 254.047C121.852 254.781 122.016 255.441 122.344 256.027C122.672 256.613 123.117 257.074 123.68 257.41C124.242 257.746 124.883 257.914 125.602 257.914ZM150.691 258.254C150.121 258.887 149.438 259.375 148.641 259.719C147.844 260.062 146.98 260.234 146.051 260.234C144.879 260.234 143.824 259.969 142.887 259.438C141.957 258.906 141.223 258.18 140.684 257.258C140.145 256.336 139.875 255.297 139.875 254.141C139.875 252.977 140.145 251.938 140.684 251.023C141.223 250.102 141.957 249.375 142.887 248.844C143.824 248.312 144.879 248.047 146.051 248.047C146.973 248.047 147.832 248.219 148.629 248.562C149.426 248.898 150.109 249.383 150.68 250.016L149.262 251.504C148.879 251.098 148.418 250.785 147.879 250.566C147.348 250.34 146.781 250.227 146.18 250.227C145.438 250.227 144.777 250.395 144.199 250.73C143.621 251.066 143.168 251.527 142.84 252.113C142.512 252.691 142.348 253.363 142.348 254.129C142.348 254.887 142.512 255.562 142.84 256.156C143.168 256.75 143.621 257.215 144.199 257.551C144.777 257.887 145.438 258.055 146.18 258.055C146.781 258.055 147.352 257.941 147.891 257.715C148.43 257.488 148.887 257.176 149.262 256.777L150.691 258.254ZM162.973 260H160.898L160.758 258.5C160.328 259.047 159.785 259.473 159.129 259.777C158.473 260.082 157.746 260.234 156.949 260.234C156.113 260.234 155.367 260.07 154.711 259.742C154.055 259.414 153.539 258.965 153.164 258.395C152.789 257.824 152.602 257.176 152.602 256.449C152.602 255.684 152.805 255.012 153.211 254.434C153.617 253.848 154.172 253.391 154.875 253.062C155.578 252.727 156.379 252.559 157.277 252.559C157.84 252.559 158.41 252.625 158.988 252.758C159.574 252.891 160.102 253.078 160.57 253.32V252.887C160.57 252.316 160.422 251.828 160.125 251.422C159.836 251.008 159.438 250.691 158.93 250.473C158.43 250.254 157.875 250.145 157.266 250.145C156.727 250.145 156.176 250.238 155.613 250.426C155.059 250.613 154.535 250.902 154.043 251.293L153.316 249.336C154.027 248.914 154.766 248.594 155.531 248.375C156.305 248.156 157.062 248.047 157.805 248.047C158.867 248.047 159.781 248.258 160.547 248.68C161.32 249.102 161.918 249.703 162.34 250.484C162.762 251.258 162.973 252.172 162.973 253.227V260ZM157.418 258.195C157.973 258.195 158.484 258.082 158.953 257.855C159.422 257.621 159.801 257.293 160.09 256.871C160.387 256.441 160.547 255.941 160.57 255.371V255.207C160.172 254.91 159.723 254.68 159.223 254.516C158.73 254.344 158.227 254.258 157.711 254.258C156.922 254.258 156.266 254.445 155.742 254.82C155.219 255.195 154.957 255.676 154.957 256.262C154.957 256.629 155.062 256.961 155.273 257.258C155.492 257.547 155.785 257.777 156.152 257.949C156.527 258.113 156.949 258.195 157.418 258.195ZM173.039 259.707C172.219 260.059 171.426 260.234 170.66 260.234C169.895 260.234 169.223 260.07 168.645 259.742C168.074 259.414 167.625 258.953 167.297 258.359C166.977 257.758 166.816 257.066 166.816 256.285V250.426H164.766V248.281H166.934V245.352H169.219V248.281H172.641V250.426H169.219V255.84C169.219 256.527 169.402 257.074 169.77 257.48C170.145 257.879 170.625 258.078 171.211 258.078C171.703 258.078 172.191 257.93 172.676 257.633L173.039 259.707ZM185.859 258.605C184.406 259.691 182.809 260.234 181.066 260.234C179.824 260.234 178.711 259.961 177.727 259.414C176.742 258.867 175.965 258.121 175.395 257.176C174.824 256.23 174.539 255.164 174.539 253.977C174.539 252.844 174.801 251.832 175.324 250.941C175.848 250.043 176.562 249.336 177.469 248.82C178.375 248.305 179.402 248.047 180.551 248.047C181.738 248.047 182.781 248.328 183.68 248.891C184.586 249.453 185.289 250.238 185.789 251.246C186.297 252.246 186.551 253.406 186.551 254.727V255.102H177.141C177.281 255.711 177.547 256.246 177.938 256.707C178.328 257.16 178.812 257.516 179.391 257.773C179.969 258.023 180.621 258.148 181.348 258.148C182.645 258.148 183.836 257.727 184.922 256.883L185.859 258.605ZM177.035 253.438H184.312C184.234 252.781 184.031 252.211 183.703 251.727C183.375 251.234 182.949 250.852 182.426 250.578C181.91 250.297 181.328 250.156 180.68 250.156C180.023 250.156 179.434 250.297 178.91 250.578C178.387 250.852 177.961 251.234 177.633 251.727C177.312 252.219 177.113 252.789 177.035 253.438ZM193.992 260.047C192.891 260.047 191.902 259.785 191.027 259.262C190.152 258.738 189.461 258.023 188.953 257.117C188.453 256.211 188.203 255.188 188.203 254.047C188.203 252.898 188.453 251.875 188.953 250.977C189.461 250.07 190.152 249.355 191.027 248.832C191.902 248.309 192.895 248.047 194.004 248.047C194.879 248.047 195.684 248.215 196.418 248.551C197.16 248.887 197.789 249.348 198.305 249.934L198.422 248.281H200.543V259.684C200.543 260.996 200.273 262.129 199.734 263.082C199.203 264.043 198.449 264.785 197.473 265.309C196.496 265.832 195.34 266.094 194.004 266.094C192.121 266.094 190.461 265.48 189.023 264.254L190.043 262.309C191.098 263.395 192.371 263.938 193.863 263.938C194.73 263.938 195.48 263.758 196.113 263.398C196.754 263.039 197.25 262.535 197.602 261.887C197.961 261.246 198.141 260.488 198.141 259.613V258.336C197.625 258.867 197.012 259.285 196.301 259.59C195.59 259.895 194.82 260.047 193.992 260.047ZM194.391 257.914C195.078 257.914 195.703 257.758 196.266 257.445C196.836 257.133 197.289 256.707 197.625 256.168C197.969 255.621 198.141 255 198.141 254.305V253.777C198.141 253.082 197.969 252.465 197.625 251.926C197.289 251.387 196.836 250.961 196.266 250.648C195.703 250.336 195.078 250.18 194.391 250.18C193.672 250.18 193.031 250.352 192.469 250.695C191.906 251.031 191.461 251.492 191.133 252.078C190.805 252.656 190.641 253.312 190.641 254.047C190.641 254.781 190.805 255.441 191.133 256.027C191.461 256.613 191.906 257.074 192.469 257.41C193.031 257.746 193.672 257.914 194.391 257.914ZM209.133 260.234C207.961 260.234 206.906 259.969 205.969 259.438C205.031 258.906 204.293 258.184 203.754 257.27C203.215 256.348 202.945 255.305 202.945 254.141C202.945 252.984 203.215 251.949 203.754 251.035C204.293 250.113 205.031 249.387 205.969 248.855C206.906 248.316 207.961 248.047 209.133 248.047C210.312 248.047 211.367 248.316 212.297 248.855C213.227 249.387 213.957 250.113 214.488 251.035C215.027 251.949 215.297 252.984 215.297 254.141C215.297 255.305 215.027 256.348 214.488 257.27C213.957 258.184 213.227 258.906 212.297 259.438C211.367 259.969 210.312 260.234 209.133 260.234ZM209.121 258.078C209.832 258.078 210.465 257.906 211.02 257.562C211.582 257.211 212.023 256.742 212.344 256.156C212.672 255.562 212.836 254.887 212.836 254.129C212.836 253.387 212.672 252.723 212.344 252.137C212.023 251.543 211.582 251.074 211.02 250.73C210.465 250.379 209.832 250.203 209.121 250.203C208.418 250.203 207.785 250.379 207.223 250.73C206.66 251.074 206.215 251.543 205.887 252.137C205.566 252.723 205.406 253.387 205.406 254.129C205.406 254.887 205.566 255.562 205.887 256.156C206.215 256.742 206.66 257.211 207.223 257.562C207.785 257.906 208.418 258.078 209.121 258.078ZM220.207 260H217.805V248.281H219.902L219.996 250.508C220.402 249.734 220.961 249.133 221.672 248.703C222.391 248.266 223.215 248.047 224.145 248.047C224.371 248.047 224.598 248.062 224.824 248.094C225.059 248.117 225.293 248.156 225.527 248.211L225.223 250.379C224.77 250.262 224.324 250.203 223.887 250.203C223.16 250.203 222.52 250.379 221.965 250.73C221.41 251.074 220.977 251.551 220.664 252.16C220.359 252.77 220.207 253.473 220.207 254.27V260ZM228.609 244.883C228.242 244.883 227.934 244.754 227.684 244.496C227.434 244.238 227.309 243.926 227.309 243.559C227.309 243.191 227.434 242.883 227.684 242.633C227.934 242.375 228.242 242.246 228.609 242.246C228.984 242.246 229.297 242.375 229.547 242.633C229.805 242.883 229.934 243.191 229.934 243.559C229.934 243.926 229.805 244.238 229.547 244.496C229.297 244.754 228.984 244.883 228.609 244.883ZM229.805 260H227.402V248.281H229.805V260ZM243.68 258.605C242.227 259.691 240.629 260.234 238.887 260.234C237.645 260.234 236.531 259.961 235.547 259.414C234.562 258.867 233.785 258.121 233.215 257.176C232.645 256.23 232.359 255.164 232.359 253.977C232.359 252.844 232.621 251.832 233.145 250.941C233.668 250.043 234.383 249.336 235.289 248.82C236.195 248.305 237.223 248.047 238.371 248.047C239.559 248.047 240.602 248.328 241.5 248.891C242.406 249.453 243.109 250.238 243.609 251.246C244.117 252.246 244.371 253.406 244.371 254.727V255.102H234.961C235.102 255.711 235.367 256.246 235.758 256.707C236.148 257.16 236.633 257.516 237.211 257.773C237.789 258.023 238.441 258.148 239.168 258.148C240.465 258.148 241.656 257.727 242.742 256.883L243.68 258.605ZM234.855 253.438H242.133C242.055 252.781 241.852 252.211 241.523 251.727C241.195 251.234 240.77 250.852 240.246 250.578C239.73 250.297 239.148 250.156 238.5 250.156C237.844 250.156 237.254 250.297 236.73 250.578C236.207 250.852 235.781 251.234 235.453 251.727C235.133 252.219 234.934 252.789 234.855 253.438ZM246.07 258.98L246.656 256.824C246.922 257.09 247.238 257.324 247.605 257.527C247.98 257.73 248.375 257.891 248.789 258.008C249.211 258.117 249.625 258.172 250.031 258.172C250.672 258.172 251.188 258.035 251.578 257.762C251.969 257.488 252.164 257.125 252.164 256.672C252.164 256.336 252.055 256.059 251.836 255.84C251.625 255.613 251.34 255.418 250.98 255.254C250.629 255.09 250.25 254.93 249.844 254.773C249.32 254.578 248.797 254.352 248.273 254.094C247.758 253.836 247.324 253.492 246.973 253.062C246.621 252.633 246.445 252.066 246.445 251.363C246.445 250.691 246.617 250.109 246.961 249.617C247.305 249.117 247.785 248.73 248.402 248.457C249.02 248.184 249.73 248.047 250.535 248.047C251.785 248.047 253.023 248.359 254.25 248.984L253.547 251.035C253.297 250.855 253 250.695 252.656 250.555C252.312 250.414 251.961 250.305 251.602 250.227C251.242 250.141 250.91 250.098 250.605 250.098C250.098 250.098 249.688 250.211 249.375 250.438C249.07 250.664 248.918 250.969 248.918 251.352C248.918 251.586 248.992 251.801 249.141 251.996C249.289 252.184 249.523 252.371 249.844 252.559C250.172 252.738 250.613 252.941 251.168 253.168C251.699 253.379 252.23 253.621 252.762 253.895C253.293 254.168 253.734 254.523 254.086 254.961C254.445 255.398 254.625 255.973 254.625 256.684C254.625 257.387 254.438 258.008 254.062 258.547C253.688 259.078 253.164 259.492 252.492 259.789C251.828 260.086 251.055 260.234 250.172 260.234C248.711 260.234 247.344 259.816 246.07 258.98ZM258.246 260.234C257.855 260.234 257.539 260.113 257.297 259.871C257.062 259.629 256.945 259.316 256.945 258.934C256.945 258.535 257.062 258.215 257.297 257.973C257.539 257.73 257.855 257.609 258.246 257.609C258.629 257.609 258.945 257.73 259.195 257.973C259.445 258.215 259.57 258.535 259.57 258.934C259.57 259.316 259.445 259.629 259.195 259.871C258.945 260.113 258.629 260.234 258.246 260.234Z" fill="#F7FFF7"/>
<path d="M76.9219 152H74.5195V145.637C74.5195 144.598 74.2344 143.77 73.6641 143.152C73.1016 142.535 72.3438 142.227 71.3906 142.227C70.4062 142.227 69.6133 142.555 69.0117 143.211C68.4102 143.867 68.1094 144.738 68.1094 145.824V152H65.707V140.281H67.7344L67.8164 142.168C68.2461 141.48 68.8086 140.957 69.5039 140.598C70.1992 140.23 71.0156 140.047 71.9531 140.047C73.4922 140.047 74.7031 140.512 75.5859 141.441C76.4766 142.371 76.9219 143.652 76.9219 145.285V152ZM85.3945 152.234C84.2227 152.234 83.168 151.969 82.2305 151.438C81.293 150.906 80.5547 150.184 80.0156 149.27C79.4766 148.348 79.207 147.305 79.207 146.141C79.207 144.984 79.4766 143.949 80.0156 143.035C80.5547 142.113 81.293 141.387 82.2305 140.855C83.168 140.316 84.2227 140.047 85.3945 140.047C86.5742 140.047 87.6289 140.316 88.5586 140.855C89.4883 141.387 90.2188 142.113 90.75 143.035C91.2891 143.949 91.5586 144.984 91.5586 146.141C91.5586 147.305 91.2891 148.348 90.75 149.27C90.2188 150.184 89.4883 150.906 88.5586 151.438C87.6289 151.969 86.5742 152.234 85.3945 152.234ZM85.3828 150.078C86.0938 150.078 86.7266 149.906 87.2812 149.562C87.8438 149.211 88.2852 148.742 88.6055 148.156C88.9336 147.562 89.0977 146.887 89.0977 146.129C89.0977 145.387 88.9336 144.723 88.6055 144.137C88.2852 143.543 87.8438 143.074 87.2812 142.73C86.7266 142.379 86.0938 142.203 85.3828 142.203C84.6797 142.203 84.0469 142.379 83.4844 142.73C82.9219 143.074 82.4766 143.543 82.1484 144.137C81.8281 144.723 81.668 145.387 81.668 146.129C81.668 146.887 81.8281 147.562 82.1484 148.156C82.4766 148.742 82.9219 149.211 83.4844 149.562C84.0469 149.906 84.6797 150.078 85.3828 150.078ZM101.215 151.707C100.395 152.059 99.6016 152.234 98.8359 152.234C98.0703 152.234 97.3984 152.07 96.8203 151.742C96.25 151.414 95.8008 150.953 95.4727 150.359C95.1523 149.758 94.9922 149.066 94.9922 148.285V142.426H92.9414V140.281H95.1094V137.352H97.3945V140.281H100.816V142.426H97.3945V147.84C97.3945 148.527 97.5781 149.074 97.9453 149.48C98.3203 149.879 98.8008 150.078 99.3867 150.078C99.8789 150.078 100.367 149.93 100.852 149.633L101.215 151.707ZM114.621 152.234C113.449 152.234 112.395 151.969 111.457 151.438C110.52 150.906 109.781 150.184 109.242 149.27C108.703 148.348 108.434 147.305 108.434 146.141C108.434 144.984 108.703 143.949 109.242 143.035C109.781 142.113 110.52 141.387 111.457 140.855C112.395 140.316 113.449 140.047 114.621 140.047C115.801 140.047 116.855 140.316 117.785 140.855C118.715 141.387 119.445 142.113 119.977 143.035C120.516 143.949 120.785 144.984 120.785 146.141C120.785 147.305 120.516 148.348 119.977 149.27C119.445 150.184 118.715 150.906 117.785 151.438C116.855 151.969 115.801 152.234 114.621 152.234ZM114.609 150.078C115.32 150.078 115.953 149.906 116.508 149.562C117.07 149.211 117.512 148.742 117.832 148.156C118.16 147.562 118.324 146.887 118.324 146.129C118.324 145.387 118.16 144.723 117.832 144.137C117.512 143.543 117.07 143.074 116.508 142.73C115.953 142.379 115.32 142.203 114.609 142.203C113.906 142.203 113.273 142.379 112.711 142.73C112.148 143.074 111.703 143.543 111.375 144.137C111.055 144.723 110.895 145.387 110.895 146.129C110.895 146.887 111.055 147.562 111.375 148.156C111.703 148.742 112.148 149.211 112.711 149.562C113.273 149.906 113.906 150.078 114.609 150.078ZM134.086 140.281L129.211 152H126.879L122.004 140.281H124.582L128.062 149.527L131.543 140.281H134.086ZM146.637 150.605C145.184 151.691 143.586 152.234 141.844 152.234C140.602 152.234 139.488 151.961 138.504 151.414C137.52 150.867 136.742 150.121 136.172 149.176C135.602 148.23 135.316 147.164 135.316 145.977C135.316 144.844 135.578 143.832 136.102 142.941C136.625 142.043 137.34 141.336 138.246 140.82C139.152 140.305 140.18 140.047 141.328 140.047C142.516 140.047 143.559 140.328 144.457 140.891C145.363 141.453 146.066 142.238 146.566 143.246C147.074 144.246 147.328 145.406 147.328 146.727V147.102H137.918C138.059 147.711 138.324 148.246 138.715 148.707C139.105 149.16 139.59 149.516 140.168 149.773C140.746 150.023 141.398 150.148 142.125 150.148C143.422 150.148 144.613 149.727 145.699 148.883L146.637 150.605ZM137.812 145.438H145.09C145.012 144.781 144.809 144.211 144.48 143.727C144.152 143.234 143.727 142.852 143.203 142.578C142.688 142.297 142.105 142.156 141.457 142.156C140.801 142.156 140.211 142.297 139.688 142.578C139.164 142.852 138.738 143.234 138.41 143.727C138.09 144.219 137.891 144.789 137.812 145.438ZM152.25 152H149.848V140.281H151.945L152.039 142.508C152.445 141.734 153.004 141.133 153.715 140.703C154.434 140.266 155.258 140.047 156.188 140.047C156.414 140.047 156.641 140.062 156.867 140.094C157.102 140.117 157.336 140.156 157.57 140.211L157.266 142.379C156.812 142.262 156.367 142.203 155.93 142.203C155.203 142.203 154.562 142.379 154.008 142.73C153.453 143.074 153.02 143.551 152.707 144.16C152.402 144.77 152.25 145.473 152.25 146.27V152ZM158.59 150.98L159.176 148.824C159.441 149.09 159.758 149.324 160.125 149.527C160.5 149.73 160.895 149.891 161.309 150.008C161.73 150.117 162.145 150.172 162.551 150.172C163.191 150.172 163.707 150.035 164.098 149.762C164.488 149.488 164.684 149.125 164.684 148.672C164.684 148.336 164.574 148.059 164.355 147.84C164.145 147.613 163.859 147.418 163.5 147.254C163.148 147.09 162.77 146.93 162.363 146.773C161.84 146.578 161.316 146.352 160.793 146.094C160.277 145.836 159.844 145.492 159.492 145.062C159.141 144.633 158.965 144.066 158.965 143.363C158.965 142.691 159.137 142.109 159.48 141.617C159.824 141.117 160.305 140.73 160.922 140.457C161.539 140.184 162.25 140.047 163.055 140.047C164.305 140.047 165.543 140.359 166.77 140.984L166.066 143.035C165.816 142.855 165.52 142.695 165.176 142.555C164.832 142.414 164.48 142.305 164.121 142.227C163.762 142.141 163.43 142.098 163.125 142.098C162.617 142.098 162.207 142.211 161.895 142.438C161.59 142.664 161.438 142.969 161.438 143.352C161.438 143.586 161.512 143.801 161.66 143.996C161.809 144.184 162.043 144.371 162.363 144.559C162.691 144.738 163.133 144.941 163.688 145.168C164.219 145.379 164.75 145.621 165.281 145.895C165.812 146.168 166.254 146.523 166.605 146.961C166.965 147.398 167.145 147.973 167.145 148.684C167.145 149.387 166.957 150.008 166.582 150.547C166.207 151.078 165.684 151.492 165.012 151.789C164.348 152.086 163.574 152.234 162.691 152.234C161.23 152.234 159.863 151.816 158.59 150.98ZM172.102 157.859H169.699V140.281H171.82L171.949 141.957C172.48 141.363 173.117 140.898 173.859 140.562C174.609 140.219 175.43 140.047 176.32 140.047C177.445 140.047 178.449 140.312 179.332 140.844C180.223 141.375 180.922 142.102 181.43 143.023C181.945 143.938 182.203 144.977 182.203 146.141C182.203 147.297 181.945 148.336 181.43 149.258C180.922 150.18 180.223 150.906 179.332 151.438C178.449 151.969 177.445 152.234 176.32 152.234C175.477 152.234 174.695 152.082 173.977 151.777C173.258 151.473 172.633 151.047 172.102 150.5V157.859ZM175.934 150.055C176.676 150.055 177.332 149.887 177.902 149.551C178.473 149.215 178.918 148.754 179.238 148.168C179.566 147.574 179.73 146.895 179.73 146.129C179.73 145.363 179.566 144.688 179.238 144.102C178.918 143.508 178.473 143.043 177.902 142.707C177.332 142.371 176.68 142.203 175.945 142.203C175.25 142.203 174.621 142.359 174.059 142.672C173.504 142.977 173.051 143.398 172.699 143.938C172.355 144.477 172.156 145.09 172.102 145.777V146.504C172.156 147.191 172.352 147.805 172.688 148.344C173.031 148.875 173.48 149.293 174.035 149.598C174.598 149.902 175.23 150.055 175.934 150.055ZM195.176 150.605C193.723 151.691 192.125 152.234 190.383 152.234C189.141 152.234 188.027 151.961 187.043 151.414C186.059 150.867 185.281 150.121 184.711 149.176C184.141 148.23 183.855 147.164 183.855 145.977C183.855 144.844 184.117 143.832 184.641 142.941C185.164 142.043 185.879 141.336 186.785 140.82C187.691 140.305 188.719 140.047 189.867 140.047C191.055 140.047 192.098 140.328 192.996 140.891C193.902 141.453 194.605 142.238 195.105 143.246C195.613 144.246 195.867 145.406 195.867 146.727V147.102H186.457C186.598 147.711 186.863 148.246 187.254 148.707C187.645 149.16 188.129 149.516 188.707 149.773C189.285 150.023 189.938 150.148 190.664 150.148C191.961 150.148 193.152 149.727 194.238 148.883L195.176 150.605ZM186.352 145.438H193.629C193.551 144.781 193.348 144.211 193.02 143.727C192.691 143.234 192.266 142.852 191.742 142.578C191.227 142.297 190.645 142.156 189.996 142.156C189.34 142.156 188.75 142.297 188.227 142.578C187.703 142.852 187.277 143.234 186.949 143.727C186.629 144.219 186.43 144.789 186.352 145.438ZM209.602 152H207.199V145.637C207.199 144.598 206.914 143.77 206.344 143.152C205.781 142.535 205.023 142.227 204.07 142.227C203.086 142.227 202.293 142.555 201.691 143.211C201.09 143.867 200.789 144.738 200.789 145.824V152H198.387V140.281H200.414L200.496 142.168C200.926 141.48 201.488 140.957 202.184 140.598C202.879 140.23 203.695 140.047 204.633 140.047C206.172 140.047 207.383 140.512 208.266 141.441C209.156 142.371 209.602 143.652 209.602 145.285V152ZM224.402 152H222.281L222.152 150.324C221.621 150.918 220.98 151.387 220.23 151.73C219.488 152.066 218.672 152.234 217.781 152.234C216.656 152.234 215.648 151.969 214.758 151.438C213.867 150.906 213.164 150.18 212.648 149.258C212.141 148.336 211.887 147.297 211.887 146.141C211.887 144.977 212.141 143.938 212.648 143.023C213.164 142.102 213.867 141.375 214.758 140.844C215.648 140.312 216.656 140.047 217.781 140.047C218.625 140.047 219.406 140.199 220.125 140.504C220.852 140.809 221.477 141.234 222 141.781V134.422H224.402V152ZM218.18 150.078C218.891 150.078 219.531 149.914 220.102 149.586C220.68 149.258 221.141 148.812 221.484 148.25C221.828 147.688 222 147.047 222 146.328V145.93C222 145.211 221.828 144.57 221.484 144.008C221.141 143.445 220.68 143.004 220.102 142.684C219.531 142.363 218.891 142.203 218.18 142.203C217.453 142.203 216.801 142.375 216.223 142.719C215.645 143.062 215.188 143.531 214.852 144.125C214.516 144.711 214.348 145.379 214.348 146.129C214.348 146.879 214.516 147.551 214.852 148.145C215.188 148.738 215.645 149.211 216.223 149.562C216.801 149.906 217.453 150.078 218.18 150.078ZM229.02 136.883C228.652 136.883 228.344 136.754 228.094 136.496C227.844 136.238 227.719 135.926 227.719 135.559C227.719 135.191 227.844 134.883 228.094 134.633C228.344 134.375 228.652 134.246 229.02 134.246C229.395 134.246 229.707 134.375 229.957 134.633C230.215 134.883 230.344 135.191 230.344 135.559C230.344 135.926 230.215 136.238 229.957 136.496C229.707 136.754 229.395 136.883 229.02 136.883ZM230.215 152H227.812V140.281H230.215V152ZM244.852 152H242.449V145.637C242.449 144.598 242.164 143.77 241.594 143.152C241.031 142.535 240.273 142.227 239.32 142.227C238.336 142.227 237.543 142.555 236.941 143.211C236.34 143.867 236.039 144.738 236.039 145.824V152H233.637V140.281H235.664L235.746 142.168C236.176 141.48 236.738 140.957 237.434 140.598C238.129 140.23 238.945 140.047 239.883 140.047C241.422 140.047 242.633 140.512 243.516 141.441C244.406 142.371 244.852 143.652 244.852 145.285V152ZM252.926 152.047C251.824 152.047 250.836 151.785 249.961 151.262C249.086 150.738 248.395 150.023 247.887 149.117C247.387 148.211 247.137 147.188 247.137 146.047C247.137 144.898 247.387 143.875 247.887 142.977C248.395 142.07 249.086 141.355 249.961 140.832C250.836 140.309 251.828 140.047 252.938 140.047C253.812 140.047 254.617 140.215 255.352 140.551C256.094 140.887 256.723 141.348 257.238 141.934L257.355 140.281H259.477V151.684C259.477 152.996 259.207 154.129 258.668 155.082C258.137 156.043 257.383 156.785 256.406 157.309C255.43 157.832 254.273 158.094 252.938 158.094C251.055 158.094 249.395 157.48 247.957 156.254L248.977 154.309C250.031 155.395 251.305 155.938 252.797 155.938C253.664 155.938 254.414 155.758 255.047 155.398C255.688 155.039 256.184 154.535 256.535 153.887C256.895 153.246 257.074 152.488 257.074 151.613V150.336C256.559 150.867 255.945 151.285 255.234 151.59C254.523 151.895 253.754 152.047 252.926 152.047ZM253.324 149.914C254.012 149.914 254.637 149.758 255.199 149.445C255.77 149.133 256.223 148.707 256.559 148.168C256.902 147.621 257.074 147 257.074 146.305V145.777C257.074 145.082 256.902 144.465 256.559 143.926C256.223 143.387 255.77 142.961 255.199 142.648C254.637 142.336 254.012 142.18 253.324 142.18C252.605 142.18 251.965 142.352 251.402 142.695C250.84 143.031 250.395 143.492 250.066 144.078C249.738 144.656 249.574 145.312 249.574 146.047C249.574 146.781 249.738 147.441 250.066 148.027C250.395 148.613 250.84 149.074 251.402 149.41C251.965 149.746 252.605 149.914 253.324 149.914Z" fill="#1A535C"/>
</svg>
