<svg width="303" height="210" viewBox="0 0 303 210" fill="none" xmlns="http://www.w3.org/2000/svg">
<path d="M22.6699 15.2754C21.7559 14.3848 20.6836 13.7051 19.4531 13.2363C18.2227 12.7559 16.916 12.5156 15.5332 12.5156C14.1152 12.5156 12.8086 12.7617 11.6133 13.2539C10.4297 13.7461 9.4043 14.4492 8.53711 15.3633C7.68164 16.2773 7.01367 17.3613 6.5332 18.6152C6.06445 19.8691 5.83008 21.252 5.83008 22.7637C5.83008 24.2754 6.06445 25.6641 6.5332 26.9297C7.00195 28.1953 7.66406 29.291 8.51953 30.2168C9.38672 31.1426 10.4062 31.8574 11.5781 32.3613C12.7617 32.8652 14.0566 33.1172 15.4629 33.1172C16.7285 33.1172 17.8945 32.9121 18.9609 32.502C20.0273 32.0918 20.9648 31.5059 21.7734 30.7441C22.582 29.9824 23.2383 29.0684 23.7422 28.002C24.2461 26.9355 24.5684 25.7578 24.709 24.4688H15.7266V21.4629H28.1367L28.2422 22.9043C28.2422 24.9082 27.9316 26.7422 27.3105 28.4062C26.6895 30.0703 25.8047 31.5117 24.6562 32.7305C23.5195 33.9375 22.166 34.875 20.5957 35.543C19.0371 36.1992 17.3145 36.5273 15.4277 36.5273C13.4824 36.5273 11.6836 36.1875 10.0312 35.5078C8.39062 34.8164 6.95508 33.8555 5.72461 32.625C4.50586 31.3828 3.55664 29.9297 2.87695 28.2656C2.20898 26.6016 1.875 24.7969 1.875 22.8516C1.875 20.8828 2.21484 19.0664 2.89453 17.4023C3.57422 15.7266 4.52344 14.2676 5.74219 13.0254C6.97266 11.7832 8.41406 10.8223 10.0664 10.1426C11.7188 9.45117 13.5176 9.10547 15.4629 9.10547C17.3027 9.10547 19.0547 9.42188 20.7188 10.0547C22.3945 10.6875 23.8828 11.5957 25.1836 12.7793L22.6699 15.2754ZM35.7832 36H32.1797V18.4219H35.3262L35.4668 21.7617C36.0762 20.6016 36.9141 19.6992 37.9805 19.0547C39.0586 18.3984 40.2949 18.0703 41.6895 18.0703C42.0293 18.0703 42.3691 18.0938 42.709 18.1406C43.0605 18.1758 43.4121 18.2344 43.7637 18.3164L43.3066 21.5684C42.627 21.3926 41.959 21.3047 41.3027 21.3047C40.2129 21.3047 39.252 21.5684 38.4199 22.0957C37.5879 22.6113 36.9375 23.3262 36.4688 24.2402C36.0117 25.1543 35.7832 26.209 35.7832 27.4043V36ZM60.6738 36H57.5625L57.3516 33.75C56.707 34.5703 55.8926 35.209 54.9082 35.666C53.9238 36.123 52.834 36.3516 51.6387 36.3516C50.3848 36.3516 49.2656 36.1055 48.2812 35.6133C47.2969 35.1211 46.5234 34.4473 45.9609 33.5918C45.3984 32.7363 45.1172 31.7637 45.1172 30.6738C45.1172 29.5254 45.4219 28.5176 46.0312 27.6504C46.6406 26.7715 47.4727 26.0859 48.5273 25.5938C49.582 25.0898 50.7832 24.8379 52.1309 24.8379C52.9746 24.8379 53.8301 24.9375 54.6973 25.1367C55.5762 25.3359 56.3672 25.6172 57.0703 25.9805V25.3301C57.0703 24.4746 56.8477 23.7422 56.4023 23.1328C55.9688 22.5117 55.3711 22.0371 54.6094 21.709C53.8594 21.3809 53.0273 21.2168 52.1133 21.2168C51.3047 21.2168 50.4785 21.3574 49.6348 21.6387C48.8027 21.9199 48.0176 22.3535 47.2793 22.9395L46.1895 20.0039C47.2559 19.3711 48.3633 18.8906 49.5117 18.5625C50.6719 18.2344 51.8086 18.0703 52.9219 18.0703C54.5156 18.0703 55.8867 18.3867 57.0352 19.0195C58.1953 19.6523 59.0918 20.5547 59.7246 21.7266C60.3574 22.8867 60.6738 24.2578 60.6738 25.8398V36ZM52.3418 33.293C53.1738 33.293 53.9414 33.123 54.6445 32.7832C55.3477 32.4316 55.916 31.9395 56.3496 31.3066C56.7949 30.6621 57.0352 29.9121 57.0703 29.0566V28.8105C56.4727 28.3652 55.7988 28.0195 55.0488 27.7734C54.3105 27.5156 53.5547 27.3867 52.7812 27.3867C51.5977 27.3867 50.6133 27.668 49.8281 28.2305C49.043 28.793 48.6504 29.5137 48.6504 30.3926C48.6504 30.9434 48.8086 31.4414 49.125 31.8867C49.4531 32.3203 49.8926 32.666 50.4434 32.9238C51.0059 33.1699 51.6387 33.293 52.3418 33.293ZM82.2246 36H78.6211V26.4551C78.6211 24.8965 78.1934 23.6543 77.3379 22.7285C76.4941 21.8027 75.3574 21.3398 73.9277 21.3398C72.4512 21.3398 71.2617 21.832 70.3594 22.8164C69.457 23.8008 69.0059 25.1074 69.0059 26.7363V36H65.4023V18.4219H68.4434L68.5664 21.252C69.2109 20.2207 70.0547 19.4355 71.0977 18.8965C72.1406 18.3457 73.3652 18.0703 74.7715 18.0703C77.0801 18.0703 78.8965 18.7676 80.2207 20.1621C81.5566 21.5566 82.2246 23.4785 82.2246 25.9277V36ZM97.5 35.5605C96.2695 36.0879 95.0801 36.3516 93.9316 36.3516C92.7832 36.3516 91.7754 36.1055 90.9082 35.6133C90.0527 35.1211 89.3789 34.4297 88.8867 33.5391C88.4062 32.6367 88.166 31.5996 88.166 30.4277V21.6387H85.0898V18.4219H88.3418V14.0273H91.7695V18.4219H96.9023V21.6387H91.7695V29.7598C91.7695 30.791 92.0449 31.6113 92.5957 32.2207C93.1582 32.8184 93.8789 33.1172 94.7578 33.1172C95.4961 33.1172 96.2285 32.8945 96.9551 32.4492L97.5 35.5605ZM109.629 36V9.63281H118.049C120.229 9.63281 122.098 9.97852 123.656 10.6699C125.227 11.3496 126.428 12.3281 127.26 13.6055C128.092 14.8711 128.508 16.3887 128.508 18.1582C128.508 19.916 128.092 21.4395 127.26 22.7285C126.428 24.0059 125.227 24.9902 123.656 25.6816C122.098 26.373 120.234 26.7188 118.066 26.7188H113.496V36H109.629ZM113.496 23.3086H117.697C119.889 23.3086 121.576 22.8574 122.76 21.9551C123.955 21.041 124.553 19.7754 124.553 18.1582C124.553 16.541 123.955 15.2871 122.76 14.3965C121.576 13.4941 119.889 13.043 117.697 13.043H113.496V23.3086ZM146.684 33.9082C144.504 35.5371 142.107 36.3516 139.494 36.3516C137.631 36.3516 135.961 35.9414 134.484 35.1211C133.008 34.3008 131.842 33.1816 130.986 31.7637C130.131 30.3457 129.703 28.7461 129.703 26.9648C129.703 25.2656 130.096 23.748 130.881 22.4121C131.666 21.0645 132.738 20.0039 134.098 19.2305C135.457 18.457 136.998 18.0703 138.721 18.0703C140.502 18.0703 142.066 18.4922 143.414 19.3359C144.773 20.1797 145.828 21.3574 146.578 22.8691C147.34 24.3691 147.721 26.1094 147.721 28.0898V28.6523H133.605C133.816 29.5664 134.215 30.3691 134.801 31.0605C135.387 31.7402 136.113 32.2734 136.98 32.6602C137.848 33.0352 138.826 33.2227 139.916 33.2227C141.861 33.2227 143.648 32.5898 145.277 31.3242L146.684 33.9082ZM133.447 26.1562H144.363C144.246 25.1719 143.941 24.3164 143.449 23.5898C142.957 22.8516 142.318 22.2773 141.533 21.8672C140.76 21.4453 139.887 21.2344 138.914 21.2344C137.93 21.2344 137.045 21.4453 136.26 21.8672C135.475 22.2773 134.836 22.8516 134.344 23.5898C133.863 24.3281 133.564 25.1836 133.447 26.1562ZM155.104 36H151.5V18.4219H154.646L154.787 21.7617C155.396 20.6016 156.234 19.6992 157.301 19.0547C158.379 18.3984 159.615 18.0703 161.01 18.0703C161.35 18.0703 161.689 18.0938 162.029 18.1406C162.381 18.1758 162.732 18.2344 163.084 18.3164L162.627 21.5684C161.947 21.3926 161.279 21.3047 160.623 21.3047C159.533 21.3047 158.572 21.5684 157.74 22.0957C156.908 22.6113 156.258 23.3262 155.789 24.2402C155.332 25.1543 155.104 26.209 155.104 27.4043V36ZM193.934 36H190.33V26.8066C190.33 25.0605 189.955 23.707 189.205 22.7461C188.467 21.7852 187.424 21.3047 186.076 21.3047C184.705 21.3047 183.633 21.791 182.859 22.7637C182.086 23.7363 181.699 25.084 181.699 26.8066V36H178.096V26.8066C178.096 25.0605 177.721 23.707 176.971 22.7461C176.221 21.7852 175.172 21.3047 173.824 21.3047C172.453 21.3047 171.381 21.791 170.607 22.7637C169.834 23.7363 169.447 25.084 169.447 26.8066V36H165.844V18.4219H168.762L168.902 21.4805C169.488 20.3672 170.279 19.5234 171.275 18.9492C172.283 18.3633 173.467 18.0703 174.826 18.0703C176.268 18.0703 177.504 18.3867 178.535 19.0195C179.566 19.6523 180.346 20.5605 180.873 21.7441C181.459 20.5371 182.268 19.623 183.299 19.002C184.342 18.3809 185.578 18.0703 187.008 18.0703C189.188 18.0703 190.887 18.7617 192.105 20.1445C193.324 21.5273 193.934 23.4551 193.934 25.9277V36ZM200.508 13.3242C199.957 13.3242 199.494 13.1309 199.119 12.7441C198.744 12.3574 198.557 11.8887 198.557 11.3379C198.557 10.7871 198.744 10.3242 199.119 9.94922C199.494 9.5625 199.957 9.36914 200.508 9.36914C201.07 9.36914 201.539 9.5625 201.914 9.94922C202.301 10.3242 202.494 10.7871 202.494 11.3379C202.494 11.8887 202.301 12.3574 201.914 12.7441C201.539 13.1309 201.07 13.3242 200.508 13.3242ZM202.301 36H198.697V18.4219H202.301V36ZM206.203 34.4707L207.082 31.2363C207.48 31.6348 207.955 31.9863 208.506 32.291C209.068 32.5957 209.66 32.8359 210.281 33.0117C210.914 33.1758 211.535 33.2578 212.145 33.2578C213.105 33.2578 213.879 33.0527 214.465 32.6426C215.051 32.2324 215.344 31.6875 215.344 31.0078C215.344 30.5039 215.18 30.0879 214.852 29.7598C214.535 29.4199 214.107 29.127 213.568 28.8809C213.041 28.6348 212.473 28.3945 211.863 28.1602C211.078 27.8672 210.293 27.5273 209.508 27.1406C208.734 26.7539 208.084 26.2383 207.557 25.5938C207.029 24.9492 206.766 24.0996 206.766 23.0449C206.766 22.0371 207.023 21.1641 207.539 20.4258C208.055 19.6758 208.775 19.0957 209.701 18.6855C210.627 18.2754 211.693 18.0703 212.9 18.0703C214.775 18.0703 216.633 18.5391 218.473 19.4766L217.418 22.5527C217.043 22.2832 216.598 22.043 216.082 21.832C215.566 21.6211 215.039 21.457 214.5 21.3398C213.961 21.2109 213.463 21.1465 213.006 21.1465C212.244 21.1465 211.629 21.3164 211.16 21.6562C210.703 21.9961 210.475 22.4531 210.475 23.0273C210.475 23.3789 210.586 23.7012 210.809 23.9941C211.031 24.2754 211.383 24.5566 211.863 24.8379C212.355 25.1074 213.018 25.4121 213.85 25.752C214.646 26.0684 215.443 26.4316 216.24 26.8418C217.037 27.252 217.699 27.7852 218.227 28.4414C218.766 29.0977 219.035 29.959 219.035 31.0254C219.035 32.0801 218.754 33.0117 218.191 33.8203C217.629 34.6172 216.844 35.2383 215.836 35.6836C214.84 36.1289 213.68 36.3516 212.355 36.3516C210.164 36.3516 208.113 35.7246 206.203 34.4707ZM221.637 34.4707L222.516 31.2363C222.914 31.6348 223.389 31.9863 223.939 32.291C224.502 32.5957 225.094 32.8359 225.715 33.0117C226.348 33.1758 226.969 33.2578 227.578 33.2578C228.539 33.2578 229.312 33.0527 229.898 32.6426C230.484 32.2324 230.777 31.6875 230.777 31.0078C230.777 30.5039 230.613 30.0879 230.285 29.7598C229.969 29.4199 229.541 29.127 229.002 28.8809C228.475 28.6348 227.906 28.3945 227.297 28.1602C226.512 27.8672 225.727 27.5273 224.941 27.1406C224.168 26.7539 223.518 26.2383 222.99 25.5938C222.463 24.9492 222.199 24.0996 222.199 23.0449C222.199 22.0371 222.457 21.1641 222.973 20.4258C223.488 19.6758 224.209 19.0957 225.135 18.6855C226.061 18.2754 227.127 18.0703 228.334 18.0703C230.209 18.0703 232.066 18.5391 233.906 19.4766L232.852 22.5527C232.477 22.2832 232.031 22.043 231.516 21.832C231 21.6211 230.473 21.457 229.934 21.3398C229.395 21.2109 228.896 21.1465 228.439 21.1465C227.678 21.1465 227.062 21.3164 226.594 21.6562C226.137 21.9961 225.908 22.4531 225.908 23.0273C225.908 23.3789 226.02 23.7012 226.242 23.9941C226.465 24.2754 226.816 24.5566 227.297 24.8379C227.789 25.1074 228.451 25.4121 229.283 25.752C230.08 26.0684 230.877 26.4316 231.674 26.8418C232.471 27.252 233.133 27.7852 233.66 28.4414C234.199 29.0977 234.469 29.959 234.469 31.0254C234.469 32.0801 234.188 33.0117 233.625 33.8203C233.062 34.6172 232.277 35.2383 231.27 35.6836C230.273 36.1289 229.113 36.3516 227.789 36.3516C225.598 36.3516 223.547 35.7246 221.637 34.4707ZM240.164 13.3242C239.613 13.3242 239.15 13.1309 238.775 12.7441C238.4 12.3574 238.213 11.8887 238.213 11.3379C238.213 10.7871 238.4 10.3242 238.775 9.94922C239.15 9.5625 239.613 9.36914 240.164 9.36914C240.727 9.36914 241.195 9.5625 241.57 9.94922C241.957 10.3242 242.15 10.7871 242.15 11.3379C242.15 11.8887 241.957 12.3574 241.57 12.7441C241.195 13.1309 240.727 13.3242 240.164 13.3242ZM241.957 36H238.354V18.4219H241.957V36ZM255.07 36.3516C253.312 36.3516 251.73 35.9531 250.324 35.1562C248.918 34.3594 247.811 33.2754 247.002 31.9043C246.193 30.5215 245.789 28.957 245.789 27.2109C245.789 25.4766 246.193 23.9238 247.002 22.5527C247.811 21.1699 248.918 20.0801 250.324 19.2832C251.73 18.4746 253.312 18.0703 255.07 18.0703C256.84 18.0703 258.422 18.4746 259.816 19.2832C261.211 20.0801 262.307 21.1699 263.104 22.5527C263.912 23.9238 264.316 25.4766 264.316 27.2109C264.316 28.957 263.912 30.5215 263.104 31.9043C262.307 33.2754 261.211 34.3594 259.816 35.1562C258.422 35.9531 256.84 36.3516 255.07 36.3516ZM255.053 33.1172C256.119 33.1172 257.068 32.8594 257.9 32.3438C258.744 31.8164 259.406 31.1133 259.887 30.2344C260.379 29.3438 260.625 28.3301 260.625 27.1934C260.625 26.0801 260.379 25.084 259.887 24.2051C259.406 23.3145 258.744 22.6113 257.9 22.0957C257.068 21.5684 256.119 21.3047 255.053 21.3047C253.998 21.3047 253.049 21.5684 252.205 22.0957C251.361 22.6113 250.693 23.3145 250.201 24.2051C249.721 25.084 249.48 26.0801 249.48 27.1934C249.48 28.3301 249.721 29.3438 250.201 30.2344C250.693 31.1133 251.361 31.8164 252.205 32.3438C253.049 32.8594 253.998 33.1172 255.053 33.1172ZM284.9 36H281.297V26.4551C281.297 24.8965 280.869 23.6543 280.014 22.7285C279.17 21.8027 278.033 21.3398 276.604 21.3398C275.127 21.3398 273.938 21.832 273.035 22.8164C272.133 23.8008 271.682 25.1074 271.682 26.7363V36H268.078V18.4219H271.119L271.242 21.252C271.887 20.2207 272.73 19.4355 273.773 18.8965C274.816 18.3457 276.041 18.0703 277.447 18.0703C279.756 18.0703 281.572 18.7676 282.896 20.1621C284.232 21.5566 284.9 23.4785 284.9 25.9277V36ZM288.398 34.4707L289.277 31.2363C289.676 31.6348 290.15 31.9863 290.701 32.291C291.264 32.5957 291.855 32.8359 292.477 33.0117C293.109 33.1758 293.73 33.2578 294.34 33.2578C295.301 33.2578 296.074 33.0527 296.66 32.6426C297.246 32.2324 297.539 31.6875 297.539 31.0078C297.539 30.5039 297.375 30.0879 297.047 29.7598C296.73 29.4199 296.303 29.127 295.764 28.8809C295.236 28.6348 294.668 28.3945 294.059 28.1602C293.273 27.8672 292.488 27.5273 291.703 27.1406C290.93 26.7539 290.279 26.2383 289.752 25.5938C289.225 24.9492 288.961 24.0996 288.961 23.0449C288.961 22.0371 289.219 21.1641 289.734 20.4258C290.25 19.6758 290.971 19.0957 291.896 18.6855C292.822 18.2754 293.889 18.0703 295.096 18.0703C296.971 18.0703 298.828 18.5391 300.668 19.4766L299.613 22.5527C299.238 22.2832 298.793 22.043 298.277 21.832C297.762 21.6211 297.234 21.457 296.695 21.3398C296.156 21.2109 295.658 21.1465 295.201 21.1465C294.439 21.1465 293.824 21.3164 293.355 21.6562C292.898 21.9961 292.67 22.4531 292.67 23.0273C292.67 23.3789 292.781 23.7012 293.004 23.9941C293.227 24.2754 293.578 24.5566 294.059 24.8379C294.551 25.1074 295.213 25.4121 296.045 25.752C296.842 26.0684 297.639 26.4316 298.436 26.8418C299.232 27.252 299.895 27.7852 300.422 28.4414C300.961 29.0977 301.23 29.959 301.23 31.0254C301.23 32.0801 300.949 33.0117 300.387 33.8203C299.824 34.6172 299.039 35.2383 298.031 35.6836C297.035 36.1289 295.875 36.3516 294.551 36.3516C292.359 36.3516 290.309 35.7246 288.398 34.4707Z" fill="#F7FFF7"/>
<path d="M22.125 80H19.5469V64.6953H14.0508V62.4219H27.6211V64.6953H22.125V80ZM29.6602 80V62.4219H32.0625V69.9102C32.9297 68.668 34.2461 68.0469 36.0117 68.0469C37.5352 68.0469 38.7266 68.5078 39.5859 69.4297C40.4453 70.3516 40.875 71.6367 40.875 73.2852V80H38.4727V73.8711C38.4727 72.707 38.1914 71.8047 37.6289 71.1641C37.0742 70.5234 36.2969 70.2031 35.2969 70.2031C34.2891 70.2031 33.4961 70.5312 32.918 71.1875C32.3477 71.8359 32.0625 72.7305 32.0625 73.8711V80H29.6602ZM45.2695 64.8828C44.9023 64.8828 44.5938 64.7539 44.3438 64.4961C44.0938 64.2383 43.9688 63.9258 43.9688 63.5586C43.9688 63.1914 44.0938 62.8828 44.3438 62.6328C44.5938 62.375 44.9023 62.2461 45.2695 62.2461C45.6445 62.2461 45.957 62.375 46.207 62.6328C46.4648 62.8828 46.5938 63.1914 46.5938 63.5586C46.5938 63.9258 46.4648 64.2383 46.207 64.4961C45.957 64.7539 45.6445 64.8828 45.2695 64.8828ZM46.4648 80H44.0625V68.2812H46.4648V80ZM49.0664 78.9805L49.6523 76.8242C49.918 77.0898 50.2344 77.3242 50.6016 77.5273C50.9766 77.7305 51.3711 77.8906 51.7852 78.0078C52.207 78.1172 52.6211 78.1719 53.0273 78.1719C53.668 78.1719 54.1836 78.0352 54.5742 77.7617C54.9648 77.4883 55.1602 77.125 55.1602 76.6719C55.1602 76.3359 55.0508 76.0586 54.832 75.8398C54.6211 75.6133 54.3359 75.418 53.9766 75.2539C53.625 75.0898 53.2461 74.9297 52.8398 74.7734C52.3164 74.5781 51.793 74.3516 51.2695 74.0938C50.7539 73.8359 50.3203 73.4922 49.9688 73.0625C49.6172 72.6328 49.4414 72.0664 49.4414 71.3633C49.4414 70.6914 49.6133 70.1094 49.957 69.6172C50.3008 69.1172 50.7812 68.7305 51.3984 68.457C52.0156 68.1836 52.7266 68.0469 53.5312 68.0469C54.7812 68.0469 56.0195 68.3594 57.2461 68.9844L56.543 71.0352C56.293 70.8555 55.9961 70.6953 55.6523 70.5547C55.3086 70.4141 54.957 70.3047 54.5977 70.2266C54.2383 70.1406 53.9062 70.0977 53.6016 70.0977C53.0938 70.0977 52.6836 70.2109 52.3711 70.4375C52.0664 70.6641 51.9141 70.9688 51.9141 71.3516C51.9141 71.5859 51.9883 71.8008 52.1367 71.9961C52.2852 72.1836 52.5195 72.3711 52.8398 72.5586C53.168 72.7383 53.6094 72.9414 54.1641 73.168C54.6953 73.3789 55.2266 73.6211 55.7578 73.8945C56.2891 74.168 56.7305 74.5234 57.082 74.9609C57.4414 75.3984 57.6211 75.9727 57.6211 76.6836C57.6211 77.3867 57.4336 78.0078 57.0586 78.5469C56.6836 79.0781 56.1602 79.4922 55.4883 79.7891C54.8242 80.0859 54.0508 80.2344 53.168 80.2344C51.707 80.2344 50.3398 79.8164 49.0664 78.9805ZM71.2148 80.2344C70.043 80.2344 68.9883 79.9688 68.0508 79.4375C67.1133 78.9062 66.375 78.1836 65.8359 77.2695C65.2969 76.3477 65.0273 75.3047 65.0273 74.1406C65.0273 72.9844 65.2969 71.9492 65.8359 71.0352C66.375 70.1133 67.1133 69.3867 68.0508 68.8555C68.9883 68.3164 70.043 68.0469 71.2148 68.0469C72.3945 68.0469 73.4492 68.3164 74.3789 68.8555C75.3086 69.3867 76.0391 70.1133 76.5703 71.0352C77.1094 71.9492 77.3789 72.9844 77.3789 74.1406C77.3789 75.3047 77.1094 76.3477 76.5703 77.2695C76.0391 78.1836 75.3086 78.9062 74.3789 79.4375C73.4492 79.9688 72.3945 80.2344 71.2148 80.2344ZM71.2031 78.0781C71.9141 78.0781 72.5469 77.9062 73.1016 77.5625C73.6641 77.2109 74.1055 76.7422 74.4258 76.1562C74.7539 75.5625 74.918 74.8867 74.918 74.1289C74.918 73.3867 74.7539 72.7227 74.4258 72.1367C74.1055 71.543 73.6641 71.0742 73.1016 70.7305C72.5469 70.3789 71.9141 70.2031 71.2031 70.2031C70.5 70.2031 69.8672 70.3789 69.3047 70.7305C68.7422 71.0742 68.2969 71.543 67.9688 72.1367C67.6484 72.7227 67.4883 73.3867 67.4883 74.1289C67.4883 74.8867 67.6484 75.5625 67.9688 76.1562C68.2969 76.7422 68.7422 77.2109 69.3047 77.5625C69.8672 77.9062 70.5 78.0781 71.2031 78.0781ZM91.1016 80H88.6992V73.6367C88.6992 72.5977 88.4141 71.7695 87.8438 71.1523C87.2812 70.5352 86.5234 70.2266 85.5703 70.2266C84.5859 70.2266 83.793 70.5547 83.1914 71.2109C82.5898 71.8672 82.2891 72.7383 82.2891 73.8242V80H79.8867V68.2812H81.9141L81.9961 70.168C82.4258 69.4805 82.9883 68.957 83.6836 68.5977C84.3789 68.2305 85.1953 68.0469 86.1328 68.0469C87.6719 68.0469 88.8828 68.5117 89.7656 69.4414C90.6562 70.3711 91.1016 71.6523 91.1016 73.2852V80ZM96.8086 80H94.2539V61.9531H96.8086V80ZM104.578 85.8594H101.988L104.438 79.9297L98.7305 68.2812H101.414L105.586 77.1758L109.266 68.2812H111.844L104.578 85.8594ZM132.715 80H129.949L127.559 71.6211L125.168 80H122.402L118.652 68.2812H121.195L123.762 77.2578L126.469 68.2812H128.648L131.355 77.2695L133.934 68.2812H136.477L132.715 80ZM143.684 80.2344C142.512 80.2344 141.457 79.9688 140.52 79.4375C139.582 78.9062 138.844 78.1836 138.305 77.2695C137.766 76.3477 137.496 75.3047 137.496 74.1406C137.496 72.9844 137.766 71.9492 138.305 71.0352C138.844 70.1133 139.582 69.3867 140.52 68.8555C141.457 68.3164 142.512 68.0469 143.684 68.0469C144.863 68.0469 145.918 68.3164 146.848 68.8555C147.777 69.3867 148.508 70.1133 149.039 71.0352C149.578 71.9492 149.848 72.9844 149.848 74.1406C149.848 75.3047 149.578 76.3477 149.039 77.2695C148.508 78.1836 147.777 78.9062 146.848 79.4375C145.918 79.9688 144.863 80.2344 143.684 80.2344ZM143.672 78.0781C144.383 78.0781 145.016 77.9062 145.57 77.5625C146.133 77.2109 146.574 76.7422 146.895 76.1562C147.223 75.5625 147.387 74.8867 147.387 74.1289C147.387 73.3867 147.223 72.7227 146.895 72.1367C146.574 71.543 146.133 71.0742 145.57 70.7305C145.016 70.3789 144.383 70.2031 143.672 70.2031C142.969 70.2031 142.336 70.3789 141.773 70.7305C141.211 71.0742 140.766 71.543 140.438 72.1367C140.117 72.7227 139.957 73.3867 139.957 74.1289C139.957 74.8867 140.117 75.5625 140.438 76.1562C140.766 76.7422 141.211 77.2109 141.773 77.5625C142.336 77.9062 142.969 78.0781 143.672 78.0781ZM154.758 80H152.355V68.2812H154.453L154.547 70.5078C154.953 69.7344 155.512 69.1328 156.223 68.7031C156.941 68.2656 157.766 68.0469 158.695 68.0469C158.922 68.0469 159.148 68.0625 159.375 68.0938C159.609 68.1172 159.844 68.1562 160.078 68.2109L159.773 70.3789C159.32 70.2617 158.875 70.2031 158.438 70.2031C157.711 70.2031 157.07 70.3789 156.516 70.7305C155.961 71.0742 155.527 71.5508 155.215 72.1602C154.91 72.7695 154.758 73.4727 154.758 74.2695V80ZM164.32 80H161.918V62.4219H164.32V74.2695L165.316 73.0742L169.84 68.2812H172.852L168.012 73.4141L173.531 80H170.426L166.348 75.0547L164.32 77.1406V80ZM174.855 78.9805L175.441 76.8242C175.707 77.0898 176.023 77.3242 176.391 77.5273C176.766 77.7305 177.16 77.8906 177.574 78.0078C177.996 78.1172 178.41 78.1719 178.816 78.1719C179.457 78.1719 179.973 78.0352 180.363 77.7617C180.754 77.4883 180.949 77.125 180.949 76.6719C180.949 76.3359 180.84 76.0586 180.621 75.8398C180.41 75.6133 180.125 75.418 179.766 75.2539C179.414 75.0898 179.035 74.9297 178.629 74.7734C178.105 74.5781 177.582 74.3516 177.059 74.0938C176.543 73.8359 176.109 73.4922 175.758 73.0625C175.406 72.6328 175.23 72.0664 175.23 71.3633C175.23 70.6914 175.402 70.1094 175.746 69.6172C176.09 69.1172 176.57 68.7305 177.188 68.457C177.805 68.1836 178.516 68.0469 179.32 68.0469C180.57 68.0469 181.809 68.3594 183.035 68.9844L182.332 71.0352C182.082 70.8555 181.785 70.6953 181.441 70.5547C181.098 70.4141 180.746 70.3047 180.387 70.2266C180.027 70.1406 179.695 70.0977 179.391 70.0977C178.883 70.0977 178.473 70.2109 178.16 70.4375C177.855 70.6641 177.703 70.9688 177.703 71.3516C177.703 71.5859 177.777 71.8008 177.926 71.9961C178.074 72.1836 178.309 72.3711 178.629 72.5586C178.957 72.7383 179.398 72.9414 179.953 73.168C180.484 73.3789 181.016 73.6211 181.547 73.8945C182.078 74.168 182.52 74.5234 182.871 74.9609C183.23 75.3984 183.41 75.9727 183.41 76.6836C183.41 77.3867 183.223 78.0078 182.848 78.5469C182.473 79.0781 181.949 79.4922 181.277 79.7891C180.613 80.0859 179.84 80.2344 178.957 80.2344C177.496 80.2344 176.129 79.8164 174.855 78.9805ZM192.926 64.8828C192.559 64.8828 192.25 64.7539 192 64.4961C191.75 64.2383 191.625 63.9258 191.625 63.5586C191.625 63.1914 191.75 62.8828 192 62.6328C192.25 62.375 192.559 62.2461 192.926 62.2461C193.301 62.2461 193.613 62.375 193.863 62.6328C194.121 62.8828 194.25 63.1914 194.25 63.5586C194.25 63.9258 194.121 64.2383 193.863 64.4961C193.613 64.7539 193.301 64.8828 192.926 64.8828ZM194.121 80H191.719V68.2812H194.121V80ZM200.848 80H198.445V70.4258H196.395V68.2812H198.445V65.9961C198.445 65.2305 198.613 64.5547 198.949 63.9688C199.293 63.375 199.762 62.9102 200.355 62.5742C200.957 62.2383 201.648 62.0703 202.43 62.0703C202.914 62.0703 203.402 62.1367 203.895 62.2695C204.387 62.4023 204.871 62.6094 205.348 62.8906L204.434 64.7773C204.176 64.5898 203.906 64.4531 203.625 64.3672C203.352 64.2734 203.078 64.2266 202.805 64.2266C202.234 64.2266 201.766 64.4297 201.398 64.8359C201.031 65.2422 200.848 65.7852 200.848 66.4648V68.2812H204.434V70.4258H200.848V80ZM226.207 80H223.441L221.051 71.6211L218.66 80H215.895L212.145 68.2812H214.688L217.254 77.2578L219.961 68.2812H222.141L224.848 77.2695L227.426 68.2812H229.969L226.207 80ZM242.309 78.6055C240.855 79.6914 239.258 80.2344 237.516 80.2344C236.273 80.2344 235.16 79.9609 234.176 79.4141C233.191 78.8672 232.414 78.1211 231.844 77.1758C231.273 76.2305 230.988 75.1641 230.988 73.9766C230.988 72.8438 231.25 71.832 231.773 70.9414C232.297 70.043 233.012 69.3359 233.918 68.8203C234.824 68.3047 235.852 68.0469 237 68.0469C238.188 68.0469 239.23 68.3281 240.129 68.8906C241.035 69.4531 241.738 70.2383 242.238 71.2461C242.746 72.2461 243 73.4062 243 74.7266V75.1016H233.59C233.73 75.7109 233.996 76.2461 234.387 76.707C234.777 77.1602 235.262 77.5156 235.84 77.7734C236.418 78.0234 237.07 78.1484 237.797 78.1484C239.094 78.1484 240.285 77.7266 241.371 76.8828L242.309 78.6055ZM233.484 73.4375H240.762C240.684 72.7812 240.48 72.2109 240.152 71.7266C239.824 71.2344 239.398 70.8516 238.875 70.5781C238.359 70.2969 237.777 70.1562 237.129 70.1562C236.473 70.1562 235.883 70.2969 235.359 70.5781C234.836 70.8516 234.41 71.2344 234.082 71.7266C233.762 72.2188 233.562 72.7891 233.484 73.4375ZM261.188 78.2539C260.617 78.8867 259.934 79.375 259.137 79.7188C258.34 80.0625 257.477 80.2344 256.547 80.2344C255.375 80.2344 254.32 79.9688 253.383 79.4375C252.453 78.9062 251.719 78.1797 251.18 77.2578C250.641 76.3359 250.371 75.2969 250.371 74.1406C250.371 72.9766 250.641 71.9375 251.18 71.0234C251.719 70.1016 252.453 69.375 253.383 68.8438C254.32 68.3125 255.375 68.0469 256.547 68.0469C257.469 68.0469 258.328 68.2188 259.125 68.5625C259.922 68.8984 260.605 69.3828 261.176 70.0156L259.758 71.5039C259.375 71.0977 258.914 70.7852 258.375 70.5664C257.844 70.3398 257.277 70.2266 256.676 70.2266C255.934 70.2266 255.273 70.3945 254.695 70.7305C254.117 71.0664 253.664 71.5273 253.336 72.1133C253.008 72.6914 252.844 73.3633 252.844 74.1289C252.844 74.8867 253.008 75.5625 253.336 76.1562C253.664 76.75 254.117 77.2148 254.695 77.5508C255.273 77.8867 255.934 78.0547 256.676 78.0547C257.277 78.0547 257.848 77.9414 258.387 77.7148C258.926 77.4883 259.383 77.1758 259.758 76.7773L261.188 78.2539ZM273.469 80H271.395L271.254 78.5C270.824 79.0469 270.281 79.4727 269.625 79.7773C268.969 80.082 268.242 80.2344 267.445 80.2344C266.609 80.2344 265.863 80.0703 265.207 79.7422C264.551 79.4141 264.035 78.9648 263.66 78.3945C263.285 77.8242 263.098 77.1758 263.098 76.4492C263.098 75.6836 263.301 75.0117 263.707 74.4336C264.113 73.8477 264.668 73.3906 265.371 73.0625C266.074 72.7266 266.875 72.5586 267.773 72.5586C268.336 72.5586 268.906 72.625 269.484 72.7578C270.07 72.8906 270.598 73.0781 271.066 73.3203V72.8867C271.066 72.3164 270.918 71.8281 270.621 71.4219C270.332 71.0078 269.934 70.6914 269.426 70.4727C268.926 70.2539 268.371 70.1445 267.762 70.1445C267.223 70.1445 266.672 70.2383 266.109 70.4258C265.555 70.6133 265.031 70.9023 264.539 71.293L263.812 69.3359C264.523 68.9141 265.262 68.5938 266.027 68.375C266.801 68.1562 267.559 68.0469 268.301 68.0469C269.363 68.0469 270.277 68.2578 271.043 68.6797C271.816 69.1016 272.414 69.7031 272.836 70.4844C273.258 71.2578 273.469 72.1719 273.469 73.2266V80ZM267.914 78.1953C268.469 78.1953 268.98 78.082 269.449 77.8555C269.918 77.6211 270.297 77.293 270.586 76.8711C270.883 76.4414 271.043 75.9414 271.066 75.3711V75.207C270.668 74.9102 270.219 74.6797 269.719 74.5156C269.227 74.3438 268.723 74.2578 268.207 74.2578C267.418 74.2578 266.762 74.4453 266.238 74.8203C265.715 75.1953 265.453 75.6758 265.453 76.2617C265.453 76.6289 265.559 76.9609 265.77 77.2578C265.988 77.5469 266.281 77.7773 266.648 77.9492C267.023 78.1133 267.445 78.1953 267.914 78.1953ZM287.836 80H285.434V73.6367C285.434 72.5977 285.148 71.7695 284.578 71.1523C284.016 70.5352 283.258 70.2266 282.305 70.2266C281.32 70.2266 280.527 70.5547 279.926 71.2109C279.324 71.8672 279.023 72.7383 279.023 73.8242V80H276.621V68.2812H278.648L278.73 70.168C279.16 69.4805 279.723 68.957 280.418 68.5977C281.113 68.2305 281.93 68.0469 282.867 68.0469C284.406 68.0469 285.617 68.5117 286.5 69.4414C287.391 70.3711 287.836 71.6523 287.836 73.2852V80ZM38.5195 116H36.1172V109.637C36.1172 108.598 35.832 107.77 35.2617 107.152C34.6992 106.535 33.9414 106.227 32.9883 106.227C32.0039 106.227 31.2109 106.555 30.6094 107.211C30.0078 107.867 29.707 108.738 29.707 109.824V116H27.3047V104.281H29.332L29.4141 106.168C29.8438 105.48 30.4062 104.957 31.1016 104.598C31.7969 104.23 32.6133 104.047 33.5508 104.047C35.0898 104.047 36.3008 104.512 37.1836 105.441C38.0742 106.371 38.5195 107.652 38.5195 109.285V116ZM46.9922 116.234C45.8203 116.234 44.7656 115.969 43.8281 115.438C42.8906 114.906 42.1523 114.184 41.6133 113.27C41.0742 112.348 40.8047 111.305 40.8047 110.141C40.8047 108.984 41.0742 107.949 41.6133 107.035C42.1523 106.113 42.8906 105.387 43.8281 104.855C44.7656 104.316 45.8203 104.047 46.9922 104.047C48.1719 104.047 49.2266 104.316 50.1562 104.855C51.0859 105.387 51.8164 106.113 52.3477 107.035C52.8867 107.949 53.1562 108.984 53.1562 110.141C53.1562 111.305 52.8867 112.348 52.3477 113.27C51.8164 114.184 51.0859 114.906 50.1562 115.438C49.2266 115.969 48.1719 116.234 46.9922 116.234ZM46.9805 114.078C47.6914 114.078 48.3242 113.906 48.8789 113.562C49.4414 113.211 49.8828 112.742 50.2031 112.156C50.5312 111.562 50.6953 110.887 50.6953 110.129C50.6953 109.387 50.5312 108.723 50.2031 108.137C49.8828 107.543 49.4414 107.074 48.8789 106.73C48.3242 106.379 47.6914 106.203 46.9805 106.203C46.2773 106.203 45.6445 106.379 45.082 106.73C44.5195 107.074 44.0742 107.543 43.7461 108.137C43.4258 108.723 43.2656 109.387 43.2656 110.129C43.2656 110.887 43.4258 111.562 43.7461 112.156C44.0742 112.742 44.5195 113.211 45.082 113.562C45.6445 113.906 46.2773 114.078 46.9805 114.078ZM62.8125 115.707C61.9922 116.059 61.1992 116.234 60.4336 116.234C59.668 116.234 58.9961 116.07 58.418 115.742C57.8477 115.414 57.3984 114.953 57.0703 114.359C56.75 113.758 56.5898 113.066 56.5898 112.285V106.426H54.5391V104.281H56.707V101.352H58.9922V104.281H62.4141V106.426H58.9922V111.84C58.9922 112.527 59.1758 113.074 59.543 113.48C59.918 113.879 60.3984 114.078 60.9844 114.078C61.4766 114.078 61.9648 113.93 62.4492 113.633L62.8125 115.707ZM66.0703 100.883C65.7031 100.883 65.3945 100.754 65.1445 100.496C64.8945 100.238 64.7695 99.9258 64.7695 99.5586C64.7695 99.1914 64.8945 98.8828 65.1445 98.6328C65.3945 98.375 65.7031 98.2461 66.0703 98.2461C66.4453 98.2461 66.7578 98.375 67.0078 98.6328C67.2656 98.8828 67.3945 99.1914 67.3945 99.5586C67.3945 99.9258 67.2656 100.238 67.0078 100.496C66.7578 100.754 66.4453 100.883 66.0703 100.883ZM67.2656 116H64.8633V104.281H67.2656V116ZM73.9922 116H71.5898V106.426H69.5391V104.281H71.5898V101.996C71.5898 101.23 71.7578 100.555 72.0938 99.9688C72.4375 99.375 72.9062 98.9102 73.5 98.5742C74.1016 98.2383 74.793 98.0703 75.5742 98.0703C76.0586 98.0703 76.5469 98.1367 77.0391 98.2695C77.5312 98.4023 78.0156 98.6094 78.4922 98.8906L77.5781 100.777C77.3203 100.59 77.0508 100.453 76.7695 100.367C76.4961 100.273 76.2227 100.227 75.9492 100.227C75.3789 100.227 74.9102 100.43 74.543 100.836C74.1758 101.242 73.9922 101.785 73.9922 102.465V104.281H77.5781V106.426H73.9922V116ZM84.4102 121.859H81.8203L84.2695 115.93L78.5625 104.281H81.2461L85.418 113.176L89.0977 104.281H91.6758L84.4102 121.859ZM112.547 116H109.781L107.391 107.621L105 116H102.234L98.4844 104.281H101.027L103.594 113.258L106.301 104.281H108.48L111.188 113.27L113.766 104.281H116.309L112.547 116ZM118.547 116V98.4219H120.949V105.91C121.816 104.668 123.133 104.047 124.898 104.047C126.422 104.047 127.613 104.508 128.473 105.43C129.332 106.352 129.762 107.637 129.762 109.285V116H127.359V109.871C127.359 108.707 127.078 107.805 126.516 107.164C125.961 106.523 125.184 106.203 124.184 106.203C123.176 106.203 122.383 106.531 121.805 107.188C121.234 107.836 120.949 108.73 120.949 109.871V116H118.547ZM143.367 114.605C141.914 115.691 140.316 116.234 138.574 116.234C137.332 116.234 136.219 115.961 135.234 115.414C134.25 114.867 133.473 114.121 132.902 113.176C132.332 112.23 132.047 111.164 132.047 109.977C132.047 108.844 132.309 107.832 132.832 106.941C133.355 106.043 134.07 105.336 134.977 104.82C135.883 104.305 136.91 104.047 138.059 104.047C139.246 104.047 140.289 104.328 141.188 104.891C142.094 105.453 142.797 106.238 143.297 107.246C143.805 108.246 144.059 109.406 144.059 110.727V111.102H134.648C134.789 111.711 135.055 112.246 135.445 112.707C135.836 113.16 136.32 113.516 136.898 113.773C137.477 114.023 138.129 114.148 138.855 114.148C140.152 114.148 141.344 113.727 142.43 112.883L143.367 114.605ZM134.543 109.438H141.82C141.742 108.781 141.539 108.211 141.211 107.727C140.883 107.234 140.457 106.852 139.934 106.578C139.418 106.297 138.836 106.156 138.188 106.156C137.531 106.156 136.941 106.297 136.418 106.578C135.895 106.852 135.469 107.234 135.141 107.727C134.82 108.219 134.621 108.789 134.543 109.438ZM157.793 116H155.391V109.637C155.391 108.598 155.105 107.77 154.535 107.152C153.973 106.535 153.215 106.227 152.262 106.227C151.277 106.227 150.484 106.555 149.883 107.211C149.281 107.867 148.98 108.738 148.98 109.824V116H146.578V104.281H148.605L148.688 106.168C149.117 105.48 149.68 104.957 150.375 104.598C151.07 104.23 151.887 104.047 152.824 104.047C154.363 104.047 155.574 104.512 156.457 105.441C157.348 106.371 157.793 107.652 157.793 109.285V116ZM167.906 100.883C167.539 100.883 167.23 100.754 166.98 100.496C166.73 100.238 166.605 99.9258 166.605 99.5586C166.605 99.1914 166.73 98.8828 166.98 98.6328C167.23 98.375 167.539 98.2461 167.906 98.2461C168.281 98.2461 168.594 98.375 168.844 98.6328C169.102 98.8828 169.23 99.1914 169.23 99.5586C169.23 99.9258 169.102 100.238 168.844 100.496C168.594 100.754 168.281 100.883 167.906 100.883ZM169.102 116H166.699V104.281H169.102V116ZM191.25 116H188.848V109.871C188.848 108.707 188.598 107.805 188.098 107.164C187.605 106.523 186.91 106.203 186.012 106.203C185.098 106.203 184.383 106.527 183.867 107.176C183.352 107.824 183.094 108.723 183.094 109.871V116H180.691V109.871C180.691 108.707 180.441 107.805 179.941 107.164C179.441 106.523 178.742 106.203 177.844 106.203C176.93 106.203 176.215 106.527 175.699 107.176C175.184 107.824 174.926 108.723 174.926 109.871V116H172.523V104.281H174.469L174.562 106.32C174.953 105.578 175.48 105.016 176.145 104.633C176.816 104.242 177.605 104.047 178.512 104.047C179.473 104.047 180.297 104.258 180.984 104.68C181.672 105.102 182.191 105.707 182.543 106.496C182.934 105.691 183.473 105.082 184.16 104.668C184.855 104.254 185.68 104.047 186.633 104.047C188.086 104.047 189.219 104.508 190.031 105.43C190.844 106.352 191.25 107.637 191.25 109.285V116ZM196.793 121.859H194.391V104.281H196.512L196.641 105.957C197.172 105.363 197.809 104.898 198.551 104.562C199.301 104.219 200.121 104.047 201.012 104.047C202.137 104.047 203.141 104.312 204.023 104.844C204.914 105.375 205.613 106.102 206.121 107.023C206.637 107.938 206.895 108.977 206.895 110.141C206.895 111.297 206.637 112.336 206.121 113.258C205.613 114.18 204.914 114.906 204.023 115.438C203.141 115.969 202.137 116.234 201.012 116.234C200.168 116.234 199.387 116.082 198.668 115.777C197.949 115.473 197.324 115.047 196.793 114.5V121.859ZM200.625 114.055C201.367 114.055 202.023 113.887 202.594 113.551C203.164 113.215 203.609 112.754 203.93 112.168C204.258 111.574 204.422 110.895 204.422 110.129C204.422 109.363 204.258 108.688 203.93 108.102C203.609 107.508 203.164 107.043 202.594 106.707C202.023 106.371 201.371 106.203 200.637 106.203C199.941 106.203 199.312 106.359 198.75 106.672C198.195 106.977 197.742 107.398 197.391 107.938C197.047 108.477 196.848 109.09 196.793 109.777V110.504C196.848 111.191 197.043 111.805 197.379 112.344C197.723 112.875 198.172 113.293 198.727 113.598C199.289 113.902 199.922 114.055 200.625 114.055ZM214.734 116.234C213.562 116.234 212.508 115.969 211.57 115.438C210.633 114.906 209.895 114.184 209.355 113.27C208.816 112.348 208.547 111.305 208.547 110.141C208.547 108.984 208.816 107.949 209.355 107.035C209.895 106.113 210.633 105.387 211.57 104.855C212.508 104.316 213.562 104.047 214.734 104.047C215.914 104.047 216.969 104.316 217.898 104.855C218.828 105.387 219.559 106.113 220.09 107.035C220.629 107.949 220.898 108.984 220.898 110.141C220.898 111.305 220.629 112.348 220.09 113.27C219.559 114.184 218.828 114.906 217.898 115.438C216.969 115.969 215.914 116.234 214.734 116.234ZM214.723 114.078C215.434 114.078 216.066 113.906 216.621 113.562C217.184 113.211 217.625 112.742 217.945 112.156C218.273 111.562 218.438 110.887 218.438 110.129C218.438 109.387 218.273 108.723 217.945 108.137C217.625 107.543 217.184 107.074 216.621 106.73C216.066 106.379 215.434 106.203 214.723 106.203C214.02 106.203 213.387 106.379 212.824 106.73C212.262 107.074 211.816 107.543 211.488 108.137C211.168 108.723 211.008 109.387 211.008 110.129C211.008 110.887 211.168 111.562 211.488 112.156C211.816 112.742 212.262 113.211 212.824 113.562C213.387 113.906 214.02 114.078 214.723 114.078ZM225.809 116H223.406V104.281H225.504L225.598 106.508C226.004 105.734 226.562 105.133 227.273 104.703C227.992 104.266 228.816 104.047 229.746 104.047C229.973 104.047 230.199 104.062 230.426 104.094C230.66 104.117 230.895 104.156 231.129 104.211L230.824 106.379C230.371 106.262 229.926 106.203 229.488 106.203C228.762 106.203 228.121 106.379 227.566 106.73C227.012 107.074 226.578 107.551 226.266 108.16C225.961 108.77 225.809 109.473 225.809 110.27V116ZM240.234 115.707C239.414 116.059 238.621 116.234 237.855 116.234C237.09 116.234 236.418 116.07 235.84 115.742C235.27 115.414 234.82 114.953 234.492 114.359C234.172 113.758 234.012 113.066 234.012 112.285V106.426H231.961V104.281H234.129V101.352H236.414V104.281H239.836V106.426H236.414V111.84C236.414 112.527 236.598 113.074 236.965 113.48C237.34 113.879 237.82 114.078 238.406 114.078C238.898 114.078 239.387 113.93 239.871 113.633L240.234 115.707ZM252.152 116H250.078L249.938 114.5C249.508 115.047 248.965 115.473 248.309 115.777C247.652 116.082 246.926 116.234 246.129 116.234C245.293 116.234 244.547 116.07 243.891 115.742C243.234 115.414 242.719 114.965 242.344 114.395C241.969 113.824 241.781 113.176 241.781 112.449C241.781 111.684 241.984 111.012 242.391 110.434C242.797 109.848 243.352 109.391 244.055 109.062C244.758 108.727 245.559 108.559 246.457 108.559C247.02 108.559 247.59 108.625 248.168 108.758C248.754 108.891 249.281 109.078 249.75 109.32V108.887C249.75 108.316 249.602 107.828 249.305 107.422C249.016 107.008 248.617 106.691 248.109 106.473C247.609 106.254 247.055 106.145 246.445 106.145C245.906 106.145 245.355 106.238 244.793 106.426C244.238 106.613 243.715 106.902 243.223 107.293L242.496 105.336C243.207 104.914 243.945 104.594 244.711 104.375C245.484 104.156 246.242 104.047 246.984 104.047C248.047 104.047 248.961 104.258 249.727 104.68C250.5 105.102 251.098 105.703 251.52 106.484C251.941 107.258 252.152 108.172 252.152 109.227V116ZM246.598 114.195C247.152 114.195 247.664 114.082 248.133 113.855C248.602 113.621 248.98 113.293 249.27 112.871C249.566 112.441 249.727 111.941 249.75 111.371V111.207C249.352 110.91 248.902 110.68 248.402 110.516C247.91 110.344 247.406 110.258 246.891 110.258C246.102 110.258 245.445 110.445 244.922 110.82C244.398 111.195 244.137 111.676 244.137 112.262C244.137 112.629 244.242 112.961 244.453 113.258C244.672 113.547 244.965 113.777 245.332 113.949C245.707 114.113 246.129 114.195 246.598 114.195ZM266.52 116H264.117V109.637C264.117 108.598 263.832 107.77 263.262 107.152C262.699 106.535 261.941 106.227 260.988 106.227C260.004 106.227 259.211 106.555 258.609 107.211C258.008 107.867 257.707 108.738 257.707 109.824V116H255.305V104.281H257.332L257.414 106.168C257.844 105.48 258.406 104.957 259.102 104.598C259.797 104.23 260.613 104.047 261.551 104.047C263.09 104.047 264.301 104.512 265.184 105.441C266.074 106.371 266.52 107.652 266.52 109.285V116ZM276.703 115.707C275.883 116.059 275.09 116.234 274.324 116.234C273.559 116.234 272.887 116.07 272.309 115.742C271.738 115.414 271.289 114.953 270.961 114.359C270.641 113.758 270.48 113.066 270.48 112.285V106.426H268.43V104.281H270.598V101.352H272.883V104.281H276.305V106.426H272.883V111.84C272.883 112.527 273.066 113.074 273.434 113.48C273.809 113.879 274.289 114.078 274.875 114.078C275.367 114.078 275.855 113.93 276.34 113.633L276.703 115.707ZM75.2578 150.98L75.8438 148.824C76.1094 149.09 76.4258 149.324 76.793 149.527C77.168 149.73 77.5625 149.891 77.9766 150.008C78.3984 150.117 78.8125 150.172 79.2188 150.172C79.8594 150.172 80.375 150.035 80.7656 149.762C81.1562 149.488 81.3516 149.125 81.3516 148.672C81.3516 148.336 81.2422 148.059 81.0234 147.84C80.8125 147.613 80.5273 147.418 80.168 147.254C79.8164 147.09 79.4375 146.93 79.0312 146.773C78.5078 146.578 77.9844 146.352 77.4609 146.094C76.9453 145.836 76.5117 145.492 76.1602 145.062C75.8086 144.633 75.6328 144.066 75.6328 143.363C75.6328 142.691 75.8047 142.109 76.1484 141.617C76.4922 141.117 76.9727 140.73 77.5898 140.457C78.207 140.184 78.918 140.047 79.7227 140.047C80.9727 140.047 82.2109 140.359 83.4375 140.984L82.7344 143.035C82.4844 142.855 82.1875 142.695 81.8438 142.555C81.5 142.414 81.1484 142.305 80.7891 142.227C80.4297 142.141 80.0977 142.098 79.793 142.098C79.2852 142.098 78.875 142.211 78.5625 142.438C78.2578 142.664 78.1055 142.969 78.1055 143.352C78.1055 143.586 78.1797 143.801 78.3281 143.996C78.4766 144.184 78.7109 144.371 79.0312 144.559C79.3594 144.738 79.8008 144.941 80.3555 145.168C80.8867 145.379 81.418 145.621 81.9492 145.895C82.4805 146.168 82.9219 146.523 83.2734 146.961C83.6328 147.398 83.8125 147.973 83.8125 148.684C83.8125 149.387 83.625 150.008 83.25 150.547C82.875 151.078 82.3516 151.492 81.6797 151.789C81.0156 152.086 80.2422 152.234 79.3594 152.234C77.8984 152.234 76.5312 151.816 75.2578 150.98ZM93.5156 151.707C92.6953 152.059 91.9023 152.234 91.1367 152.234C90.3711 152.234 89.6992 152.07 89.1211 151.742C88.5508 151.414 88.1016 150.953 87.7734 150.359C87.4531 149.758 87.293 149.066 87.293 148.285V142.426H85.2422V140.281H87.4102V137.352H89.6953V140.281H93.1172V142.426H89.6953V147.84C89.6953 148.527 89.8789 149.074 90.2461 149.48C90.6211 149.879 91.1016 150.078 91.6875 150.078C92.1797 150.078 92.668 149.93 93.1523 149.633L93.5156 151.707ZM106.863 152H104.824L104.742 150.113C104.312 150.801 103.75 151.328 103.055 151.695C102.367 152.055 101.551 152.234 100.605 152.234C99.0742 152.234 97.8633 151.77 96.9727 150.84C96.0898 149.902 95.6484 148.621 95.6484 146.996V140.281H98.0508V146.645C98.0508 147.684 98.332 148.512 98.8945 149.129C99.457 149.746 100.215 150.055 101.168 150.055C102.152 150.055 102.945 149.727 103.547 149.07C104.156 148.406 104.461 147.535 104.461 146.457V140.281H106.863V152ZM113.555 152H111.152V142.426H109.102V140.281H111.152V137.996C111.152 137.23 111.32 136.555 111.656 135.969C112 135.375 112.469 134.91 113.062 134.574C113.664 134.238 114.355 134.07 115.137 134.07C115.621 134.07 116.109 134.137 116.602 134.27C117.094 134.402 117.578 134.609 118.055 134.891L117.141 136.777C116.883 136.59 116.613 136.453 116.332 136.367C116.059 136.273 115.785 136.227 115.512 136.227C114.941 136.227 114.473 136.43 114.105 136.836C113.738 137.242 113.555 137.785 113.555 138.465V140.281H117.141V142.426H113.555V152ZM122.18 152H119.777V142.426H117.727V140.281H119.777V137.996C119.777 137.23 119.945 136.555 120.281 135.969C120.625 135.375 121.094 134.91 121.688 134.574C122.289 134.238 122.98 134.07 123.762 134.07C124.246 134.07 124.734 134.137 125.227 134.27C125.719 134.402 126.203 134.609 126.68 134.891L125.766 136.777C125.508 136.59 125.238 136.453 124.957 136.367C124.684 136.273 124.41 136.227 124.137 136.227C123.566 136.227 123.098 136.43 122.73 136.836C122.363 137.242 122.18 137.785 122.18 138.465V140.281H125.766V142.426H122.18V152ZM134.625 152V134.422H137.027V141.91C137.895 140.668 139.211 140.047 140.977 140.047C142.5 140.047 143.691 140.508 144.551 141.43C145.41 142.352 145.84 143.637 145.84 145.285V152H143.438V145.871C143.438 144.707 143.156 143.805 142.594 143.164C142.039 142.523 141.262 142.203 140.262 142.203C139.254 142.203 138.461 142.531 137.883 143.188C137.312 143.836 137.027 144.73 137.027 145.871V152H134.625ZM158.777 152H156.703L156.562 150.5C156.133 151.047 155.59 151.473 154.934 151.777C154.277 152.082 153.551 152.234 152.754 152.234C151.918 152.234 151.172 152.07 150.516 151.742C149.859 151.414 149.344 150.965 148.969 150.395C148.594 149.824 148.406 149.176 148.406 148.449C148.406 147.684 148.609 147.012 149.016 146.434C149.422 145.848 149.977 145.391 150.68 145.062C151.383 144.727 152.184 144.559 153.082 144.559C153.645 144.559 154.215 144.625 154.793 144.758C155.379 144.891 155.906 145.078 156.375 145.32V144.887C156.375 144.316 156.227 143.828 155.93 143.422C155.641 143.008 155.242 142.691 154.734 142.473C154.234 142.254 153.68 142.145 153.07 142.145C152.531 142.145 151.98 142.238 151.418 142.426C150.863 142.613 150.34 142.902 149.848 143.293L149.121 141.336C149.832 140.914 150.57 140.594 151.336 140.375C152.109 140.156 152.867 140.047 153.609 140.047C154.672 140.047 155.586 140.258 156.352 140.68C157.125 141.102 157.723 141.703 158.145 142.484C158.566 143.258 158.777 144.172 158.777 145.227V152ZM153.223 150.195C153.777 150.195 154.289 150.082 154.758 149.855C155.227 149.621 155.605 149.293 155.895 148.871C156.191 148.441 156.352 147.941 156.375 147.371V147.207C155.977 146.91 155.527 146.68 155.027 146.516C154.535 146.344 154.031 146.258 153.516 146.258C152.727 146.258 152.07 146.445 151.547 146.82C151.023 147.195 150.762 147.676 150.762 148.262C150.762 148.629 150.867 148.961 151.078 149.258C151.297 149.547 151.59 149.777 151.957 149.949C152.332 150.113 152.754 150.195 153.223 150.195ZM164.332 157.859H161.93V140.281H164.051L164.18 141.957C164.711 141.363 165.348 140.898 166.09 140.562C166.84 140.219 167.66 140.047 168.551 140.047C169.676 140.047 170.68 140.312 171.562 140.844C172.453 141.375 173.152 142.102 173.66 143.023C174.176 143.938 174.434 144.977 174.434 146.141C174.434 147.297 174.176 148.336 173.66 149.258C173.152 150.18 172.453 150.906 171.562 151.438C170.68 151.969 169.676 152.234 168.551 152.234C167.707 152.234 166.926 152.082 166.207 151.777C165.488 151.473 164.863 151.047 164.332 150.5V157.859ZM168.164 150.055C168.906 150.055 169.562 149.887 170.133 149.551C170.703 149.215 171.148 148.754 171.469 148.168C171.797 147.574 171.961 146.895 171.961 146.129C171.961 145.363 171.797 144.688 171.469 144.102C171.148 143.508 170.703 143.043 170.133 142.707C169.562 142.371 168.91 142.203 168.176 142.203C167.48 142.203 166.852 142.359 166.289 142.672C165.734 142.977 165.281 143.398 164.93 143.938C164.586 144.477 164.387 145.09 164.332 145.777V146.504C164.387 147.191 164.582 147.805 164.918 148.344C165.262 148.875 165.711 149.293 166.266 149.598C166.828 149.902 167.461 150.055 168.164 150.055ZM179.355 157.859H176.953V140.281H179.074L179.203 141.957C179.734 141.363 180.371 140.898 181.113 140.562C181.863 140.219 182.684 140.047 183.574 140.047C184.699 140.047 185.703 140.312 186.586 140.844C187.477 141.375 188.176 142.102 188.684 143.023C189.199 143.938 189.457 144.977 189.457 146.141C189.457 147.297 189.199 148.336 188.684 149.258C188.176 150.18 187.477 150.906 186.586 151.438C185.703 151.969 184.699 152.234 183.574 152.234C182.73 152.234 181.949 152.082 181.23 151.777C180.512 151.473 179.887 151.047 179.355 150.5V157.859ZM183.188 150.055C183.93 150.055 184.586 149.887 185.156 149.551C185.727 149.215 186.172 148.754 186.492 148.168C186.82 147.574 186.984 146.895 186.984 146.129C186.984 145.363 186.82 144.688 186.492 144.102C186.172 143.508 185.727 143.043 185.156 142.707C184.586 142.371 183.934 142.203 183.199 142.203C182.504 142.203 181.875 142.359 181.312 142.672C180.758 142.977 180.305 143.398 179.953 143.938C179.609 144.477 179.41 145.09 179.355 145.777V146.504C179.41 147.191 179.605 147.805 179.941 148.344C180.285 148.875 180.734 149.293 181.289 149.598C181.852 149.902 182.484 150.055 183.188 150.055ZM202.43 150.605C200.977 151.691 199.379 152.234 197.637 152.234C196.395 152.234 195.281 151.961 194.297 151.414C193.312 150.867 192.535 150.121 191.965 149.176C191.395 148.23 191.109 147.164 191.109 145.977C191.109 144.844 191.371 143.832 191.895 142.941C192.418 142.043 193.133 141.336 194.039 140.82C194.945 140.305 195.973 140.047 197.121 140.047C198.309 140.047 199.352 140.328 200.25 140.891C201.156 141.453 201.859 142.238 202.359 143.246C202.867 144.246 203.121 145.406 203.121 146.727V147.102H193.711C193.852 147.711 194.117 148.246 194.508 148.707C194.898 149.16 195.383 149.516 195.961 149.773C196.539 150.023 197.191 150.148 197.918 150.148C199.215 150.148 200.406 149.727 201.492 148.883L202.43 150.605ZM193.605 145.438H200.883C200.805 144.781 200.602 144.211 200.273 143.727C199.945 143.234 199.52 142.852 198.996 142.578C198.48 142.297 197.898 142.156 197.25 142.156C196.594 142.156 196.004 142.297 195.48 142.578C194.957 142.852 194.531 143.234 194.203 143.727C193.883 144.219 193.684 144.789 193.605 145.438ZM216.855 152H214.453V145.637C214.453 144.598 214.168 143.77 213.598 143.152C213.035 142.535 212.277 142.227 211.324 142.227C210.34 142.227 209.547 142.555 208.945 143.211C208.344 143.867 208.043 144.738 208.043 145.824V152H205.641V140.281H207.668L207.75 142.168C208.18 141.48 208.742 140.957 209.438 140.598C210.133 140.23 210.949 140.047 211.887 140.047C213.426 140.047 214.637 140.512 215.52 141.441C216.41 142.371 216.855 143.652 216.855 145.285V152ZM219.188 150.98L219.773 148.824C220.039 149.09 220.355 149.324 220.723 149.527C221.098 149.73 221.492 149.891 221.906 150.008C222.328 150.117 222.742 150.172 223.148 150.172C223.789 150.172 224.305 150.035 224.695 149.762C225.086 149.488 225.281 149.125 225.281 148.672C225.281 148.336 225.172 148.059 224.953 147.84C224.742 147.613 224.457 147.418 224.098 147.254C223.746 147.09 223.367 146.93 222.961 146.773C222.438 146.578 221.914 146.352 221.391 146.094C220.875 145.836 220.441 145.492 220.09 145.062C219.738 144.633 219.562 144.066 219.562 143.363C219.562 142.691 219.734 142.109 220.078 141.617C220.422 141.117 220.902 140.73 221.52 140.457C222.137 140.184 222.848 140.047 223.652 140.047C224.902 140.047 226.141 140.359 227.367 140.984L226.664 143.035C226.414 142.855 226.117 142.695 225.773 142.555C225.43 142.414 225.078 142.305 224.719 142.227C224.359 142.141 224.027 142.098 223.723 142.098C223.215 142.098 222.805 142.211 222.492 142.438C222.188 142.664 222.035 142.969 222.035 143.352C222.035 143.586 222.109 143.801 222.258 143.996C222.406 144.184 222.641 144.371 222.961 144.559C223.289 144.738 223.73 144.941 224.285 145.168C224.816 145.379 225.348 145.621 225.879 145.895C226.41 146.168 226.852 146.523 227.203 146.961C227.562 147.398 227.742 147.973 227.742 148.684C227.742 149.387 227.555 150.008 227.18 150.547C226.805 151.078 226.281 151.492 225.609 151.789C224.945 152.086 224.172 152.234 223.289 152.234C221.828 152.234 220.461 151.816 219.188 150.98Z" fill="#F7FFF7"/>
<path d="M24.4297 183.5C23.8932 184.042 23.2526 184.466 22.5078 184.773C21.763 185.081 20.9505 185.234 20.0703 185.234C19.1901 185.234 18.3776 185.083 17.6328 184.781C16.8932 184.479 16.25 184.055 15.7031 183.508C15.1562 182.956 14.7318 182.31 14.4297 181.57C14.1276 180.826 13.9766 180.016 13.9766 179.141C13.9766 178.26 14.1276 177.451 14.4297 176.711C14.7318 175.966 15.1562 175.32 15.7031 174.773C16.25 174.227 16.8932 173.802 17.6328 173.5C18.3776 173.198 19.1901 173.047 20.0703 173.047C20.9453 173.047 21.7552 173.201 22.5 173.508C23.2448 173.81 23.8854 174.232 24.4219 174.773L23.4609 175.75C23.0443 175.286 22.5443 174.924 21.9609 174.664C21.3776 174.398 20.7396 174.266 20.0469 174.266C19.375 174.266 18.7552 174.388 18.1875 174.633C17.6198 174.872 17.125 175.214 16.7031 175.656C16.2865 176.094 15.9609 176.609 15.7266 177.203C15.4974 177.797 15.3828 178.443 15.3828 179.141C15.3828 179.844 15.4974 180.492 15.7266 181.086C15.9609 181.674 16.2865 182.19 16.7031 182.633C17.125 183.07 17.6198 183.411 18.1875 183.656C18.7552 183.896 19.375 184.016 20.0469 184.016C20.7396 184.016 21.3776 183.885 21.9609 183.625C22.5443 183.359 23.0443 182.995 23.4609 182.531L24.4297 183.5ZM26.4609 185V173.281H27.7422V178.359C28.3307 177.474 29.2422 177.031 30.4766 177.031C31.513 177.031 32.3203 177.341 32.8984 177.961C33.4818 178.576 33.7734 179.435 33.7734 180.539V185H32.4922V180.836C32.4922 179.997 32.2839 179.346 31.8672 178.883C31.4557 178.414 30.8802 178.18 30.1406 178.18C29.3958 178.18 28.8099 178.417 28.3828 178.891C27.9557 179.365 27.7422 180.013 27.7422 180.836V185H26.4609ZM42.3438 185H41.2422L41.1562 183.969C40.8698 184.339 40.5052 184.63 40.0625 184.844C39.6198 185.052 39.125 185.156 38.5781 185.156C38.0156 185.156 37.513 185.047 37.0703 184.828C36.6276 184.604 36.2786 184.299 36.0234 183.914C35.7734 183.529 35.6484 183.091 35.6484 182.602C35.6484 182.086 35.7839 181.633 36.0547 181.242C36.3307 180.846 36.7031 180.536 37.1719 180.312C37.6458 180.089 38.1823 179.977 38.7812 179.977C39.1719 179.977 39.5703 180.026 39.9766 180.125C40.3828 180.219 40.7448 180.349 41.0625 180.516V180.188C41.0625 179.771 40.9583 179.417 40.75 179.125C40.5417 178.828 40.263 178.602 39.9141 178.445C39.5651 178.284 39.1797 178.203 38.7578 178.203C38.3932 178.203 38.0208 178.271 37.6406 178.406C37.2604 178.536 36.8958 178.74 36.5469 179.016L36.125 177.914C36.5781 177.622 37.0547 177.404 37.5547 177.258C38.0547 177.107 38.5495 177.031 39.0391 177.031C39.7161 177.031 40.2995 177.169 40.7891 177.445C41.2839 177.716 41.6667 178.104 41.9375 178.609C42.2083 179.109 42.3438 179.703 42.3438 180.391V185ZM38.8047 183.984C39.2057 183.984 39.5729 183.901 39.9062 183.734C40.2396 183.568 40.5104 183.328 40.7188 183.016C40.9271 182.698 41.0417 182.323 41.0625 181.891V181.758C40.776 181.534 40.4531 181.362 40.0938 181.242C39.7396 181.117 39.3776 181.055 39.0078 181.055C38.4297 181.055 37.9453 181.195 37.5547 181.477C37.1693 181.758 36.9766 182.115 36.9766 182.547C36.9766 182.818 37.0547 183.062 37.2109 183.281C37.3724 183.5 37.5911 183.672 37.8672 183.797C38.1432 183.922 38.4557 183.984 38.8047 183.984ZM51.9297 185H50.6484V180.641C50.6484 179.901 50.4375 179.31 50.0156 178.867C49.5938 178.424 49.0339 178.203 48.3359 178.203C47.612 178.203 47.0234 178.443 46.5703 178.922C46.1224 179.396 45.8984 180.021 45.8984 180.797V185H44.6172V177.188H45.7344L45.7812 178.453C46.0677 177.995 46.4453 177.643 46.9141 177.398C47.3828 177.154 47.9349 177.031 48.5703 177.031C49.6068 177.031 50.4245 177.344 51.0234 177.969C51.6276 178.594 51.9297 179.451 51.9297 180.539V185ZM57.5156 185C56.7656 185 56.0911 184.826 55.4922 184.477C54.8984 184.128 54.4297 183.654 54.0859 183.055C53.7422 182.451 53.5703 181.771 53.5703 181.016C53.5703 180.255 53.7422 179.576 54.0859 178.977C54.4297 178.378 54.8984 177.904 55.4922 177.555C56.0911 177.206 56.7682 177.031 57.5234 177.031C58.1276 177.031 58.6823 177.146 59.1875 177.375C59.6927 177.599 60.1224 177.911 60.4766 178.312L60.5391 177.188H61.6719V184.797C61.6719 185.672 61.5 186.427 61.1562 187.062C60.8125 187.703 60.3229 188.195 59.6875 188.539C59.0521 188.888 58.2969 189.062 57.4219 189.062C56.1823 189.062 55.1042 188.651 54.1875 187.828L54.75 186.797C55.4635 187.536 56.3359 187.906 57.3672 187.906C57.987 187.906 58.5208 187.776 58.9688 187.516C59.4219 187.26 59.7708 186.898 60.0156 186.43C60.2656 185.961 60.3906 185.406 60.3906 184.766V183.805C60.0365 184.174 59.612 184.466 59.1172 184.68C58.6276 184.893 58.0938 185 57.5156 185ZM57.625 183.867C58.1354 183.867 58.599 183.753 59.0156 183.523C59.4323 183.289 59.7656 182.971 60.0156 182.57C60.2656 182.164 60.3906 181.706 60.3906 181.195V180.836C60.3906 180.32 60.2656 179.862 60.0156 179.461C59.7656 179.06 59.4323 178.745 59.0156 178.516C58.599 178.281 58.1354 178.164 57.625 178.164C57.099 178.164 56.6276 178.289 56.2109 178.539C55.7943 178.789 55.4635 179.13 55.2188 179.562C54.9792 179.99 54.8594 180.474 54.8594 181.016C54.8594 181.557 54.9792 182.044 55.2188 182.477C55.4635 182.909 55.7943 183.25 56.2109 183.5C56.6276 183.745 57.099 183.867 57.625 183.867ZM64.6953 174.719C64.4766 174.719 64.2917 174.643 64.1406 174.492C63.9948 174.336 63.9219 174.148 63.9219 173.93C63.9219 173.716 63.9948 173.534 64.1406 173.383C64.2917 173.232 64.4766 173.156 64.6953 173.156C64.9193 173.156 65.1068 173.232 65.2578 173.383C65.4089 173.534 65.4844 173.716 65.4844 173.93C65.4844 174.148 65.4089 174.336 65.2578 174.492C65.1068 174.643 64.9193 174.719 64.6953 174.719ZM65.3359 185H64.0547V177.188H65.3359V185ZM75.1172 185H73.8359V180.641C73.8359 179.901 73.625 179.31 73.2031 178.867C72.7812 178.424 72.2214 178.203 71.5234 178.203C70.7995 178.203 70.2109 178.443 69.7578 178.922C69.3099 179.396 69.0859 180.021 69.0859 180.797V185H67.8047V177.188H68.9219L68.9688 178.453C69.2552 177.995 69.6328 177.643 70.1016 177.398C70.5703 177.154 71.1224 177.031 71.7578 177.031C72.7943 177.031 73.612 177.344 74.2109 177.969C74.8151 178.594 75.1172 179.451 75.1172 180.539V185ZM80.7031 185C79.9531 185 79.2786 184.826 78.6797 184.477C78.0859 184.128 77.6172 183.654 77.2734 183.055C76.9297 182.451 76.7578 181.771 76.7578 181.016C76.7578 180.255 76.9297 179.576 77.2734 178.977C77.6172 178.378 78.0859 177.904 78.6797 177.555C79.2786 177.206 79.9557 177.031 80.7109 177.031C81.3151 177.031 81.8698 177.146 82.375 177.375C82.8802 177.599 83.3099 177.911 83.6641 178.312L83.7266 177.188H84.8594V184.797C84.8594 185.672 84.6875 186.427 84.3438 187.062C84 187.703 83.5104 188.195 82.875 188.539C82.2396 188.888 81.4844 189.062 80.6094 189.062C79.3698 189.062 78.2917 188.651 77.375 187.828L77.9375 186.797C78.651 187.536 79.5234 187.906 80.5547 187.906C81.1745 187.906 81.7083 187.776 82.1562 187.516C82.6094 187.26 82.9583 186.898 83.2031 186.43C83.4531 185.961 83.5781 185.406 83.5781 184.766V183.805C83.224 184.174 82.7995 184.466 82.3047 184.68C81.8151 184.893 81.2812 185 80.7031 185ZM80.8125 183.867C81.3229 183.867 81.7865 183.753 82.2031 183.523C82.6198 183.289 82.9531 182.971 83.2031 182.57C83.4531 182.164 83.5781 181.706 83.5781 181.195V180.836C83.5781 180.32 83.4531 179.862 83.2031 179.461C82.9531 179.06 82.6198 178.745 82.2031 178.516C81.7865 178.281 81.3229 178.164 80.8125 178.164C80.2865 178.164 79.8151 178.289 79.3984 178.539C78.9818 178.789 78.651 179.13 78.4062 179.562C78.1667 179.99 78.0469 180.474 78.0469 181.016C78.0469 181.557 78.1667 182.044 78.4062 182.477C78.651 182.909 78.9818 183.25 79.3984 183.5C79.8151 183.745 80.2865 183.867 80.8125 183.867ZM93.8281 188.906H92.4297L94.0703 184.938L90.3359 177.188H91.75L94.6875 183.461L97.2812 177.188H98.6719L93.8281 188.906ZM103.555 185.156C102.779 185.156 102.081 184.979 101.461 184.625C100.841 184.271 100.352 183.789 99.9922 183.18C99.638 182.565 99.4609 181.87 99.4609 181.094C99.4609 180.323 99.638 179.633 99.9922 179.023C100.352 178.409 100.841 177.924 101.461 177.57C102.081 177.211 102.779 177.031 103.555 177.031C104.331 177.031 105.026 177.211 105.641 177.57C106.255 177.924 106.74 178.409 107.094 179.023C107.448 179.633 107.625 180.323 107.625 181.094C107.625 181.87 107.448 182.565 107.094 183.18C106.74 183.789 106.255 184.271 105.641 184.625C105.026 184.979 104.331 185.156 103.555 185.156ZM103.547 184C104.073 184 104.544 183.872 104.961 183.617C105.378 183.362 105.706 183.016 105.945 182.578C106.19 182.141 106.312 181.643 106.312 181.086C106.312 180.539 106.19 180.047 105.945 179.609C105.706 179.172 105.378 178.826 104.961 178.57C104.544 178.315 104.073 178.188 103.547 178.188C103.021 178.188 102.547 178.315 102.125 178.57C101.708 178.826 101.378 179.172 101.133 179.609C100.893 180.047 100.773 180.539 100.773 181.086C100.773 181.643 100.893 182.141 101.133 182.578C101.378 183.016 101.708 183.362 102.125 183.617C102.547 183.872 103.021 184 103.547 184ZM116.586 185H115.461L115.414 183.734C115.128 184.193 114.75 184.544 114.281 184.789C113.818 185.034 113.268 185.156 112.633 185.156C111.596 185.156 110.776 184.844 110.172 184.219C109.573 183.589 109.273 182.729 109.273 181.641V177.188H110.555V181.547C110.555 182.286 110.763 182.878 111.18 183.32C111.602 183.763 112.161 183.984 112.859 183.984C113.589 183.984 114.177 183.745 114.625 183.266C115.078 182.786 115.305 182.161 115.305 181.391V177.188H116.586V185ZM120.289 185H119.008V177.188H120.133L120.188 178.734C120.458 178.198 120.839 177.781 121.328 177.484C121.823 177.182 122.391 177.031 123.031 177.031C123.172 177.031 123.315 177.039 123.461 177.055C123.607 177.07 123.753 177.094 123.898 177.125L123.742 178.281C123.456 178.214 123.172 178.18 122.891 178.18C122.38 178.18 121.927 178.305 121.531 178.555C121.141 178.805 120.836 179.148 120.617 179.586C120.398 180.023 120.289 180.526 120.289 181.094V185ZM130.273 185H129.133V173.281H130.414V178.242C130.779 177.862 131.211 177.565 131.711 177.352C132.211 177.138 132.755 177.031 133.344 177.031C134.115 177.031 134.802 177.208 135.406 177.562C136.01 177.917 136.487 178.401 136.836 179.016C137.19 179.625 137.367 180.318 137.367 181.094C137.367 181.865 137.19 182.557 136.836 183.172C136.487 183.786 136.01 184.271 135.406 184.625C134.802 184.979 134.115 185.156 133.344 185.156C132.729 185.156 132.164 185.042 131.648 184.812C131.138 184.578 130.701 184.26 130.336 183.859L130.273 185ZM133.234 184C133.771 184 134.25 183.875 134.672 183.625C135.099 183.37 135.435 183.023 135.68 182.586C135.93 182.148 136.055 181.654 136.055 181.102C136.055 180.544 135.93 180.047 135.68 179.609C135.435 179.167 135.099 178.818 134.672 178.562C134.25 178.307 133.771 178.18 133.234 178.18C132.724 178.18 132.26 178.297 131.844 178.531C131.432 178.766 131.099 179.086 130.844 179.492C130.594 179.898 130.451 180.359 130.414 180.875V181.305C130.451 181.82 130.594 182.281 130.844 182.688C131.094 183.094 131.424 183.414 131.836 183.648C132.253 183.883 132.719 184 133.234 184ZM146.016 184.039C145.047 184.784 143.979 185.156 142.812 185.156C142 185.156 141.271 184.974 140.625 184.609C139.979 184.245 139.469 183.75 139.094 183.125C138.724 182.495 138.539 181.784 138.539 180.992C138.539 180.232 138.711 179.555 139.055 178.961C139.398 178.362 139.87 177.891 140.469 177.547C141.068 177.203 141.747 177.031 142.508 177.031C143.289 177.031 143.977 177.219 144.57 177.594C145.169 177.969 145.635 178.49 145.969 179.156C146.302 179.823 146.469 180.594 146.469 181.469V181.719H139.93C140.023 182.177 140.211 182.576 140.492 182.914C140.779 183.253 141.133 183.516 141.555 183.703C141.977 183.891 142.448 183.984 142.969 183.984C143.865 183.984 144.682 183.69 145.422 183.102L146.016 184.039ZM139.883 180.625H145.258C145.201 180.141 145.049 179.719 144.805 179.359C144.565 178.995 144.253 178.711 143.867 178.508C143.487 178.305 143.057 178.203 142.578 178.203C142.094 178.203 141.656 178.305 141.266 178.508C140.88 178.711 140.565 178.995 140.32 179.359C140.081 179.719 139.935 180.141 139.883 180.625ZM148.273 185V173.281H149.555V178.359C150.143 177.474 151.055 177.031 152.289 177.031C153.326 177.031 154.133 177.341 154.711 177.961C155.294 178.576 155.586 179.435 155.586 180.539V185H154.305V180.836C154.305 179.997 154.096 179.346 153.68 178.883C153.268 178.414 152.693 178.18 151.953 178.18C151.208 178.18 150.622 178.417 150.195 178.891C149.768 179.365 149.555 180.013 149.555 180.836V185H148.273ZM164.156 185H163.055L162.969 183.969C162.682 184.339 162.318 184.63 161.875 184.844C161.432 185.052 160.938 185.156 160.391 185.156C159.828 185.156 159.326 185.047 158.883 184.828C158.44 184.604 158.091 184.299 157.836 183.914C157.586 183.529 157.461 183.091 157.461 182.602C157.461 182.086 157.596 181.633 157.867 181.242C158.143 180.846 158.516 180.536 158.984 180.312C159.458 180.089 159.995 179.977 160.594 179.977C160.984 179.977 161.383 180.026 161.789 180.125C162.195 180.219 162.557 180.349 162.875 180.516V180.188C162.875 179.771 162.771 179.417 162.562 179.125C162.354 178.828 162.076 178.602 161.727 178.445C161.378 178.284 160.992 178.203 160.57 178.203C160.206 178.203 159.833 178.271 159.453 178.406C159.073 178.536 158.708 178.74 158.359 179.016L157.938 177.914C158.391 177.622 158.867 177.404 159.367 177.258C159.867 177.107 160.362 177.031 160.852 177.031C161.529 177.031 162.112 177.169 162.602 177.445C163.096 177.716 163.479 178.104 163.75 178.609C164.021 179.109 164.156 179.703 164.156 180.391V185ZM160.617 183.984C161.018 183.984 161.385 183.901 161.719 183.734C162.052 183.568 162.323 183.328 162.531 183.016C162.74 182.698 162.854 182.323 162.875 181.891V181.758C162.589 181.534 162.266 181.362 161.906 181.242C161.552 181.117 161.19 181.055 160.82 181.055C160.242 181.055 159.758 181.195 159.367 181.477C158.982 181.758 158.789 182.115 158.789 182.547C158.789 182.818 158.867 183.062 159.023 183.281C159.185 183.5 159.404 183.672 159.68 183.797C159.956 183.922 160.268 183.984 160.617 183.984ZM173.383 177.188L170.094 185H168.852L165.57 177.188H166.953L169.484 183.656L172.023 177.188H173.383ZM175.852 174.719C175.633 174.719 175.448 174.643 175.297 174.492C175.151 174.336 175.078 174.148 175.078 173.93C175.078 173.716 175.151 173.534 175.297 173.383C175.448 173.232 175.633 173.156 175.852 173.156C176.076 173.156 176.263 173.232 176.414 173.383C176.565 173.534 176.641 173.716 176.641 173.93C176.641 174.148 176.565 174.336 176.414 174.492C176.263 174.643 176.076 174.719 175.852 174.719ZM176.492 185H175.211V177.188H176.492V185ZM182.43 185.156C181.654 185.156 180.956 184.979 180.336 184.625C179.716 184.271 179.227 183.789 178.867 183.18C178.513 182.565 178.336 181.87 178.336 181.094C178.336 180.323 178.513 179.633 178.867 179.023C179.227 178.409 179.716 177.924 180.336 177.57C180.956 177.211 181.654 177.031 182.43 177.031C183.206 177.031 183.901 177.211 184.516 177.57C185.13 177.924 185.615 178.409 185.969 179.023C186.323 179.633 186.5 180.323 186.5 181.094C186.5 181.87 186.323 182.565 185.969 183.18C185.615 183.789 185.13 184.271 184.516 184.625C183.901 184.979 183.206 185.156 182.43 185.156ZM182.422 184C182.948 184 183.419 183.872 183.836 183.617C184.253 183.362 184.581 183.016 184.82 182.578C185.065 182.141 185.188 181.643 185.188 181.086C185.188 180.539 185.065 180.047 184.82 179.609C184.581 179.172 184.253 178.826 183.836 178.57C183.419 178.315 182.948 178.188 182.422 178.188C181.896 178.188 181.422 178.315 181 178.57C180.583 178.826 180.253 179.172 180.008 179.609C179.768 180.047 179.648 180.539 179.648 181.086C179.648 181.643 179.768 182.141 180.008 182.578C180.253 183.016 180.583 183.362 181 183.617C181.422 183.872 181.896 184 182.422 184ZM189.586 185H188.305V177.188H189.43L189.484 178.734C189.755 178.198 190.135 177.781 190.625 177.484C191.12 177.182 191.688 177.031 192.328 177.031C192.469 177.031 192.612 177.039 192.758 177.055C192.904 177.07 193.049 177.094 193.195 177.125L193.039 178.281C192.753 178.214 192.469 178.18 192.188 178.18C191.677 178.18 191.224 178.305 190.828 178.555C190.438 178.805 190.133 179.148 189.914 179.586C189.695 180.023 189.586 180.526 189.586 181.094V185ZM199.102 174.719C198.883 174.719 198.698 174.643 198.547 174.492C198.401 174.336 198.328 174.148 198.328 173.93C198.328 173.716 198.401 173.534 198.547 173.383C198.698 173.232 198.883 173.156 199.102 173.156C199.326 173.156 199.513 173.232 199.664 173.383C199.815 173.534 199.891 173.716 199.891 173.93C199.891 174.148 199.815 174.336 199.664 174.492C199.513 174.643 199.326 174.719 199.102 174.719ZM199.742 185H198.461V177.188H199.742V185ZM201.664 184.32L202 183.117C202.188 183.294 202.401 183.448 202.641 183.578C202.88 183.708 203.133 183.81 203.398 183.883C203.664 183.951 203.932 183.984 204.203 183.984C204.688 183.984 205.078 183.878 205.375 183.664C205.672 183.451 205.82 183.172 205.82 182.828C205.82 182.578 205.742 182.372 205.586 182.211C205.435 182.044 205.234 181.901 204.984 181.781C204.734 181.661 204.466 181.547 204.18 181.438C203.831 181.302 203.484 181.148 203.141 180.977C202.797 180.805 202.51 180.578 202.281 180.297C202.057 180.016 201.945 179.646 201.945 179.188C201.945 178.75 202.055 178.37 202.273 178.047C202.492 177.724 202.797 177.474 203.188 177.297C203.583 177.12 204.036 177.031 204.547 177.031C205.318 177.031 206.076 177.224 206.82 177.609L206.438 178.766C206.271 178.656 206.078 178.56 205.859 178.477C205.641 178.388 205.417 178.32 205.188 178.273C204.958 178.227 204.742 178.203 204.539 178.203C204.159 178.203 203.852 178.292 203.617 178.469C203.383 178.641 203.266 178.872 203.266 179.164C203.266 179.331 203.312 179.484 203.406 179.625C203.505 179.76 203.669 179.896 203.898 180.031C204.128 180.167 204.445 180.318 204.852 180.484C205.211 180.63 205.565 180.797 205.914 180.984C206.263 181.167 206.552 181.404 206.781 181.695C207.016 181.982 207.133 182.357 207.133 182.82C207.133 183.279 207.01 183.685 206.766 184.039C206.526 184.388 206.19 184.661 205.758 184.859C205.331 185.057 204.836 185.156 204.273 185.156C203.341 185.156 202.471 184.878 201.664 184.32ZM219.766 184.039C218.797 184.784 217.729 185.156 216.562 185.156C215.75 185.156 215.021 184.974 214.375 184.609C213.729 184.245 213.219 183.75 212.844 183.125C212.474 182.495 212.289 181.784 212.289 180.992C212.289 180.232 212.461 179.555 212.805 178.961C213.148 178.362 213.62 177.891 214.219 177.547C214.818 177.203 215.497 177.031 216.258 177.031C217.039 177.031 217.727 177.219 218.32 177.594C218.919 177.969 219.385 178.49 219.719 179.156C220.052 179.823 220.219 180.594 220.219 181.469V181.719H213.68C213.773 182.177 213.961 182.576 214.242 182.914C214.529 183.253 214.883 183.516 215.305 183.703C215.727 183.891 216.198 183.984 216.719 183.984C217.615 183.984 218.432 183.69 219.172 183.102L219.766 184.039ZM213.633 180.625H219.008C218.951 180.141 218.799 179.719 218.555 179.359C218.315 178.995 218.003 178.711 217.617 178.508C217.237 178.305 216.807 178.203 216.328 178.203C215.844 178.203 215.406 178.305 215.016 178.508C214.63 178.711 214.315 178.995 214.07 179.359C213.831 179.719 213.685 180.141 213.633 180.625ZM228.328 185H227.227L227.141 183.969C226.854 184.339 226.49 184.63 226.047 184.844C225.604 185.052 225.109 185.156 224.562 185.156C224 185.156 223.497 185.047 223.055 184.828C222.612 184.604 222.263 184.299 222.008 183.914C221.758 183.529 221.633 183.091 221.633 182.602C221.633 182.086 221.768 181.633 222.039 181.242C222.315 180.846 222.688 180.536 223.156 180.312C223.63 180.089 224.167 179.977 224.766 179.977C225.156 179.977 225.555 180.026 225.961 180.125C226.367 180.219 226.729 180.349 227.047 180.516V180.188C227.047 179.771 226.943 179.417 226.734 179.125C226.526 178.828 226.247 178.602 225.898 178.445C225.549 178.284 225.164 178.203 224.742 178.203C224.378 178.203 224.005 178.271 223.625 178.406C223.245 178.536 222.88 178.74 222.531 179.016L222.109 177.914C222.562 177.622 223.039 177.404 223.539 177.258C224.039 177.107 224.534 177.031 225.023 177.031C225.701 177.031 226.284 177.169 226.773 177.445C227.268 177.716 227.651 178.104 227.922 178.609C228.193 179.109 228.328 179.703 228.328 180.391V185ZM224.789 183.984C225.19 183.984 225.557 183.901 225.891 183.734C226.224 183.568 226.495 183.328 226.703 183.016C226.911 182.698 227.026 182.323 227.047 181.891V181.758C226.76 181.534 226.438 181.362 226.078 181.242C225.724 181.117 225.362 181.055 224.992 181.055C224.414 181.055 223.93 181.195 223.539 181.477C223.154 181.758 222.961 182.115 222.961 182.547C222.961 182.818 223.039 183.062 223.195 183.281C223.357 183.5 223.576 183.672 223.852 183.797C224.128 183.922 224.44 183.984 224.789 183.984ZM230.055 184.32L230.391 183.117C230.578 183.294 230.792 183.448 231.031 183.578C231.271 183.708 231.523 183.81 231.789 183.883C232.055 183.951 232.323 183.984 232.594 183.984C233.078 183.984 233.469 183.878 233.766 183.664C234.062 183.451 234.211 183.172 234.211 182.828C234.211 182.578 234.133 182.372 233.977 182.211C233.826 182.044 233.625 181.901 233.375 181.781C233.125 181.661 232.857 181.547 232.57 181.438C232.221 181.302 231.875 181.148 231.531 180.977C231.188 180.805 230.901 180.578 230.672 180.297C230.448 180.016 230.336 179.646 230.336 179.188C230.336 178.75 230.445 178.37 230.664 178.047C230.883 177.724 231.188 177.474 231.578 177.297C231.974 177.12 232.427 177.031 232.938 177.031C233.708 177.031 234.466 177.224 235.211 177.609L234.828 178.766C234.661 178.656 234.469 178.56 234.25 178.477C234.031 178.388 233.807 178.32 233.578 178.273C233.349 178.227 233.133 178.203 232.93 178.203C232.549 178.203 232.242 178.292 232.008 178.469C231.773 178.641 231.656 178.872 231.656 179.164C231.656 179.331 231.703 179.484 231.797 179.625C231.896 179.76 232.06 179.896 232.289 180.031C232.518 180.167 232.836 180.318 233.242 180.484C233.602 180.63 233.956 180.797 234.305 180.984C234.654 181.167 234.943 181.404 235.172 181.695C235.406 181.982 235.523 182.357 235.523 182.82C235.523 183.279 235.401 183.685 235.156 184.039C234.917 184.388 234.581 184.661 234.148 184.859C233.721 185.057 233.227 185.156 232.664 185.156C231.732 185.156 230.862 184.878 230.055 184.32ZM239.875 188.906H238.477L240.117 184.938L236.383 177.188H237.797L240.734 183.461L243.328 177.188H244.719L239.875 188.906ZM258.484 185H257L255.234 179.031L253.469 185H251.984L249.492 177.188H250.852L252.719 183.438L254.633 177.188H255.836L257.75 183.438L259.625 177.188H260.984L258.484 185ZM262.633 185V173.281H263.914V178.359C264.503 177.474 265.414 177.031 266.648 177.031C267.685 177.031 268.492 177.341 269.07 177.961C269.654 178.576 269.945 179.435 269.945 180.539V185H268.664V180.836C268.664 179.997 268.456 179.346 268.039 178.883C267.628 178.414 267.052 178.18 266.312 178.18C265.568 178.18 264.982 178.417 264.555 178.891C264.128 179.365 263.914 180.013 263.914 180.836V185H262.633ZM279.062 184.039C278.094 184.784 277.026 185.156 275.859 185.156C275.047 185.156 274.318 184.974 273.672 184.609C273.026 184.245 272.516 183.75 272.141 183.125C271.771 182.495 271.586 181.784 271.586 180.992C271.586 180.232 271.758 179.555 272.102 178.961C272.445 178.362 272.917 177.891 273.516 177.547C274.115 177.203 274.794 177.031 275.555 177.031C276.336 177.031 277.023 177.219 277.617 177.594C278.216 177.969 278.682 178.49 279.016 179.156C279.349 179.823 279.516 180.594 279.516 181.469V181.719H272.977C273.07 182.177 273.258 182.576 273.539 182.914C273.826 183.253 274.18 183.516 274.602 183.703C275.023 183.891 275.495 183.984 276.016 183.984C276.911 183.984 277.729 183.69 278.469 183.102L279.062 184.039ZM272.93 180.625H278.305C278.247 180.141 278.096 179.719 277.852 179.359C277.612 178.995 277.299 178.711 276.914 178.508C276.534 178.305 276.104 178.203 275.625 178.203C275.141 178.203 274.703 178.305 274.312 178.508C273.927 178.711 273.612 178.995 273.367 179.359C273.128 179.719 272.982 180.141 272.93 180.625ZM288.633 185H287.352V180.641C287.352 179.901 287.141 179.31 286.719 178.867C286.297 178.424 285.737 178.203 285.039 178.203C284.315 178.203 283.727 178.443 283.273 178.922C282.826 179.396 282.602 180.021 282.602 180.797V185H281.32V177.188H282.438L282.484 178.453C282.771 177.995 283.148 177.643 283.617 177.398C284.086 177.154 284.638 177.031 285.273 177.031C286.31 177.031 287.128 177.344 287.727 177.969C288.331 178.594 288.633 179.451 288.633 180.539V185ZM14.6172 208.906H13.2188L14.8594 204.938L11.125 197.188H12.5391L15.4766 203.461L18.0703 197.188H19.4609L14.6172 208.906ZM24.3438 205.156C23.5677 205.156 22.8698 204.979 22.25 204.625C21.6302 204.271 21.1406 203.789 20.7812 203.18C20.4271 202.565 20.25 201.87 20.25 201.094C20.25 200.323 20.4271 199.633 20.7812 199.023C21.1406 198.409 21.6302 197.924 22.25 197.57C22.8698 197.211 23.5677 197.031 24.3438 197.031C25.1198 197.031 25.8151 197.211 26.4297 197.57C27.0443 197.924 27.5286 198.409 27.8828 199.023C28.237 199.633 28.4141 200.323 28.4141 201.094C28.4141 201.87 28.237 202.565 27.8828 203.18C27.5286 203.789 27.0443 204.271 26.4297 204.625C25.8151 204.979 25.1198 205.156 24.3438 205.156ZM24.3359 204C24.862 204 25.3333 203.872 25.75 203.617C26.1667 203.362 26.4948 203.016 26.7344 202.578C26.9792 202.141 27.1016 201.643 27.1016 201.086C27.1016 200.539 26.9792 200.047 26.7344 199.609C26.4948 199.172 26.1667 198.826 25.75 198.57C25.3333 198.315 24.862 198.188 24.3359 198.188C23.8099 198.188 23.3359 198.315 22.9141 198.57C22.4974 198.826 22.1667 199.172 21.9219 199.609C21.6823 200.047 21.5625 200.539 21.5625 201.086C21.5625 201.643 21.6823 202.141 21.9219 202.578C22.1667 203.016 22.4974 203.362 22.9141 203.617C23.3359 203.872 23.8099 204 24.3359 204ZM37.375 205H36.25L36.2031 203.734C35.9167 204.193 35.5391 204.544 35.0703 204.789C34.6068 205.034 34.0573 205.156 33.4219 205.156C32.3854 205.156 31.5651 204.844 30.9609 204.219C30.362 203.589 30.0625 202.729 30.0625 201.641V197.188H31.3438V201.547C31.3438 202.286 31.5521 202.878 31.9688 203.32C32.3906 203.763 32.9505 203.984 33.6484 203.984C34.3776 203.984 34.9661 203.745 35.4141 203.266C35.8672 202.786 36.0938 202.161 36.0938 201.391V197.188H37.375V205ZM43.7031 205V193.281H44.9844V198.359C45.5729 197.474 46.4844 197.031 47.7188 197.031C48.7552 197.031 49.5625 197.341 50.1406 197.961C50.724 198.576 51.0156 199.435 51.0156 200.539V205H49.7344V200.836C49.7344 199.997 49.526 199.346 49.1094 198.883C48.6979 198.414 48.1224 198.18 47.3828 198.18C46.638 198.18 46.0521 198.417 45.625 198.891C45.1979 199.365 44.9844 200.013 44.9844 200.836V205H43.7031ZM59.5859 205H58.4844L58.3984 203.969C58.112 204.339 57.7474 204.63 57.3047 204.844C56.862 205.052 56.3672 205.156 55.8203 205.156C55.2578 205.156 54.7552 205.047 54.3125 204.828C53.8698 204.604 53.5208 204.299 53.2656 203.914C53.0156 203.529 52.8906 203.091 52.8906 202.602C52.8906 202.086 53.026 201.633 53.2969 201.242C53.5729 200.846 53.9453 200.536 54.4141 200.312C54.888 200.089 55.4245 199.977 56.0234 199.977C56.4141 199.977 56.8125 200.026 57.2188 200.125C57.625 200.219 57.987 200.349 58.3047 200.516V200.188C58.3047 199.771 58.2005 199.417 57.9922 199.125C57.7839 198.828 57.5052 198.602 57.1562 198.445C56.8073 198.284 56.4219 198.203 56 198.203C55.6354 198.203 55.263 198.271 54.8828 198.406C54.5026 198.536 54.138 198.74 53.7891 199.016L53.3672 197.914C53.8203 197.622 54.2969 197.404 54.7969 197.258C55.2969 197.107 55.7917 197.031 56.2812 197.031C56.9583 197.031 57.5417 197.169 58.0312 197.445C58.526 197.716 58.9089 198.104 59.1797 198.609C59.4505 199.109 59.5859 199.703 59.5859 200.391V205ZM56.0469 203.984C56.4479 203.984 56.8151 203.901 57.1484 203.734C57.4818 203.568 57.7526 203.328 57.9609 203.016C58.1693 202.698 58.2839 202.323 58.3047 201.891V201.758C58.0182 201.534 57.6953 201.362 57.3359 201.242C56.9818 201.117 56.6198 201.055 56.25 201.055C55.6719 201.055 55.1875 201.195 54.7969 201.477C54.4115 201.758 54.2188 202.115 54.2188 202.547C54.2188 202.818 54.2969 203.062 54.4531 203.281C54.6146 203.5 54.8333 203.672 55.1094 203.797C55.3854 203.922 55.6979 203.984 56.0469 203.984ZM68.8125 197.188L65.5234 205H64.2812L61 197.188H62.3828L64.9141 203.656L67.4531 197.188H68.8125ZM77.2266 204.039C76.2578 204.784 75.1901 205.156 74.0234 205.156C73.2109 205.156 72.4818 204.974 71.8359 204.609C71.1901 204.245 70.6797 203.75 70.3047 203.125C69.9349 202.495 69.75 201.784 69.75 200.992C69.75 200.232 69.9219 199.555 70.2656 198.961C70.6094 198.362 71.0807 197.891 71.6797 197.547C72.2786 197.203 72.9583 197.031 73.7188 197.031C74.5 197.031 75.1875 197.219 75.7812 197.594C76.3802 197.969 76.8464 198.49 77.1797 199.156C77.513 199.823 77.6797 200.594 77.6797 201.469V201.719H71.1406C71.2344 202.177 71.4219 202.576 71.7031 202.914C71.9896 203.253 72.3438 203.516 72.7656 203.703C73.1875 203.891 73.6589 203.984 74.1797 203.984C75.0755 203.984 75.8932 203.69 76.6328 203.102L77.2266 204.039ZM71.0938 200.625H76.4688C76.4115 200.141 76.2604 199.719 76.0156 199.359C75.776 198.995 75.4635 198.711 75.0781 198.508C74.6979 198.305 74.2682 198.203 73.7891 198.203C73.3047 198.203 72.8672 198.305 72.4766 198.508C72.0911 198.711 71.776 198.995 71.5312 199.359C71.2917 199.719 71.1458 200.141 71.0938 200.625ZM89.6953 205H88.5938L88.5078 203.969C88.2214 204.339 87.8568 204.63 87.4141 204.844C86.9714 205.052 86.4766 205.156 85.9297 205.156C85.3672 205.156 84.8646 205.047 84.4219 204.828C83.9792 204.604 83.6302 204.299 83.375 203.914C83.125 203.529 83 203.091 83 202.602C83 202.086 83.1354 201.633 83.4062 201.242C83.6823 200.846 84.0547 200.536 84.5234 200.312C84.9974 200.089 85.5339 199.977 86.1328 199.977C86.5234 199.977 86.9219 200.026 87.3281 200.125C87.7344 200.219 88.0964 200.349 88.4141 200.516V200.188C88.4141 199.771 88.3099 199.417 88.1016 199.125C87.8932 198.828 87.6146 198.602 87.2656 198.445C86.9167 198.284 86.5312 198.203 86.1094 198.203C85.7448 198.203 85.3724 198.271 84.9922 198.406C84.612 198.536 84.2474 198.74 83.8984 199.016L83.4766 197.914C83.9297 197.622 84.4062 197.404 84.9062 197.258C85.4062 197.107 85.901 197.031 86.3906 197.031C87.0677 197.031 87.651 197.169 88.1406 197.445C88.6354 197.716 89.0182 198.104 89.2891 198.609C89.5599 199.109 89.6953 199.703 89.6953 200.391V205ZM86.1562 203.984C86.5573 203.984 86.9245 203.901 87.2578 203.734C87.5911 203.568 87.862 203.328 88.0703 203.016C88.2786 202.698 88.3932 202.323 88.4141 201.891V201.758C88.1276 201.534 87.8047 201.362 87.4453 201.242C87.0911 201.117 86.7292 201.055 86.3594 201.055C85.7812 201.055 85.2969 201.195 84.9062 201.477C84.5208 201.758 84.3281 202.115 84.3281 202.547C84.3281 202.818 84.4062 203.062 84.5625 203.281C84.724 203.5 84.9427 203.672 85.2188 203.797C85.4948 203.922 85.8073 203.984 86.1562 203.984ZM97.7422 205H96.4609V198.336H95.0938V197.188H96.4609V195.508C96.4609 195.023 96.5625 194.596 96.7656 194.227C96.974 193.857 97.2604 193.568 97.625 193.359C97.9948 193.151 98.4193 193.047 98.8984 193.047C99.1953 193.047 99.4922 193.089 99.7891 193.172C100.091 193.25 100.385 193.372 100.672 193.539L100.18 194.547C100.003 194.432 99.8229 194.346 99.6406 194.289C99.4583 194.227 99.276 194.195 99.0938 194.195C98.6927 194.195 98.3672 194.341 98.1172 194.633C97.8672 194.919 97.7422 195.294 97.7422 195.758V197.188H100.156V198.336H97.7422V205ZM103.047 205H101.766V197.188H102.891L102.945 198.734C103.216 198.198 103.596 197.781 104.086 197.484C104.581 197.182 105.148 197.031 105.789 197.031C105.93 197.031 106.073 197.039 106.219 197.055C106.365 197.07 106.51 197.094 106.656 197.125L106.5 198.281C106.214 198.214 105.93 198.18 105.648 198.18C105.138 198.18 104.685 198.305 104.289 198.555C103.898 198.805 103.594 199.148 103.375 199.586C103.156 200.023 103.047 200.526 103.047 201.094V205ZM108.656 194.719C108.438 194.719 108.253 194.643 108.102 194.492C107.956 194.336 107.883 194.148 107.883 193.93C107.883 193.716 107.956 193.534 108.102 193.383C108.253 193.232 108.438 193.156 108.656 193.156C108.88 193.156 109.068 193.232 109.219 193.383C109.37 193.534 109.445 193.716 109.445 193.93C109.445 194.148 109.37 194.336 109.219 194.492C109.068 194.643 108.88 194.719 108.656 194.719ZM109.297 205H108.016V197.188H109.297V205ZM118.617 204.039C117.648 204.784 116.581 205.156 115.414 205.156C114.602 205.156 113.872 204.974 113.227 204.609C112.581 204.245 112.07 203.75 111.695 203.125C111.326 202.495 111.141 201.784 111.141 200.992C111.141 200.232 111.312 199.555 111.656 198.961C112 198.362 112.471 197.891 113.07 197.547C113.669 197.203 114.349 197.031 115.109 197.031C115.891 197.031 116.578 197.219 117.172 197.594C117.771 197.969 118.237 198.49 118.57 199.156C118.904 199.823 119.07 200.594 119.07 201.469V201.719H112.531C112.625 202.177 112.812 202.576 113.094 202.914C113.38 203.253 113.734 203.516 114.156 203.703C114.578 203.891 115.049 203.984 115.57 203.984C116.466 203.984 117.284 203.69 118.023 203.102L118.617 204.039ZM112.484 200.625H117.859C117.802 200.141 117.651 199.719 117.406 199.359C117.167 198.995 116.854 198.711 116.469 198.508C116.089 198.305 115.659 198.203 115.18 198.203C114.695 198.203 114.258 198.305 113.867 198.508C113.482 198.711 113.167 198.995 112.922 199.359C112.682 199.719 112.536 200.141 112.484 200.625ZM128.188 205H126.906V200.641C126.906 199.901 126.695 199.31 126.273 198.867C125.852 198.424 125.292 198.203 124.594 198.203C123.87 198.203 123.281 198.443 122.828 198.922C122.38 199.396 122.156 200.021 122.156 200.797V205H120.875V197.188H121.992L122.039 198.453C122.326 197.995 122.703 197.643 123.172 197.398C123.641 197.154 124.193 197.031 124.828 197.031C125.865 197.031 126.682 197.344 127.281 197.969C127.885 198.594 128.188 199.451 128.188 200.539V205ZM138.078 205H136.938L136.867 203.859C136.508 204.26 136.07 204.578 135.555 204.812C135.039 205.042 134.477 205.156 133.867 205.156C133.096 205.156 132.406 204.979 131.797 204.625C131.188 204.271 130.706 203.786 130.352 203.172C130.003 202.557 129.828 201.865 129.828 201.094C129.828 200.318 130.003 199.625 130.352 199.016C130.706 198.401 131.188 197.917 131.797 197.562C132.406 197.208 133.096 197.031 133.867 197.031C134.456 197.031 135 197.138 135.5 197.352C136.005 197.565 136.438 197.862 136.797 198.242V193.281H138.078V205ZM133.977 204C134.497 204 134.971 203.88 135.398 203.641C135.826 203.396 136.164 203.065 136.414 202.648C136.669 202.227 136.797 201.75 136.797 201.219V200.953C136.797 200.422 136.669 199.948 136.414 199.531C136.164 199.109 135.826 198.779 135.398 198.539C134.971 198.299 134.497 198.18 133.977 198.18C133.435 198.18 132.951 198.307 132.523 198.562C132.096 198.818 131.758 199.164 131.508 199.602C131.263 200.039 131.141 200.534 131.141 201.086C131.141 201.638 131.263 202.135 131.508 202.578C131.758 203.016 132.096 203.362 132.523 203.617C132.951 203.872 133.435 204 133.977 204ZM152.617 205H151.133L149.367 199.031L147.602 205H146.117L143.625 197.188H144.984L146.852 203.438L148.766 197.188H149.969L151.883 203.438L153.758 197.188H155.117L152.617 205ZM162.758 205H161.656L161.57 203.969C161.284 204.339 160.919 204.63 160.477 204.844C160.034 205.052 159.539 205.156 158.992 205.156C158.43 205.156 157.927 205.047 157.484 204.828C157.042 204.604 156.693 204.299 156.438 203.914C156.188 203.529 156.062 203.091 156.062 202.602C156.062 202.086 156.198 201.633 156.469 201.242C156.745 200.846 157.117 200.536 157.586 200.312C158.06 200.089 158.596 199.977 159.195 199.977C159.586 199.977 159.984 200.026 160.391 200.125C160.797 200.219 161.159 200.349 161.477 200.516V200.188C161.477 199.771 161.372 199.417 161.164 199.125C160.956 198.828 160.677 198.602 160.328 198.445C159.979 198.284 159.594 198.203 159.172 198.203C158.807 198.203 158.435 198.271 158.055 198.406C157.674 198.536 157.31 198.74 156.961 199.016L156.539 197.914C156.992 197.622 157.469 197.404 157.969 197.258C158.469 197.107 158.964 197.031 159.453 197.031C160.13 197.031 160.714 197.169 161.203 197.445C161.698 197.716 162.081 198.104 162.352 198.609C162.622 199.109 162.758 199.703 162.758 200.391V205ZM159.219 203.984C159.62 203.984 159.987 203.901 160.32 203.734C160.654 203.568 160.924 203.328 161.133 203.016C161.341 202.698 161.456 202.323 161.477 201.891V201.758C161.19 201.534 160.867 201.362 160.508 201.242C160.154 201.117 159.792 201.055 159.422 201.055C158.844 201.055 158.359 201.195 157.969 201.477C157.583 201.758 157.391 202.115 157.391 202.547C157.391 202.818 157.469 203.062 157.625 203.281C157.786 203.5 158.005 203.672 158.281 203.797C158.557 203.922 158.87 203.984 159.219 203.984ZM169.328 204.812C168.812 205.042 168.31 205.156 167.82 205.156C167.352 205.156 166.94 205.055 166.586 204.852C166.232 204.643 165.956 204.354 165.758 203.984C165.56 203.609 165.461 203.174 165.461 202.68V198.336H164.094V197.188H165.523V195.234H166.742V197.188H169.078V198.336H166.742V202.445C166.742 202.914 166.867 203.292 167.117 203.578C167.372 203.865 167.706 204.008 168.117 204.008C168.451 204.008 168.784 203.909 169.117 203.711L169.328 204.812ZM177.539 203.875C177.159 204.286 176.708 204.604 176.188 204.828C175.667 205.047 175.107 205.156 174.508 205.156C173.732 205.156 173.034 204.979 172.414 204.625C171.799 204.271 171.312 203.786 170.953 203.172C170.599 202.557 170.422 201.865 170.422 201.094C170.422 200.318 170.599 199.625 170.953 199.016C171.312 198.401 171.799 197.917 172.414 197.562C173.034 197.208 173.732 197.031 174.508 197.031C175.102 197.031 175.659 197.141 176.18 197.359C176.701 197.578 177.151 197.893 177.531 198.305L176.766 199.109C176.49 198.818 176.159 198.594 175.773 198.438C175.393 198.281 174.99 198.203 174.562 198.203C174.016 198.203 173.529 198.328 173.102 198.578C172.68 198.823 172.346 199.161 172.102 199.594C171.862 200.026 171.742 200.523 171.742 201.086C171.742 201.648 171.862 202.148 172.102 202.586C172.346 203.023 172.68 203.367 173.102 203.617C173.529 203.862 174.016 203.984 174.562 203.984C174.99 203.984 175.396 203.906 175.781 203.75C176.167 203.589 176.495 203.365 176.766 203.078L177.539 203.875ZM179.344 205V193.281H180.625V198.359C181.214 197.474 182.125 197.031 183.359 197.031C184.396 197.031 185.203 197.341 185.781 197.961C186.365 198.576 186.656 199.435 186.656 200.539V205H185.375V200.836C185.375 199.997 185.167 199.346 184.75 198.883C184.339 198.414 183.763 198.18 183.023 198.18C182.279 198.18 181.693 198.417 181.266 198.891C180.839 199.365 180.625 200.013 180.625 200.836V205H179.344ZM189.594 194.719C189.375 194.719 189.19 194.643 189.039 194.492C188.893 194.336 188.82 194.148 188.82 193.93C188.82 193.716 188.893 193.534 189.039 193.383C189.19 193.232 189.375 193.156 189.594 193.156C189.818 193.156 190.005 193.232 190.156 193.383C190.307 193.534 190.383 193.716 190.383 193.93C190.383 194.148 190.307 194.336 190.156 194.492C190.005 194.643 189.818 194.719 189.594 194.719ZM190.234 205H188.953V197.188H190.234V205ZM200.016 205H198.734V200.641C198.734 199.901 198.523 199.31 198.102 198.867C197.68 198.424 197.12 198.203 196.422 198.203C195.698 198.203 195.109 198.443 194.656 198.922C194.208 199.396 193.984 200.021 193.984 200.797V205H192.703V197.188H193.82L193.867 198.453C194.154 197.995 194.531 197.643 195 197.398C195.469 197.154 196.021 197.031 196.656 197.031C197.693 197.031 198.51 197.344 199.109 197.969C199.714 198.594 200.016 199.451 200.016 200.539V205ZM205.602 205C204.852 205 204.177 204.826 203.578 204.477C202.984 204.128 202.516 203.654 202.172 203.055C201.828 202.451 201.656 201.771 201.656 201.016C201.656 200.255 201.828 199.576 202.172 198.977C202.516 198.378 202.984 197.904 203.578 197.555C204.177 197.206 204.854 197.031 205.609 197.031C206.214 197.031 206.768 197.146 207.273 197.375C207.779 197.599 208.208 197.911 208.562 198.312L208.625 197.188H209.758V204.797C209.758 205.672 209.586 206.427 209.242 207.062C208.898 207.703 208.409 208.195 207.773 208.539C207.138 208.888 206.383 209.062 205.508 209.062C204.268 209.062 203.19 208.651 202.273 207.828L202.836 206.797C203.549 207.536 204.422 207.906 205.453 207.906C206.073 207.906 206.607 207.776 207.055 207.516C207.508 207.26 207.857 206.898 208.102 206.43C208.352 205.961 208.477 205.406 208.477 204.766V203.805C208.122 204.174 207.698 204.466 207.203 204.68C206.714 204.893 206.18 205 205.602 205ZM205.711 203.867C206.221 203.867 206.685 203.753 207.102 203.523C207.518 203.289 207.852 202.971 208.102 202.57C208.352 202.164 208.477 201.706 208.477 201.195V200.836C208.477 200.32 208.352 199.862 208.102 199.461C207.852 199.06 207.518 198.745 207.102 198.516C206.685 198.281 206.221 198.164 205.711 198.164C205.185 198.164 204.714 198.289 204.297 198.539C203.88 198.789 203.549 199.13 203.305 199.562C203.065 199.99 202.945 200.474 202.945 201.016C202.945 201.557 203.065 202.044 203.305 202.477C203.549 202.909 203.88 203.25 204.297 203.5C204.714 203.745 205.185 203.867 205.711 203.867ZM218.727 208.906H217.328L218.969 204.938L215.234 197.188H216.648L219.586 203.461L222.18 197.188H223.57L218.727 208.906ZM228.453 205.156C227.677 205.156 226.979 204.979 226.359 204.625C225.74 204.271 225.25 203.789 224.891 203.18C224.536 202.565 224.359 201.87 224.359 201.094C224.359 200.323 224.536 199.633 224.891 199.023C225.25 198.409 225.74 197.924 226.359 197.57C226.979 197.211 227.677 197.031 228.453 197.031C229.229 197.031 229.924 197.211 230.539 197.57C231.154 197.924 231.638 198.409 231.992 199.023C232.346 199.633 232.523 200.323 232.523 201.094C232.523 201.87 232.346 202.565 231.992 203.18C231.638 203.789 231.154 204.271 230.539 204.625C229.924 204.979 229.229 205.156 228.453 205.156ZM228.445 204C228.971 204 229.443 203.872 229.859 203.617C230.276 203.362 230.604 203.016 230.844 202.578C231.089 202.141 231.211 201.643 231.211 201.086C231.211 200.539 231.089 200.047 230.844 199.609C230.604 199.172 230.276 198.826 229.859 198.57C229.443 198.315 228.971 198.188 228.445 198.188C227.919 198.188 227.445 198.315 227.023 198.57C226.607 198.826 226.276 199.172 226.031 199.609C225.792 200.047 225.672 200.539 225.672 201.086C225.672 201.643 225.792 202.141 226.031 202.578C226.276 203.016 226.607 203.362 227.023 203.617C227.445 203.872 227.919 204 228.445 204ZM241.484 205H240.359L240.312 203.734C240.026 204.193 239.648 204.544 239.18 204.789C238.716 205.034 238.167 205.156 237.531 205.156C236.495 205.156 235.674 204.844 235.07 204.219C234.471 203.589 234.172 202.729 234.172 201.641V197.188H235.453V201.547C235.453 202.286 235.661 202.878 236.078 203.32C236.5 203.763 237.06 203.984 237.758 203.984C238.487 203.984 239.076 203.745 239.523 203.266C239.977 202.786 240.203 202.161 240.203 201.391V197.188H241.484V205ZM245.188 205H243.906V197.188H245.031L245.086 198.734C245.357 198.198 245.737 197.781 246.227 197.484C246.721 197.182 247.289 197.031 247.93 197.031C248.07 197.031 248.214 197.039 248.359 197.055C248.505 197.07 248.651 197.094 248.797 197.125L248.641 198.281C248.354 198.214 248.07 198.18 247.789 198.18C247.279 198.18 246.826 198.305 246.43 198.555C246.039 198.805 245.734 199.148 245.516 199.586C245.297 200.023 245.188 200.526 245.188 201.094V205ZM255.172 205H254.031V193.281H255.312V198.242C255.677 197.862 256.109 197.565 256.609 197.352C257.109 197.138 257.654 197.031 258.242 197.031C259.013 197.031 259.701 197.208 260.305 197.562C260.909 197.917 261.385 198.401 261.734 199.016C262.089 199.625 262.266 200.318 262.266 201.094C262.266 201.865 262.089 202.557 261.734 203.172C261.385 203.786 260.909 204.271 260.305 204.625C259.701 204.979 259.013 205.156 258.242 205.156C257.628 205.156 257.062 205.042 256.547 204.812C256.036 204.578 255.599 204.26 255.234 203.859L255.172 205ZM258.133 204C258.669 204 259.148 203.875 259.57 203.625C259.997 203.37 260.333 203.023 260.578 202.586C260.828 202.148 260.953 201.654 260.953 201.102C260.953 200.544 260.828 200.047 260.578 199.609C260.333 199.167 259.997 198.818 259.57 198.562C259.148 198.307 258.669 198.18 258.133 198.18C257.622 198.18 257.159 198.297 256.742 198.531C256.331 198.766 255.997 199.086 255.742 199.492C255.492 199.898 255.349 200.359 255.312 200.875V201.305C255.349 201.82 255.492 202.281 255.742 202.688C255.992 203.094 256.323 203.414 256.734 203.648C257.151 203.883 257.617 204 258.133 204ZM270.367 205H269.266L269.18 203.969C268.893 204.339 268.529 204.63 268.086 204.844C267.643 205.052 267.148 205.156 266.602 205.156C266.039 205.156 265.536 205.047 265.094 204.828C264.651 204.604 264.302 204.299 264.047 203.914C263.797 203.529 263.672 203.091 263.672 202.602C263.672 202.086 263.807 201.633 264.078 201.242C264.354 200.846 264.727 200.536 265.195 200.312C265.669 200.089 266.206 199.977 266.805 199.977C267.195 199.977 267.594 200.026 268 200.125C268.406 200.219 268.768 200.349 269.086 200.516V200.188C269.086 199.771 268.982 199.417 268.773 199.125C268.565 198.828 268.286 198.602 267.938 198.445C267.589 198.284 267.203 198.203 266.781 198.203C266.417 198.203 266.044 198.271 265.664 198.406C265.284 198.536 264.919 198.74 264.57 199.016L264.148 197.914C264.602 197.622 265.078 197.404 265.578 197.258C266.078 197.107 266.573 197.031 267.062 197.031C267.74 197.031 268.323 197.169 268.812 197.445C269.307 197.716 269.69 198.104 269.961 198.609C270.232 199.109 270.367 199.703 270.367 200.391V205ZM266.828 203.984C267.229 203.984 267.596 203.901 267.93 203.734C268.263 203.568 268.534 203.328 268.742 203.016C268.951 202.698 269.065 202.323 269.086 201.891V201.758C268.799 201.534 268.477 201.362 268.117 201.242C267.763 201.117 267.401 201.055 267.031 201.055C266.453 201.055 265.969 201.195 265.578 201.477C265.193 201.758 265 202.115 265 202.547C265 202.818 265.078 203.062 265.234 203.281C265.396 203.5 265.615 203.672 265.891 203.797C266.167 203.922 266.479 203.984 266.828 203.984ZM279.133 203.875C278.753 204.286 278.302 204.604 277.781 204.828C277.26 205.047 276.701 205.156 276.102 205.156C275.326 205.156 274.628 204.979 274.008 204.625C273.393 204.271 272.906 203.786 272.547 203.172C272.193 202.557 272.016 201.865 272.016 201.094C272.016 200.318 272.193 199.625 272.547 199.016C272.906 198.401 273.393 197.917 274.008 197.562C274.628 197.208 275.326 197.031 276.102 197.031C276.695 197.031 277.253 197.141 277.773 197.359C278.294 197.578 278.745 197.893 279.125 198.305L278.359 199.109C278.083 198.818 277.753 198.594 277.367 198.438C276.987 198.281 276.583 198.203 276.156 198.203C275.609 198.203 275.122 198.328 274.695 198.578C274.273 198.823 273.94 199.161 273.695 199.594C273.456 200.026 273.336 200.523 273.336 201.086C273.336 201.648 273.456 202.148 273.695 202.586C273.94 203.023 274.273 203.367 274.695 203.617C275.122 203.862 275.609 203.984 276.156 203.984C276.583 203.984 276.99 203.906 277.375 203.75C277.76 203.589 278.089 203.365 278.359 203.078L279.133 203.875ZM282.219 205H280.938V193.281H282.219V201.531L282.828 200.789L286.227 197.188H287.836L284.648 200.578L288.328 205H286.664L283.758 201.516L282.219 203.156V205ZM290.484 205.156C290.255 205.156 290.068 205.086 289.922 204.945C289.781 204.799 289.711 204.612 289.711 204.383C289.711 204.148 289.781 203.958 289.922 203.812C290.068 203.667 290.255 203.594 290.484 203.594C290.714 203.594 290.901 203.667 291.047 203.812C291.198 203.958 291.273 204.148 291.273 204.383C291.273 204.612 291.198 204.799 291.047 204.945C290.901 205.086 290.714 205.156 290.484 205.156Z" fill="#F7FFF7"/>
</svg>
