<svg width="328" height="171" viewBox="0 0 328 171" fill="none" xmlns="http://www.w3.org/2000/svg">
<circle cx="50" cy="50" r="50" fill="#FFE66D"/>
<path opacity="0.7" d="M23.9277 44V35.2109H29.4062V36.3477H25.2168V38.9785H29.166V40.1152H25.2168V42.8633H29.4648V44H23.9277ZM30.6309 43.1152L31.2461 42.125C31.5078 42.3359 31.7637 42.5117 32.0137 42.6523C32.2676 42.7891 32.5234 42.8906 32.7812 42.957C33.0391 43.0195 33.3027 43.0508 33.5723 43.0508C33.9395 43.0508 34.2598 42.9922 34.5332 42.875C34.8066 42.7578 35.0195 42.5938 35.1719 42.3828C35.3242 42.1719 35.4004 41.9297 35.4004 41.6562C35.4004 41.3477 35.3105 41.0918 35.1309 40.8887C34.9551 40.6855 34.7246 40.5117 34.4395 40.3672C34.1543 40.2188 33.8496 40.0781 33.5254 39.9453C33.2402 39.8281 32.9551 39.7012 32.6699 39.5645C32.3887 39.4238 32.1309 39.2617 31.8965 39.0781C31.666 38.8945 31.4805 38.6719 31.3398 38.4102C31.2031 38.1445 31.1348 37.8242 31.1348 37.4492C31.1348 36.9688 31.2559 36.5469 31.498 36.1836C31.7402 35.8203 32.0742 35.5391 32.5 35.3398C32.9297 35.1406 33.4238 35.041 33.9824 35.041C34.3613 35.041 34.748 35.0918 35.1426 35.1934C35.541 35.291 35.9297 35.4375 36.3086 35.6328L35.7871 36.6816C35.5137 36.5215 35.2227 36.3965 34.9141 36.3066C34.6094 36.2168 34.3145 36.1719 34.0293 36.1719C33.7168 36.1719 33.4414 36.2227 33.2031 36.3242C32.9688 36.4258 32.7852 36.5684 32.6523 36.752C32.5195 36.9355 32.4531 37.1504 32.4531 37.3965C32.4531 37.6738 32.5371 37.9082 32.7051 38.0996C32.873 38.291 33.0918 38.459 33.3613 38.6035C33.6348 38.7441 33.9238 38.8809 34.2285 39.0137C34.5254 39.1465 34.8203 39.2871 35.1133 39.4355C35.4102 39.5801 35.6777 39.752 35.916 39.9512C36.1582 40.1504 36.3516 40.3887 36.4961 40.666C36.6445 40.9395 36.7188 41.2695 36.7188 41.6562C36.7188 42.1602 36.5898 42.6016 36.332 42.9805C36.0742 43.3555 35.7129 43.6484 35.248 43.8594C34.7871 44.0703 34.2461 44.1758 33.625 44.1758C33.0742 44.1758 32.5469 44.0879 32.043 43.9121C31.543 43.7324 31.0723 43.4668 30.6309 43.1152ZM41.3711 44H40.082V36.3477H37.334V35.2109H44.1191V36.3477H41.3711V44ZM51.3672 44H50.0781V36.3477H47.3301V35.2109H54.1152V36.3477H51.3672V44ZM56.4238 35.2109V44H55.1348V35.2109H56.4238ZM67.1465 44H65.8574V37.0332L63.168 42.5234H62.0781L59.4004 37.0625V44H58.1113V35.2109H59.7637L62.623 41.1348L65.4824 35.2109H67.1465V44ZM68.834 44V35.2109H74.3125V36.3477H70.123V38.9785H74.0723V40.1152H70.123V42.8633H74.3711V44H68.834ZM76.5391 39.5703C76.3555 39.5703 76.2012 39.5078 76.0762 39.3828C75.9512 39.2578 75.8887 39.1035 75.8887 38.9199C75.8887 38.7363 75.9512 38.5801 76.0762 38.4512C76.2012 38.3223 76.3555 38.2578 76.5391 38.2578C76.7227 38.2578 76.877 38.3223 77.002 38.4512C77.127 38.5801 77.1895 38.7363 77.1895 38.9199C77.1895 39.1035 77.127 39.2578 77.002 39.3828C76.877 39.5078 76.7227 39.5703 76.5391 39.5703ZM76.5391 44.1172C76.3555 44.1172 76.2012 44.0547 76.0762 43.9297C75.9512 43.8008 75.8887 43.6445 75.8887 43.4609C75.8887 43.2812 75.9512 43.127 76.0762 42.998C76.2012 42.8691 76.3555 42.8047 76.5391 42.8047C76.7227 42.8047 76.877 42.8691 77.002 42.998C77.127 43.127 77.1895 43.2812 77.1895 43.4609C77.1895 43.6445 77.127 43.8008 77.002 43.9297C76.877 44.0547 76.7227 44.1172 76.5391 44.1172Z" fill="#1A535C"/>
<path d="M29.9844 63H28.2656V52.9766L26.1641 53.7422L25.625 52.3594L28.6016 51.2812H29.9844V63ZM36.5 63.2344C35.6562 63.2344 34.9297 62.9974 34.3203 62.5234C33.7109 62.0443 33.2422 61.3516 32.9141 60.4453C32.5859 59.5339 32.4219 58.4297 32.4219 57.1328C32.4219 55.8411 32.5859 54.7422 32.9141 53.8359C33.2422 52.9297 33.7109 52.2396 34.3203 51.7656C34.9297 51.2865 35.6562 51.0469 36.5 51.0469C37.3438 51.0469 38.0677 51.2865 38.6719 51.7656C39.2812 52.2396 39.75 52.9297 40.0781 53.8359C40.4115 54.7422 40.5781 55.8411 40.5781 57.1328C40.5781 58.4297 40.4141 59.5339 40.0859 60.4453C39.7578 61.3516 39.2891 62.0443 38.6797 62.5234C38.0703 62.9974 37.3438 63.2344 36.5 63.2344ZM36.5 61.7188C37.2292 61.7188 37.7969 61.3177 38.2031 60.5156C38.6146 59.7083 38.8203 58.5807 38.8203 57.1328C38.8203 55.6849 38.6146 54.5625 38.2031 53.7656C37.7969 52.9635 37.2292 52.5625 36.5 52.5625C35.7708 52.5625 35.2005 52.9635 34.7891 53.7656C34.3828 54.5625 34.1797 55.6849 34.1797 57.1328C34.1797 58.5807 34.3828 59.7083 34.7891 60.5156C35.2005 61.3177 35.7708 61.7188 36.5 61.7188ZM58.1875 63H56.4688V53.7109L52.8828 61.0312H51.4297L47.8594 53.75V63H46.1406V51.2812H48.3438L52.1562 59.1797L55.9688 51.2812H58.1875V63ZM62.1562 51.2812V63H60.4375V51.2812H62.1562ZM74.75 63H72.8594L66.125 53.9531V63H64.4062V51.2812H66.2969L73.0312 60.3359V51.2812H74.75V63Z" fill="#1A535C"/>
<path d="M126.717 11.1152L127.332 10.125C127.594 10.3359 127.85 10.5117 128.1 10.6523C128.354 10.7891 128.609 10.8906 128.867 10.957C129.125 11.0195 129.389 11.0508 129.658 11.0508C130.025 11.0508 130.346 10.9922 130.619 10.875C130.893 10.7578 131.105 10.5938 131.258 10.3828C131.41 10.1719 131.486 9.92969 131.486 9.65625C131.486 9.34766 131.396 9.0918 131.217 8.88867C131.041 8.68555 130.811 8.51172 130.525 8.36719C130.24 8.21875 129.936 8.07812 129.611 7.94531C129.326 7.82812 129.041 7.70117 128.756 7.56445C128.475 7.42383 128.217 7.26172 127.982 7.07812C127.752 6.89453 127.566 6.67188 127.426 6.41016C127.289 6.14453 127.221 5.82422 127.221 5.44922C127.221 4.96875 127.342 4.54688 127.584 4.18359C127.826 3.82031 128.16 3.53906 128.586 3.33984C129.016 3.14062 129.51 3.04102 130.068 3.04102C130.447 3.04102 130.834 3.0918 131.229 3.19336C131.627 3.29102 132.016 3.4375 132.395 3.63281L131.873 4.68164C131.6 4.52148 131.309 4.39648 131 4.30664C130.695 4.2168 130.4 4.17188 130.115 4.17188C129.803 4.17188 129.527 4.22266 129.289 4.32422C129.055 4.42578 128.871 4.56836 128.738 4.75195C128.605 4.93555 128.539 5.15039 128.539 5.39648C128.539 5.67383 128.623 5.9082 128.791 6.09961C128.959 6.29102 129.178 6.45898 129.447 6.60352C129.721 6.74414 130.01 6.88086 130.314 7.01367C130.611 7.14648 130.906 7.28711 131.199 7.43555C131.496 7.58008 131.764 7.75195 132.002 7.95117C132.244 8.15039 132.438 8.38867 132.582 8.66602C132.73 8.93945 132.805 9.26953 132.805 9.65625C132.805 10.1602 132.676 10.6016 132.418 10.9805C132.16 11.3555 131.799 11.6484 131.334 11.8594C130.873 12.0703 130.332 12.1758 129.711 12.1758C129.16 12.1758 128.633 12.0879 128.129 11.9121C127.629 11.7324 127.158 11.4668 126.717 11.1152ZM137.457 12H136.168V4.34766H133.42V3.21094H140.205V4.34766H137.457V12ZM141.225 12V3.21094H146.703V4.34766H142.514V6.97852H146.463V8.11523H142.514V10.8633H146.762V12H141.225ZM148.396 12V3.21094H151.203C151.93 3.21094 152.553 3.32617 153.072 3.55664C153.596 3.7832 153.996 4.10938 154.273 4.53516C154.551 4.95703 154.689 5.46289 154.689 6.05273C154.689 6.63867 154.551 7.14648 154.273 7.57617C153.996 8.00195 153.596 8.33008 153.072 8.56055C152.553 8.79102 151.932 8.90625 151.209 8.90625H149.686V12H148.396ZM149.686 7.76953H151.086C151.816 7.76953 152.379 7.61914 152.773 7.31836C153.172 7.01367 153.371 6.5918 153.371 6.05273C153.371 5.51367 153.172 5.0957 152.773 4.79883C152.379 4.49805 151.816 4.34766 151.086 4.34766H149.686V7.76953ZM161.709 12H160.42V4.48242L158.844 5.05664L158.439 4.01953L160.672 3.21094H161.709V12Z" fill="#F7FFF7"/>
<path d="M143.148 39.7617C142.336 40.5742 141.367 41.2109 140.242 41.6719C139.125 42.125 137.906 42.3516 136.586 42.3516C135.266 42.3516 134.047 42.125 132.93 41.6719C131.812 41.2188 130.84 40.582 130.012 39.7617C129.191 38.9336 128.551 37.9648 128.09 36.8555C127.637 35.7383 127.41 34.5234 127.41 33.2109C127.41 31.8906 127.637 30.6758 128.09 29.5664C128.551 28.4492 129.191 27.4805 130.012 26.6602C130.84 25.8398 131.812 25.2031 132.93 24.75C134.047 24.2969 135.266 24.0703 136.586 24.0703C137.898 24.0703 139.113 24.3008 140.23 24.7617C141.355 25.2148 142.32 25.8438 143.125 26.6484L141.332 28.4766C140.746 27.8125 140.043 27.293 139.223 26.918C138.41 26.5352 137.52 26.3438 136.551 26.3438C135.613 26.3438 134.75 26.5156 133.961 26.8594C133.172 27.1953 132.484 27.6758 131.898 28.3008C131.312 28.918 130.855 29.6445 130.527 30.4805C130.207 31.3164 130.047 32.2266 130.047 33.2109C130.047 34.1953 130.207 35.1055 130.527 35.9414C130.855 36.7773 131.312 37.5078 131.898 38.1328C132.484 38.75 133.172 39.2305 133.961 39.5742C134.75 39.9102 135.613 40.0781 136.551 40.0781C137.52 40.0781 138.41 39.8906 139.223 39.5156C140.043 39.1328 140.742 38.6094 141.32 37.9453L143.148 39.7617ZM151.059 42.2344C149.887 42.2344 148.832 41.9688 147.895 41.4375C146.957 40.9062 146.219 40.1836 145.68 39.2695C145.141 38.3477 144.871 37.3047 144.871 36.1406C144.871 34.9844 145.141 33.9492 145.68 33.0352C146.219 32.1133 146.957 31.3867 147.895 30.8555C148.832 30.3164 149.887 30.0469 151.059 30.0469C152.238 30.0469 153.293 30.3164 154.223 30.8555C155.152 31.3867 155.883 32.1133 156.414 33.0352C156.953 33.9492 157.223 34.9844 157.223 36.1406C157.223 37.3047 156.953 38.3477 156.414 39.2695C155.883 40.1836 155.152 40.9062 154.223 41.4375C153.293 41.9688 152.238 42.2344 151.059 42.2344ZM151.047 40.0781C151.758 40.0781 152.391 39.9062 152.945 39.5625C153.508 39.2109 153.949 38.7422 154.27 38.1562C154.598 37.5625 154.762 36.8867 154.762 36.1289C154.762 35.3867 154.598 34.7227 154.27 34.1367C153.949 33.543 153.508 33.0742 152.945 32.7305C152.391 32.3789 151.758 32.2031 151.047 32.2031C150.344 32.2031 149.711 32.3789 149.148 32.7305C148.586 33.0742 148.141 33.543 147.812 34.1367C147.492 34.7227 147.332 35.3867 147.332 36.1289C147.332 36.8867 147.492 37.5625 147.812 38.1562C148.141 38.7422 148.586 39.2109 149.148 39.5625C149.711 39.9062 150.344 40.0781 151.047 40.0781ZM170.945 42H168.543V35.6367C168.543 34.5977 168.258 33.7695 167.688 33.1523C167.125 32.5352 166.367 32.2266 165.414 32.2266C164.43 32.2266 163.637 32.5547 163.035 33.2109C162.434 33.8672 162.133 34.7383 162.133 35.8242V42H159.73V30.2812H161.758L161.84 32.168C162.27 31.4805 162.832 30.957 163.527 30.5977C164.223 30.2305 165.039 30.0469 165.977 30.0469C167.516 30.0469 168.727 30.5117 169.609 31.4414C170.5 32.3711 170.945 33.6523 170.945 35.2852V42ZM185.312 42H182.91V35.6367C182.91 34.5977 182.625 33.7695 182.055 33.1523C181.492 32.5352 180.734 32.2266 179.781 32.2266C178.797 32.2266 178.004 32.5547 177.402 33.2109C176.801 33.8672 176.5 34.7383 176.5 35.8242V42H174.098V30.2812H176.125L176.207 32.168C176.637 31.4805 177.199 30.957 177.895 30.5977C178.59 30.2305 179.406 30.0469 180.344 30.0469C181.883 30.0469 183.094 30.5117 183.977 31.4414C184.867 32.3711 185.312 33.6523 185.312 35.2852V42ZM198.918 40.6055C197.465 41.6914 195.867 42.2344 194.125 42.2344C192.883 42.2344 191.77 41.9609 190.785 41.4141C189.801 40.8672 189.023 40.1211 188.453 39.1758C187.883 38.2305 187.598 37.1641 187.598 35.9766C187.598 34.8438 187.859 33.832 188.383 32.9414C188.906 32.043 189.621 31.3359 190.527 30.8203C191.434 30.3047 192.461 30.0469 193.609 30.0469C194.797 30.0469 195.84 30.3281 196.738 30.8906C197.645 31.4531 198.348 32.2383 198.848 33.2461C199.355 34.2461 199.609 35.4062 199.609 36.7266V37.1016H190.199C190.34 37.7109 190.605 38.2461 190.996 38.707C191.387 39.1602 191.871 39.5156 192.449 39.7734C193.027 40.0234 193.68 40.1484 194.406 40.1484C195.703 40.1484 196.895 39.7266 197.98 38.8828L198.918 40.6055ZM190.094 35.4375H197.371C197.293 34.7812 197.09 34.2109 196.762 33.7266C196.434 33.2344 196.008 32.8516 195.484 32.5781C194.969 32.2969 194.387 32.1562 193.738 32.1562C193.082 32.1562 192.492 32.2969 191.969 32.5781C191.445 32.8516 191.02 33.2344 190.691 33.7266C190.371 34.2188 190.172 34.7891 190.094 35.4375ZM212.078 40.2539C211.508 40.8867 210.824 41.375 210.027 41.7188C209.23 42.0625 208.367 42.2344 207.438 42.2344C206.266 42.2344 205.211 41.9688 204.273 41.4375C203.344 40.9062 202.609 40.1797 202.07 39.2578C201.531 38.3359 201.262 37.2969 201.262 36.1406C201.262 34.9766 201.531 33.9375 202.07 33.0234C202.609 32.1016 203.344 31.375 204.273 30.8438C205.211 30.3125 206.266 30.0469 207.438 30.0469C208.359 30.0469 209.219 30.2188 210.016 30.5625C210.812 30.8984 211.496 31.3828 212.066 32.0156L210.648 33.5039C210.266 33.0977 209.805 32.7852 209.266 32.5664C208.734 32.3398 208.168 32.2266 207.566 32.2266C206.824 32.2266 206.164 32.3945 205.586 32.7305C205.008 33.0664 204.555 33.5273 204.227 34.1133C203.898 34.6914 203.734 35.3633 203.734 36.1289C203.734 36.8867 203.898 37.5625 204.227 38.1562C204.555 38.75 205.008 39.2148 205.586 39.5508C206.164 39.8867 206.824 40.0547 207.566 40.0547C208.168 40.0547 208.738 39.9414 209.277 39.7148C209.816 39.4883 210.273 39.1758 210.648 38.7773L212.078 40.2539ZM221.723 41.707C220.902 42.0586 220.109 42.2344 219.344 42.2344C218.578 42.2344 217.906 42.0703 217.328 41.7422C216.758 41.4141 216.309 40.9531 215.98 40.3594C215.66 39.7578 215.5 39.0664 215.5 38.2852V32.4258H213.449V30.2812H215.617V27.3516H217.902V30.2812H221.324V32.4258H217.902V37.8398C217.902 38.5273 218.086 39.0742 218.453 39.4805C218.828 39.8789 219.309 40.0781 219.895 40.0781C220.387 40.0781 220.875 39.9297 221.359 39.6328L221.723 41.707ZM237.074 41.707C236.254 42.0586 235.461 42.2344 234.695 42.2344C233.93 42.2344 233.258 42.0703 232.68 41.7422C232.109 41.4141 231.66 40.9531 231.332 40.3594C231.012 39.7578 230.852 39.0664 230.852 38.2852V32.4258H228.801V30.2812H230.969V27.3516H233.254V30.2812H236.676V32.4258H233.254V37.8398C233.254 38.5273 233.438 39.0742 233.805 39.4805C234.18 39.8789 234.66 40.0781 235.246 40.0781C235.738 40.0781 236.227 39.9297 236.711 39.6328L237.074 41.707ZM244.762 42.2344C243.59 42.2344 242.535 41.9688 241.598 41.4375C240.66 40.9062 239.922 40.1836 239.383 39.2695C238.844 38.3477 238.574 37.3047 238.574 36.1406C238.574 34.9844 238.844 33.9492 239.383 33.0352C239.922 32.1133 240.66 31.3867 241.598 30.8555C242.535 30.3164 243.59 30.0469 244.762 30.0469C245.941 30.0469 246.996 30.3164 247.926 30.8555C248.855 31.3867 249.586 32.1133 250.117 33.0352C250.656 33.9492 250.926 34.9844 250.926 36.1406C250.926 37.3047 250.656 38.3477 250.117 39.2695C249.586 40.1836 248.855 40.9062 247.926 41.4375C246.996 41.9688 245.941 42.2344 244.762 42.2344ZM244.75 40.0781C245.461 40.0781 246.094 39.9062 246.648 39.5625C247.211 39.2109 247.652 38.7422 247.973 38.1562C248.301 37.5625 248.465 36.8867 248.465 36.1289C248.465 35.3867 248.301 34.7227 247.973 34.1367C247.652 33.543 247.211 33.0742 246.648 32.7305C246.094 32.3789 245.461 32.2031 244.75 32.2031C244.047 32.2031 243.414 32.3789 242.852 32.7305C242.289 33.0742 241.844 33.543 241.516 34.1367C241.195 34.7227 241.035 35.3867 241.035 36.1289C241.035 36.8867 241.195 37.5625 241.516 38.1562C241.844 38.7422 242.289 39.2109 242.852 39.5625C243.414 39.9062 244.047 40.0781 244.75 40.0781ZM261.273 42H259.152V24.4219H261.555V31.7812C262.086 31.2344 262.707 30.8086 263.418 30.5039C264.137 30.1992 264.918 30.0469 265.762 30.0469C266.895 30.0469 267.902 30.3125 268.785 30.8438C269.668 31.375 270.363 32.1016 270.871 33.0234C271.387 33.9375 271.645 34.9766 271.645 36.1406C271.645 37.2969 271.387 38.3359 270.871 39.2578C270.363 40.1797 269.668 40.9062 268.785 41.4375C267.902 41.9688 266.895 42.2344 265.762 42.2344C264.871 42.2344 264.051 42.0664 263.301 41.7305C262.559 41.3867 261.922 40.918 261.391 40.3242L261.273 42ZM265.375 40.0781C266.102 40.0781 266.75 39.9062 267.32 39.5625C267.898 39.2188 268.352 38.75 268.68 38.1562C269.016 37.5625 269.184 36.8906 269.184 36.1406C269.184 35.3906 269.016 34.7188 268.68 34.125C268.352 33.5312 267.898 33.0625 267.32 32.7188C266.75 32.375 266.102 32.2031 265.375 32.2031C264.68 32.2031 264.051 32.3594 263.488 32.6719C262.934 32.9844 262.484 33.4141 262.141 33.9609C261.797 34.5078 261.602 35.1328 261.555 35.8359V36.4336C261.602 37.1289 261.793 37.7539 262.129 38.3086C262.473 38.8555 262.922 39.2891 263.477 39.6094C264.039 39.9219 264.672 40.0781 265.375 40.0781ZM283.938 42H281.863L281.723 40.5C281.293 41.0469 280.75 41.4727 280.094 41.7773C279.438 42.082 278.711 42.2344 277.914 42.2344C277.078 42.2344 276.332 42.0703 275.676 41.7422C275.02 41.4141 274.504 40.9648 274.129 40.3945C273.754 39.8242 273.566 39.1758 273.566 38.4492C273.566 37.6836 273.77 37.0117 274.176 36.4336C274.582 35.8477 275.137 35.3906 275.84 35.0625C276.543 34.7266 277.344 34.5586 278.242 34.5586C278.805 34.5586 279.375 34.625 279.953 34.7578C280.539 34.8906 281.066 35.0781 281.535 35.3203V34.8867C281.535 34.3164 281.387 33.8281 281.09 33.4219C280.801 33.0078 280.402 32.6914 279.895 32.4727C279.395 32.2539 278.84 32.1445 278.23 32.1445C277.691 32.1445 277.141 32.2383 276.578 32.4258C276.023 32.6133 275.5 32.9023 275.008 33.293L274.281 31.3359C274.992 30.9141 275.73 30.5938 276.496 30.375C277.27 30.1562 278.027 30.0469 278.77 30.0469C279.832 30.0469 280.746 30.2578 281.512 30.6797C282.285 31.1016 282.883 31.7031 283.305 32.4844C283.727 33.2578 283.938 34.1719 283.938 35.2266V42ZM278.383 40.1953C278.938 40.1953 279.449 40.082 279.918 39.8555C280.387 39.6211 280.766 39.293 281.055 38.8711C281.352 38.4414 281.512 37.9414 281.535 37.3711V37.207C281.137 36.9102 280.688 36.6797 280.188 36.5156C279.695 36.3438 279.191 36.2578 278.676 36.2578C277.887 36.2578 277.23 36.4453 276.707 36.8203C276.184 37.1953 275.922 37.6758 275.922 38.2617C275.922 38.6289 276.027 38.9609 276.238 39.2578C276.457 39.5469 276.75 39.7773 277.117 39.9492C277.492 40.1133 277.914 40.1953 278.383 40.1953ZM298.305 42H295.902V35.6367C295.902 34.5977 295.617 33.7695 295.047 33.1523C294.484 32.5352 293.727 32.2266 292.773 32.2266C291.789 32.2266 290.996 32.5547 290.395 33.2109C289.793 33.8672 289.492 34.7383 289.492 35.8242V42H287.09V30.2812H289.117L289.199 32.168C289.629 31.4805 290.191 30.957 290.887 30.5977C291.582 30.2305 292.398 30.0469 293.336 30.0469C294.875 30.0469 296.086 30.5117 296.969 31.4414C297.859 32.3711 298.305 33.6523 298.305 35.2852V42ZM303.859 42H301.457V24.4219H303.859V36.2695L304.855 35.0742L309.379 30.2812H312.391L307.551 35.4141L313.07 42H309.965L305.887 37.0547L303.859 39.1406V42Z" fill="#F7FFF7"/>
<path d="M126.928 71.1152L127.543 70.125C127.805 70.3359 128.061 70.5117 128.311 70.6523C128.564 70.7891 128.82 70.8906 129.078 70.957C129.336 71.0195 129.6 71.0508 129.869 71.0508C130.236 71.0508 130.557 70.9922 130.83 70.875C131.104 70.7578 131.316 70.5938 131.469 70.3828C131.621 70.1719 131.697 69.9297 131.697 69.6562C131.697 69.3477 131.607 69.0918 131.428 68.8887C131.252 68.6855 131.021 68.5117 130.736 68.3672C130.451 68.2188 130.146 68.0781 129.822 67.9453C129.537 67.8281 129.252 67.7012 128.967 67.5645C128.686 67.4238 128.428 67.2617 128.193 67.0781C127.963 66.8945 127.777 66.6719 127.637 66.4102C127.5 66.1445 127.432 65.8242 127.432 65.4492C127.432 64.9688 127.553 64.5469 127.795 64.1836C128.037 63.8203 128.371 63.5391 128.797 63.3398C129.227 63.1406 129.721 63.041 130.279 63.041C130.658 63.041 131.045 63.0918 131.439 63.1934C131.838 63.291 132.227 63.4375 132.605 63.6328L132.084 64.6816C131.811 64.5215 131.52 64.3965 131.211 64.3066C130.906 64.2168 130.611 64.1719 130.326 64.1719C130.014 64.1719 129.738 64.2227 129.5 64.3242C129.266 64.4258 129.082 64.5684 128.949 64.752C128.816 64.9355 128.75 65.1504 128.75 65.3965C128.75 65.6738 128.834 65.9082 129.002 66.0996C129.17 66.291 129.389 66.459 129.658 66.6035C129.932 66.7441 130.221 66.8809 130.525 67.0137C130.822 67.1465 131.117 67.2871 131.41 67.4355C131.707 67.5801 131.975 67.752 132.213 67.9512C132.455 68.1504 132.648 68.3887 132.793 68.666C132.941 68.9395 133.016 69.2695 133.016 69.6562C133.016 70.1602 132.887 70.6016 132.629 70.9805C132.371 71.3555 132.01 71.6484 131.545 71.8594C131.084 72.0703 130.543 72.1758 129.922 72.1758C129.371 72.1758 128.844 72.0879 128.34 71.9121C127.84 71.7324 127.369 71.4668 126.928 71.1152ZM137.668 72H136.379V64.3477H133.631V63.2109H140.416V64.3477H137.668V72ZM141.436 72V63.2109H146.914V64.3477H142.725V66.9785H146.674V68.1152H142.725V70.8633H146.973V72H141.436ZM148.607 72V63.2109H151.414C152.141 63.2109 152.764 63.3262 153.283 63.5566C153.807 63.7832 154.207 64.1094 154.484 64.5352C154.762 64.957 154.9 65.4629 154.9 66.0527C154.9 66.6387 154.762 67.1465 154.484 67.5762C154.207 68.002 153.807 68.3301 153.283 68.5605C152.764 68.791 152.143 68.9062 151.42 68.9062H149.896V72H148.607ZM149.896 67.7695H151.297C152.027 67.7695 152.59 67.6191 152.984 67.3184C153.383 67.0137 153.582 66.5918 153.582 66.0527C153.582 65.5137 153.383 65.0957 152.984 64.7988C152.59 64.498 152.027 64.3477 151.297 64.3477H149.896V67.7695ZM164.721 72H159.33V71.2148C160.045 70.5977 160.65 70.0391 161.146 69.5391C161.643 69.0391 162.043 68.582 162.348 68.168C162.656 67.7539 162.881 67.3672 163.021 67.0078C163.166 66.6445 163.238 66.293 163.238 65.9531C163.238 65.5977 163.172 65.2852 163.039 65.0156C162.906 64.7461 162.719 64.5371 162.477 64.3887C162.238 64.2402 161.963 64.166 161.65 64.166C161.291 64.166 160.947 64.2695 160.619 64.4766C160.291 64.6797 160.02 64.9609 159.805 65.3203L159.119 64.5117C159.436 64.043 159.836 63.6797 160.32 63.4219C160.809 63.1641 161.328 63.0352 161.879 63.0352C162.391 63.0352 162.848 63.1484 163.25 63.375C163.656 63.5977 163.975 63.9082 164.205 64.3066C164.439 64.7051 164.557 65.1699 164.557 65.7012C164.557 66.1113 164.482 66.5312 164.334 66.9609C164.186 67.3867 163.965 67.8184 163.672 68.2559C163.383 68.6895 163.023 69.125 162.594 69.5625C162.168 70 161.68 70.4355 161.129 70.8691H164.721V72Z" fill="#F7FFF7"/>
<path d="M127.156 100.23L128.387 98.25C128.91 98.6719 129.422 99.0234 129.922 99.3047C130.43 99.5781 130.941 99.7812 131.457 99.9141C131.973 100.039 132.5 100.102 133.039 100.102C133.773 100.102 134.414 99.9844 134.961 99.75C135.508 99.5156 135.934 99.1875 136.238 98.7656C136.543 98.3438 136.695 97.8594 136.695 97.3125C136.695 96.6953 136.516 96.1836 136.156 95.7773C135.805 95.3711 135.344 95.0234 134.773 94.7344C134.203 94.4375 133.594 94.1562 132.945 93.8906C132.375 93.6562 131.805 93.4023 131.234 93.1289C130.672 92.8477 130.156 92.5234 129.688 92.1562C129.227 91.7891 128.855 91.3438 128.574 90.8203C128.301 90.2891 128.164 89.6484 128.164 88.8984C128.164 87.9375 128.406 87.0938 128.891 86.3672C129.375 85.6406 130.043 85.0781 130.895 84.6797C131.754 84.2812 132.742 84.082 133.859 84.082C134.617 84.082 135.391 84.1836 136.18 84.3867C136.977 84.582 137.754 84.875 138.512 85.2656L137.469 87.3633C136.922 87.043 136.34 86.793 135.723 86.6133C135.113 86.4336 134.523 86.3438 133.953 86.3438C133.328 86.3438 132.777 86.4453 132.301 86.6484C131.832 86.8516 131.465 87.1367 131.199 87.5039C130.934 87.8711 130.801 88.3008 130.801 88.793C130.801 89.3477 130.969 89.8164 131.305 90.1992C131.641 90.582 132.078 90.918 132.617 91.207C133.164 91.4883 133.742 91.7617 134.352 92.0273C134.945 92.293 135.535 92.5742 136.121 92.8711C136.715 93.1602 137.25 93.5039 137.727 93.9023C138.211 94.3008 138.598 94.7773 138.887 95.332C139.184 95.8789 139.332 96.5391 139.332 97.3125C139.332 98.3203 139.074 99.2031 138.559 99.9609C138.043 100.711 137.32 101.297 136.391 101.719C135.469 102.141 134.387 102.352 133.145 102.352C132.043 102.352 130.988 102.176 129.98 101.824C128.98 101.465 128.039 100.934 127.156 100.23ZM152.586 100.605C151.133 101.691 149.535 102.234 147.793 102.234C146.551 102.234 145.438 101.961 144.453 101.414C143.469 100.867 142.691 100.121 142.121 99.1758C141.551 98.2305 141.266 97.1641 141.266 95.9766C141.266 94.8438 141.527 93.832 142.051 92.9414C142.574 92.043 143.289 91.3359 144.195 90.8203C145.102 90.3047 146.129 90.0469 147.277 90.0469C148.465 90.0469 149.508 90.3281 150.406 90.8906C151.312 91.4531 152.016 92.2383 152.516 93.2461C153.023 94.2461 153.277 95.4062 153.277 96.7266V97.1016H143.867C144.008 97.7109 144.273 98.2461 144.664 98.707C145.055 99.1602 145.539 99.5156 146.117 99.7734C146.695 100.023 147.348 100.148 148.074 100.148C149.371 100.148 150.562 99.7266 151.648 98.8828L152.586 100.605ZM143.762 95.4375H151.039C150.961 94.7812 150.758 94.2109 150.43 93.7266C150.102 93.2344 149.676 92.8516 149.152 92.5781C148.637 92.2969 148.055 92.1562 147.406 92.1562C146.75 92.1562 146.16 92.2969 145.637 92.5781C145.113 92.8516 144.688 93.2344 144.359 93.7266C144.039 94.2188 143.84 94.7891 143.762 95.4375ZM162.711 101.707C161.891 102.059 161.098 102.234 160.332 102.234C159.566 102.234 158.895 102.07 158.316 101.742C157.746 101.414 157.297 100.953 156.969 100.359C156.648 99.7578 156.488 99.0664 156.488 98.2852V92.4258H154.438V90.2812H156.605V87.3516H158.891V90.2812H162.312V92.4258H158.891V97.8398C158.891 98.5273 159.074 99.0742 159.441 99.4805C159.816 99.8789 160.297 100.078 160.883 100.078C161.375 100.078 161.863 99.9297 162.348 99.6328L162.711 101.707ZM183.91 88.1836C183.301 87.5898 182.586 87.1367 181.766 86.8242C180.945 86.5039 180.074 86.3438 179.152 86.3438C178.207 86.3438 177.336 86.5078 176.539 86.8359C175.75 87.1641 175.066 87.6328 174.488 88.2422C173.918 88.8516 173.473 89.5742 173.152 90.4102C172.84 91.2461 172.684 92.168 172.684 93.1758C172.684 94.1836 172.84 95.1094 173.152 95.9531C173.465 96.7969 173.906 97.5273 174.477 98.1445C175.055 98.7617 175.734 99.2383 176.516 99.5742C177.305 99.9102 178.168 100.078 179.105 100.078C179.949 100.078 180.727 99.9414 181.438 99.668C182.148 99.3945 182.773 99.0039 183.312 98.4961C183.852 97.9883 184.289 97.3789 184.625 96.668C184.961 95.957 185.176 95.1719 185.27 94.3125H179.281V92.3086H187.555L187.625 93.2695C187.625 94.6055 187.418 95.8281 187.004 96.9375C186.59 98.0469 186 99.0078 185.234 99.8203C184.477 100.625 183.574 101.25 182.527 101.695C181.488 102.133 180.34 102.352 179.082 102.352C177.785 102.352 176.586 102.125 175.484 101.672C174.391 101.211 173.434 100.57 172.613 99.75C171.801 98.9219 171.168 97.9531 170.715 96.8438C170.27 95.7344 170.047 94.5312 170.047 93.2344C170.047 91.9219 170.273 90.7109 170.727 89.6016C171.18 88.4844 171.812 87.5117 172.625 86.6836C173.445 85.8555 174.406 85.2148 175.508 84.7617C176.609 84.3008 177.809 84.0703 179.105 84.0703C180.332 84.0703 181.5 84.2812 182.609 84.7031C183.727 85.125 184.719 85.7305 185.586 86.5195L183.91 88.1836ZM195.57 102.234C194.398 102.234 193.344 101.969 192.406 101.438C191.469 100.906 190.73 100.184 190.191 99.2695C189.652 98.3477 189.383 97.3047 189.383 96.1406C189.383 94.9844 189.652 93.9492 190.191 93.0352C190.73 92.1133 191.469 91.3867 192.406 90.8555C193.344 90.3164 194.398 90.0469 195.57 90.0469C196.75 90.0469 197.805 90.3164 198.734 90.8555C199.664 91.3867 200.395 92.1133 200.926 93.0352C201.465 93.9492 201.734 94.9844 201.734 96.1406C201.734 97.3047 201.465 98.3477 200.926 99.2695C200.395 100.184 199.664 100.906 198.734 101.438C197.805 101.969 196.75 102.234 195.57 102.234ZM195.559 100.078C196.27 100.078 196.902 99.9062 197.457 99.5625C198.02 99.2109 198.461 98.7422 198.781 98.1562C199.109 97.5625 199.273 96.8867 199.273 96.1289C199.273 95.3867 199.109 94.7227 198.781 94.1367C198.461 93.543 198.02 93.0742 197.457 92.7305C196.902 92.3789 196.27 92.2031 195.559 92.2031C194.855 92.2031 194.223 92.3789 193.66 92.7305C193.098 93.0742 192.652 93.543 192.324 94.1367C192.004 94.7227 191.844 95.3867 191.844 96.1289C191.844 96.8867 192.004 97.5625 192.324 98.1562C192.652 98.7422 193.098 99.2109 193.66 99.5625C194.223 99.9062 194.855 100.078 195.559 100.078ZM214.027 102H211.953L211.812 100.5C211.383 101.047 210.84 101.473 210.184 101.777C209.527 102.082 208.801 102.234 208.004 102.234C207.168 102.234 206.422 102.07 205.766 101.742C205.109 101.414 204.594 100.965 204.219 100.395C203.844 99.8242 203.656 99.1758 203.656 98.4492C203.656 97.6836 203.859 97.0117 204.266 96.4336C204.672 95.8477 205.227 95.3906 205.93 95.0625C206.633 94.7266 207.434 94.5586 208.332 94.5586C208.895 94.5586 209.465 94.625 210.043 94.7578C210.629 94.8906 211.156 95.0781 211.625 95.3203V94.8867C211.625 94.3164 211.477 93.8281 211.18 93.4219C210.891 93.0078 210.492 92.6914 209.984 92.4727C209.484 92.2539 208.93 92.1445 208.32 92.1445C207.781 92.1445 207.23 92.2383 206.668 92.4258C206.113 92.6133 205.59 92.9023 205.098 93.293L204.371 91.3359C205.082 90.9141 205.82 90.5938 206.586 90.375C207.359 90.1562 208.117 90.0469 208.859 90.0469C209.922 90.0469 210.836 90.2578 211.602 90.6797C212.375 91.1016 212.973 91.7031 213.395 92.4844C213.816 93.2578 214.027 94.1719 214.027 95.2266V102ZM208.473 100.195C209.027 100.195 209.539 100.082 210.008 99.8555C210.477 99.6211 210.855 99.293 211.145 98.8711C211.441 98.4414 211.602 97.9414 211.625 97.3711V97.207C211.227 96.9102 210.777 96.6797 210.277 96.5156C209.785 96.3438 209.281 96.2578 208.766 96.2578C207.977 96.2578 207.32 96.4453 206.797 96.8203C206.273 97.1953 206.012 97.6758 206.012 98.2617C206.012 98.6289 206.117 98.9609 206.328 99.2578C206.547 99.5469 206.84 99.7773 207.207 99.9492C207.582 100.113 208.004 100.195 208.473 100.195ZM219.734 102H217.18V83.9531H219.734V102ZM222.289 100.98L222.875 98.8242C223.141 99.0898 223.457 99.3242 223.824 99.5273C224.199 99.7305 224.594 99.8906 225.008 100.008C225.43 100.117 225.844 100.172 226.25 100.172C226.891 100.172 227.406 100.035 227.797 99.7617C228.188 99.4883 228.383 99.125 228.383 98.6719C228.383 98.3359 228.273 98.0586 228.055 97.8398C227.844 97.6133 227.559 97.418 227.199 97.2539C226.848 97.0898 226.469 96.9297 226.062 96.7734C225.539 96.5781 225.016 96.3516 224.492 96.0938C223.977 95.8359 223.543 95.4922 223.191 95.0625C222.84 94.6328 222.664 94.0664 222.664 93.3633C222.664 92.6914 222.836 92.1094 223.18 91.6172C223.523 91.1172 224.004 90.7305 224.621 90.457C225.238 90.1836 225.949 90.0469 226.754 90.0469C228.004 90.0469 229.242 90.3594 230.469 90.9844L229.766 93.0352C229.516 92.8555 229.219 92.6953 228.875 92.5547C228.531 92.4141 228.18 92.3047 227.82 92.2266C227.461 92.1406 227.129 92.0977 226.824 92.0977C226.316 92.0977 225.906 92.2109 225.594 92.4375C225.289 92.6641 225.137 92.9688 225.137 93.3516C225.137 93.5859 225.211 93.8008 225.359 93.9961C225.508 94.1836 225.742 94.3711 226.062 94.5586C226.391 94.7383 226.832 94.9414 227.387 95.168C227.918 95.3789 228.449 95.6211 228.98 95.8945C229.512 96.168 229.953 96.5234 230.305 96.9609C230.664 97.3984 230.844 97.9727 230.844 98.6836C230.844 99.3867 230.656 100.008 230.281 100.547C229.906 101.078 229.383 101.492 228.711 101.789C228.047 102.086 227.273 102.234 226.391 102.234C224.93 102.234 223.562 101.816 222.289 100.98Z" fill="#F7FFF7"/>
<path d="M126.709 131.115L127.324 130.125C127.586 130.336 127.842 130.512 128.092 130.652C128.346 130.789 128.602 130.891 128.859 130.957C129.117 131.02 129.381 131.051 129.65 131.051C130.018 131.051 130.338 130.992 130.611 130.875C130.885 130.758 131.098 130.594 131.25 130.383C131.402 130.172 131.479 129.93 131.479 129.656C131.479 129.348 131.389 129.092 131.209 128.889C131.033 128.686 130.803 128.512 130.518 128.367C130.232 128.219 129.928 128.078 129.604 127.945C129.318 127.828 129.033 127.701 128.748 127.564C128.467 127.424 128.209 127.262 127.975 127.078C127.744 126.895 127.559 126.672 127.418 126.41C127.281 126.145 127.213 125.824 127.213 125.449C127.213 124.969 127.334 124.547 127.576 124.184C127.818 123.82 128.152 123.539 128.578 123.34C129.008 123.141 129.502 123.041 130.061 123.041C130.439 123.041 130.826 123.092 131.221 123.193C131.619 123.291 132.008 123.438 132.387 123.633L131.865 124.682C131.592 124.521 131.301 124.396 130.992 124.307C130.688 124.217 130.393 124.172 130.107 124.172C129.795 124.172 129.52 124.223 129.281 124.324C129.047 124.426 128.863 124.568 128.73 124.752C128.598 124.936 128.531 125.15 128.531 125.396C128.531 125.674 128.615 125.908 128.783 126.1C128.951 126.291 129.17 126.459 129.439 126.604C129.713 126.744 130.002 126.881 130.307 127.014C130.604 127.146 130.898 127.287 131.191 127.436C131.488 127.58 131.756 127.752 131.994 127.951C132.236 128.15 132.43 128.389 132.574 128.666C132.723 128.939 132.797 129.27 132.797 129.656C132.797 130.16 132.668 130.602 132.41 130.98C132.152 131.355 131.791 131.648 131.326 131.859C130.865 132.07 130.324 132.176 129.703 132.176C129.152 132.176 128.625 132.088 128.121 131.912C127.621 131.732 127.15 131.467 126.709 131.115ZM137.449 132H136.16V124.348H133.412V123.211H140.197V124.348H137.449V132ZM141.217 132V123.211H146.695V124.348H142.506V126.979H146.455V128.115H142.506V130.863H146.754V132H141.217ZM148.389 132V123.211H151.195C151.922 123.211 152.545 123.326 153.064 123.557C153.588 123.783 153.988 124.109 154.266 124.535C154.543 124.957 154.682 125.463 154.682 126.053C154.682 126.639 154.543 127.146 154.266 127.576C153.988 128.002 153.588 128.33 153.064 128.561C152.545 128.791 151.924 128.906 151.201 128.906H149.678V132H148.389ZM149.678 127.77H151.078C151.809 127.77 152.371 127.619 152.766 127.318C153.164 127.014 153.363 126.592 153.363 126.053C153.363 125.514 153.164 125.096 152.766 124.799C152.371 124.498 151.809 124.348 151.078 124.348H149.678V127.77ZM158.561 131.197L159.082 130.248C159.402 130.51 159.727 130.709 160.055 130.846C160.387 130.979 160.719 131.045 161.051 131.045C161.391 131.045 161.689 130.979 161.947 130.846C162.209 130.713 162.412 130.529 162.557 130.295C162.705 130.057 162.779 129.785 162.779 129.48C162.779 128.98 162.582 128.592 162.188 128.314C161.797 128.033 161.254 127.893 160.559 127.893H160.23V126.973H160.559C160.934 126.973 161.27 126.908 161.566 126.779C161.863 126.646 162.096 126.467 162.264 126.24C162.436 126.01 162.521 125.75 162.521 125.461C162.521 125.211 162.457 124.988 162.328 124.793C162.203 124.598 162.029 124.445 161.807 124.336C161.588 124.223 161.336 124.166 161.051 124.166C160.77 124.166 160.484 124.227 160.195 124.348C159.906 124.465 159.621 124.639 159.34 124.869L158.748 123.973C159.08 123.672 159.453 123.441 159.867 123.281C160.281 123.117 160.713 123.035 161.162 123.035C161.662 123.035 162.105 123.131 162.492 123.322C162.879 123.51 163.184 123.768 163.406 124.096C163.633 124.424 163.746 124.801 163.746 125.227C163.746 125.715 163.598 126.152 163.301 126.539C163.004 126.926 162.619 127.211 162.146 127.395C162.756 127.543 163.236 127.812 163.588 128.203C163.943 128.594 164.121 129.074 164.121 129.645C164.121 130.133 163.992 130.568 163.734 130.951C163.477 131.33 163.125 131.629 162.68 131.848C162.234 132.066 161.727 132.176 161.156 132.176C160.672 132.176 160.209 132.092 159.768 131.924C159.326 131.756 158.924 131.514 158.561 131.197Z" fill="#F7FFF7"/>
<path d="M141.113 148.184C140.504 147.59 139.789 147.137 138.969 146.824C138.148 146.504 137.277 146.344 136.355 146.344C135.41 146.344 134.539 146.508 133.742 146.836C132.953 147.164 132.27 147.633 131.691 148.242C131.121 148.852 130.676 149.574 130.355 150.41C130.043 151.246 129.887 152.168 129.887 153.176C129.887 154.184 130.043 155.109 130.355 155.953C130.668 156.797 131.109 157.527 131.68 158.145C132.258 158.762 132.938 159.238 133.719 159.574C134.508 159.91 135.371 160.078 136.309 160.078C137.152 160.078 137.93 159.941 138.641 159.668C139.352 159.395 139.977 159.004 140.516 158.496C141.055 157.988 141.492 157.379 141.828 156.668C142.164 155.957 142.379 155.172 142.473 154.312H136.484V152.309H144.758L144.828 153.27C144.828 154.605 144.621 155.828 144.207 156.938C143.793 158.047 143.203 159.008 142.438 159.82C141.68 160.625 140.777 161.25 139.73 161.695C138.691 162.133 137.543 162.352 136.285 162.352C134.988 162.352 133.789 162.125 132.688 161.672C131.594 161.211 130.637 160.57 129.816 159.75C129.004 158.922 128.371 157.953 127.918 156.844C127.473 155.734 127.25 154.531 127.25 153.234C127.25 151.922 127.477 150.711 127.93 149.602C128.383 148.484 129.016 147.512 129.828 146.684C130.648 145.855 131.609 145.215 132.711 144.762C133.812 144.301 135.012 144.07 136.309 144.07C137.535 144.07 138.703 144.281 139.812 144.703C140.93 145.125 141.922 145.73 142.789 146.52L141.113 148.184ZM149.855 162H147.453V150.281H149.551L149.645 152.508C150.051 151.734 150.609 151.133 151.32 150.703C152.039 150.266 152.863 150.047 153.793 150.047C154.02 150.047 154.246 150.062 154.473 150.094C154.707 150.117 154.941 150.156 155.176 150.211L154.871 152.379C154.418 152.262 153.973 152.203 153.535 152.203C152.809 152.203 152.168 152.379 151.613 152.73C151.059 153.074 150.625 153.551 150.312 154.16C150.008 154.77 149.855 155.473 149.855 156.27V162ZM166.449 162H164.375L164.234 160.5C163.805 161.047 163.262 161.473 162.605 161.777C161.949 162.082 161.223 162.234 160.426 162.234C159.59 162.234 158.844 162.07 158.188 161.742C157.531 161.414 157.016 160.965 156.641 160.395C156.266 159.824 156.078 159.176 156.078 158.449C156.078 157.684 156.281 157.012 156.688 156.434C157.094 155.848 157.648 155.391 158.352 155.062C159.055 154.727 159.855 154.559 160.754 154.559C161.316 154.559 161.887 154.625 162.465 154.758C163.051 154.891 163.578 155.078 164.047 155.32V154.887C164.047 154.316 163.898 153.828 163.602 153.422C163.312 153.008 162.914 152.691 162.406 152.473C161.906 152.254 161.352 152.145 160.742 152.145C160.203 152.145 159.652 152.238 159.09 152.426C158.535 152.613 158.012 152.902 157.52 153.293L156.793 151.336C157.504 150.914 158.242 150.594 159.008 150.375C159.781 150.156 160.539 150.047 161.281 150.047C162.344 150.047 163.258 150.258 164.023 150.68C164.797 151.102 165.395 151.703 165.816 152.484C166.238 153.258 166.449 154.172 166.449 155.227V162ZM160.895 160.195C161.449 160.195 161.961 160.082 162.43 159.855C162.898 159.621 163.277 159.293 163.566 158.871C163.863 158.441 164.023 157.941 164.047 157.371V157.207C163.648 156.91 163.199 156.68 162.699 156.516C162.207 156.344 161.703 156.258 161.188 156.258C160.398 156.258 159.742 156.445 159.219 156.82C158.695 157.195 158.434 157.676 158.434 158.262C158.434 158.629 158.539 158.961 158.75 159.258C158.969 159.547 159.262 159.777 159.629 159.949C160.004 160.113 160.426 160.195 160.895 160.195ZM180.816 162H178.414V155.637C178.414 154.598 178.129 153.77 177.559 153.152C176.996 152.535 176.238 152.227 175.285 152.227C174.301 152.227 173.508 152.555 172.906 153.211C172.305 153.867 172.004 154.738 172.004 155.824V162H169.602V150.281H171.629L171.711 152.168C172.141 151.48 172.703 150.957 173.398 150.598C174.094 150.23 174.91 150.047 175.848 150.047C177.387 150.047 178.598 150.512 179.48 151.441C180.371 152.371 180.816 153.652 180.816 155.285V162ZM191 161.707C190.18 162.059 189.387 162.234 188.621 162.234C187.855 162.234 187.184 162.07 186.605 161.742C186.035 161.414 185.586 160.953 185.258 160.359C184.938 159.758 184.777 159.066 184.777 158.285V152.426H182.727V150.281H184.895V147.352H187.18V150.281H190.602V152.426H187.18V157.84C187.18 158.527 187.363 159.074 187.73 159.48C188.105 159.879 188.586 160.078 189.172 160.078C189.664 160.078 190.152 159.93 190.637 159.633L191 161.707ZM199.086 162V144.422H204.699C206.152 144.422 207.398 144.652 208.438 145.113C209.484 145.566 210.285 146.219 210.84 147.07C211.395 147.914 211.672 148.926 211.672 150.105C211.672 151.277 211.395 152.293 210.84 153.152C210.285 154.004 209.484 154.66 208.438 155.121C207.398 155.582 206.156 155.812 204.711 155.812H201.664V162H199.086ZM201.664 153.539H204.465C205.926 153.539 207.051 153.238 207.84 152.637C208.637 152.027 209.035 151.184 209.035 150.105C209.035 149.027 208.637 148.191 207.84 147.598C207.051 146.996 205.926 146.695 204.465 146.695H201.664V153.539ZM223.789 160.605C222.336 161.691 220.738 162.234 218.996 162.234C217.754 162.234 216.641 161.961 215.656 161.414C214.672 160.867 213.895 160.121 213.324 159.176C212.754 158.23 212.469 157.164 212.469 155.977C212.469 154.844 212.73 153.832 213.254 152.941C213.777 152.043 214.492 151.336 215.398 150.82C216.305 150.305 217.332 150.047 218.48 150.047C219.668 150.047 220.711 150.328 221.609 150.891C222.516 151.453 223.219 152.238 223.719 153.246C224.227 154.246 224.48 155.406 224.48 156.727V157.102H215.07C215.211 157.711 215.477 158.246 215.867 158.707C216.258 159.16 216.742 159.516 217.32 159.773C217.898 160.023 218.551 160.148 219.277 160.148C220.574 160.148 221.766 159.727 222.852 158.883L223.789 160.605ZM214.965 155.438H222.242C222.164 154.781 221.961 154.211 221.633 153.727C221.305 153.234 220.879 152.852 220.355 152.578C219.84 152.297 219.258 152.156 218.609 152.156C217.953 152.156 217.363 152.297 216.84 152.578C216.316 152.852 215.891 153.234 215.562 153.727C215.242 154.219 215.043 154.789 214.965 155.438ZM229.402 162H227V150.281H229.098L229.191 152.508C229.598 151.734 230.156 151.133 230.867 150.703C231.586 150.266 232.41 150.047 233.34 150.047C233.566 150.047 233.793 150.062 234.02 150.094C234.254 150.117 234.488 150.156 234.723 150.211L234.418 152.379C233.965 152.262 233.52 152.203 233.082 152.203C232.355 152.203 231.715 152.379 231.16 152.73C230.605 153.074 230.172 153.551 229.859 154.16C229.555 154.77 229.402 155.473 229.402 156.27V162ZM255.289 162H252.887V155.871C252.887 154.707 252.637 153.805 252.137 153.164C251.645 152.523 250.949 152.203 250.051 152.203C249.137 152.203 248.422 152.527 247.906 153.176C247.391 153.824 247.133 154.723 247.133 155.871V162H244.73V155.871C244.73 154.707 244.48 153.805 243.98 153.164C243.48 152.523 242.781 152.203 241.883 152.203C240.969 152.203 240.254 152.527 239.738 153.176C239.223 153.824 238.965 154.723 238.965 155.871V162H236.562V150.281H238.508L238.602 152.32C238.992 151.578 239.52 151.016 240.184 150.633C240.855 150.242 241.645 150.047 242.551 150.047C243.512 150.047 244.336 150.258 245.023 150.68C245.711 151.102 246.23 151.707 246.582 152.496C246.973 151.691 247.512 151.082 248.199 150.668C248.895 150.254 249.719 150.047 250.672 150.047C252.125 150.047 253.258 150.508 254.07 151.43C254.883 152.352 255.289 153.637 255.289 155.285V162ZM259.672 146.883C259.305 146.883 258.996 146.754 258.746 146.496C258.496 146.238 258.371 145.926 258.371 145.559C258.371 145.191 258.496 144.883 258.746 144.633C258.996 144.375 259.305 144.246 259.672 144.246C260.047 144.246 260.359 144.375 260.609 144.633C260.867 144.883 260.996 145.191 260.996 145.559C260.996 145.926 260.867 146.238 260.609 146.496C260.359 146.754 260.047 146.883 259.672 146.883ZM260.867 162H258.465V150.281H260.867V162ZM263.469 160.98L264.055 158.824C264.32 159.09 264.637 159.324 265.004 159.527C265.379 159.73 265.773 159.891 266.188 160.008C266.609 160.117 267.023 160.172 267.43 160.172C268.07 160.172 268.586 160.035 268.977 159.762C269.367 159.488 269.562 159.125 269.562 158.672C269.562 158.336 269.453 158.059 269.234 157.84C269.023 157.613 268.738 157.418 268.379 157.254C268.027 157.09 267.648 156.93 267.242 156.773C266.719 156.578 266.195 156.352 265.672 156.094C265.156 155.836 264.723 155.492 264.371 155.062C264.02 154.633 263.844 154.066 263.844 153.363C263.844 152.691 264.016 152.109 264.359 151.617C264.703 151.117 265.184 150.73 265.801 150.457C266.418 150.184 267.129 150.047 267.934 150.047C269.184 150.047 270.422 150.359 271.648 150.984L270.945 153.035C270.695 152.855 270.398 152.695 270.055 152.555C269.711 152.414 269.359 152.305 269 152.227C268.641 152.141 268.309 152.098 268.004 152.098C267.496 152.098 267.086 152.211 266.773 152.438C266.469 152.664 266.316 152.969 266.316 153.352C266.316 153.586 266.391 153.801 266.539 153.996C266.688 154.184 266.922 154.371 267.242 154.559C267.57 154.738 268.012 154.941 268.566 155.168C269.098 155.379 269.629 155.621 270.16 155.895C270.691 156.168 271.133 156.523 271.484 156.961C271.844 157.398 272.023 157.973 272.023 158.684C272.023 159.387 271.836 160.008 271.461 160.547C271.086 161.078 270.562 161.492 269.891 161.789C269.227 162.086 268.453 162.234 267.57 162.234C266.109 162.234 264.742 161.816 263.469 160.98ZM273.758 160.98L274.344 158.824C274.609 159.09 274.926 159.324 275.293 159.527C275.668 159.73 276.062 159.891 276.477 160.008C276.898 160.117 277.312 160.172 277.719 160.172C278.359 160.172 278.875 160.035 279.266 159.762C279.656 159.488 279.852 159.125 279.852 158.672C279.852 158.336 279.742 158.059 279.523 157.84C279.312 157.613 279.027 157.418 278.668 157.254C278.316 157.09 277.938 156.93 277.531 156.773C277.008 156.578 276.484 156.352 275.961 156.094C275.445 155.836 275.012 155.492 274.66 155.062C274.309 154.633 274.133 154.066 274.133 153.363C274.133 152.691 274.305 152.109 274.648 151.617C274.992 151.117 275.473 150.73 276.09 150.457C276.707 150.184 277.418 150.047 278.223 150.047C279.473 150.047 280.711 150.359 281.938 150.984L281.234 153.035C280.984 152.855 280.688 152.695 280.344 152.555C280 152.414 279.648 152.305 279.289 152.227C278.93 152.141 278.598 152.098 278.293 152.098C277.785 152.098 277.375 152.211 277.062 152.438C276.758 152.664 276.605 152.969 276.605 153.352C276.605 153.586 276.68 153.801 276.828 153.996C276.977 154.184 277.211 154.371 277.531 154.559C277.859 154.738 278.301 154.941 278.855 155.168C279.387 155.379 279.918 155.621 280.449 155.895C280.98 156.168 281.422 156.523 281.773 156.961C282.133 157.398 282.312 157.973 282.312 158.684C282.312 159.387 282.125 160.008 281.75 160.547C281.375 161.078 280.852 161.492 280.18 161.789C279.516 162.086 278.742 162.234 277.859 162.234C276.398 162.234 275.031 161.816 273.758 160.98ZM286.109 146.883C285.742 146.883 285.434 146.754 285.184 146.496C284.934 146.238 284.809 145.926 284.809 145.559C284.809 145.191 284.934 144.883 285.184 144.633C285.434 144.375 285.742 144.246 286.109 144.246C286.484 144.246 286.797 144.375 287.047 144.633C287.305 144.883 287.434 145.191 287.434 145.559C287.434 145.926 287.305 146.238 287.047 146.496C286.797 146.754 286.484 146.883 286.109 146.883ZM287.305 162H284.902V150.281H287.305V162ZM296.047 162.234C294.875 162.234 293.82 161.969 292.883 161.438C291.945 160.906 291.207 160.184 290.668 159.27C290.129 158.348 289.859 157.305 289.859 156.141C289.859 154.984 290.129 153.949 290.668 153.035C291.207 152.113 291.945 151.387 292.883 150.855C293.82 150.316 294.875 150.047 296.047 150.047C297.227 150.047 298.281 150.316 299.211 150.855C300.141 151.387 300.871 152.113 301.402 153.035C301.941 153.949 302.211 154.984 302.211 156.141C302.211 157.305 301.941 158.348 301.402 159.27C300.871 160.184 300.141 160.906 299.211 161.438C298.281 161.969 297.227 162.234 296.047 162.234ZM296.035 160.078C296.746 160.078 297.379 159.906 297.934 159.562C298.496 159.211 298.938 158.742 299.258 158.156C299.586 157.562 299.75 156.887 299.75 156.129C299.75 155.387 299.586 154.723 299.258 154.137C298.938 153.543 298.496 153.074 297.934 152.73C297.379 152.379 296.746 152.203 296.035 152.203C295.332 152.203 294.699 152.379 294.137 152.73C293.574 153.074 293.129 153.543 292.801 154.137C292.48 154.723 292.32 155.387 292.32 156.129C292.32 156.887 292.48 157.562 292.801 158.156C293.129 158.742 293.574 159.211 294.137 159.562C294.699 159.906 295.332 160.078 296.035 160.078ZM315.934 162H313.531V155.637C313.531 154.598 313.246 153.77 312.676 153.152C312.113 152.535 311.355 152.227 310.402 152.227C309.418 152.227 308.625 152.555 308.023 153.211C307.422 153.867 307.121 154.738 307.121 155.824V162H304.719V150.281H306.746L306.828 152.168C307.258 151.48 307.82 150.957 308.516 150.598C309.211 150.23 310.027 150.047 310.965 150.047C312.504 150.047 313.715 150.512 314.598 151.441C315.488 152.371 315.934 153.652 315.934 155.285V162ZM318.266 160.98L318.852 158.824C319.117 159.09 319.434 159.324 319.801 159.527C320.176 159.73 320.57 159.891 320.984 160.008C321.406 160.117 321.82 160.172 322.227 160.172C322.867 160.172 323.383 160.035 323.773 159.762C324.164 159.488 324.359 159.125 324.359 158.672C324.359 158.336 324.25 158.059 324.031 157.84C323.82 157.613 323.535 157.418 323.176 157.254C322.824 157.09 322.445 156.93 322.039 156.773C321.516 156.578 320.992 156.352 320.469 156.094C319.953 155.836 319.52 155.492 319.168 155.062C318.816 154.633 318.641 154.066 318.641 153.363C318.641 152.691 318.812 152.109 319.156 151.617C319.5 151.117 319.98 150.73 320.598 150.457C321.215 150.184 321.926 150.047 322.73 150.047C323.98 150.047 325.219 150.359 326.445 150.984L325.742 153.035C325.492 152.855 325.195 152.695 324.852 152.555C324.508 152.414 324.156 152.305 323.797 152.227C323.438 152.141 323.105 152.098 322.801 152.098C322.293 152.098 321.883 152.211 321.57 152.438C321.266 152.664 321.113 152.969 321.113 153.352C321.113 153.586 321.188 153.801 321.336 153.996C321.484 154.184 321.719 154.371 322.039 154.559C322.367 154.738 322.809 154.941 323.363 155.168C323.895 155.379 324.426 155.621 324.957 155.895C325.488 156.168 325.93 156.523 326.281 156.961C326.641 157.398 326.82 157.973 326.82 158.684C326.82 159.387 326.633 160.008 326.258 160.547C325.883 161.078 325.359 161.492 324.688 161.789C324.023 162.086 323.25 162.234 322.367 162.234C320.906 162.234 319.539 161.816 318.266 160.98Z" fill="#F7FFF7"/>
</svg>
