<svg width="346" height="91" viewBox="0 0 346 91" fill="none" xmlns="http://www.w3.org/2000/svg">
<path d="M13.6511 16H11.9323V5.97656L9.83078 6.74219L9.29172 5.35938L12.2683 4.28125H13.6511V16ZM16.8308 16.1562C16.5704 16.1562 16.3594 16.0755 16.198 15.9141C16.0417 15.7526 15.9636 15.5443 15.9636 15.2891C15.9636 15.0234 16.0417 14.8099 16.198 14.6484C16.3594 14.487 16.5704 14.4062 16.8308 14.4062C17.086 14.4062 17.2969 14.487 17.4636 14.6484C17.6303 14.8099 17.7136 15.0234 17.7136 15.2891C17.7136 15.5443 17.6303 15.7526 17.4636 15.9141C17.2969 16.0755 17.086 16.1562 16.8308 16.1562ZM25.125 16V4.28125H32.4297V5.79688H26.8438V9.30469H32.1094V10.8203H26.8438V14.4844H32.5078V16H25.125ZM46.7344 16H45.0156V6.71094L41.4297 14.0312H39.9766L36.4062 6.75V16H34.6875V4.28125H36.8906L40.7031 12.1797L44.5156 4.28125H46.7344V16ZM49.9609 16H48.1562L52.9219 4.28125H54.7656L59.5234 16H57.7188L56.5469 13.0547H51.1328L49.9609 16ZM51.7188 11.5391H55.9609L53.8359 6.1875L51.7188 11.5391ZM62.6719 4.28125V16H60.9531V4.28125H62.6719ZM72.2656 16H64.9219V4.28125H66.6406V14.4844H72.2656V16Z" fill="#F7FFF7"/>
<path d="M2.62695 60H0.371094L6.32812 45.3516H8.63281L14.5801 60H12.3242L10.8594 56.3184H4.0918L2.62695 60ZM4.82422 54.4238H10.127L7.4707 47.7344L4.82422 54.4238ZM18.4961 60H16.3672V44.9609H18.4961V60ZM23.4375 60H21.3086V44.9609H23.4375V60ZM30.6836 60.1953C29.707 60.1953 28.8281 59.974 28.0469 59.5312C27.2656 59.0885 26.6504 58.4863 26.2012 57.7246C25.752 56.9564 25.5273 56.0872 25.5273 55.1172C25.5273 54.1536 25.752 53.291 26.2012 52.5293C26.6504 51.7611 27.2656 51.1556 28.0469 50.7129C28.8281 50.2637 29.707 50.0391 30.6836 50.0391C31.6667 50.0391 32.5456 50.2637 33.3203 50.7129C34.0951 51.1556 34.7038 51.7611 35.1465 52.5293C35.5957 53.291 35.8203 54.1536 35.8203 55.1172C35.8203 56.0872 35.5957 56.9564 35.1465 57.7246C34.7038 58.4863 34.0951 59.0885 33.3203 59.5312C32.5456 59.974 31.6667 60.1953 30.6836 60.1953ZM30.6738 58.3984C31.2663 58.3984 31.7936 58.2552 32.2559 57.9688C32.7246 57.6758 33.0924 57.2852 33.3594 56.7969C33.6328 56.3021 33.7695 55.7389 33.7695 55.1074C33.7695 54.4889 33.6328 53.9355 33.3594 53.4473C33.0924 52.9525 32.7246 52.5618 32.2559 52.2754C31.7936 51.9824 31.2663 51.8359 30.6738 51.8359C30.0879 51.8359 29.5605 51.9824 29.0918 52.2754C28.623 52.5618 28.252 52.9525 27.9785 53.4473C27.7116 53.9355 27.5781 54.4889 27.5781 55.1074C27.5781 55.7389 27.7116 56.3021 27.9785 56.7969C28.252 57.2852 28.623 57.6758 29.0918 57.9688C29.5605 58.2552 30.0879 58.3984 30.6738 58.3984ZM48.6719 60H46.3672L44.375 53.0176L42.3828 60H40.0781L36.9531 50.2344H39.0723L41.2109 57.7148L43.4668 50.2344H45.2832L47.5391 57.7246L49.6875 50.2344H51.8066L48.6719 60ZM67.5879 60H65.8887L65.8203 58.4277C65.4622 59.0007 64.9935 59.4401 64.4141 59.7461C63.8411 60.0456 63.1608 60.1953 62.373 60.1953C61.097 60.1953 60.0879 59.8079 59.3457 59.0332C58.61 58.252 58.2422 57.1842 58.2422 55.8301V50.2344H60.2441V55.5371C60.2441 56.403 60.4785 57.0931 60.9473 57.6074C61.416 58.1217 62.0475 58.3789 62.8418 58.3789C63.6621 58.3789 64.3229 58.1055 64.8242 57.5586C65.332 57.0052 65.5859 56.2793 65.5859 55.3809V50.2344H67.5879V60ZM69.7266 59.1504L70.2148 57.3535C70.4362 57.5749 70.6999 57.7702 71.0059 57.9395C71.3184 58.1087 71.6471 58.2422 71.9922 58.3398C72.3438 58.431 72.6888 58.4766 73.0273 58.4766C73.5612 58.4766 73.9909 58.3626 74.3164 58.1348C74.6419 57.9069 74.8047 57.6042 74.8047 57.2266C74.8047 56.9466 74.7135 56.7155 74.5312 56.5332C74.3555 56.3444 74.1178 56.1816 73.8184 56.0449C73.5254 55.9082 73.2096 55.7747 72.8711 55.6445C72.4349 55.4818 71.9987 55.293 71.5625 55.0781C71.1328 54.8633 70.7715 54.5768 70.4785 54.2188C70.1855 53.8607 70.0391 53.3887 70.0391 52.8027C70.0391 52.2428 70.1823 51.7578 70.4688 51.3477C70.7552 50.931 71.1556 50.6087 71.6699 50.3809C72.1842 50.153 72.7767 50.0391 73.4473 50.0391C74.4889 50.0391 75.5208 50.2995 76.543 50.8203L75.957 52.5293C75.7487 52.3796 75.5013 52.2461 75.2148 52.1289C74.9284 52.0117 74.6354 51.9206 74.3359 51.8555C74.0365 51.7839 73.7598 51.748 73.5059 51.748C73.0827 51.748 72.7409 51.8424 72.4805 52.0312C72.2266 52.2201 72.0996 52.474 72.0996 52.793C72.0996 52.9883 72.1615 53.1673 72.2852 53.3301C72.4089 53.4863 72.6042 53.6426 72.8711 53.7988C73.1445 53.9486 73.5124 54.1178 73.9746 54.3066C74.4173 54.4824 74.86 54.6842 75.3027 54.9121C75.7454 55.14 76.1133 55.4362 76.4062 55.8008C76.7057 56.1654 76.8555 56.6439 76.8555 57.2363C76.8555 57.8223 76.6992 58.3398 76.3867 58.7891C76.0742 59.2318 75.638 59.5768 75.0781 59.8242C74.5247 60.0716 73.8802 60.1953 73.1445 60.1953C71.9271 60.1953 70.7878 59.847 69.7266 59.1504ZM89.8047 59.7559C89.1211 60.0488 88.4603 60.1953 87.8223 60.1953C87.1842 60.1953 86.6243 60.0586 86.1426 59.7852C85.6673 59.5117 85.293 59.1276 85.0195 58.6328C84.7526 58.1315 84.6191 57.5553 84.6191 56.9043V52.0215H82.9102V50.2344H84.7168V47.793H86.6211V50.2344H89.4727V52.0215H86.6211V56.5332C86.6211 57.1061 86.7741 57.5618 87.0801 57.9004C87.3926 58.2324 87.793 58.3984 88.2812 58.3984C88.6914 58.3984 89.0983 58.2747 89.502 58.0273L89.8047 59.7559ZM96.2109 60.1953C95.2344 60.1953 94.3555 59.974 93.5742 59.5312C92.793 59.0885 92.1777 58.4863 91.7285 57.7246C91.2793 56.9564 91.0547 56.0872 91.0547 55.1172C91.0547 54.1536 91.2793 53.291 91.7285 52.5293C92.1777 51.7611 92.793 51.1556 93.5742 50.7129C94.3555 50.2637 95.2344 50.0391 96.2109 50.0391C97.194 50.0391 98.0729 50.2637 98.8477 50.7129C99.6224 51.1556 100.231 51.7611 100.674 52.5293C101.123 53.291 101.348 54.1536 101.348 55.1172C101.348 56.0872 101.123 56.9564 100.674 57.7246C100.231 58.4863 99.6224 59.0885 98.8477 59.5312C98.0729 59.974 97.194 60.1953 96.2109 60.1953ZM96.2012 58.3984C96.7936 58.3984 97.321 58.2552 97.7832 57.9688C98.252 57.6758 98.6198 57.2852 98.8867 56.7969C99.1602 56.3021 99.2969 55.7389 99.2969 55.1074C99.2969 54.4889 99.1602 53.9355 98.8867 53.4473C98.6198 52.9525 98.252 52.5618 97.7832 52.2754C97.321 51.9824 96.7936 51.8359 96.2012 51.8359C95.6152 51.8359 95.0879 51.9824 94.6191 52.2754C94.1504 52.5618 93.7793 52.9525 93.5059 53.4473C93.2389 53.9355 93.1055 54.4889 93.1055 55.1074C93.1055 55.7389 93.2389 56.3021 93.5059 56.7969C93.7793 57.2852 94.1504 57.6758 94.6191 57.9688C95.0879 58.2552 95.6152 58.3984 96.2012 58.3984ZM107.52 59.1504L108.008 57.3535C108.229 57.5749 108.493 57.7702 108.799 57.9395C109.111 58.1087 109.44 58.2422 109.785 58.3398C110.137 58.431 110.482 58.4766 110.82 58.4766C111.354 58.4766 111.784 58.3626 112.109 58.1348C112.435 57.9069 112.598 57.6042 112.598 57.2266C112.598 56.9466 112.507 56.7155 112.324 56.5332C112.148 56.3444 111.911 56.1816 111.611 56.0449C111.318 55.9082 111.003 55.7747 110.664 55.6445C110.228 55.4818 109.792 55.293 109.355 55.0781C108.926 54.8633 108.564 54.5768 108.271 54.2188C107.979 53.8607 107.832 53.3887 107.832 52.8027C107.832 52.2428 107.975 51.7578 108.262 51.3477C108.548 50.931 108.949 50.6087 109.463 50.3809C109.977 50.153 110.57 50.0391 111.24 50.0391C112.282 50.0391 113.314 50.2995 114.336 50.8203L113.75 52.5293C113.542 52.3796 113.294 52.2461 113.008 52.1289C112.721 52.0117 112.428 51.9206 112.129 51.8555C111.829 51.7839 111.553 51.748 111.299 51.748C110.876 51.748 110.534 51.8424 110.273 52.0312C110.02 52.2201 109.893 52.474 109.893 52.793C109.893 52.9883 109.954 53.1673 110.078 53.3301C110.202 53.4863 110.397 53.6426 110.664 53.7988C110.938 53.9486 111.305 54.1178 111.768 54.3066C112.21 54.4824 112.653 54.6842 113.096 54.9121C113.538 55.14 113.906 55.4362 114.199 55.8008C114.499 56.1654 114.648 56.6439 114.648 57.2363C114.648 57.8223 114.492 58.3398 114.18 58.7891C113.867 59.2318 113.431 59.5768 112.871 59.8242C112.318 60.0716 111.673 60.1953 110.938 60.1953C109.72 60.1953 108.581 59.847 107.52 59.1504ZM125.488 58.8379C124.277 59.7428 122.946 60.1953 121.494 60.1953C120.459 60.1953 119.531 59.9674 118.711 59.5117C117.891 59.056 117.243 58.4342 116.768 57.6465C116.292 56.8587 116.055 55.9701 116.055 54.9805C116.055 54.0365 116.273 53.1934 116.709 52.4512C117.145 51.7025 117.741 51.1133 118.496 50.6836C119.251 50.2539 120.107 50.0391 121.064 50.0391C122.054 50.0391 122.923 50.2734 123.672 50.7422C124.427 51.2109 125.013 51.8652 125.43 52.7051C125.853 53.5384 126.064 54.5052 126.064 55.6055V55.918H118.223C118.34 56.4258 118.561 56.8717 118.887 57.2559C119.212 57.6335 119.616 57.9297 120.098 58.1445C120.579 58.3529 121.123 58.457 121.729 58.457C122.809 58.457 123.802 58.1055 124.707 57.4023L125.488 58.8379ZM118.135 54.5312H124.199C124.134 53.9844 123.965 53.5091 123.691 53.1055C123.418 52.6953 123.063 52.3763 122.627 52.1484C122.197 51.9141 121.712 51.7969 121.172 51.7969C120.625 51.7969 120.133 51.9141 119.697 52.1484C119.261 52.3763 118.906 52.6953 118.633 53.1055C118.366 53.5156 118.2 53.9909 118.135 54.5312ZM137.51 60H135.508V54.6973C135.508 53.8314 135.27 53.1413 134.795 52.627C134.326 52.1126 133.695 51.8555 132.9 51.8555C132.08 51.8555 131.419 52.1289 130.918 52.6758C130.417 53.2227 130.166 53.9486 130.166 54.8535V60H128.164V50.2344H129.854L129.922 51.8066C130.28 51.2337 130.749 50.7975 131.328 50.498C131.908 50.1921 132.588 50.0391 133.369 50.0391C134.652 50.0391 135.661 50.4264 136.396 51.2012C137.139 51.9759 137.51 53.0436 137.51 54.4043V60ZM149.844 60H148.076L147.969 58.6035C147.526 59.0983 146.992 59.4889 146.367 59.7754C145.749 60.0553 145.068 60.1953 144.326 60.1953C143.389 60.1953 142.549 59.974 141.807 59.5312C141.064 59.0885 140.479 58.4831 140.049 57.7148C139.626 56.9466 139.414 56.0807 139.414 55.1172C139.414 54.1471 139.626 53.2812 140.049 52.5195C140.479 51.7513 141.064 51.1458 141.807 50.7031C142.549 50.2604 143.389 50.0391 144.326 50.0391C145.029 50.0391 145.68 50.166 146.279 50.4199C146.885 50.6738 147.406 51.0286 147.842 51.4844V45.3516H149.844V60ZM144.658 58.3984C145.251 58.3984 145.785 58.2617 146.26 57.9883C146.742 57.7148 147.126 57.3438 147.412 56.875C147.699 56.4062 147.842 55.8724 147.842 55.2734V54.9414C147.842 54.3424 147.699 53.8086 147.412 53.3398C147.126 52.8711 146.742 52.5033 146.26 52.2363C145.785 51.9694 145.251 51.8359 144.658 51.8359C144.053 51.8359 143.509 51.9792 143.027 52.2656C142.546 52.5521 142.165 52.9427 141.885 53.4375C141.605 53.9258 141.465 54.4824 141.465 55.1074C141.465 55.7324 141.605 56.2923 141.885 56.7871C142.165 57.2819 142.546 57.6758 143.027 57.9688C143.509 58.2552 144.053 58.3984 144.658 58.3984ZM161.377 64.8828H159.219L161.26 59.9414L156.504 50.2344H158.74L162.217 57.6465L165.283 50.2344H167.432L161.377 64.8828ZM173.438 60.1953C172.461 60.1953 171.582 59.974 170.801 59.5312C170.02 59.0885 169.404 58.4863 168.955 57.7246C168.506 56.9564 168.281 56.0872 168.281 55.1172C168.281 54.1536 168.506 53.291 168.955 52.5293C169.404 51.7611 170.02 51.1556 170.801 50.7129C171.582 50.2637 172.461 50.0391 173.438 50.0391C174.421 50.0391 175.299 50.2637 176.074 50.7129C176.849 51.1556 177.458 51.7611 177.9 52.5293C178.35 53.291 178.574 54.1536 178.574 55.1172C178.574 56.0872 178.35 56.9564 177.9 57.7246C177.458 58.4863 176.849 59.0885 176.074 59.5312C175.299 59.974 174.421 60.1953 173.438 60.1953ZM173.428 58.3984C174.02 58.3984 174.548 58.2552 175.01 57.9688C175.479 57.6758 175.846 57.2852 176.113 56.7969C176.387 56.3021 176.523 55.7389 176.523 55.1074C176.523 54.4889 176.387 53.9355 176.113 53.4473C175.846 52.9525 175.479 52.5618 175.01 52.2754C174.548 51.9824 174.02 51.8359 173.428 51.8359C172.842 51.8359 172.314 51.9824 171.846 52.2754C171.377 52.5618 171.006 52.9525 170.732 53.4473C170.465 53.9355 170.332 54.4889 170.332 55.1074C170.332 55.7389 170.465 56.3021 170.732 56.7969C171.006 57.2852 171.377 57.6758 171.846 57.9688C172.314 58.2552 172.842 58.3984 173.428 58.3984ZM189.814 60H188.115L188.047 58.4277C187.689 59.0007 187.22 59.4401 186.641 59.7461C186.068 60.0456 185.387 60.1953 184.6 60.1953C183.324 60.1953 182.314 59.8079 181.572 59.0332C180.837 58.252 180.469 57.1842 180.469 55.8301V50.2344H182.471V55.5371C182.471 56.403 182.705 57.0931 183.174 57.6074C183.643 58.1217 184.274 58.3789 185.068 58.3789C185.889 58.3789 186.549 58.1055 187.051 57.5586C187.559 57.0052 187.812 56.2793 187.812 55.3809V50.2344H189.814V60ZM206.113 58.8379C204.902 59.7428 203.571 60.1953 202.119 60.1953C201.084 60.1953 200.156 59.9674 199.336 59.5117C198.516 59.056 197.868 58.4342 197.393 57.6465C196.917 56.8587 196.68 55.9701 196.68 54.9805C196.68 54.0365 196.898 53.1934 197.334 52.4512C197.77 51.7025 198.366 51.1133 199.121 50.6836C199.876 50.2539 200.732 50.0391 201.689 50.0391C202.679 50.0391 203.548 50.2734 204.297 50.7422C205.052 51.2109 205.638 51.8652 206.055 52.7051C206.478 53.5384 206.689 54.5052 206.689 55.6055V55.918H198.848C198.965 56.4258 199.186 56.8717 199.512 57.2559C199.837 57.6335 200.241 57.9297 200.723 58.1445C201.204 58.3529 201.748 58.457 202.354 58.457C203.434 58.457 204.427 58.1055 205.332 57.4023L206.113 58.8379ZM198.76 54.5312H204.824C204.759 53.9844 204.59 53.5091 204.316 53.1055C204.043 52.6953 203.688 52.3763 203.252 52.1484C202.822 51.9141 202.337 51.7969 201.797 51.7969C201.25 51.7969 200.758 51.9141 200.322 52.1484C199.886 52.3763 199.531 52.6953 199.258 53.1055C198.991 53.5156 198.825 53.9909 198.76 54.5312ZM224.395 60H222.393V54.8926C222.393 53.9225 222.184 53.1706 221.768 52.6367C221.357 52.1029 220.778 51.8359 220.029 51.8359C219.268 51.8359 218.672 52.1061 218.242 52.6465C217.812 53.1868 217.598 53.9355 217.598 54.8926V60H215.596V54.8926C215.596 53.9225 215.387 53.1706 214.971 52.6367C214.554 52.1029 213.971 51.8359 213.223 51.8359C212.461 51.8359 211.865 52.1061 211.436 52.6465C211.006 53.1868 210.791 53.9355 210.791 54.8926V60H208.789V50.2344H210.41L210.488 51.9336C210.814 51.3151 211.253 50.8464 211.807 50.5273C212.367 50.2018 213.024 50.0391 213.779 50.0391C214.58 50.0391 215.267 50.2148 215.84 50.5664C216.413 50.918 216.846 51.4225 217.139 52.0801C217.464 51.4095 217.913 50.9017 218.486 50.5566C219.066 50.2116 219.753 50.0391 220.547 50.0391C221.758 50.0391 222.702 50.4232 223.379 51.1914C224.056 51.9596 224.395 53.0306 224.395 54.4043V60ZM235.166 60H233.438L233.32 58.75C232.962 59.2057 232.51 59.5605 231.963 59.8145C231.416 60.0684 230.811 60.1953 230.146 60.1953C229.45 60.1953 228.828 60.0586 228.281 59.7852C227.734 59.5117 227.305 59.1374 226.992 58.6621C226.68 58.1868 226.523 57.6465 226.523 57.041C226.523 56.403 226.693 55.8431 227.031 55.3613C227.37 54.873 227.832 54.4922 228.418 54.2188C229.004 53.9388 229.671 53.7988 230.42 53.7988C230.889 53.7988 231.364 53.8542 231.846 53.9648C232.334 54.0755 232.773 54.2318 233.164 54.4336V54.0723C233.164 53.597 233.04 53.1901 232.793 52.8516C232.552 52.5065 232.22 52.2428 231.797 52.0605C231.38 51.8783 230.918 51.7871 230.41 51.7871C229.961 51.7871 229.502 51.8652 229.033 52.0215C228.571 52.1777 228.135 52.4186 227.725 52.7441L227.119 51.1133C227.712 50.7617 228.327 50.4948 228.965 50.3125C229.609 50.1302 230.241 50.0391 230.859 50.0391C231.745 50.0391 232.507 50.2148 233.145 50.5664C233.789 50.918 234.287 51.4193 234.639 52.0703C234.99 52.7148 235.166 53.4766 235.166 54.3555V60ZM230.537 58.4961C230.999 58.4961 231.426 58.4017 231.816 58.2129C232.207 58.0176 232.523 57.7441 232.764 57.3926C233.011 57.0345 233.145 56.6178 233.164 56.1426V56.0059C232.832 55.7585 232.458 55.5664 232.041 55.4297C231.631 55.2865 231.211 55.2148 230.781 55.2148C230.124 55.2148 229.577 55.3711 229.141 55.6836C228.704 55.9961 228.486 56.3965 228.486 56.8848C228.486 57.1908 228.574 57.4674 228.75 57.7148C228.932 57.9557 229.176 58.1478 229.482 58.291C229.795 58.4277 230.146 58.4961 230.537 58.4961ZM238.828 47.4023C238.522 47.4023 238.265 47.2949 238.057 47.0801C237.848 46.8652 237.744 46.6048 237.744 46.2988C237.744 45.9928 237.848 45.7357 238.057 45.5273C238.265 45.3125 238.522 45.2051 238.828 45.2051C239.141 45.2051 239.401 45.3125 239.609 45.5273C239.824 45.7357 239.932 45.9928 239.932 46.2988C239.932 46.6048 239.824 46.8652 239.609 47.0801C239.401 47.2949 239.141 47.4023 238.828 47.4023ZM239.824 60H237.822V50.2344H239.824V60ZM244.805 60H242.676V44.9609H244.805V60ZM246.934 59.1504L247.422 57.3535C247.643 57.5749 247.907 57.7702 248.213 57.9395C248.525 58.1087 248.854 58.2422 249.199 58.3398C249.551 58.431 249.896 58.4766 250.234 58.4766C250.768 58.4766 251.198 58.3626 251.523 58.1348C251.849 57.9069 252.012 57.6042 252.012 57.2266C252.012 56.9466 251.921 56.7155 251.738 56.5332C251.562 56.3444 251.325 56.1816 251.025 56.0449C250.732 55.9082 250.417 55.7747 250.078 55.6445C249.642 55.4818 249.206 55.293 248.77 55.0781C248.34 54.8633 247.979 54.5768 247.686 54.2188C247.393 53.8607 247.246 53.3887 247.246 52.8027C247.246 52.2428 247.389 51.7578 247.676 51.3477C247.962 50.931 248.363 50.6087 248.877 50.3809C249.391 50.153 249.984 50.0391 250.654 50.0391C251.696 50.0391 252.728 50.2995 253.75 50.8203L253.164 52.5293C252.956 52.3796 252.708 52.2461 252.422 52.1289C252.135 52.0117 251.842 51.9206 251.543 51.8555C251.243 51.7839 250.967 51.748 250.713 51.748C250.29 51.748 249.948 51.8424 249.688 52.0312C249.434 52.2201 249.307 52.474 249.307 52.793C249.307 52.9883 249.368 53.1673 249.492 53.3301C249.616 53.4863 249.811 53.6426 250.078 53.7988C250.352 53.9486 250.719 54.1178 251.182 54.3066C251.624 54.4824 252.067 54.6842 252.51 54.9121C252.952 55.14 253.32 55.4362 253.613 55.8008C253.913 56.1654 254.062 56.6439 254.062 57.2363C254.062 57.8223 253.906 58.3398 253.594 58.7891C253.281 59.2318 252.845 59.5768 252.285 59.8242C251.732 60.0716 251.087 60.1953 250.352 60.1953C249.134 60.1953 247.995 59.847 246.934 59.1504Z" fill="#F7FFF7"/>
<path d="M4.79883 87H3.50977V83.2441L0.128906 78.2109H1.69336L4.1543 82.1426L6.62695 78.2109H8.18555L4.79883 83.2559V87ZM10.7109 87.1172C10.125 87.1172 9.59766 86.9844 9.12891 86.7188C8.66016 86.4531 8.29102 86.0918 8.02148 85.6348C7.75195 85.1738 7.61719 84.6523 7.61719 84.0703C7.61719 83.4922 7.75195 82.9746 8.02148 82.5176C8.29102 82.0566 8.66016 81.6934 9.12891 81.4277C9.59766 81.1582 10.125 81.0234 10.7109 81.0234C11.3008 81.0234 11.8281 81.1582 12.293 81.4277C12.7578 81.6934 13.123 82.0566 13.3887 82.5176C13.6582 82.9746 13.793 83.4922 13.793 84.0703C13.793 84.6523 13.6582 85.1738 13.3887 85.6348C13.123 86.0918 12.7578 86.4531 12.293 86.7188C11.8281 86.9844 11.3008 87.1172 10.7109 87.1172ZM10.7051 86.0391C11.0605 86.0391 11.377 85.9531 11.6543 85.7812C11.9355 85.6055 12.1562 85.3711 12.3164 85.0781C12.4805 84.7812 12.5625 84.4434 12.5625 84.0645C12.5625 83.6934 12.4805 83.3613 12.3164 83.0684C12.1562 82.7715 11.9355 82.5371 11.6543 82.3652C11.377 82.1895 11.0605 82.1016 10.7051 82.1016C10.3535 82.1016 10.0371 82.1895 9.75586 82.3652C9.47461 82.5371 9.25195 82.7715 9.08789 83.0684C8.92773 83.3613 8.84766 83.6934 8.84766 84.0645C8.84766 84.4434 8.92773 84.7812 9.08789 85.0781C9.25195 85.3711 9.47461 85.6055 9.75586 85.7812C10.0371 85.9531 10.3535 86.0391 10.7051 86.0391ZM20.5371 87H19.5176L19.4766 86.0566C19.2617 86.4004 18.9805 86.6641 18.6328 86.8477C18.2891 87.0273 17.8809 87.1172 17.4082 87.1172C16.6426 87.1172 16.0371 86.8848 15.5918 86.4199C15.1504 85.9512 14.9297 85.3105 14.9297 84.498V81.1406H16.1309V84.3223C16.1309 84.8418 16.2715 85.2559 16.5527 85.5645C16.834 85.873 17.2129 86.0273 17.6895 86.0273C18.1816 86.0273 18.5781 85.8633 18.8789 85.5352C19.1836 85.2031 19.3359 84.7676 19.3359 84.2285V81.1406H20.5371V87ZM30.0645 86.127C29.7793 86.4434 29.4375 86.6875 29.0391 86.8594C28.6406 87.0312 28.209 87.1172 27.7441 87.1172C27.1582 87.1172 26.6309 86.9844 26.1621 86.7188C25.6973 86.4531 25.3301 86.0898 25.0605 85.6289C24.791 85.168 24.6562 84.6484 24.6562 84.0703C24.6562 83.4883 24.791 82.9688 25.0605 82.5117C25.3301 82.0508 25.6973 81.6875 26.1621 81.4219C26.6309 81.1562 27.1582 81.0234 27.7441 81.0234C28.2051 81.0234 28.6348 81.1094 29.0332 81.2812C29.4316 81.4492 29.7734 81.6914 30.0586 82.0078L29.3496 82.752C29.1582 82.5488 28.9277 82.3926 28.6582 82.2832C28.3926 82.1699 28.1094 82.1133 27.8086 82.1133C27.4375 82.1133 27.1074 82.1973 26.8184 82.3652C26.5293 82.5332 26.3027 82.7637 26.1387 83.0566C25.9746 83.3457 25.8926 83.6816 25.8926 84.0645C25.8926 84.4434 25.9746 84.7812 26.1387 85.0781C26.3027 85.375 26.5293 85.6074 26.8184 85.7754C27.1074 85.9434 27.4375 86.0273 27.8086 86.0273C28.1094 86.0273 28.3945 85.9707 28.6641 85.8574C28.9336 85.7441 29.1621 85.5879 29.3496 85.3887L30.0645 86.127ZM36.2051 87H35.168L35.0977 86.25C34.8828 86.5234 34.6113 86.7363 34.2832 86.8887C33.9551 87.041 33.5918 87.1172 33.1934 87.1172C32.7754 87.1172 32.4023 87.0352 32.0742 86.8711C31.7461 86.707 31.4883 86.4824 31.3008 86.1973C31.1133 85.9121 31.0195 85.5879 31.0195 85.2246C31.0195 84.8418 31.1211 84.5059 31.3242 84.2168C31.5273 83.9238 31.8047 83.6953 32.1562 83.5312C32.5078 83.3633 32.9082 83.2793 33.3574 83.2793C33.6387 83.2793 33.9238 83.3125 34.2129 83.3789C34.5059 83.4453 34.7695 83.5391 35.0039 83.6602V83.4434C35.0039 83.1582 34.9297 82.9141 34.7812 82.7109C34.6367 82.5039 34.4375 82.3457 34.1836 82.2363C33.9336 82.127 33.6562 82.0723 33.3516 82.0723C33.082 82.0723 32.8066 82.1191 32.5254 82.2129C32.248 82.3066 31.9863 82.4512 31.7402 82.6465L31.377 81.668C31.7324 81.457 32.1016 81.2969 32.4844 81.1875C32.8711 81.0781 33.25 81.0234 33.6211 81.0234C34.1523 81.0234 34.6094 81.1289 34.9922 81.3398C35.3789 81.5508 35.6777 81.8516 35.8887 82.2422C36.0996 82.6289 36.2051 83.0859 36.2051 83.6133V87ZM33.4277 86.0977C33.7051 86.0977 33.9609 86.041 34.1953 85.9277C34.4297 85.8105 34.6191 85.6465 34.7637 85.4355C34.9121 85.2207 34.9922 84.9707 35.0039 84.6855V84.6035C34.8047 84.4551 34.5801 84.3398 34.3301 84.2578C34.084 84.1719 33.832 84.1289 33.5742 84.1289C33.1797 84.1289 32.8516 84.2227 32.5898 84.4102C32.3281 84.5977 32.1973 84.8379 32.1973 85.1309C32.1973 85.3145 32.25 85.4805 32.3555 85.6289C32.4648 85.7734 32.6113 85.8887 32.7949 85.9746C32.9824 86.0566 33.1934 86.0977 33.4277 86.0977ZM43.3887 87H42.1875V83.8184C42.1875 83.2988 42.0449 82.8848 41.7598 82.5762C41.4785 82.2676 41.0996 82.1133 40.623 82.1133C40.1309 82.1133 39.7344 82.2773 39.4336 82.6055C39.1328 82.9336 38.9824 83.3691 38.9824 83.9121V87H37.7812V81.1406H38.7949L38.8359 82.084C39.0508 81.7402 39.332 81.4785 39.6797 81.2988C40.0273 81.1152 40.4355 81.0234 40.9043 81.0234C41.6738 81.0234 42.2793 81.2559 42.7207 81.7207C43.166 82.1855 43.3887 82.8262 43.3887 83.6426V87ZM52.7168 87H51.6797L51.6094 86.25C51.3945 86.5234 51.123 86.7363 50.7949 86.8887C50.4668 87.041 50.1035 87.1172 49.7051 87.1172C49.2871 87.1172 48.9141 87.0352 48.5859 86.8711C48.2578 86.707 48 86.4824 47.8125 86.1973C47.625 85.9121 47.5312 85.5879 47.5312 85.2246C47.5312 84.8418 47.6328 84.5059 47.8359 84.2168C48.0391 83.9238 48.3164 83.6953 48.668 83.5312C49.0195 83.3633 49.4199 83.2793 49.8691 83.2793C50.1504 83.2793 50.4355 83.3125 50.7246 83.3789C51.0176 83.4453 51.2812 83.5391 51.5156 83.6602V83.4434C51.5156 83.1582 51.4414 82.9141 51.293 82.7109C51.1484 82.5039 50.9492 82.3457 50.6953 82.2363C50.4453 82.127 50.168 82.0723 49.8633 82.0723C49.5938 82.0723 49.3184 82.1191 49.0371 82.2129C48.7598 82.3066 48.498 82.4512 48.252 82.6465L47.8887 81.668C48.2441 81.457 48.6133 81.2969 48.9961 81.1875C49.3828 81.0781 49.7617 81.0234 50.1328 81.0234C50.6641 81.0234 51.1211 81.1289 51.5039 81.3398C51.8906 81.5508 52.1895 81.8516 52.4004 82.2422C52.6113 82.6289 52.7168 83.0859 52.7168 83.6133V87ZM49.9395 86.0977C50.2168 86.0977 50.4727 86.041 50.707 85.9277C50.9414 85.8105 51.1309 85.6465 51.2754 85.4355C51.4238 85.2207 51.5039 84.9707 51.5156 84.6855V84.6035C51.3164 84.4551 51.0918 84.3398 50.8418 84.2578C50.5957 84.1719 50.3438 84.1289 50.0859 84.1289C49.6914 84.1289 49.3633 84.2227 49.1016 84.4102C48.8398 84.5977 48.709 84.8379 48.709 85.1309C48.709 85.3145 48.7617 85.4805 48.8672 85.6289C48.9766 85.7734 49.123 85.8887 49.3066 85.9746C49.4941 86.0566 49.7051 86.0977 49.9395 86.0977ZM55.5703 87H54.293V77.9766H55.5703V87ZM63.7148 87H62.332L61.1367 82.8105L59.9414 87H58.5586L56.6836 81.1406H57.9551L59.2383 85.6289L60.5918 81.1406H61.6816L63.0352 85.6348L64.3242 81.1406H65.5957L63.7148 87ZM71.373 87H70.3359L70.2656 86.25C70.0508 86.5234 69.7793 86.7363 69.4512 86.8887C69.123 87.041 68.7598 87.1172 68.3613 87.1172C67.9434 87.1172 67.5703 87.0352 67.2422 86.8711C66.9141 86.707 66.6562 86.4824 66.4688 86.1973C66.2812 85.9121 66.1875 85.5879 66.1875 85.2246C66.1875 84.8418 66.2891 84.5059 66.4922 84.2168C66.6953 83.9238 66.9727 83.6953 67.3242 83.5312C67.6758 83.3633 68.0762 83.2793 68.5254 83.2793C68.8066 83.2793 69.0918 83.3125 69.3809 83.3789C69.6738 83.4453 69.9375 83.5391 70.1719 83.6602V83.4434C70.1719 83.1582 70.0977 82.9141 69.9492 82.7109C69.8047 82.5039 69.6055 82.3457 69.3516 82.2363C69.1016 82.127 68.8242 82.0723 68.5195 82.0723C68.25 82.0723 67.9746 82.1191 67.6934 82.2129C67.416 82.3066 67.1543 82.4512 66.9082 82.6465L66.5449 81.668C66.9004 81.457 67.2695 81.2969 67.6523 81.1875C68.0391 81.0781 68.418 81.0234 68.7891 81.0234C69.3203 81.0234 69.7773 81.1289 70.1602 81.3398C70.5469 81.5508 70.8457 81.8516 71.0566 82.2422C71.2676 82.6289 71.373 83.0859 71.373 83.6133V87ZM68.5957 86.0977C68.873 86.0977 69.1289 86.041 69.3633 85.9277C69.5977 85.8105 69.7871 85.6465 69.9316 85.4355C70.0801 85.2207 70.1602 84.9707 70.1719 84.6855V84.6035C69.9727 84.4551 69.748 84.3398 69.498 84.2578C69.252 84.1719 69 84.1289 68.7422 84.1289C68.3477 84.1289 68.0195 84.2227 67.7578 84.4102C67.4961 84.5977 67.3652 84.8379 67.3652 85.1309C67.3652 85.3145 67.418 85.4805 67.5234 85.6289C67.6328 85.7734 67.7793 85.8887 67.9629 85.9746C68.1504 86.0566 68.3613 86.0977 68.5957 86.0977ZM75.2051 89.9297H73.9102L75.1348 86.9648L72.2812 81.1406H73.623L75.709 85.5879L77.5488 81.1406H78.8379L75.2051 89.9297ZM79.3711 86.4902L79.6641 85.4121C79.7969 85.5449 79.9551 85.6621 80.1387 85.7637C80.3262 85.8652 80.5234 85.9453 80.7305 86.0039C80.9414 86.0586 81.1484 86.0859 81.3516 86.0859C81.6719 86.0859 81.9297 86.0176 82.125 85.8809C82.3203 85.7441 82.418 85.5625 82.418 85.3359C82.418 85.168 82.3633 85.0293 82.2539 84.9199C82.1484 84.8066 82.0059 84.709 81.8262 84.627C81.6504 84.5449 81.4609 84.4648 81.2578 84.3867C80.9961 84.2891 80.7344 84.1758 80.4727 84.0469C80.2148 83.918 79.998 83.7461 79.8223 83.5312C79.6465 83.3164 79.5586 83.0332 79.5586 82.6816C79.5586 82.3457 79.6445 82.0547 79.8164 81.8086C79.9883 81.5586 80.2285 81.3652 80.5371 81.2285C80.8457 81.0918 81.2012 81.0234 81.6035 81.0234C82.2285 81.0234 82.8477 81.1797 83.4609 81.4922L83.1094 82.5176C82.9844 82.4277 82.8359 82.3477 82.6641 82.2773C82.4922 82.207 82.3164 82.1523 82.1367 82.1133C81.957 82.0703 81.791 82.0488 81.6387 82.0488C81.3848 82.0488 81.1797 82.1055 81.0234 82.2188C80.8711 82.332 80.7949 82.4844 80.7949 82.6758C80.7949 82.793 80.832 82.9004 80.9062 82.998C80.9805 83.0918 81.0977 83.1855 81.2578 83.2793C81.4219 83.3691 81.6426 83.4707 81.9199 83.584C82.1855 83.6895 82.4512 83.8105 82.7168 83.9473C82.9824 84.084 83.2031 84.2617 83.3789 84.4805C83.5586 84.6992 83.6484 84.9863 83.6484 85.3418C83.6484 85.6934 83.5547 86.0039 83.3672 86.2734C83.1797 86.5391 82.918 86.7461 82.582 86.8945C82.25 87.043 81.8633 87.1172 81.4219 87.1172C80.6914 87.1172 80.0078 86.9082 79.3711 86.4902ZM92.7598 86.127C92.4746 86.4434 92.1328 86.6875 91.7344 86.8594C91.3359 87.0312 90.9043 87.1172 90.4395 87.1172C89.8535 87.1172 89.3262 86.9844 88.8574 86.7188C88.3926 86.4531 88.0254 86.0898 87.7559 85.6289C87.4863 85.168 87.3516 84.6484 87.3516 84.0703C87.3516 83.4883 87.4863 82.9688 87.7559 82.5117C88.0254 82.0508 88.3926 81.6875 88.8574 81.4219C89.3262 81.1562 89.8535 81.0234 90.4395 81.0234C90.9004 81.0234 91.3301 81.1094 91.7285 81.2812C92.127 81.4492 92.4688 81.6914 92.7539 82.0078L92.0449 82.752C91.8535 82.5488 91.623 82.3926 91.3535 82.2832C91.0879 82.1699 90.8047 82.1133 90.5039 82.1133C90.1328 82.1133 89.8027 82.1973 89.5137 82.3652C89.2246 82.5332 88.998 82.7637 88.834 83.0566C88.6699 83.3457 88.5879 83.6816 88.5879 84.0645C88.5879 84.4434 88.6699 84.7812 88.834 85.0781C88.998 85.375 89.2246 85.6074 89.5137 85.7754C89.8027 85.9434 90.1328 86.0273 90.5039 86.0273C90.8047 86.0273 91.0898 85.9707 91.3594 85.8574C91.6289 85.7441 91.8574 85.5879 92.0449 85.3887L92.7598 86.127ZM94.0078 87V78.2109H95.209V81.9551C95.6426 81.334 96.3008 81.0234 97.1836 81.0234C97.9453 81.0234 98.541 81.2539 98.9707 81.7148C99.4004 82.1758 99.6152 82.8184 99.6152 83.6426V87H98.4141V83.9355C98.4141 83.3535 98.2734 82.9023 97.9922 82.582C97.7148 82.2617 97.3262 82.1016 96.8262 82.1016C96.3223 82.1016 95.9258 82.2656 95.6367 82.5938C95.3516 82.918 95.209 83.3652 95.209 83.9355V87H94.0078ZM106.084 87H105.047L104.977 86.25C104.762 86.5234 104.49 86.7363 104.162 86.8887C103.834 87.041 103.471 87.1172 103.072 87.1172C102.654 87.1172 102.281 87.0352 101.953 86.8711C101.625 86.707 101.367 86.4824 101.18 86.1973C100.992 85.9121 100.898 85.5879 100.898 85.2246C100.898 84.8418 101 84.5059 101.203 84.2168C101.406 83.9238 101.684 83.6953 102.035 83.5312C102.387 83.3633 102.787 83.2793 103.236 83.2793C103.518 83.2793 103.803 83.3125 104.092 83.3789C104.385 83.4453 104.648 83.5391 104.883 83.6602V83.4434C104.883 83.1582 104.809 82.9141 104.66 82.7109C104.516 82.5039 104.316 82.3457 104.062 82.2363C103.812 82.127 103.535 82.0723 103.23 82.0723C102.961 82.0723 102.686 82.1191 102.404 82.2129C102.127 82.3066 101.865 82.4512 101.619 82.6465L101.256 81.668C101.611 81.457 101.98 81.2969 102.363 81.1875C102.75 81.0781 103.129 81.0234 103.5 81.0234C104.031 81.0234 104.488 81.1289 104.871 81.3398C105.258 81.5508 105.557 81.8516 105.768 82.2422C105.979 82.6289 106.084 83.0859 106.084 83.6133V87ZM103.307 86.0977C103.584 86.0977 103.84 86.041 104.074 85.9277C104.309 85.8105 104.498 85.6465 104.643 85.4355C104.791 85.2207 104.871 84.9707 104.883 84.6855V84.6035C104.684 84.4551 104.459 84.3398 104.209 84.2578C103.963 84.1719 103.711 84.1289 103.453 84.1289C103.059 84.1289 102.73 84.2227 102.469 84.4102C102.207 84.5977 102.076 84.8379 102.076 85.1309C102.076 85.3145 102.129 85.4805 102.234 85.6289C102.344 85.7734 102.49 85.8887 102.674 85.9746C102.861 86.0566 103.072 86.0977 103.307 86.0977ZM113.268 87H112.066V83.8184C112.066 83.2988 111.924 82.8848 111.639 82.5762C111.357 82.2676 110.979 82.1133 110.502 82.1133C110.01 82.1133 109.613 82.2773 109.312 82.6055C109.012 82.9336 108.861 83.3691 108.861 83.9121V87H107.66V81.1406H108.674L108.715 82.084C108.93 81.7402 109.211 81.4785 109.559 81.2988C109.906 81.1152 110.314 81.0234 110.783 81.0234C111.553 81.0234 112.158 81.2559 112.6 81.7207C113.045 82.1855 113.268 82.8262 113.268 83.6426V87ZM117.305 87.0234C116.754 87.0234 116.26 86.8926 115.822 86.6309C115.385 86.3691 115.039 86.0117 114.785 85.5586C114.535 85.1055 114.41 84.5938 114.41 84.0234C114.41 83.4492 114.535 82.9375 114.785 82.4883C115.039 82.0352 115.385 81.6777 115.822 81.416C116.26 81.1543 116.756 81.0234 117.311 81.0234C117.748 81.0234 118.15 81.1074 118.518 81.2754C118.889 81.4434 119.203 81.6738 119.461 81.9668L119.52 81.1406H120.58V86.8418C120.58 87.498 120.445 88.0645 120.176 88.541C119.91 89.0215 119.533 89.3926 119.045 89.6543C118.557 89.916 117.979 90.0469 117.311 90.0469C116.369 90.0469 115.539 89.7402 114.82 89.127L115.33 88.1543C115.857 88.6973 116.494 88.9688 117.24 88.9688C117.674 88.9688 118.049 88.8789 118.365 88.6992C118.686 88.5195 118.934 88.2676 119.109 87.9434C119.289 87.623 119.379 87.2441 119.379 86.8066V86.168C119.121 86.4336 118.814 86.6426 118.459 86.7949C118.104 86.9473 117.719 87.0234 117.305 87.0234ZM117.504 85.957C117.848 85.957 118.16 85.8789 118.441 85.7227C118.727 85.5664 118.953 85.3535 119.121 85.084C119.293 84.8105 119.379 84.5 119.379 84.1523V83.8887C119.379 83.541 119.293 83.2324 119.121 82.9629C118.953 82.6934 118.727 82.4805 118.441 82.3242C118.16 82.168 117.848 82.0898 117.504 82.0898C117.145 82.0898 116.824 82.1758 116.543 82.3477C116.262 82.5156 116.039 82.7461 115.875 83.0391C115.711 83.3281 115.629 83.6562 115.629 84.0234C115.629 84.3906 115.711 84.7207 115.875 85.0137C116.039 85.3066 116.262 85.5371 116.543 85.7051C116.824 85.873 117.145 85.957 117.504 85.957ZM127.441 86.3027C126.715 86.8457 125.916 87.1172 125.045 87.1172C124.424 87.1172 123.867 86.9805 123.375 86.707C122.883 86.4336 122.494 86.0605 122.209 85.5879C121.924 85.1152 121.781 84.582 121.781 83.9883C121.781 83.4219 121.912 82.916 122.174 82.4707C122.436 82.0215 122.793 81.668 123.246 81.4102C123.699 81.1523 124.213 81.0234 124.787 81.0234C125.381 81.0234 125.902 81.1641 126.352 81.4453C126.805 81.7266 127.156 82.1191 127.406 82.623C127.66 83.123 127.787 83.7031 127.787 84.3633V84.5508H123.082C123.152 84.8555 123.285 85.123 123.48 85.3535C123.676 85.5801 123.918 85.7578 124.207 85.8867C124.496 86.0117 124.822 86.0742 125.186 86.0742C125.834 86.0742 126.43 85.8633 126.973 85.4414L127.441 86.3027ZM123.029 83.7188H126.668C126.629 83.3906 126.527 83.1055 126.363 82.8633C126.199 82.6172 125.986 82.4258 125.725 82.2891C125.467 82.1484 125.176 82.0781 124.852 82.0781C124.523 82.0781 124.229 82.1484 123.967 82.2891C123.705 82.4258 123.492 82.6172 123.328 82.8633C123.168 83.1094 123.068 83.3945 123.029 83.7188ZM135.539 86.8535C135.129 87.0293 134.732 87.1172 134.35 87.1172C133.967 87.1172 133.631 87.0352 133.342 86.8711C133.057 86.707 132.832 86.4766 132.668 86.1797C132.508 85.8789 132.428 85.5332 132.428 85.1426V82.2129H131.402V81.1406H132.486V79.6758H133.629V81.1406H135.34V82.2129H133.629V84.9199C133.629 85.2637 133.721 85.5371 133.904 85.7402C134.092 85.9395 134.332 86.0391 134.625 86.0391C134.871 86.0391 135.115 85.9648 135.357 85.8164L135.539 86.8535ZM136.723 87V78.2109H137.924V81.9551C138.357 81.334 139.016 81.0234 139.898 81.0234C140.66 81.0234 141.256 81.2539 141.686 81.7148C142.115 82.1758 142.33 82.8184 142.33 83.6426V87H141.129V83.9355C141.129 83.3535 140.988 82.9023 140.707 82.582C140.43 82.2617 140.041 82.1016 139.541 82.1016C139.037 82.1016 138.641 82.2656 138.352 82.5938C138.066 82.918 137.924 83.3652 137.924 83.9355V87H136.723ZM144.527 79.4414C144.344 79.4414 144.189 79.377 144.064 79.248C143.939 79.1191 143.877 78.9629 143.877 78.7793C143.877 78.5957 143.939 78.4414 144.064 78.3164C144.189 78.1875 144.344 78.123 144.527 78.123C144.715 78.123 144.871 78.1875 144.996 78.3164C145.125 78.4414 145.189 78.5957 145.189 78.7793C145.189 78.9629 145.125 79.1191 144.996 79.248C144.871 79.377 144.715 79.4414 144.527 79.4414ZM145.125 87H143.924V81.1406H145.125V87ZM146.426 86.4902L146.719 85.4121C146.852 85.5449 147.01 85.6621 147.193 85.7637C147.381 85.8652 147.578 85.9453 147.785 86.0039C147.996 86.0586 148.203 86.0859 148.406 86.0859C148.727 86.0859 148.984 86.0176 149.18 85.8809C149.375 85.7441 149.473 85.5625 149.473 85.3359C149.473 85.168 149.418 85.0293 149.309 84.9199C149.203 84.8066 149.061 84.709 148.881 84.627C148.705 84.5449 148.516 84.4648 148.312 84.3867C148.051 84.2891 147.789 84.1758 147.527 84.0469C147.27 83.918 147.053 83.7461 146.877 83.5312C146.701 83.3164 146.613 83.0332 146.613 82.6816C146.613 82.3457 146.699 82.0547 146.871 81.8086C147.043 81.5586 147.283 81.3652 147.592 81.2285C147.9 81.0918 148.256 81.0234 148.658 81.0234C149.283 81.0234 149.902 81.1797 150.516 81.4922L150.164 82.5176C150.039 82.4277 149.891 82.3477 149.719 82.2773C149.547 82.207 149.371 82.1523 149.191 82.1133C149.012 82.0703 148.846 82.0488 148.693 82.0488C148.439 82.0488 148.234 82.1055 148.078 82.2188C147.926 82.332 147.85 82.4844 147.85 82.6758C147.85 82.793 147.887 82.9004 147.961 82.998C148.035 83.0918 148.152 83.1855 148.312 83.2793C148.477 83.3691 148.697 83.4707 148.975 83.584C149.24 83.6895 149.506 83.8105 149.771 83.9473C150.037 84.084 150.258 84.2617 150.434 84.4805C150.613 84.6992 150.703 84.9863 150.703 85.3418C150.703 85.6934 150.609 86.0039 150.422 86.2734C150.234 86.5391 149.973 86.7461 149.637 86.8945C149.305 87.043 148.918 87.1172 148.477 87.1172C147.746 87.1172 147.062 86.9082 146.426 86.4902ZM156.117 87H154.84V77.9766H156.117V87ZM162.697 87H161.66L161.59 86.25C161.375 86.5234 161.104 86.7363 160.775 86.8887C160.447 87.041 160.084 87.1172 159.686 87.1172C159.268 87.1172 158.895 87.0352 158.566 86.8711C158.238 86.707 157.98 86.4824 157.793 86.1973C157.605 85.9121 157.512 85.5879 157.512 85.2246C157.512 84.8418 157.613 84.5059 157.816 84.2168C158.02 83.9238 158.297 83.6953 158.648 83.5312C159 83.3633 159.4 83.2793 159.85 83.2793C160.131 83.2793 160.416 83.3125 160.705 83.3789C160.998 83.4453 161.262 83.5391 161.496 83.6602V83.4434C161.496 83.1582 161.422 82.9141 161.273 82.7109C161.129 82.5039 160.93 82.3457 160.676 82.2363C160.426 82.127 160.148 82.0723 159.844 82.0723C159.574 82.0723 159.299 82.1191 159.018 82.2129C158.74 82.3066 158.479 82.4512 158.232 82.6465L157.869 81.668C158.225 81.457 158.594 81.2969 158.977 81.1875C159.363 81.0781 159.742 81.0234 160.113 81.0234C160.645 81.0234 161.102 81.1289 161.484 81.3398C161.871 81.5508 162.17 81.8516 162.381 82.2422C162.592 82.6289 162.697 83.0859 162.697 83.6133V87ZM159.92 86.0977C160.197 86.0977 160.453 86.041 160.688 85.9277C160.922 85.8105 161.111 85.6465 161.256 85.4355C161.404 85.2207 161.484 84.9707 161.496 84.6855V84.6035C161.297 84.4551 161.072 84.3398 160.822 84.2578C160.576 84.1719 160.324 84.1289 160.066 84.1289C159.672 84.1289 159.344 84.2227 159.082 84.4102C158.82 84.5977 158.689 84.8379 158.689 85.1309C158.689 85.3145 158.742 85.4805 158.848 85.6289C158.957 85.7734 159.104 85.8887 159.287 85.9746C159.475 86.0566 159.686 86.0977 159.92 86.0977ZM167.73 86.8535C167.32 87.0293 166.924 87.1172 166.541 87.1172C166.158 87.1172 165.822 87.0352 165.533 86.8711C165.248 86.707 165.023 86.4766 164.859 86.1797C164.699 85.8789 164.619 85.5332 164.619 85.1426V82.2129H163.594V81.1406H164.678V79.6758H165.82V81.1406H167.531V82.2129H165.82V84.9199C165.82 85.2637 165.912 85.5371 166.096 85.7402C166.283 85.9395 166.523 86.0391 166.816 86.0391C167.062 86.0391 167.307 85.9648 167.549 85.8164L167.73 86.8535ZM174.141 86.3027C173.414 86.8457 172.615 87.1172 171.744 87.1172C171.123 87.1172 170.566 86.9805 170.074 86.707C169.582 86.4336 169.193 86.0605 168.908 85.5879C168.623 85.1152 168.48 84.582 168.48 83.9883C168.48 83.4219 168.611 82.916 168.873 82.4707C169.135 82.0215 169.492 81.668 169.945 81.4102C170.398 81.1523 170.912 81.0234 171.486 81.0234C172.08 81.0234 172.602 81.1641 173.051 81.4453C173.504 81.7266 173.855 82.1191 174.105 82.623C174.359 83.123 174.486 83.7031 174.486 84.3633V84.5508H169.781C169.852 84.8555 169.984 85.123 170.18 85.3535C170.375 85.5801 170.617 85.7578 170.906 85.8867C171.195 86.0117 171.521 86.0742 171.885 86.0742C172.533 86.0742 173.129 85.8633 173.672 85.4414L174.141 86.3027ZM169.729 83.7188H173.367C173.328 83.3906 173.227 83.1055 173.062 82.8633C172.898 82.6172 172.686 82.4258 172.424 82.2891C172.166 82.1484 171.875 82.0781 171.551 82.0781C171.223 82.0781 170.928 82.1484 170.666 82.2891C170.404 82.4258 170.191 82.6172 170.027 82.8633C169.867 83.1094 169.768 83.3945 169.729 83.7188ZM176.947 87H175.746V81.1406H176.795L176.842 82.2539C177.045 81.8672 177.324 81.5664 177.68 81.3516C178.039 81.1328 178.451 81.0234 178.916 81.0234C179.029 81.0234 179.143 81.0312 179.256 81.0469C179.373 81.0586 179.49 81.0781 179.607 81.1055L179.455 82.1895C179.229 82.1309 179.006 82.1016 178.787 82.1016C178.424 82.1016 178.104 82.1895 177.826 82.3652C177.549 82.5371 177.332 82.7754 177.176 83.0801C177.023 83.3848 176.947 83.7363 176.947 84.1348V87ZM180.357 87.1172C180.162 87.1172 180.004 87.0566 179.883 86.9355C179.766 86.8145 179.707 86.6582 179.707 86.4668C179.707 86.2676 179.766 86.1074 179.883 85.9863C180.004 85.8652 180.162 85.8047 180.357 85.8047C180.549 85.8047 180.707 85.8652 180.832 85.9863C180.957 86.1074 181.02 86.2676 181.02 86.4668C181.02 86.6582 180.957 86.8145 180.832 86.9355C180.707 87.0566 180.549 87.1172 180.357 87.1172Z" fill="#F7FFF7"/>
</svg>
