<svg width="299" height="222" viewBox="0 0 299 222" fill="none" xmlns="http://www.w3.org/2000/svg">
<path d="M51.9688 63H44.4688L34.1875 29.875L23.9062 63H16.4062L1.15625 16.125H9.8125L20.125 49.4062L30.4375 16.125H37.9375L48.2188 49.3125L58.5 16.125H67.1562L51.9688 63ZM98 59.375C94.1042 62.2083 89.8438 63.625 85.2188 63.625C81.8646 63.625 78.8542 62.8958 76.1875 61.4375C73.5208 59.9792 71.4062 57.9896 69.8438 55.4688C68.3021 52.9271 67.5312 50.0729 67.5312 46.9062C67.5312 43.8854 68.2292 41.1875 69.625 38.8125C71.0417 36.4375 72.9688 34.5625 75.4062 33.1875C77.8646 31.8125 80.6354 31.125 83.7188 31.125C86.9271 31.125 89.7396 31.8854 92.1562 33.4062C94.5938 34.9062 96.4896 37 97.8438 39.6875C99.1979 42.3542 99.875 45.4583 99.875 49V50H75.8125C76.1875 51.4167 76.8438 52.6667 77.7812 53.75C78.7396 54.8333 79.9271 55.6771 81.3438 56.2812C82.7604 56.8854 84.3542 57.1875 86.125 57.1875C89.4583 57.1875 92.5417 56.1042 95.375 53.9375L98 59.375ZM75.5 45.5H92.75C92.5833 43.9375 92.1042 42.5729 91.3125 41.4062C90.5417 40.2396 89.5312 39.3333 88.2812 38.6875C87.0521 38.0208 85.6667 37.6875 84.125 37.6875C82.5625 37.6875 81.1667 38.0208 79.9375 38.6875C78.7083 39.3542 77.7083 40.2812 76.9375 41.4688C76.1667 42.6354 75.6875 43.9792 75.5 45.5ZM114.312 63H106.094V14.875H114.312V63ZM149.781 58.1875C148.26 59.9167 146.417 61.2604 144.25 62.2188C142.083 63.1562 139.719 63.625 137.156 63.625C133.99 63.625 131.146 62.9167 128.625 61.5C126.125 60.0833 124.146 58.1562 122.688 55.7188C121.25 53.2604 120.531 50.4792 120.531 47.375C120.531 44.2708 121.25 41.5 122.688 39.0625C124.146 36.6042 126.125 34.6667 128.625 33.25C131.146 31.8333 133.99 31.125 137.156 31.125C139.698 31.125 142.042 31.5938 144.188 32.5312C146.354 33.4688 148.198 34.7917 149.719 36.5L145.219 41.2812C144.281 40.2604 143.146 39.4688 141.812 38.9062C140.5 38.3438 139.104 38.0625 137.625 38.0625C135.833 38.0625 134.24 38.4583 132.844 39.25C131.469 40.0417 130.385 41.1354 129.594 42.5312C128.823 43.9271 128.438 45.5312 128.438 47.3438C128.438 49.1562 128.823 50.7708 129.594 52.1875C130.385 53.5833 131.469 54.6875 132.844 55.5C134.24 56.2917 135.833 56.6875 137.625 56.6875C139.104 56.6875 140.51 56.4062 141.844 55.8438C143.177 55.2604 144.302 54.4688 145.219 53.4688L149.781 58.1875ZM170.375 63.625C167.188 63.625 164.333 62.9167 161.812 61.5C159.312 60.0833 157.333 58.1562 155.875 55.7188C154.438 53.2604 153.719 50.4792 153.719 47.375C153.719 44.2708 154.438 41.5 155.875 39.0625C157.333 36.6042 159.312 34.6667 161.812 33.25C164.333 31.8333 167.188 31.125 170.375 31.125C173.542 31.125 176.375 31.8333 178.875 33.25C181.375 34.6667 183.333 36.6042 184.75 39.0625C186.188 41.5 186.906 44.2708 186.906 47.375C186.906 50.4792 186.188 53.2604 184.75 55.7188C183.333 58.1562 181.375 60.0833 178.875 61.5C176.375 62.9167 173.542 63.625 170.375 63.625ZM170.312 56.7188C171.979 56.7188 173.469 56.3125 174.781 55.5C176.094 54.6875 177.125 53.5729 177.875 52.1562C178.646 50.7396 179.031 49.1354 179.031 47.3438C179.031 45.5729 178.646 43.9896 177.875 42.5938C177.125 41.1771 176.094 40.0625 174.781 39.25C173.469 38.4375 171.979 38.0312 170.312 38.0312C168.667 38.0312 167.177 38.4375 165.844 39.25C164.531 40.0625 163.49 41.1771 162.719 42.5938C161.969 43.9896 161.594 45.5729 161.594 47.3438C161.594 49.1354 161.969 50.7396 162.719 52.1562C163.49 53.5729 164.531 54.6875 165.844 55.5C167.177 56.3125 168.667 56.7188 170.312 56.7188ZM243.5 63H235.812V46.9688C235.812 44.1354 235.219 41.9375 234.031 40.375C232.865 38.7917 231.208 38 229.062 38C226.896 38 225.198 38.7917 223.969 40.375C222.76 41.9583 222.156 44.1562 222.156 46.9688V63H214.469V46.9688C214.469 44.1354 213.875 41.9375 212.688 40.375C211.5 38.7917 209.844 38 207.719 38C205.531 38 203.823 38.7917 202.594 40.375C201.385 41.9583 200.781 44.1562 200.781 46.9688V63H193.094V31.75H199.25L199.531 37.0625C200.594 35.125 202 33.6562 203.75 32.6562C205.521 31.6354 207.604 31.125 210 31.125C212.479 31.125 214.615 31.6667 216.406 32.75C218.219 33.8125 219.604 35.3438 220.562 37.3438C221.604 35.3021 223.031 33.7604 224.844 32.7188C226.656 31.6562 228.792 31.125 231.25 31.125C235.104 31.125 238.104 32.3542 240.25 34.8125C242.417 37.25 243.5 40.6458 243.5 45V63ZM279.562 59.375C275.667 62.2083 271.406 63.625 266.781 63.625C263.427 63.625 260.417 62.8958 257.75 61.4375C255.083 59.9792 252.969 57.9896 251.406 55.4688C249.865 52.9271 249.094 50.0729 249.094 46.9062C249.094 43.8854 249.792 41.1875 251.188 38.8125C252.604 36.4375 254.531 34.5625 256.969 33.1875C259.427 31.8125 262.198 31.125 265.281 31.125C268.49 31.125 271.302 31.8854 273.719 33.4062C276.156 34.9062 278.052 37 279.406 39.6875C280.76 42.3542 281.438 45.4583 281.438 49V50H257.375C257.75 51.4167 258.406 52.6667 259.344 53.75C260.302 54.8333 261.49 55.6771 262.906 56.2812C264.323 56.8854 265.917 57.1875 267.688 57.1875C271.021 57.1875 274.104 56.1042 276.938 53.9375L279.562 59.375ZM257.062 45.5H274.312C274.146 43.9375 273.667 42.5729 272.875 41.4062C272.104 40.2396 271.094 39.3333 269.844 38.6875C268.615 38.0208 267.229 37.6875 265.688 37.6875C264.125 37.6875 262.729 38.0208 261.5 38.6875C260.271 39.3542 259.271 40.2812 258.5 41.4688C257.729 42.6354 257.25 43.9792 257.062 45.5ZM292.938 50.2188H288.969L287.781 16.125H294.125L292.938 50.2188ZM290.938 63.625C289.833 63.625 288.906 63.2604 288.156 62.5312C287.406 61.7812 287.031 60.8646 287.031 59.7812C287.031 58.7396 287.406 57.8542 288.156 57.125C288.906 56.375 289.833 56 290.938 56C292.042 56 292.969 56.375 293.719 57.125C294.469 57.8542 294.844 58.7396 294.844 59.7812C294.844 60.8646 294.469 61.7812 293.719 62.5312C292.969 63.2604 292.042 63.625 290.938 63.625Z" fill="#F7FFF7"/>
<path d="M31.9297 124.561C30.6992 125.088 29.5098 125.352 28.3613 125.352C27.2129 125.352 26.2051 125.105 25.3379 124.613C24.4824 124.121 23.8086 123.43 23.3164 122.539C22.8359 121.637 22.5957 120.6 22.5957 119.428V110.639H19.5195V107.422H22.7715V103.027H26.1992V107.422H31.332V110.639H26.1992V118.76C26.1992 119.791 26.4746 120.611 27.0254 121.221C27.5879 121.818 28.3086 122.117 29.1875 122.117C29.9258 122.117 30.6582 121.895 31.3848 121.449L31.9297 124.561ZM43.4609 125.352C41.7031 125.352 40.1211 124.953 38.7148 124.156C37.3086 123.359 36.2012 122.275 35.3926 120.904C34.584 119.521 34.1797 117.957 34.1797 116.211C34.1797 114.477 34.584 112.924 35.3926 111.553C36.2012 110.17 37.3086 109.08 38.7148 108.283C40.1211 107.475 41.7031 107.07 43.4609 107.07C45.2305 107.07 46.8125 107.475 48.207 108.283C49.6016 109.08 50.6973 110.17 51.4941 111.553C52.3027 112.924 52.707 114.477 52.707 116.211C52.707 117.957 52.3027 119.521 51.4941 120.904C50.6973 122.275 49.6016 123.359 48.207 124.156C46.8125 124.953 45.2305 125.352 43.4609 125.352ZM43.4434 122.117C44.5098 122.117 45.459 121.859 46.291 121.344C47.1348 120.816 47.7969 120.113 48.2773 119.234C48.7695 118.344 49.0156 117.33 49.0156 116.193C49.0156 115.08 48.7695 114.084 48.2773 113.205C47.7969 112.314 47.1348 111.611 46.291 111.096C45.459 110.568 44.5098 110.305 43.4434 110.305C42.3887 110.305 41.4395 110.568 40.5957 111.096C39.752 111.611 39.084 112.314 38.5918 113.205C38.1113 114.084 37.8711 115.08 37.8711 116.193C37.8711 117.33 38.1113 118.344 38.5918 119.234C39.084 120.113 39.752 120.816 40.5957 121.344C41.4395 121.859 42.3887 122.117 43.4434 122.117ZM72.166 133.789H68.2812L71.9551 124.895L63.3945 107.422H67.4199L73.6777 120.764L79.1973 107.422H83.0645L72.166 133.789ZM93.875 125.352C92.1172 125.352 90.5352 124.953 89.1289 124.156C87.7227 123.359 86.6152 122.275 85.8066 120.904C84.998 119.521 84.5938 117.957 84.5938 116.211C84.5938 114.477 84.998 112.924 85.8066 111.553C86.6152 110.17 87.7227 109.08 89.1289 108.283C90.5352 107.475 92.1172 107.07 93.875 107.07C95.6445 107.07 97.2266 107.475 98.6211 108.283C100.016 109.08 101.111 110.17 101.908 111.553C102.717 112.924 103.121 114.477 103.121 116.211C103.121 117.957 102.717 119.521 101.908 120.904C101.111 122.275 100.016 123.359 98.6211 124.156C97.2266 124.953 95.6445 125.352 93.875 125.352ZM93.8574 122.117C94.9238 122.117 95.873 121.859 96.7051 121.344C97.5488 120.816 98.2109 120.113 98.6914 119.234C99.1836 118.344 99.4297 117.33 99.4297 116.193C99.4297 115.08 99.1836 114.084 98.6914 113.205C98.2109 112.314 97.5488 111.611 96.7051 111.096C95.873 110.568 94.9238 110.305 93.8574 110.305C92.8027 110.305 91.8535 110.568 91.0098 111.096C90.166 111.611 89.498 112.314 89.0059 113.205C88.5254 114.084 88.2852 115.08 88.2852 116.193C88.2852 117.33 88.5254 118.344 89.0059 119.234C89.498 120.113 90.166 120.816 91.0098 121.344C91.8535 121.859 92.8027 122.117 93.8574 122.117ZM123.354 125H120.295L120.172 122.17C119.527 123.201 118.684 123.992 117.641 124.543C116.609 125.082 115.385 125.352 113.967 125.352C111.67 125.352 109.854 124.654 108.518 123.26C107.193 121.854 106.531 119.932 106.531 117.494V107.422H110.135V116.967C110.135 118.525 110.557 119.768 111.4 120.693C112.244 121.619 113.381 122.082 114.811 122.082C116.287 122.082 117.477 121.59 118.379 120.605C119.293 119.609 119.75 118.303 119.75 116.686V107.422H123.354V125ZM132.037 125H128.434V107.422H131.58L131.721 110.762C132.33 109.602 133.168 108.699 134.234 108.055C135.312 107.398 136.549 107.07 137.943 107.07C138.283 107.07 138.623 107.094 138.963 107.141C139.314 107.176 139.666 107.234 140.018 107.316L139.561 110.568C138.881 110.393 138.213 110.305 137.557 110.305C136.467 110.305 135.506 110.568 134.674 111.096C133.842 111.611 133.191 112.326 132.723 113.24C132.266 114.154 132.037 115.209 132.037 116.404V125ZM168.178 125H164.574V115.455C164.574 113.896 164.146 112.654 163.291 111.729C162.447 110.803 161.311 110.34 159.881 110.34C158.404 110.34 157.215 110.832 156.312 111.816C155.41 112.801 154.959 114.107 154.959 115.736V125H151.355V107.422H154.396L154.52 110.252C155.164 109.221 156.008 108.436 157.051 107.896C158.094 107.346 159.318 107.07 160.725 107.07C163.033 107.07 164.85 107.768 166.174 109.162C167.51 110.557 168.178 112.479 168.178 114.928V125ZM188.586 122.908C186.406 124.537 184.01 125.352 181.396 125.352C179.533 125.352 177.863 124.941 176.387 124.121C174.91 123.301 173.744 122.182 172.889 120.764C172.033 119.346 171.605 117.746 171.605 115.965C171.605 114.266 171.998 112.748 172.783 111.412C173.568 110.064 174.641 109.004 176 108.23C177.359 107.457 178.9 107.07 180.623 107.07C182.404 107.07 183.969 107.492 185.316 108.336C186.676 109.18 187.73 110.357 188.48 111.869C189.242 113.369 189.623 115.109 189.623 117.09V117.652H175.508C175.719 118.566 176.117 119.369 176.703 120.061C177.289 120.74 178.016 121.273 178.883 121.66C179.75 122.035 180.729 122.223 181.818 122.223C183.764 122.223 185.551 121.59 187.18 120.324L188.586 122.908ZM175.35 115.156H186.266C186.148 114.172 185.844 113.316 185.352 112.59C184.859 111.852 184.221 111.277 183.436 110.867C182.662 110.445 181.789 110.234 180.816 110.234C179.832 110.234 178.947 110.445 178.162 110.867C177.377 111.277 176.738 111.852 176.246 112.59C175.766 113.328 175.467 114.184 175.35 115.156ZM212.773 125H208.625L205.039 112.432L201.453 125H197.305L191.68 107.422H195.494L199.344 120.887L203.404 107.422H206.674L210.734 120.904L214.602 107.422H218.416L212.773 125ZM234.184 125H230.352V97.9297H234.184V125ZM241.109 102.324C240.559 102.324 240.096 102.131 239.721 101.744C239.346 101.357 239.158 100.889 239.158 100.338C239.158 99.7871 239.346 99.3242 239.721 98.9492C240.096 98.5625 240.559 98.3691 241.109 98.3691C241.672 98.3691 242.141 98.5625 242.516 98.9492C242.902 99.3242 243.096 99.7871 243.096 100.338C243.096 100.889 242.902 101.357 242.516 101.744C242.141 102.131 241.672 102.324 241.109 102.324ZM242.902 125H239.299V107.422H242.902V125ZM252.992 125H249.389V110.639H246.312V107.422H249.389V103.994C249.389 102.846 249.641 101.832 250.145 100.953C250.66 100.062 251.363 99.3652 252.254 98.8613C253.156 98.3574 254.193 98.1055 255.365 98.1055C256.092 98.1055 256.824 98.2051 257.562 98.4043C258.301 98.6035 259.027 98.9141 259.742 99.3359L258.371 102.166C257.984 101.885 257.58 101.68 257.158 101.551C256.748 101.41 256.338 101.34 255.928 101.34C255.072 101.34 254.369 101.645 253.818 102.254C253.268 102.863 252.992 103.678 252.992 104.697V107.422H258.371V110.639H252.992V125ZM277.707 122.908C275.527 124.537 273.131 125.352 270.518 125.352C268.654 125.352 266.984 124.941 265.508 124.121C264.031 123.301 262.865 122.182 262.01 120.764C261.154 119.346 260.727 117.746 260.727 115.965C260.727 114.266 261.119 112.748 261.904 111.412C262.689 110.064 263.762 109.004 265.121 108.23C266.48 107.457 268.021 107.07 269.744 107.07C271.525 107.07 273.09 107.492 274.438 108.336C275.797 109.18 276.852 110.357 277.602 111.869C278.363 113.369 278.744 115.109 278.744 117.09V117.652H264.629C264.84 118.566 265.238 119.369 265.824 120.061C266.41 120.74 267.137 121.273 268.004 121.66C268.871 122.035 269.85 122.223 270.939 122.223C272.885 122.223 274.672 121.59 276.301 120.324L277.707 122.908ZM264.471 115.156H275.387C275.27 114.172 274.965 113.316 274.473 112.59C273.98 111.852 273.342 111.277 272.557 110.867C271.783 110.445 270.91 110.234 269.938 110.234C268.953 110.234 268.068 110.445 267.283 110.867C266.498 111.277 265.859 111.852 265.367 112.59C264.887 113.328 264.588 114.184 264.471 115.156Z" fill="#F7FFF7"/>
<path d="M65.3984 190H58.2109V178.281H59.5859V188.781H65.3984V190ZM67.8672 179.719C67.6484 179.719 67.4635 179.643 67.3125 179.492C67.1667 179.336 67.0938 179.148 67.0938 178.93C67.0938 178.716 67.1667 178.534 67.3125 178.383C67.4635 178.232 67.6484 178.156 67.8672 178.156C68.0911 178.156 68.2786 178.232 68.4297 178.383C68.5807 178.534 68.6562 178.716 68.6562 178.93C68.6562 179.148 68.5807 179.336 68.4297 179.492C68.2786 179.643 68.0911 179.719 67.8672 179.719ZM68.5078 190H67.2266V182.188H68.5078V190ZM78.1641 182.188L74.875 190H73.6328L70.3516 182.188H71.7344L74.2656 188.656L76.8047 182.188H78.1641ZM80.6328 179.719C80.4141 179.719 80.2292 179.643 80.0781 179.492C79.9323 179.336 79.8594 179.148 79.8594 178.93C79.8594 178.716 79.9323 178.534 80.0781 178.383C80.2292 178.232 80.4141 178.156 80.6328 178.156C80.8568 178.156 81.0443 178.232 81.1953 178.383C81.3464 178.534 81.4219 178.716 81.4219 178.93C81.4219 179.148 81.3464 179.336 81.1953 179.492C81.0443 179.643 80.8568 179.719 80.6328 179.719ZM81.2734 190H79.9922V182.188H81.2734V190ZM91.0547 190H89.7734V185.641C89.7734 184.901 89.5625 184.31 89.1406 183.867C88.7188 183.424 88.1589 183.203 87.4609 183.203C86.737 183.203 86.1484 183.443 85.6953 183.922C85.2474 184.396 85.0234 185.021 85.0234 185.797V190H83.7422V182.188H84.8594L84.9062 183.453C85.1927 182.995 85.5703 182.643 86.0391 182.398C86.5078 182.154 87.0599 182.031 87.6953 182.031C88.7318 182.031 89.5495 182.344 90.1484 182.969C90.7526 183.594 91.0547 184.451 91.0547 185.539V190ZM96.6406 190C95.8906 190 95.2161 189.826 94.6172 189.477C94.0234 189.128 93.5547 188.654 93.2109 188.055C92.8672 187.451 92.6953 186.771 92.6953 186.016C92.6953 185.255 92.8672 184.576 93.2109 183.977C93.5547 183.378 94.0234 182.904 94.6172 182.555C95.2161 182.206 95.8932 182.031 96.6484 182.031C97.2526 182.031 97.8073 182.146 98.3125 182.375C98.8177 182.599 99.2474 182.911 99.6016 183.312L99.6641 182.188H100.797V189.797C100.797 190.672 100.625 191.427 100.281 192.062C99.9375 192.703 99.4479 193.195 98.8125 193.539C98.1771 193.888 97.4219 194.062 96.5469 194.062C95.3073 194.062 94.2292 193.651 93.3125 192.828L93.875 191.797C94.5885 192.536 95.4609 192.906 96.4922 192.906C97.112 192.906 97.6458 192.776 98.0938 192.516C98.5469 192.26 98.8958 191.898 99.1406 191.43C99.3906 190.961 99.5156 190.406 99.5156 189.766V188.805C99.1615 189.174 98.737 189.466 98.2422 189.68C97.7526 189.893 97.2188 190 96.6406 190ZM96.75 188.867C97.2604 188.867 97.724 188.753 98.1406 188.523C98.5573 188.289 98.8906 187.971 99.1406 187.57C99.3906 187.164 99.5156 186.706 99.5156 186.195V185.836C99.5156 185.32 99.3906 184.862 99.1406 184.461C98.8906 184.06 98.5573 183.745 98.1406 183.516C97.724 183.281 97.2604 183.164 96.75 183.164C96.224 183.164 95.7526 183.289 95.3359 183.539C94.9193 183.789 94.5885 184.13 94.3438 184.562C94.1042 184.99 93.9844 185.474 93.9844 186.016C93.9844 186.557 94.1042 187.044 94.3438 187.477C94.5885 187.909 94.9193 188.25 95.3359 188.5C95.7526 188.745 96.224 188.867 96.75 188.867ZM108.195 190H107.055V178.281H108.336V183.242C108.701 182.862 109.133 182.565 109.633 182.352C110.133 182.138 110.677 182.031 111.266 182.031C112.036 182.031 112.724 182.208 113.328 182.562C113.932 182.917 114.409 183.401 114.758 184.016C115.112 184.625 115.289 185.318 115.289 186.094C115.289 186.865 115.112 187.557 114.758 188.172C114.409 188.786 113.932 189.271 113.328 189.625C112.724 189.979 112.036 190.156 111.266 190.156C110.651 190.156 110.086 190.042 109.57 189.812C109.06 189.578 108.622 189.26 108.258 188.859L108.195 190ZM111.156 189C111.693 189 112.172 188.875 112.594 188.625C113.021 188.37 113.357 188.023 113.602 187.586C113.852 187.148 113.977 186.654 113.977 186.102C113.977 185.544 113.852 185.047 113.602 184.609C113.357 184.167 113.021 183.818 112.594 183.562C112.172 183.307 111.693 183.18 111.156 183.18C110.646 183.18 110.182 183.297 109.766 183.531C109.354 183.766 109.021 184.086 108.766 184.492C108.516 184.898 108.372 185.359 108.336 185.875V186.305C108.372 186.82 108.516 187.281 108.766 187.688C109.016 188.094 109.346 188.414 109.758 188.648C110.174 188.883 110.641 189 111.156 189ZM123.938 189.039C122.969 189.784 121.901 190.156 120.734 190.156C119.922 190.156 119.193 189.974 118.547 189.609C117.901 189.245 117.391 188.75 117.016 188.125C116.646 187.495 116.461 186.784 116.461 185.992C116.461 185.232 116.633 184.555 116.977 183.961C117.32 183.362 117.792 182.891 118.391 182.547C118.99 182.203 119.669 182.031 120.43 182.031C121.211 182.031 121.898 182.219 122.492 182.594C123.091 182.969 123.557 183.49 123.891 184.156C124.224 184.823 124.391 185.594 124.391 186.469V186.719H117.852C117.945 187.177 118.133 187.576 118.414 187.914C118.701 188.253 119.055 188.516 119.477 188.703C119.898 188.891 120.37 188.984 120.891 188.984C121.786 188.984 122.604 188.69 123.344 188.102L123.938 189.039ZM117.805 185.625H123.18C123.122 185.141 122.971 184.719 122.727 184.359C122.487 183.995 122.174 183.711 121.789 183.508C121.409 183.305 120.979 183.203 120.5 183.203C120.016 183.203 119.578 183.305 119.188 183.508C118.802 183.711 118.487 183.995 118.242 184.359C118.003 184.719 117.857 185.141 117.805 185.625ZM127.555 190H126.195V177.969H127.555V190ZM133.445 190.156C132.669 190.156 131.971 189.979 131.352 189.625C130.732 189.271 130.242 188.789 129.883 188.18C129.529 187.565 129.352 186.87 129.352 186.094C129.352 185.323 129.529 184.633 129.883 184.023C130.242 183.409 130.732 182.924 131.352 182.57C131.971 182.211 132.669 182.031 133.445 182.031C134.221 182.031 134.917 182.211 135.531 182.57C136.146 182.924 136.63 183.409 136.984 184.023C137.339 184.633 137.516 185.323 137.516 186.094C137.516 186.87 137.339 187.565 136.984 188.18C136.63 188.789 136.146 189.271 135.531 189.625C134.917 189.979 134.221 190.156 133.445 190.156ZM133.438 189C133.964 189 134.435 188.872 134.852 188.617C135.268 188.362 135.596 188.016 135.836 187.578C136.081 187.141 136.203 186.643 136.203 186.086C136.203 185.539 136.081 185.047 135.836 184.609C135.596 184.172 135.268 183.826 134.852 183.57C134.435 183.315 133.964 183.188 133.438 183.188C132.911 183.188 132.438 183.315 132.016 183.57C131.599 183.826 131.268 184.172 131.023 184.609C130.784 185.047 130.664 185.539 130.664 186.086C130.664 186.643 130.784 187.141 131.023 187.578C131.268 188.016 131.599 188.362 132.016 188.617C132.438 188.872 132.911 189 133.438 189ZM147.531 190H146.047L144.281 184.031L142.516 190H141.031L138.539 182.188H139.898L141.766 188.438L143.68 182.188H144.883L146.797 188.438L148.672 182.188H150.031L147.531 190ZM158.297 193.906H156.898L158.539 189.938L154.805 182.188H156.219L159.156 188.461L161.75 182.188H163.141L158.297 193.906ZM168.023 190.156C167.247 190.156 166.549 189.979 165.93 189.625C165.31 189.271 164.82 188.789 164.461 188.18C164.107 187.565 163.93 186.87 163.93 186.094C163.93 185.323 164.107 184.633 164.461 184.023C164.82 183.409 165.31 182.924 165.93 182.57C166.549 182.211 167.247 182.031 168.023 182.031C168.799 182.031 169.495 182.211 170.109 182.57C170.724 182.924 171.208 183.409 171.562 184.023C171.917 184.633 172.094 185.323 172.094 186.094C172.094 186.87 171.917 187.565 171.562 188.18C171.208 188.789 170.724 189.271 170.109 189.625C169.495 189.979 168.799 190.156 168.023 190.156ZM168.016 189C168.542 189 169.013 188.872 169.43 188.617C169.846 188.362 170.174 188.016 170.414 187.578C170.659 187.141 170.781 186.643 170.781 186.086C170.781 185.539 170.659 185.047 170.414 184.609C170.174 184.172 169.846 183.826 169.43 183.57C169.013 183.315 168.542 183.188 168.016 183.188C167.49 183.188 167.016 183.315 166.594 183.57C166.177 183.826 165.846 184.172 165.602 184.609C165.362 185.047 165.242 185.539 165.242 186.086C165.242 186.643 165.362 187.141 165.602 187.578C165.846 188.016 166.177 188.362 166.594 188.617C167.016 188.872 167.49 189 168.016 189ZM181.055 190H179.93L179.883 188.734C179.596 189.193 179.219 189.544 178.75 189.789C178.286 190.034 177.737 190.156 177.102 190.156C176.065 190.156 175.245 189.844 174.641 189.219C174.042 188.589 173.742 187.729 173.742 186.641V182.188H175.023V186.547C175.023 187.286 175.232 187.878 175.648 188.32C176.07 188.763 176.63 188.984 177.328 188.984C178.057 188.984 178.646 188.745 179.094 188.266C179.547 187.786 179.773 187.161 179.773 186.391V182.188H181.055V190ZM184.758 190H183.477V182.188H184.602L184.656 183.734C184.927 183.198 185.307 182.781 185.797 182.484C186.292 182.182 186.859 182.031 187.5 182.031C187.641 182.031 187.784 182.039 187.93 182.055C188.076 182.07 188.221 182.094 188.367 182.125L188.211 183.281C187.924 183.214 187.641 183.18 187.359 183.18C186.849 183.18 186.396 183.305 186 183.555C185.609 183.805 185.305 184.148 185.086 184.586C184.867 185.023 184.758 185.526 184.758 186.094V190ZM205.969 190H204.688V185.836C204.688 184.997 204.503 184.346 204.133 183.883C203.768 183.414 203.253 183.18 202.586 183.18C201.914 183.18 201.385 183.417 201 183.891C200.62 184.359 200.43 185.008 200.43 185.836V190H199.148V185.836C199.148 184.997 198.964 184.346 198.594 183.883C198.224 183.414 197.706 183.18 197.039 183.18C196.367 183.18 195.839 183.417 195.453 183.891C195.073 184.359 194.883 185.008 194.883 185.836V190H193.602V182.188H194.648L194.703 183.586C194.964 183.076 195.318 182.69 195.766 182.43C196.219 182.164 196.753 182.031 197.367 182.031C198.023 182.031 198.583 182.18 199.047 182.477C199.516 182.768 199.865 183.188 200.094 183.734C200.349 183.177 200.711 182.755 201.18 182.469C201.654 182.177 202.219 182.031 202.875 182.031C203.849 182.031 204.607 182.341 205.148 182.961C205.695 183.576 205.969 184.435 205.969 185.539V190ZM215.094 189.039C214.125 189.784 213.057 190.156 211.891 190.156C211.078 190.156 210.349 189.974 209.703 189.609C209.057 189.245 208.547 188.75 208.172 188.125C207.802 187.495 207.617 186.784 207.617 185.992C207.617 185.232 207.789 184.555 208.133 183.961C208.477 183.362 208.948 182.891 209.547 182.547C210.146 182.203 210.826 182.031 211.586 182.031C212.367 182.031 213.055 182.219 213.648 182.594C214.247 182.969 214.714 183.49 215.047 184.156C215.38 184.823 215.547 185.594 215.547 186.469V186.719H209.008C209.102 187.177 209.289 187.576 209.57 187.914C209.857 188.253 210.211 188.516 210.633 188.703C211.055 188.891 211.526 188.984 212.047 188.984C212.943 188.984 213.76 188.69 214.5 188.102L215.094 189.039ZM208.961 185.625H214.336C214.279 185.141 214.128 184.719 213.883 184.359C213.643 183.995 213.331 183.711 212.945 183.508C212.565 183.305 212.135 183.203 211.656 183.203C211.172 183.203 210.734 183.305 210.344 183.508C209.958 183.711 209.643 183.995 209.398 184.359C209.159 184.719 209.013 185.141 208.961 185.625ZM223.656 190H222.555L222.469 188.969C222.182 189.339 221.818 189.63 221.375 189.844C220.932 190.052 220.438 190.156 219.891 190.156C219.328 190.156 218.826 190.047 218.383 189.828C217.94 189.604 217.591 189.299 217.336 188.914C217.086 188.529 216.961 188.091 216.961 187.602C216.961 187.086 217.096 186.633 217.367 186.242C217.643 185.846 218.016 185.536 218.484 185.312C218.958 185.089 219.495 184.977 220.094 184.977C220.484 184.977 220.883 185.026 221.289 185.125C221.695 185.219 222.057 185.349 222.375 185.516V185.188C222.375 184.771 222.271 184.417 222.062 184.125C221.854 183.828 221.576 183.602 221.227 183.445C220.878 183.284 220.492 183.203 220.07 183.203C219.706 183.203 219.333 183.271 218.953 183.406C218.573 183.536 218.208 183.74 217.859 184.016L217.438 182.914C217.891 182.622 218.367 182.404 218.867 182.258C219.367 182.107 219.862 182.031 220.352 182.031C221.029 182.031 221.612 182.169 222.102 182.445C222.596 182.716 222.979 183.104 223.25 183.609C223.521 184.109 223.656 184.703 223.656 185.391V190ZM220.117 188.984C220.518 188.984 220.885 188.901 221.219 188.734C221.552 188.568 221.823 188.328 222.031 188.016C222.24 187.698 222.354 187.323 222.375 186.891V186.758C222.089 186.534 221.766 186.362 221.406 186.242C221.052 186.117 220.69 186.055 220.32 186.055C219.742 186.055 219.258 186.195 218.867 186.477C218.482 186.758 218.289 187.115 218.289 187.547C218.289 187.818 218.367 188.062 218.523 188.281C218.685 188.5 218.904 188.672 219.18 188.797C219.456 188.922 219.768 188.984 220.117 188.984ZM233.242 190H231.961V185.641C231.961 184.901 231.75 184.31 231.328 183.867C230.906 183.424 230.346 183.203 229.648 183.203C228.924 183.203 228.336 183.443 227.883 183.922C227.435 184.396 227.211 185.021 227.211 185.797V190H225.93V182.188H227.047L227.094 183.453C227.38 182.995 227.758 182.643 228.227 182.398C228.695 182.154 229.247 182.031 229.883 182.031C230.919 182.031 231.737 182.344 232.336 182.969C232.94 183.594 233.242 184.451 233.242 185.539V190ZM234.961 189.32L235.297 188.117C235.484 188.294 235.698 188.448 235.938 188.578C236.177 188.708 236.43 188.81 236.695 188.883C236.961 188.951 237.229 188.984 237.5 188.984C237.984 188.984 238.375 188.878 238.672 188.664C238.969 188.451 239.117 188.172 239.117 187.828C239.117 187.578 239.039 187.372 238.883 187.211C238.732 187.044 238.531 186.901 238.281 186.781C238.031 186.661 237.763 186.547 237.477 186.438C237.128 186.302 236.781 186.148 236.438 185.977C236.094 185.805 235.807 185.578 235.578 185.297C235.354 185.016 235.242 184.646 235.242 184.188C235.242 183.75 235.352 183.37 235.57 183.047C235.789 182.724 236.094 182.474 236.484 182.297C236.88 182.12 237.333 182.031 237.844 182.031C238.615 182.031 239.372 182.224 240.117 182.609L239.734 183.766C239.568 183.656 239.375 183.56 239.156 183.477C238.938 183.388 238.714 183.32 238.484 183.273C238.255 183.227 238.039 183.203 237.836 183.203C237.456 183.203 237.148 183.292 236.914 183.469C236.68 183.641 236.562 183.872 236.562 184.164C236.562 184.331 236.609 184.484 236.703 184.625C236.802 184.76 236.966 184.896 237.195 185.031C237.424 185.167 237.742 185.318 238.148 185.484C238.508 185.63 238.862 185.797 239.211 185.984C239.56 186.167 239.849 186.404 240.078 186.695C240.312 186.982 240.43 187.357 240.43 187.82C240.43 188.279 240.307 188.685 240.062 189.039C239.823 189.388 239.487 189.661 239.055 189.859C238.628 190.057 238.133 190.156 237.57 190.156C236.638 190.156 235.768 189.878 234.961 189.32Z" fill="#F7FFF7"/>
<path d="M110.664 217.32L111 216.117C111.188 216.294 111.401 216.448 111.641 216.578C111.88 216.708 112.133 216.81 112.398 216.883C112.664 216.951 112.932 216.984 113.203 216.984C113.688 216.984 114.078 216.878 114.375 216.664C114.672 216.451 114.82 216.172 114.82 215.828C114.82 215.578 114.742 215.372 114.586 215.211C114.435 215.044 114.234 214.901 113.984 214.781C113.734 214.661 113.466 214.547 113.18 214.438C112.831 214.302 112.484 214.148 112.141 213.977C111.797 213.805 111.51 213.578 111.281 213.297C111.057 213.016 110.945 212.646 110.945 212.188C110.945 211.75 111.055 211.37 111.273 211.047C111.492 210.724 111.797 210.474 112.188 210.297C112.583 210.12 113.036 210.031 113.547 210.031C114.318 210.031 115.076 210.224 115.82 210.609L115.438 211.766C115.271 211.656 115.078 211.56 114.859 211.477C114.641 211.388 114.417 211.32 114.188 211.273C113.958 211.227 113.742 211.203 113.539 211.203C113.159 211.203 112.852 211.292 112.617 211.469C112.383 211.641 112.266 211.872 112.266 212.164C112.266 212.331 112.312 212.484 112.406 212.625C112.505 212.76 112.669 212.896 112.898 213.031C113.128 213.167 113.445 213.318 113.852 213.484C114.211 213.63 114.565 213.797 114.914 213.984C115.263 214.167 115.552 214.404 115.781 214.695C116.016 214.982 116.133 215.357 116.133 215.82C116.133 216.279 116.01 216.685 115.766 217.039C115.526 217.388 115.19 217.661 114.758 217.859C114.331 218.057 113.836 218.156 113.273 218.156C112.341 218.156 111.471 217.878 110.664 217.32ZM122.461 217.812C121.945 218.042 121.443 218.156 120.953 218.156C120.484 218.156 120.073 218.055 119.719 217.852C119.365 217.643 119.089 217.354 118.891 216.984C118.693 216.609 118.594 216.174 118.594 215.68V211.336H117.227V210.188H118.656V208.234H119.875V210.188H122.211V211.336H119.875V215.445C119.875 215.914 120 216.292 120.25 216.578C120.505 216.865 120.839 217.008 121.25 217.008C121.583 217.008 121.917 216.909 122.25 216.711L122.461 217.812ZM130.328 218H129.227L129.141 216.969C128.854 217.339 128.49 217.63 128.047 217.844C127.604 218.052 127.109 218.156 126.562 218.156C126 218.156 125.497 218.047 125.055 217.828C124.612 217.604 124.263 217.299 124.008 216.914C123.758 216.529 123.633 216.091 123.633 215.602C123.633 215.086 123.768 214.633 124.039 214.242C124.315 213.846 124.688 213.536 125.156 213.312C125.63 213.089 126.167 212.977 126.766 212.977C127.156 212.977 127.555 213.026 127.961 213.125C128.367 213.219 128.729 213.349 129.047 213.516V213.188C129.047 212.771 128.943 212.417 128.734 212.125C128.526 211.828 128.247 211.602 127.898 211.445C127.549 211.284 127.164 211.203 126.742 211.203C126.378 211.203 126.005 211.271 125.625 211.406C125.245 211.536 124.88 211.74 124.531 212.016L124.109 210.914C124.562 210.622 125.039 210.404 125.539 210.258C126.039 210.107 126.534 210.031 127.023 210.031C127.701 210.031 128.284 210.169 128.773 210.445C129.268 210.716 129.651 211.104 129.922 211.609C130.193 212.109 130.328 212.703 130.328 213.391V218ZM126.789 216.984C127.19 216.984 127.557 216.901 127.891 216.734C128.224 216.568 128.495 216.328 128.703 216.016C128.911 215.698 129.026 215.323 129.047 214.891V214.758C128.76 214.534 128.438 214.362 128.078 214.242C127.724 214.117 127.362 214.055 126.992 214.055C126.414 214.055 125.93 214.195 125.539 214.477C125.154 214.758 124.961 215.115 124.961 215.547C124.961 215.818 125.039 216.062 125.195 216.281C125.357 216.5 125.576 216.672 125.852 216.797C126.128 216.922 126.44 216.984 126.789 216.984ZM133.883 218H132.602V210.188H133.727L133.781 211.734C134.052 211.198 134.432 210.781 134.922 210.484C135.417 210.182 135.984 210.031 136.625 210.031C136.766 210.031 136.909 210.039 137.055 210.055C137.201 210.07 137.346 210.094 137.492 210.125L137.336 211.281C137.049 211.214 136.766 211.18 136.484 211.18C135.974 211.18 135.521 211.305 135.125 211.555C134.734 211.805 134.43 212.148 134.211 212.586C133.992 213.023 133.883 213.526 133.883 214.094V218ZM143.352 217.812C142.836 218.042 142.333 218.156 141.844 218.156C141.375 218.156 140.964 218.055 140.609 217.852C140.255 217.643 139.979 217.354 139.781 216.984C139.583 216.609 139.484 216.174 139.484 215.68V211.336H138.117V210.188H139.547V208.234H140.766V210.188H143.102V211.336H140.766V215.445C140.766 215.914 140.891 216.292 141.141 216.578C141.396 216.865 141.729 217.008 142.141 217.008C142.474 217.008 142.807 216.909 143.141 216.711L143.352 217.812ZM144.523 217.32L144.859 216.117C145.047 216.294 145.26 216.448 145.5 216.578C145.74 216.708 145.992 216.81 146.258 216.883C146.523 216.951 146.792 216.984 147.062 216.984C147.547 216.984 147.938 216.878 148.234 216.664C148.531 216.451 148.68 216.172 148.68 215.828C148.68 215.578 148.602 215.372 148.445 215.211C148.294 215.044 148.094 214.901 147.844 214.781C147.594 214.661 147.326 214.547 147.039 214.438C146.69 214.302 146.344 214.148 146 213.977C145.656 213.805 145.37 213.578 145.141 213.297C144.917 213.016 144.805 212.646 144.805 212.188C144.805 211.75 144.914 211.37 145.133 211.047C145.352 210.724 145.656 210.474 146.047 210.297C146.443 210.12 146.896 210.031 147.406 210.031C148.177 210.031 148.935 210.224 149.68 210.609L149.297 211.766C149.13 211.656 148.938 211.56 148.719 211.477C148.5 211.388 148.276 211.32 148.047 211.273C147.818 211.227 147.602 211.203 147.398 211.203C147.018 211.203 146.711 211.292 146.477 211.469C146.242 211.641 146.125 211.872 146.125 212.164C146.125 212.331 146.172 212.484 146.266 212.625C146.365 212.76 146.529 212.896 146.758 213.031C146.987 213.167 147.305 213.318 147.711 213.484C148.07 213.63 148.424 213.797 148.773 213.984C149.122 214.167 149.411 214.404 149.641 214.695C149.875 214.982 149.992 215.357 149.992 215.82C149.992 216.279 149.87 216.685 149.625 217.039C149.385 217.388 149.049 217.661 148.617 217.859C148.19 218.057 147.695 218.156 147.133 218.156C146.201 218.156 145.331 217.878 144.523 217.32ZM155.773 218V206.281H157.055V211.359C157.643 210.474 158.555 210.031 159.789 210.031C160.826 210.031 161.633 210.341 162.211 210.961C162.794 211.576 163.086 212.435 163.086 213.539V218H161.805V213.836C161.805 212.997 161.596 212.346 161.18 211.883C160.768 211.414 160.193 211.18 159.453 211.18C158.708 211.18 158.122 211.417 157.695 211.891C157.268 212.365 157.055 213.013 157.055 213.836V218H155.773ZM172.203 217.039C171.234 217.784 170.167 218.156 169 218.156C168.188 218.156 167.458 217.974 166.812 217.609C166.167 217.245 165.656 216.75 165.281 216.125C164.911 215.495 164.727 214.784 164.727 213.992C164.727 213.232 164.898 212.555 165.242 211.961C165.586 211.362 166.057 210.891 166.656 210.547C167.255 210.203 167.935 210.031 168.695 210.031C169.477 210.031 170.164 210.219 170.758 210.594C171.357 210.969 171.823 211.49 172.156 212.156C172.49 212.823 172.656 213.594 172.656 214.469V214.719H166.117C166.211 215.177 166.398 215.576 166.68 215.914C166.966 216.253 167.32 216.516 167.742 216.703C168.164 216.891 168.635 216.984 169.156 216.984C170.052 216.984 170.87 216.69 171.609 216.102L172.203 217.039ZM166.07 213.625H171.445C171.388 213.141 171.237 212.719 170.992 212.359C170.753 211.995 170.44 211.711 170.055 211.508C169.674 211.305 169.245 211.203 168.766 211.203C168.281 211.203 167.844 211.305 167.453 211.508C167.068 211.711 166.753 211.995 166.508 212.359C166.268 212.719 166.122 213.141 166.07 213.625ZM175.742 218H174.461V210.188H175.586L175.641 211.734C175.911 211.198 176.292 210.781 176.781 210.484C177.276 210.182 177.844 210.031 178.484 210.031C178.625 210.031 178.768 210.039 178.914 210.055C179.06 210.07 179.206 210.094 179.352 210.125L179.195 211.281C178.909 211.214 178.625 211.18 178.344 211.18C177.833 211.18 177.38 211.305 176.984 211.555C176.594 211.805 176.289 212.148 176.07 212.586C175.852 213.023 175.742 213.526 175.742 214.094V218ZM187.531 217.039C186.562 217.784 185.495 218.156 184.328 218.156C183.516 218.156 182.786 217.974 182.141 217.609C181.495 217.245 180.984 216.75 180.609 216.125C180.24 215.495 180.055 214.784 180.055 213.992C180.055 213.232 180.227 212.555 180.57 211.961C180.914 211.362 181.385 210.891 181.984 210.547C182.583 210.203 183.263 210.031 184.023 210.031C184.805 210.031 185.492 210.219 186.086 210.594C186.685 210.969 187.151 211.49 187.484 212.156C187.818 212.823 187.984 213.594 187.984 214.469V214.719H181.445C181.539 215.177 181.727 215.576 182.008 215.914C182.294 216.253 182.648 216.516 183.07 216.703C183.492 216.891 183.964 216.984 184.484 216.984C185.38 216.984 186.198 216.69 186.938 216.102L187.531 217.039ZM181.398 213.625H186.773C186.716 213.141 186.565 212.719 186.32 212.359C186.081 211.995 185.768 211.711 185.383 211.508C185.003 211.305 184.573 211.203 184.094 211.203C183.609 211.203 183.172 211.305 182.781 211.508C182.396 211.711 182.081 211.995 181.836 212.359C181.596 212.719 181.451 213.141 181.398 213.625Z" fill="#F7FFF7"/>
</svg>
