<svg width="90" height="59" viewBox="0 0 90 59" fill="none" xmlns="http://www.w3.org/2000/svg">
<g clip-path="url(#clip0_535_75)">
<g clip-path="url(#clip1_535_75)">
<path d="M47.7307 55.0257L46.5833 55.0256L46.0374 50.5996L47.731 50.5997L47.7307 55.0257Z" fill="#9E616A"/>
<path d="M48.0235 56.1374L44.3235 56.1373V56.0905C44.3235 55.7086 44.4753 55.3423 44.7453 55.0722C45.0154 54.8021 45.3817 54.6504 45.7636 54.6504H45.7637L48.0235 54.6505L48.0235 56.1374Z" fill="#2F2E41"/>
<path d="M43.6126 55.0257L42.4651 55.0256L41.9192 50.5996L43.6127 50.5997L43.6126 55.0257Z" fill="#9E616A"/>
<path d="M43.905 56.1374L40.2051 56.1373V56.0905C40.2051 55.7086 40.3568 55.3423 40.6269 55.0722C40.897 54.8021 41.2633 54.6504 41.6452 54.6504H41.6453L43.9051 54.6505L43.905 56.1374Z" fill="#2F2E41"/>
<path d="M30.2482 24.0115C30.3399 24.1376 30.4582 24.2421 30.5946 24.3176C30.7311 24.393 30.8824 24.4377 31.038 24.4483C31.1936 24.459 31.3496 24.4354 31.4951 24.3793C31.6406 24.3231 31.772 24.2357 31.88 24.1233L34.1505 25.01L35.0259 23.7616L31.8019 22.5545C31.601 22.3855 31.345 22.296 31.0826 22.3031C30.8201 22.3102 30.5694 22.4133 30.3779 22.5929C30.1864 22.7725 30.0674 23.0161 30.0435 23.2776C30.0196 23.539 30.0925 23.8001 30.2482 24.0115Z" fill="#9E616A"/>
<path d="M43.5981 31.5752L40.6086 32.5503L41.6072 53.7216L43.9145 53.7787L45.0952 38.8484L45.3633 53.7198L48.2161 53.877L49.2678 31.5752H43.5981Z" fill="#2F2E41"/>
<path d="M41.581 19.0948L49.2536 17.4277L50.1068 24.0343L49.3964 27.1909L49.681 31.9882C49.681 31.9882 43.6141 35.0077 40.6086 32.5501C40.6086 32.5501 43.0243 26.2052 41.6241 23.235L41.581 19.0948Z" fill="#E4E4E4"/>
<path d="M42.9097 20.0295L41.5809 19.095C41.5809 19.095 41.5024 18.9863 40.3951 20.2808C39.2878 21.5753 37.0414 23.6345 37.0414 23.6345L33.2976 22.2305L32.6155 24.7506L36.9666 26.7783L43.1268 22.6642L42.9097 20.0295Z" fill="#E4E4E4"/>
<path d="M49.6823 34.4652C49.8233 34.3986 49.948 34.3019 50.0476 34.1818C50.1471 34.0618 50.2192 33.9215 50.2586 33.7706C50.2981 33.6197 50.304 33.4621 50.2759 33.3087C50.2479 33.1553 50.1865 33.0099 50.0961 32.8828L51.3903 30.8172L50.3268 29.7246L48.5402 32.6673C48.3368 32.8332 48.2012 33.068 48.1593 33.3272C48.1173 33.5863 48.1719 33.8519 48.3127 34.0735C48.4535 34.2951 48.6707 34.4574 48.9231 34.5296C49.1755 34.6018 49.4456 34.5788 49.6823 34.4652Z" fill="#9E616A"/>
<path d="M48.0569 18.7292L49.2536 17.4278C49.2536 17.4278 50.587 16.9634 51.6764 19.3629C52.7659 21.7623 53.9826 26.6294 53.9826 26.6294L51.1377 32.1092L48.9284 31.122L51.1377 26.5907L48.7998 23.235L48.0569 18.7292Z" fill="#E4E4E4"/>
<path d="M46.0277 16.886C47.2346 16.2263 47.6782 14.713 47.0184 13.5061C46.3586 12.2991 44.8454 11.8556 43.6385 12.5154C42.4315 13.1751 41.988 14.6884 42.6477 15.8953C43.3075 17.1022 44.8208 17.5458 46.0277 16.886Z" fill="#9E616A"/>
<path d="M46.9333 12.4737C46.8154 11.9791 46.4031 11.5888 45.9288 11.4057C45.4545 11.2227 44.9264 11.2244 44.4252 11.3096C43.5932 11.451 42.8163 11.8097 42.0508 12.1649L42.6409 12.4472L41.8267 12.4939L42.4558 12.8193C42.2878 12.9471 42.16 13.1205 42.0876 13.3188C42.0151 13.5171 42.0011 13.732 42.0471 13.9381C42.0795 14.0729 42.166 14.2215 42.3046 14.2262C42.4722 14.2318 42.5596 14.0366 42.6769 13.9168C42.8329 13.7574 43.0794 13.7221 43.3003 13.7521C43.5213 13.7821 43.7309 13.8672 43.9489 13.9142C44.2246 13.9716 44.5094 13.9684 44.7837 13.9049C45.058 13.8413 45.3152 13.7189 45.5376 13.5461L46.3221 15.4352C46.3147 15.364 46.3239 15.292 46.3489 15.2249C46.3739 15.1578 46.4141 15.0974 46.4664 15.0483C46.5186 14.9993 46.5814 14.963 46.65 14.9423C46.7186 14.9216 46.791 14.9171 46.8616 14.929C46.9323 14.9409 46.9992 14.9689 47.0572 15.011C47.1152 15.053 47.1627 15.1079 47.1959 15.1714C47.2292 15.2348 47.2474 15.3051 47.249 15.3767C47.2506 15.4483 47.2357 15.5193 47.2053 15.5842C47.545 15.0719 47.8182 14.4899 47.8275 13.8754C47.8369 13.2608 47.5321 12.6134 46.9742 12.3555" fill="#2F2E41"/>
<path d="M18.0699 50.6361L17.009 52.304L17.627 50.1327C16.3223 48.7713 14.5161 47.7754 14.5161 47.7754C14.5161 47.7754 12.292 51.4306 12.8906 53.6791C13.4892 55.9276 15.0349 56.3568 16.6838 55.9178C18.3327 55.4788 19.4603 54.3379 18.8617 52.0894C18.7285 51.589 18.4391 51.0977 18.0699 50.6361Z" fill="#F2F2F2"/>
<path d="M16.6663 52.47L16.6958 52.5809C17.0322 53.8709 17.0825 54.9339 16.8447 55.7552C16.8414 55.7672 16.8374 55.7788 16.8342 55.7909L16.7787 55.7745L16.7256 55.7581C16.995 54.8679 16.8748 53.743 16.5817 52.6177C16.5726 52.5814 16.5633 52.5445 16.553 52.5078C16.4247 52.0326 16.2675 51.5591 16.0964 51.1041C16.0835 51.0688 16.0699 51.033 16.0563 50.9973C15.8273 50.3978 15.5772 49.8334 15.3454 49.3469C15.3292 49.3124 15.3124 49.2781 15.2958 49.2444C14.9002 48.4225 14.5648 47.8403 14.4894 47.7117C14.4805 47.6958 14.4753 47.6872 14.4741 47.6852L14.5223 47.6565L14.5227 47.6558L14.5714 47.627C14.5726 47.629 14.5902 47.6578 14.6211 47.7119C14.7376 47.9135 15.0472 48.4627 15.4041 49.2008C15.42 49.2342 15.4368 49.2685 15.453 49.303C15.6415 49.6976 15.8413 50.1414 16.0314 50.6126C16.0793 50.7309 16.1252 50.8479 16.169 50.9638C16.1831 50.9993 16.1968 51.0351 16.2097 51.0704C16.3947 51.5623 16.5469 52.0288 16.6663 52.47Z" fill="white"/>
<path d="M15.404 49.2007C15.3685 49.2154 15.3325 49.2303 15.2957 49.2442C15.1957 49.2822 15.0938 49.315 14.9905 49.3425C14.5502 49.4604 14.089 49.4779 13.641 49.3939C13.6257 49.4291 13.6104 49.4643 13.5947 49.5002C14.0672 49.593 14.5546 49.5766 15.0197 49.4522C15.13 49.4228 15.2387 49.3876 15.3453 49.3468C15.3816 49.333 15.4176 49.3181 15.4529 49.3028C15.7448 49.1785 16.016 49.0106 16.2575 48.8049C16.2258 48.781 16.1949 48.7575 16.1647 48.7344C15.9355 48.9264 15.6791 49.0836 15.404 49.2007Z" fill="white"/>
<path d="M16.1689 50.9634C16.1316 50.9757 16.0941 50.9868 16.0562 50.9969C16.0448 51.0005 16.0328 51.0037 16.0212 51.0068C15.544 51.1339 15.0431 51.1437 14.5612 51.0353C14.0793 50.9269 13.6308 50.7037 13.2539 50.3845C13.2406 50.4228 13.2272 50.461 13.2146 50.4996C13.6043 50.8203 14.0648 51.0435 14.558 51.1508C15.0511 51.2581 15.5627 51.2464 16.0505 51.1165C16.0658 51.1125 16.0812 51.1084 16.0964 51.1037C16.1347 51.093 16.1722 51.0818 16.2096 51.0701C16.7875 50.8841 17.2995 50.5356 17.6845 50.0663C17.6584 50.0386 17.6322 50.0109 17.6054 49.9834C17.2322 50.4429 16.7329 50.7835 16.1689 50.9634Z" fill="white"/>
<path d="M16.6663 52.4699C16.6288 52.4834 16.591 52.4958 16.553 52.5077C16.5123 52.5203 16.4714 52.5323 16.4303 52.5433C15.7887 52.7133 15.1094 52.6709 14.494 52.4225C13.8786 52.1741 13.3602 51.7331 13.0164 51.1654C13.0035 51.2164 12.9905 51.2669 12.9788 51.3176C13.345 51.8778 13.8784 52.3083 14.5032 52.548C15.1281 52.7878 15.8126 52.8245 16.4595 52.653C16.5006 52.6421 16.5416 52.6306 16.5817 52.6176C16.6203 52.6061 16.6581 52.5937 16.6958 52.5807C17.4554 52.3135 18.0851 51.7676 18.4573 51.0536C18.435 51.016 18.4112 50.9795 18.3872 50.9424C18.034 51.6559 17.4167 52.2039 16.6663 52.4699Z" fill="white"/>
<path d="M59.4514 50.8094L58.406 52.453L59.0149 50.3133C57.7292 48.9717 55.9492 47.9902 55.9492 47.9902C55.9492 47.9902 53.7575 51.5924 54.3474 53.8082C54.9373 56.024 56.4605 56.447 58.0855 56.0144C59.7104 55.5818 60.8217 54.4574 60.2317 52.2416C60.1004 51.7484 59.8152 51.2642 59.4514 50.8094Z" fill="#F2F2F2"/>
<path d="M58.0681 52.6174L58.0971 52.7267C58.4286 53.9979 58.4782 55.0455 58.2438 55.8548C58.2406 55.8667 58.2367 55.8782 58.2335 55.89L58.1788 55.8739L58.1265 55.8577C58.392 54.9804 58.2735 53.8719 57.9846 52.763C57.9757 52.7272 57.9666 52.6908 57.9564 52.6547C57.83 52.1864 57.6751 51.7198 57.5065 51.2714C57.4937 51.2365 57.4803 51.2013 57.4669 51.1661C57.2413 50.5753 56.9947 50.0191 56.7664 49.5397C56.7504 49.5057 56.7338 49.4719 56.7175 49.4386C56.3276 48.6287 55.997 48.0549 55.9228 47.9282C55.914 47.9126 55.9088 47.9041 55.9077 47.9021L55.9552 47.8738L55.9556 47.8731L56.0036 47.8447C56.0047 47.8467 56.0221 47.8751 56.0525 47.9284C56.1674 48.1271 56.4724 48.6683 56.8242 49.3957C56.8399 49.4286 56.8564 49.4624 56.8724 49.4964C57.0581 49.8853 57.2551 50.3227 57.4424 50.787C57.4896 50.9035 57.5348 51.0189 57.5779 51.1331C57.5919 51.1681 57.6053 51.2033 57.6181 51.2382C57.8004 51.7229 57.9504 52.1827 58.0681 52.6174Z" fill="white"/>
<path d="M56.8242 49.3961C56.7893 49.4106 56.7538 49.4252 56.7175 49.439C56.619 49.4764 56.5186 49.5087 56.4167 49.5358C55.9828 49.652 55.5284 49.6693 55.0869 49.5865C55.0718 49.6212 55.0567 49.6559 55.0413 49.6912C55.5068 49.7827 55.9872 49.7665 56.4455 49.644C56.5543 49.615 56.6614 49.5803 56.7664 49.54C56.8022 49.5264 56.8377 49.5118 56.8724 49.4967C57.1601 49.3742 57.4274 49.2088 57.6653 49.006C57.6342 48.9824 57.6037 48.9593 57.5739 48.9365C57.348 49.1258 57.0954 49.2806 56.8242 49.3961Z" fill="white"/>
<path d="M57.5779 51.1327C57.5412 51.1448 57.5041 51.1558 57.4668 51.1658C57.4556 51.1693 57.4437 51.1725 57.4324 51.1755C56.962 51.3008 56.4684 51.3104 55.9935 51.2036C55.5187 51.0968 55.0767 50.8768 54.7052 50.5623C54.6921 50.6 54.679 50.6376 54.6665 50.6757C55.0505 50.9917 55.5043 51.2117 55.9903 51.3175C56.4763 51.4232 56.9805 51.4116 57.4612 51.2837C57.4763 51.2796 57.4914 51.2756 57.5064 51.271C57.5441 51.2604 57.5812 51.2494 57.618 51.2379C58.1875 51.0546 58.6921 50.7112 59.0715 50.2487C59.0457 50.2214 59.0199 50.1941 58.9936 50.167C58.6257 50.6198 58.1337 50.9554 57.5779 51.1327Z" fill="white"/>
<path d="M58.0681 52.6176C58.0311 52.6309 57.9938 52.6432 57.9564 52.6549C57.9163 52.6673 57.876 52.6792 57.8354 52.69C57.2032 52.8575 56.5338 52.8157 55.9273 52.5709C55.3208 52.3262 54.8099 51.8915 54.4712 51.3321C54.4585 51.3824 54.4457 51.4321 54.4341 51.4821C54.795 52.0341 55.3206 52.4584 55.9364 52.6946C56.5522 52.9309 57.2267 52.9671 57.8642 52.7981C57.9048 52.7873 57.9452 52.776 57.9846 52.7631C58.0227 52.7518 58.06 52.7396 58.0971 52.7268C58.8457 52.4635 59.4662 51.9255 59.833 51.2219C59.811 51.1849 59.7876 51.1489 59.7639 51.1123C59.4159 51.8155 58.8076 52.3554 58.0681 52.6176Z" fill="white"/>
<path d="M37.8138 9.97433C37.8138 6.04269 35.0728 2.85547 31.6916 2.85547C28.3103 2.85547 25.5693 6.04269 25.5693 9.97433C25.5693 13.5401 27.824 16.4935 30.7661 17.0123V17.6832C30.7661 17.8099 30.8164 17.9314 30.9061 18.021C30.9957 18.1107 31.1172 18.161 31.244 18.161H32.1392C32.2659 18.161 32.3874 18.1107 32.4771 18.021C32.5667 17.9314 32.617 17.8099 32.617 17.6832V17.0123C35.5591 16.4935 37.8138 13.5402 37.8138 9.97433Z" fill="#4ECDC4"/>
<path d="M30.6189 17.5862C30.8105 17.4063 31.0387 17.27 31.2879 17.1866C31.5371 17.1033 31.8014 17.0748 32.0627 17.1033C32.326 17.1338 32.5786 17.225 32.8006 17.3698C33.0226 17.5146 33.2079 17.7089 33.342 17.9376C33.4762 18.1594 33.5604 18.4078 33.589 18.6654C33.6175 18.9231 33.5897 19.1838 33.5073 19.4297C33.3464 19.9199 33.0043 20.3279 32.6537 20.6956C32.2858 21.0813 31.8856 21.4371 31.5398 21.8436C30.9694 22.518 30.5712 23.3206 30.3791 24.1827C30.1871 25.0448 30.2071 25.9406 30.4373 26.7933C30.7408 27.8741 31.3674 28.8362 32.2331 29.5508C32.343 29.6406 32.4562 29.7262 32.5727 29.8075C32.7075 29.9018 32.8351 29.6808 32.7015 29.5872C31.7616 28.9223 31.0669 27.9662 30.725 26.8668C30.4658 26.0101 30.4326 25.1009 30.6287 24.2275C30.8249 23.3542 31.2436 22.5465 31.8443 21.8829C32.2092 21.48 32.6177 21.1194 32.9824 20.7165C33.3318 20.3305 33.6503 19.895 33.7868 19.385C33.8559 19.1257 33.873 18.8553 33.8372 18.5894C33.8014 18.3235 33.7133 18.0673 33.5781 17.8355C33.4434 17.5986 33.2613 17.392 33.0431 17.2288C32.825 17.0655 32.5754 16.9491 32.3101 16.8868C31.7765 16.7708 31.2186 16.8673 30.755 17.156C30.6414 17.2285 30.5354 17.3122 30.4386 17.4058C30.3201 17.5199 30.5006 17.7002 30.6189 17.5862Z" fill="#3F3D56"/>
<path d="M14.222 6.99335C12.3487 2.68703 7.82794 0.502024 4.12449 2.11303C0.421034 3.72403 -1.06262 8.52097 0.810635 12.8273C2.50959 16.7329 6.38635 18.8935 9.85594 18.0599L10.1756 18.7948C10.236 18.9336 10.349 19.0427 10.4899 19.0982C10.6307 19.1536 10.7878 19.1509 10.9267 19.0905L11.9072 18.664C12.046 18.6036 12.1551 18.4905 12.2106 18.3497C12.266 18.2088 12.2633 18.0517 12.2029 17.9129L11.8832 17.1781C14.8585 15.2081 15.921 10.899 14.222 6.99335Z" fill="#4ECDC4"/>
<path d="M9.94946 18.737C10.0712 18.4566 10.2504 18.2049 10.4756 17.9982C10.7008 17.7915 10.9669 17.6345 11.2567 17.5372C11.5413 17.4413 11.8433 17.4089 12.1417 17.442C12.4401 17.4752 12.7277 17.5732 12.9843 17.7291C13.2486 17.8857 13.4765 18.0968 13.6528 18.3485C13.8291 18.6001 13.9497 18.8864 14.0067 19.1883C14.1374 19.888 13.9253 20.6007 13.6842 21.2521C13.4315 21.9349 13.1166 22.5982 12.9409 23.3073C12.6964 24.304 12.6914 25.3444 12.9265 26.3433C13.1615 27.3423 13.6299 28.2713 14.2931 29.0544C15.1285 30.0224 16.2288 30.7251 17.4584 31.0758C17.6093 31.1183 17.7617 31.1546 17.9152 31.1857C18.0755 31.2182 18.1441 30.9724 17.9831 30.9397C16.7037 30.6764 15.5377 30.022 14.6465 29.067C13.7017 28.0456 13.131 26.7341 13.0274 25.3466C12.972 24.6437 13.0364 23.9364 13.218 23.255C13.4118 22.536 13.7399 21.8628 13.9872 21.1622C14.2233 20.4937 14.3905 19.7758 14.2422 19.0684C14.1059 18.4455 13.7279 17.9022 13.1913 17.5578C12.9342 17.3882 12.6458 17.2714 12.3431 17.2142C12.0405 17.157 11.7294 17.1606 11.4281 17.2247C10.8128 17.3641 10.2736 17.7326 9.92043 18.2554C9.83451 18.3858 9.76184 18.5244 9.70348 18.6692C9.64077 18.8207 9.88747 18.8868 9.94946 18.737Z" fill="#3F3D56"/>
<path d="M66.5496 59.0078L67.9246 59.0077L68.5787 53.7041L66.5493 53.7042L66.5496 59.0078Z" fill="#FFB6B6"/>
<path d="M58.4111 57.8389L59.7221 58.2535L61.9454 53.3943L60.0106 52.7822L58.4111 57.8389Z" fill="#FFB6B6"/>
<path d="M58.2121 57.3047L60.7939 58.1213L60.7941 58.1214C61.2304 58.2594 61.594 58.5652 61.805 58.9713C62.0159 59.3775 62.0569 59.8508 61.9189 60.2871L61.902 60.3406L57.6748 59.0035L58.2121 57.3047Z" fill="#2F2E41"/>
<path d="M61.5071 34.7861L60.7441 36.9381L60.7224 48.556L58.5586 56.5103L61.2148 57.2516L64.1489 49.7514L65.09 43.1636L66.3302 49.7897L66.1595 57.6653H68.9464L69.1568 45.5289C69.2159 42.1205 68.6195 38.7325 67.4001 35.5492L61.5071 34.7861Z" fill="#2F2E41"/>
<path d="M60.5984 26.0684H65.1031L66.9853 27.9506L67.5476 35.7309L60.7441 36.8258L58.5586 29.4022L59.7488 26.2473L60.5984 26.0684Z" fill="#E4E4E4"/>
<path d="M58.9782 29.4763L52.0426 26.8668L51.8621 25.7881L56.236 22.0869L57.6919 23.1789L55.0532 26.0681L59.7486 26.247L58.9782 29.4763Z" fill="#E4E4E4"/>
<path d="M57.0774 23.6015C57.6968 23.6015 58.1989 23.0994 58.1989 22.4799C58.1989 21.8605 57.6968 21.3584 57.0774 21.3584C56.4579 21.3584 55.9558 21.8605 55.9558 22.4799C55.9558 23.0994 56.4579 23.6015 57.0774 23.6015Z" fill="#FFB6B6"/>
<path d="M59.6784 23.8923L60.1852 21.607C60.274 21.2045 60.4413 20.8235 60.6775 20.4857C60.9137 20.1479 61.2141 19.86 61.5617 19.6384C61.9092 19.4168 62.297 19.2659 62.7029 19.1942C63.1088 19.1226 63.5248 19.1316 63.9272 19.2209C64.3296 19.3101 64.7105 19.4778 65.048 19.7143C65.3856 19.9508 65.6732 20.2515 65.8945 20.5993C66.1157 20.947 66.2663 21.335 66.3376 21.7409C66.4088 22.1469 66.3993 22.5629 66.3097 22.9652L65.8029 25.2505C65.7786 25.3596 65.712 25.4545 65.6178 25.5145C65.5236 25.5745 65.4094 25.5947 65.3003 25.5707L59.9985 24.3949C59.8895 24.3706 59.7945 24.304 59.7345 24.2098C59.6745 24.1156 59.6543 24.0014 59.6784 23.8923Z" fill="#2F2E41"/>
<path d="M63.1701 24.7542C64.39 24.4007 65.0924 23.1253 64.7389 21.9053C64.3854 20.6854 63.1099 19.9831 61.89 20.3365C60.6701 20.69 59.9677 21.9655 60.3212 23.1854C60.6747 24.4053 61.9501 25.1077 63.1701 24.7542Z" fill="#FFB6B6"/>
<path d="M59.4203 21.6291C59.5634 20.987 59.9554 20.4279 60.5103 20.0745C61.0651 19.7211 61.7375 19.6022 62.3799 19.7439L62.837 19.8452C63.479 19.9884 64.0381 20.3804 64.3915 20.9352C64.745 21.4901 64.8639 22.1624 64.7221 22.8048L64.712 22.8505L63.7461 22.6363L63.6212 21.6408L63.3508 22.5487L62.8516 22.438L62.7886 21.9356L62.6521 22.3937L59.4102 21.6748L59.4203 21.6291Z" fill="#2F2E41"/>
<path d="M61.7423 25.0515C61.7105 24.9801 61.6996 24.9011 61.7108 24.8237C61.722 24.7463 61.7548 24.6737 61.8055 24.6141C62.4941 23.8003 63.5498 22.2484 62.8825 20.999L62.8345 20.9092L65.4477 21.4887L64.5776 25.4121L62.1108 25.3045C62.0859 25.3034 62.061 25.3001 62.0366 25.2947C61.9718 25.2804 61.9113 25.2508 61.8602 25.2086C61.809 25.1663 61.7686 25.1125 61.7423 25.0515Z" fill="#2F2E41"/>
<path d="M64.9238 26.1152L72.2602 27.1584L72.6705 28.1723L69.2033 32.7339L67.5453 31.9838L69.4945 28.591L64.8721 29.4348L64.9238 26.1152Z" fill="#E4E4E4"/>
<path d="M75.9078 11.3263C75.9078 6.6302 72.6338 2.82324 68.5951 2.82324C64.5564 2.82324 61.2825 6.6302 61.2825 11.3263C61.2825 15.5855 63.9756 19.1132 67.4897 19.7328V20.5341C67.4897 20.6855 67.5499 20.8306 67.6569 20.9377C67.7639 21.0447 67.9091 21.1049 68.0605 21.1049H69.1298C69.2811 21.1049 69.4263 21.0447 69.5333 20.9377C69.6404 20.8306 69.7005 20.6855 69.7005 20.5341V19.7328C73.2146 19.1132 75.9078 15.5855 75.9078 11.3263Z" fill="#4ECDC4"/>
<path d="M67.2964 20.4012C67.5285 20.183 67.8054 20.0178 68.1077 19.9171C68.41 19.8164 68.7305 19.7826 69.0472 19.818C69.3583 19.8547 69.6569 19.9616 69.9205 20.1308C70.1842 20.3 70.4058 20.5269 70.5687 20.7945C70.7346 21.0585 70.8412 21.3553 70.8813 21.6645C70.9215 21.9736 70.8942 22.2878 70.8012 22.5854C70.6208 23.1697 70.2248 23.6588 69.812 24.0972C69.3717 24.5649 68.8893 24.9926 68.4683 25.4786C67.7819 26.2762 67.2996 27.2286 67.0628 28.2538C66.8259 29.279 66.8416 30.3464 67.1084 31.3643C67.4655 32.6725 68.2198 33.8376 69.2674 34.6987C69.3946 34.8022 69.5255 34.901 69.6601 34.9949C69.795 35.0892 69.9226 34.8682 69.7889 34.7747C68.6671 33.9817 67.8362 32.8428 67.4236 31.5325C67.1103 30.5097 67.0659 29.4234 67.2947 28.3784C67.5235 27.3335 68.0177 26.3651 68.7298 25.5669C69.1626 25.0838 69.65 24.6534 70.0877 24.1749C70.5069 23.7168 70.8917 23.2024 71.0639 22.597C71.1506 22.2912 71.1758 21.9712 71.138 21.6557C71.1003 21.3401 71.0003 21.0351 70.8439 20.7584C70.6882 20.4755 70.4757 20.2277 70.2197 20.0308C69.9637 19.8338 69.6698 19.6919 69.3564 19.6138C68.7195 19.4674 68.0505 19.5784 67.495 19.9225C67.3588 20.0087 67.2318 20.1086 67.116 20.2208C66.9977 20.3351 67.1782 20.5153 67.2964 20.4012Z" fill="#3F3D56"/>
<path d="M68.1806 34.0312C68.8 34.0312 69.3022 33.5291 69.3022 32.9096C69.3022 32.2902 68.8 31.7881 68.1806 31.7881C67.5612 31.7881 67.0591 32.2902 67.0591 32.9096C67.0591 33.5291 67.5612 34.0312 68.1806 34.0312Z" fill="#FFB6B6"/>
<path d="M56.4933 22.7946C56.4345 22.8877 56.2919 22.8741 56.2119 22.816C56.1007 22.7353 56.1367 22.5798 56.2132 22.4879C56.4565 22.1959 56.8588 22.5042 56.913 22.7942C56.9332 22.9356 56.9114 23.0798 56.8504 23.2089C56.7894 23.338 56.6918 23.4464 56.5698 23.5206C56.2922 23.6851 55.9318 23.6026 55.6932 23.4058C55.1954 22.9952 55.3309 22.1731 55.8838 21.876C56.2366 21.6865 56.6827 21.7697 57.0303 21.9285C57.4215 22.1072 57.758 22.3812 58.1198 22.6096C58.9137 23.1066 59.8118 23.4132 60.7438 23.5056C60.907 23.5222 60.9058 23.267 60.7438 23.2505C60.2273 23.1971 59.7203 23.075 59.2361 22.8875C58.757 22.6933 58.3023 22.4437 57.8813 22.1439C57.4552 21.8518 57.0101 21.5682 56.4829 21.5199C56.2702 21.4951 56.0546 21.527 55.8582 21.6125C55.6618 21.6979 55.4915 21.8339 55.3647 22.0065C55.2518 22.161 55.1763 22.3394 55.144 22.528C55.1117 22.7165 55.1235 22.91 55.1785 23.0932C55.2447 23.2847 55.3606 23.4554 55.5142 23.5876C55.6678 23.7199 55.8537 23.8091 56.053 23.8461C56.2449 23.8824 56.4433 23.8578 56.6205 23.776C56.7978 23.6941 56.945 23.5589 57.0418 23.3893C57.2358 23.0537 57.2295 22.6029 56.9364 22.3246C56.8524 22.2392 56.7472 22.1776 56.6316 22.1462C56.516 22.1147 56.3942 22.1146 56.2785 22.1456C56.1719 22.1817 56.0781 22.248 56.0086 22.3364C55.939 22.4249 55.8968 22.5317 55.8871 22.6438C55.8588 23.0795 56.4772 23.2973 56.7136 22.9234C56.8015 22.7842 56.5809 22.6561 56.4933 22.7946Z" fill="#3F3D56"/>
<path d="M5.45869 36.5038L5.1218 36.9265L3.93018 36.2216L4.26707 35.7988L5.45869 36.5038Z" fill="#E4E4E4"/>
<path d="M6.70202 38.3203L6.99963 38.7644L5.7478 39.3871L5.4502 38.943L6.70202 38.3203Z" fill="#E4E4E4"/>
<path d="M7.9979 36.3896L8.59261 36.4106L8.53343 37.655L7.93872 37.634L7.9979 36.3896Z" fill="#E4E4E4"/>
<path d="M19.4887 2.83194L19.1518 3.25463L17.9602 2.54973L18.2971 2.12695L19.4887 2.83194Z" fill="#E4E4E4"/>
<path d="M20.732 4.64746L21.0297 5.09158L19.7778 5.71426L19.4802 5.27014L20.732 4.64746Z" fill="#E4E4E4"/>
<path d="M22.0279 2.7168L22.6226 2.7378L22.5635 3.98214L21.9688 3.96114L22.0279 2.7168Z" fill="#E4E4E4"/>
<path d="M52.5656 7.25284L52.2287 7.67553L51.0371 6.97062L51.374 6.54785L52.5656 7.25284Z" fill="#E4E4E4"/>
<path d="M53.8092 9.06934L54.1068 9.51345L52.855 10.1361L52.5574 9.69202L53.8092 9.06934Z" fill="#E4E4E4"/>
<path d="M55.1051 7.13867L55.6998 7.15967L55.6406 8.40401L55.0459 8.38301L55.1051 7.13867Z" fill="#E4E4E4"/>
<path d="M42.447 1.04581L42.1101 1.4685L40.9185 0.763593L41.2553 0.34082L42.447 1.04581Z" fill="#E4E4E4"/>
<path d="M43.6905 2.8623L43.9882 3.30642L42.7363 3.9291L42.4387 3.48499L43.6905 2.8623Z" fill="#E4E4E4"/>
<path d="M44.9864 0.931641L45.5811 0.952643L45.522 2.19698L44.9272 2.17598L44.9864 0.931641Z" fill="#E4E4E4"/>
<path d="M52.7346 32.8228L52.3977 33.3135L53.5893 34.1317L53.9263 33.641L52.7346 32.8228Z" fill="#E4E4E4"/>
<path d="M53.9177 36.4718L54.2153 36.9873L55.4672 36.2645L55.1696 35.7491L53.9177 36.4718Z" fill="#E4E4E4"/>
<path d="M56.4063 34.9522L57.001 34.9766L57.0602 33.5323L56.4655 33.5079L56.4063 34.9522Z" fill="#E4E4E4"/>
<path d="M27.4563 55.0895L28.4865 54.9302L27.7802 46.6992L25.4844 47.1244L27.4563 55.0895Z" fill="#FFB6B6"/>
<path d="M27.1416 54.794L29.1705 54.4802C29.5134 54.4272 29.8634 54.5126 30.1433 54.7176C30.4233 54.9226 30.6104 55.2304 30.6634 55.5733L30.6699 55.6153L27.3481 56.129L27.1416 54.794Z" fill="#2F2E41"/>
<path d="M16.6289 54.9877L17.6704 55.032L18.9372 47.7197L16.6413 47.7198L16.6289 54.9877Z" fill="#FFB6B6"/>
<path d="M16.3775 54.6367L18.4287 54.7241H18.4288C18.7754 54.7389 19.102 54.8908 19.3367 55.1464C19.5714 55.4019 19.6949 55.7403 19.6802 56.0869L19.6784 56.1294L16.3201 55.9863L16.3775 54.6367Z" fill="#2F2E41"/>
<path d="M18.6793 31.164C18.6301 31.1502 18.5798 31.1408 18.529 31.136L19.1783 25.8215L21.3813 21.156C21.5199 20.8625 21.5421 20.5274 21.4433 20.2182C21.3446 19.9091 21.1322 19.6488 20.8491 19.4901C20.5661 19.3313 20.2333 19.2858 19.918 19.3627C19.6027 19.4396 19.3282 19.6333 19.1501 19.9046C18.5727 20.7837 18.1359 21.7475 17.8555 22.7613L16.9299 26.1078L17.6067 31.8467C17.5808 32.0085 17.6021 32.1743 17.6682 32.3242C17.7343 32.4741 17.8422 32.6018 17.9791 32.6917C18.116 32.7817 18.276 32.8302 18.4398 32.8314C18.6037 32.8326 18.7643 32.7865 18.9025 32.6985C19.0407 32.6105 19.1506 32.4845 19.2188 32.3356C19.2871 32.1866 19.3109 32.0212 19.2873 31.859C19.2637 31.6969 19.1938 31.5451 19.0859 31.4218C18.978 31.2984 18.8368 31.2089 18.6793 31.164Z" fill="#FFB6B6"/>
<path d="M20.017 26.2707L17.2336 23.0866L18.6125 19.8434C18.7931 19.4187 19.1325 19.0813 19.5583 18.9034C19.9841 18.7254 20.4625 18.7209 20.8916 18.8909C21.3207 19.0608 21.6663 19.3917 21.8548 19.8129C22.0433 20.2342 22.0597 20.7124 21.9005 21.1455L20.017 26.2707Z" fill="#2F2E41"/>
<path d="M24.6438 16.12C25.3134 14.895 24.8632 13.3591 23.6382 12.6894C22.4132 12.0198 20.8773 12.47 20.2076 13.695C19.538 14.92 19.9882 16.4559 21.2132 17.1256C22.4382 17.7952 23.9741 17.345 24.6438 16.12Z" fill="#FFB6B6"/>
<path d="M22.8484 11.8369H21.2155C20.1449 11.8369 19.2771 12.8132 19.2771 14.0176L19.3527 16.9388C20.5094 17.0827 21.6408 17.3853 22.7149 17.838L22.8673 17.1872L23.1679 18.0443C23.4353 18.1739 23.7004 18.3155 23.9633 18.4693C23.6565 17.028 23.5302 15.5899 23.7408 14.4729H24.2939V13.8676L24.4817 14.4729H25.4843C25.4843 14.1267 25.4162 13.7839 25.2837 13.4641C25.1512 13.1443 24.9571 12.8537 24.7123 12.609C24.4675 12.3642 24.1769 12.17 23.8571 12.0376C23.5373 11.9051 23.1946 11.8369 22.8484 11.8369Z" fill="#2F2E41"/>
<path d="M28.1727 47.1463L27.9361 47.2033L27.7376 43.5105L26.2921 32.4565L24.634 28.2475L25.4418 25.3139C25.4418 25.3139 26.3771 23.2732 24.0388 21.7001L22.1681 18.554C20.8759 17.709 19.8127 18.2615 19.246 19.6976C18.7521 20.9489 18.3688 22.532 18.5968 24.166C19.1075 27.8262 19.5321 28.2475 19.5321 28.2475C19.5321 28.2475 16.3435 31.7762 17.0237 36.2829L16.6446 47.9512L16.2978 47.9369L16.2598 48.8637L19.2899 48.988L19.3279 48.0612L19.0766 48.0509L20.1699 43.4255L21.7854 37.3032L24.5915 44.786L25.5353 47.7815L25.2243 47.8564L25.4415 48.7582L28.3899 48.0481L28.1727 47.1463Z" fill="#2F2E41"/>
<path d="M30.2551 26.194C30.2208 26.2318 30.1899 26.2726 30.1629 26.316L25.6985 23.3605L22.5089 19.3051C22.3083 19.0499 22.0184 18.8804 21.6977 18.8306C21.3769 18.7808 21.0493 18.8545 20.7808 19.0368C20.5122 19.2192 20.3228 19.4965 20.2508 19.813C20.1787 20.1294 20.2293 20.4615 20.3924 20.7421C20.9209 21.6514 21.588 22.4728 22.3697 23.1766L24.95 25.4999L30.3867 27.4586C30.5198 27.5541 30.6777 27.6091 30.8413 27.617C31.0049 27.6249 31.1674 27.5853 31.309 27.503C31.4507 27.4208 31.5656 27.2993 31.6399 27.1533C31.7141 27.0073 31.7446 26.8429 31.7277 26.6799C31.7107 26.517 31.647 26.3624 31.5443 26.2348C31.4415 26.1072 31.3041 26.012 31.1485 25.9607C30.993 25.9093 30.8259 25.9041 30.6674 25.9454C30.5089 25.9868 30.3657 26.0732 30.2551 26.194Z" fill="#FFB6B6"/>
<path d="M26.4758 22.8104L22.3836 23.8778L20.0982 21.1951C19.7989 20.8439 19.6487 20.3895 19.6798 19.9291C19.7108 19.4686 19.9206 19.0386 20.2643 18.7306C20.6081 18.4227 21.0585 18.2613 21.5196 18.2809C21.9807 18.3005 22.4158 18.4995 22.7322 18.8354L26.4758 22.8104Z" fill="#2F2E41"/>
<path d="M58.1946 56.2152H3.15471C3.12786 56.2152 3.10211 56.2045 3.08312 56.1855C3.06413 56.1665 3.05347 56.1408 3.05347 56.1139C3.05347 56.0871 3.06413 56.0613 3.08312 56.0424C3.10211 56.0234 3.12786 56.0127 3.15471 56.0127H58.1946C58.2215 56.0127 58.2472 56.0234 58.2662 56.0424C58.2852 56.0613 58.2959 56.0871 58.2959 56.1139C58.2959 56.1408 58.2852 56.1665 58.2662 56.1855C58.2472 56.2045 58.2215 56.2152 58.1946 56.2152Z" fill="#CACACA"/>
</g>
</g>
<defs>
<clipPath id="clip0_535_75">
<rect width="90" height="58.0645" fill="white" transform="translate(0 0.34082)"/>
</clipPath>
<clipPath id="clip1_535_75">
<rect width="75.9077" height="60" fill="white" transform="translate(0 0.34082)"/>
</clipPath>
</defs>
</svg>
