<svg width="90" height="60" viewBox="0 0 90 60" fill="none" xmlns="http://www.w3.org/2000/svg">
<g clip-path="url(#clip0_535_504)">
<path d="M31.6253 14.1189H31.2988V5.17596C31.2988 4.49624 31.165 3.82318 30.9048 3.1952C30.6447 2.56722 30.2635 1.99663 29.7828 1.516C29.3022 1.03537 28.7316 0.654107 28.1036 0.393992C27.4756 0.133877 26.8026 -2.12651e-06 26.1229 0H7.17597C6.49625 -2.12651e-06 5.82319 0.133877 5.19521 0.393992C4.56723 0.654108 3.99664 1.03537 3.516 1.516C3.03537 1.99663 2.65411 2.56723 2.39399 3.1952C2.13388 3.82318 2 4.49624 2 5.17596V54.2378C2 54.9175 2.13388 55.5906 2.394 56.2186C2.65411 56.8466 3.03537 57.4172 3.51601 57.8978C3.99664 58.3784 4.56723 58.7597 5.19521 59.0198C5.82319 59.2799 6.49625 59.4138 7.17597 59.4138H26.1229C26.8026 59.4138 27.4756 59.2799 28.1036 59.0198C28.7316 58.7597 29.3022 58.3784 29.7828 57.8978C30.2635 57.4172 30.6447 56.8466 30.9048 56.2186C31.165 55.5906 31.2988 54.9175 31.2988 54.2378V20.4847H31.6253V14.1189Z" fill="#E6E6E6"/>
<path d="M26.3317 1.34668H23.8585C23.9723 1.62552 24.0157 1.92806 23.9849 2.22763C23.9542 2.52721 23.8503 2.81463 23.6823 3.06458C23.5143 3.31453 23.2875 3.51933 23.0217 3.66094C22.7559 3.80256 22.4594 3.87664 22.1583 3.87666H11.3038C11.0027 3.87664 10.7061 3.80256 10.4404 3.66094C10.1746 3.51933 9.94773 3.31453 9.77976 3.06458C9.61178 2.81463 9.50785 2.52721 9.47712 2.22763C9.44639 1.92806 9.48981 1.62552 9.60354 1.34668H7.29357C6.78597 1.34668 6.28333 1.44666 5.81437 1.64091C5.3454 1.83516 4.91929 2.11988 4.56036 2.47881C4.20143 2.83774 3.91671 3.26385 3.72246 3.73282C3.5282 4.20178 3.42822 4.70441 3.42822 5.21202V54.2019C3.42822 54.7095 3.5282 55.2122 3.72246 55.6811C3.91671 56.1501 4.20143 56.5762 4.56036 56.9351C4.91929 57.2941 5.3454 57.5788 5.81437 57.773C6.28333 57.9673 6.78597 58.0673 7.29357 58.0673H26.3317C26.8393 58.0673 27.342 57.9673 27.8109 57.773C28.2799 57.5788 28.706 57.2941 29.0649 56.9351C29.4239 56.5762 29.7086 56.1501 29.9028 55.6811C30.0971 55.2122 30.1971 54.7095 30.1971 54.2019V5.21202C30.1971 4.70441 30.0971 4.20178 29.9028 3.73282C29.7086 3.26385 29.4239 2.83774 29.0649 2.47881C28.706 2.11988 28.2799 1.83516 27.8109 1.64091C27.342 1.44666 26.8393 1.34668 26.3317 1.34668Z" fill="white"/>
<path d="M11.2037 11.3057H10.067C10.027 11.3057 9.98866 11.3215 9.9604 11.3498C9.93214 11.3781 9.91626 11.4164 9.91626 11.4564V11.9553C9.91626 11.9953 9.93214 12.0336 9.9604 12.0619C9.98866 12.0901 10.027 12.106 10.067 12.106H10.2553V12.8536H11.0153V12.106H11.2037C11.2436 12.106 11.282 12.0901 11.3102 12.0619C11.3385 12.0336 11.3544 11.9953 11.3544 11.9553V11.4564C11.3544 11.4164 11.3385 11.3781 11.3102 11.3498C11.282 11.3215 11.2436 11.3057 11.2037 11.3057Z" fill="#E6E6E6"/>
<path d="M12.3422 15.8718C11.6461 14.8531 11.2902 13.6403 11.3255 12.4069C11.3262 12.3785 11.3169 12.3507 11.2994 12.3283C11.2819 12.3058 11.2571 12.2902 11.2293 12.2839V12.0684H10.0288V12.281H10.0123C9.9796 12.281 9.94829 12.294 9.92522 12.3171C9.90215 12.3403 9.88921 12.3716 9.88925 12.4043C9.88925 12.4073 9.88937 12.4103 9.88959 12.4133C9.98417 13.7317 9.6648 14.914 8.93148 15.9602C8.88928 16.0203 8.86772 16.0925 8.87004 16.1659L9.00131 20.2265C9.00447 20.3171 9.04248 20.4029 9.10742 20.4661C9.17235 20.5294 9.2592 20.5651 9.34982 20.5658H12.0652C12.1569 20.565 12.2446 20.5285 12.3097 20.464C12.3749 20.3995 12.4123 20.3122 12.4139 20.2205L12.4645 16.278C12.466 16.1333 12.4233 15.9916 12.3422 15.8718Z" fill="#E6E6E6"/>
<path d="M11.9123 17.2207H9.54881C9.51382 17.2207 9.47925 17.2283 9.44746 17.2429C9.41567 17.2575 9.38742 17.2788 9.36464 17.3054C9.34186 17.3319 9.32509 17.3631 9.31548 17.3967C9.30587 17.4304 9.30365 17.4657 9.30897 17.5003L9.66614 19.8218H11.717L12.1508 17.5081C12.1574 17.473 12.1562 17.437 12.1472 17.4025C12.1383 17.3679 12.1218 17.3358 12.0991 17.3084C12.0763 17.281 12.0478 17.2589 12.0155 17.2437C11.9832 17.2286 11.948 17.2207 11.9123 17.2207Z" fill="white"/>
<path d="M23.8575 23.4697H22.7208C22.6808 23.4697 22.6425 23.4856 22.6142 23.5139C22.5859 23.5421 22.5701 23.5805 22.5701 23.6204V24.1194C22.5701 24.1593 22.5859 24.1977 22.6142 24.2259C22.6425 24.2542 22.6808 24.2701 22.7208 24.2701H22.9091V25.0176H23.6691V24.2701H23.8575C23.8975 24.2701 23.9358 24.2542 23.964 24.2259C23.9923 24.1977 24.0082 24.1593 24.0082 24.1194V23.6204C24.0082 23.5805 23.9923 23.5421 23.964 23.5139C23.9358 23.4856 23.8975 23.4697 23.8575 23.4697Z" fill="#E6E6E6"/>
<path d="M24.996 28.0358C24.2999 27.0172 23.944 25.8043 23.9793 24.571C23.98 24.5425 23.9707 24.5148 23.9532 24.4923C23.9357 24.4699 23.9109 24.4542 23.8831 24.448V24.2324H22.6826V24.445H22.6661C22.6499 24.445 22.6339 24.4482 22.619 24.4545C22.604 24.4607 22.5904 24.4698 22.579 24.4812C22.5676 24.4927 22.5585 24.5063 22.5524 24.5212C22.5462 24.5362 22.543 24.5522 22.5431 24.5684C22.5431 24.5713 22.5432 24.5743 22.5434 24.5773C22.638 25.8957 22.3186 27.078 21.5853 28.1243C21.5431 28.1844 21.5215 28.2566 21.5239 28.33L21.6551 32.3906C21.6583 32.4811 21.6963 32.567 21.7612 32.6302C21.8262 32.6934 21.913 32.7291 22.0036 32.7298H24.719C24.8107 32.7291 24.8984 32.6926 24.9636 32.6281C25.0287 32.5636 25.0661 32.4762 25.0677 32.3846L25.1183 28.4421C25.1198 28.2974 25.0772 28.1557 24.996 28.0358Z" fill="#E6E6E6"/>
<path d="M24.5662 29.3848H22.2026C22.1676 29.3848 22.1331 29.3923 22.1013 29.4069C22.0695 29.4216 22.0412 29.4429 22.0184 29.4694C21.9957 29.496 21.9789 29.5271 21.9693 29.5608C21.9597 29.5944 21.9575 29.6297 21.9628 29.6643L22.3199 31.9859H24.3708L24.8047 29.6721C24.8112 29.6371 24.81 29.601 24.801 29.5665C24.7921 29.532 24.7757 29.4999 24.7529 29.4725C24.7301 29.445 24.7016 29.4229 24.6693 29.4078C24.637 29.3926 24.6018 29.3848 24.5662 29.3848Z" fill="white"/>
<path d="M9.60555 40.666H9.06636C9.0474 40.666 9.02922 40.6735 9.01581 40.687C9.00241 40.7004 8.99487 40.7185 8.99487 40.7375V40.9742C8.99487 40.9931 9.00241 41.0113 9.01581 41.0247C9.02922 41.0381 9.0474 41.0457 9.06636 41.0457H9.15571V41.4003H9.5162V41.0457H9.60555C9.62451 41.0457 9.6427 41.0381 9.6561 41.0247C9.66951 41.0113 9.67704 40.9931 9.67704 40.9742V40.7375C9.67704 40.7185 9.66951 40.7004 9.6561 40.687C9.6427 40.6735 9.62451 40.666 9.60555 40.666Z" fill="#E6E6E6"/>
<path d="M10.1456 42.8315C9.81541 42.3483 9.64659 41.773 9.66337 41.1879C9.66367 41.1744 9.65929 41.1613 9.65097 41.1506C9.64265 41.14 9.63091 41.1326 9.61773 41.1296V41.0273H9.04827V41.1282H9.04043C9.03275 41.1282 9.02516 41.1297 9.01807 41.1327C9.01099 41.1356 9.00455 41.1399 8.99913 41.1454C8.99371 41.1508 8.98942 41.1572 8.98649 41.1643C8.98356 41.1714 8.98206 41.179 8.98207 41.1867C8.98207 41.1881 8.98212 41.1895 8.98223 41.1909C9.03479 41.7879 8.87374 42.3841 8.52776 42.8734C8.50774 42.9019 8.49752 42.9362 8.49862 42.971L8.56088 44.8971C8.56237 44.9401 8.58041 44.9808 8.61121 45.0108C8.64201 45.0408 8.68321 45.0577 8.72619 45.0581H10.0142C10.0577 45.0577 10.0993 45.0404 10.1302 45.0098C10.1611 44.9792 10.1788 44.9378 10.1796 44.8943L10.2036 43.0242C10.2043 42.9555 10.1841 42.8883 10.1456 42.8315Z" fill="#E6E6E6"/>
<path d="M9.96019 43.54H8.7312V44.1545H9.96019V43.54Z" fill="white"/>
<path d="M12.1156 40.666H11.5764C11.5574 40.666 11.5392 40.6735 11.5258 40.687C11.5124 40.7004 11.5049 40.7185 11.5049 40.7375V40.9742C11.5049 40.9931 11.5124 41.0113 11.5258 41.0247C11.5392 41.0381 11.5574 41.0457 11.5764 41.0457H11.6657V41.4003H12.0262V41.0457H12.1156C12.1345 41.0457 12.1527 41.0381 12.1661 41.0247C12.1795 41.0113 12.187 40.9931 12.187 40.9742V40.7375C12.187 40.7185 12.1795 40.7004 12.1661 40.687C12.1527 40.6735 12.1345 40.666 12.1156 40.666Z" fill="#E6E6E6"/>
<path d="M12.6556 42.8315C12.3254 42.3483 12.1566 41.773 12.1734 41.1879C12.1737 41.1744 12.1693 41.1613 12.161 41.1506C12.1527 41.14 12.1409 41.1326 12.1277 41.1296V41.0273H11.5583V41.1282H11.5504C11.5428 41.1282 11.5352 41.1297 11.5281 41.1327C11.521 41.1356 11.5146 41.1399 11.5091 41.1454C11.5037 41.1508 11.4994 41.1572 11.4965 41.1643C11.4936 41.1714 11.4921 41.179 11.4921 41.1867C11.4921 41.1881 11.4921 41.1895 11.4922 41.1909C11.5448 41.7879 11.3837 42.3841 11.0378 42.8734C11.0178 42.9019 11.0075 42.9362 11.0086 42.971L11.0709 44.8971C11.0724 44.9401 11.0904 44.9808 11.1212 45.0108C11.152 45.0408 11.1932 45.0577 11.2362 45.0581H12.5242C12.5677 45.0577 12.6093 45.0404 12.6402 45.0098C12.6711 44.9792 12.6889 44.9378 12.6896 44.8943L12.7136 43.0242C12.7144 42.9555 12.6941 42.8883 12.6556 42.8315Z" fill="#E6E6E6"/>
<path d="M12.4702 43.54H11.2412V44.1545H12.4702V43.54Z" fill="white"/>
<path d="M14.6256 40.666H14.0864C14.0674 40.666 14.0492 40.6735 14.0358 40.687C14.0224 40.7004 14.0149 40.7185 14.0149 40.7375V40.9742C14.0149 40.9931 14.0224 41.0113 14.0358 41.0247C14.0492 41.0381 14.0674 41.0457 14.0864 41.0457H14.1757V41.4003H14.5362V41.0457H14.6256C14.6445 41.0457 14.6627 41.0381 14.6761 41.0247C14.6895 41.0113 14.6971 40.9931 14.6971 40.9742V40.7375C14.6971 40.7185 14.6895 40.7004 14.6761 40.687C14.6627 40.6735 14.6445 40.666 14.6256 40.666Z" fill="#E6E6E6"/>
<path d="M15.1656 42.8315C14.8354 42.3483 14.6666 41.773 14.6834 41.1879C14.6837 41.1744 14.6793 41.1613 14.671 41.1506C14.6627 41.14 14.6509 41.1326 14.6378 41.1296V41.0273H14.0683V41.1282H14.0604C14.0528 41.1282 14.0452 41.1297 14.0381 41.1327C14.031 41.1356 14.0246 41.1399 14.0192 41.1454C14.0137 41.1508 14.0094 41.1572 14.0065 41.1643C14.0036 41.1714 14.0021 41.179 14.0021 41.1867C14.0021 41.1881 14.0021 41.1895 14.0023 41.1909C14.0548 41.7879 13.8938 42.3841 13.5478 42.8734C13.5278 42.9019 13.5175 42.9362 13.5186 42.971L13.5809 44.8971C13.5824 44.9401 13.6004 44.9808 13.6312 45.0108C13.662 45.0408 13.7032 45.0577 13.7462 45.0581H15.0342C15.0777 45.0577 15.1193 45.0404 15.1502 45.0098C15.1811 44.9792 15.1989 44.9378 15.1997 44.8943L15.2237 43.0242C15.2244 42.9555 15.2041 42.8883 15.1656 42.8315Z" fill="#E6E6E6"/>
<path d="M14.9802 43.54H13.7512V44.1545H14.9802V43.54Z" fill="white"/>
<path d="M21.8826 35.96H20.7459C20.7261 35.96 20.7065 35.9639 20.6882 35.9714C20.67 35.979 20.6534 35.9901 20.6394 36.0041C20.6254 36.0181 20.6143 36.0347 20.6067 36.053C20.5991 36.0713 20.5952 36.0909 20.5952 36.1107V36.6096C20.5952 36.6496 20.6111 36.6879 20.6394 36.7162C20.6676 36.7444 20.706 36.7603 20.7459 36.7603H20.9343V37.5079H21.6943V36.7603H21.8826C21.9226 36.7603 21.9609 36.7444 21.9892 36.7162C22.0175 36.6879 22.0333 36.6496 22.0333 36.6096V36.1107C22.0333 36.0909 22.0294 36.0713 22.0219 36.053C22.0143 36.0347 22.0032 36.0181 21.9892 36.0041C21.9752 35.9901 21.9586 35.979 21.9403 35.9714C21.922 35.9639 21.9024 35.96 21.8826 35.96Z" fill="#E6E6E6"/>
<path d="M23.0212 40.5261C22.325 39.5074 21.9691 38.2946 22.0045 37.0612C22.0051 37.0328 21.9959 37.005 21.9784 36.9826C21.9608 36.9601 21.9361 36.9445 21.9083 36.9382V36.7227H20.7078V36.9352H20.6912C20.6751 36.9353 20.659 36.9385 20.6441 36.9447C20.6292 36.9509 20.6156 36.96 20.6042 36.9714C20.5927 36.9829 20.5837 36.9965 20.5775 37.0114C20.5713 37.0264 20.5682 37.0424 20.5682 37.0586C20.5682 37.0616 20.5683 37.0646 20.5685 37.0676C20.6631 38.386 20.3438 39.5683 19.6104 40.6145C19.5682 40.6746 19.5467 40.7468 19.549 40.8202L19.6803 44.8808C19.6834 44.9714 19.7214 45.0572 19.7864 45.1204C19.8513 45.1837 19.9382 45.2193 20.0288 45.2201H22.7442C22.8358 45.2193 22.9236 45.1828 22.9887 45.1183C23.0538 45.0538 23.0912 44.9665 23.0929 44.8748L23.1435 40.9323C23.145 40.7876 23.1023 40.6459 23.0212 40.5261Z" fill="#E6E6E6"/>
<path d="M22.5913 41.875H20.2278C20.1928 41.875 20.1582 41.8826 20.1264 41.8972C20.0946 41.9118 20.0664 41.9331 20.0436 41.9597C20.0208 41.9862 20.004 42.0174 19.9944 42.051C19.9848 42.0847 19.9826 42.12 19.9879 42.1546L20.3451 44.4761H22.396L22.8298 42.1624C22.8364 42.1273 22.8351 42.0913 22.8262 42.0568C22.8172 42.0222 22.8008 41.9901 22.778 41.9627C22.7553 41.9353 22.7267 41.9132 22.6944 41.898C22.6622 41.8829 22.627 41.875 22.5913 41.875Z" fill="white"/>
<path d="M22.5032 21.0885H15.7273C16.201 18.5273 16.092 15.4345 15.7273 12.1084H22.5032C22.1481 15.4345 22.0421 18.5273 22.5032 21.0885Z" fill="#E6E6E6"/>
<path d="M19.1562 17.9862C20.0579 17.9862 20.7889 17.2552 20.7889 16.3534C20.7889 15.4517 20.0579 14.7207 19.1562 14.7207C18.2544 14.7207 17.5234 15.4517 17.5234 16.3534C17.5234 17.2552 18.2544 17.9862 19.1562 17.9862Z" fill="white"/>
<path d="M16.2988 33.0074H9.52295C9.99668 30.4462 9.88769 27.3534 9.52295 24.0273H16.2988C15.9438 27.3534 15.8377 30.4462 16.2988 33.0074Z" fill="#E6E6E6"/>
<path d="M12.9516 29.9051C13.8533 29.9051 14.5843 29.1741 14.5843 28.2724C14.5843 27.3707 13.8533 26.6396 12.9516 26.6396C12.0499 26.6396 11.3188 27.3707 11.3188 28.2724C11.3188 29.1741 12.0499 29.9051 12.9516 29.9051Z" fill="white"/>
<path d="M26.3401 21.6598H19.5642C20.0379 19.0985 19.929 16.0058 19.5642 12.6797H26.3401C25.9851 16.0058 25.879 19.0985 26.3401 21.6598Z" fill="#E6E6E6"/>
<path d="M22.9931 18.5575C23.8948 18.5575 24.6258 17.8265 24.6258 16.9247C24.6258 16.023 23.8948 15.292 22.9931 15.292C22.0914 15.292 21.3604 16.023 21.3604 16.9247C21.3604 17.8265 22.0914 18.5575 22.9931 18.5575Z" fill="white"/>
<path d="M26.3401 21.2516H19.5642C20.0379 18.6903 19.929 15.5976 19.5642 12.2715H26.3401C25.9851 15.5976 25.879 18.6903 26.3401 21.2516Z" fill="#E6E6E6"/>
<path d="M22.9931 18.1493C23.8948 18.1493 24.6258 17.4183 24.6258 16.5165C24.6258 15.6148 23.8948 14.8838 22.9931 14.8838C22.0914 14.8838 21.3604 15.6148 21.3604 16.5165C21.3604 17.4183 22.0914 18.1493 22.9931 18.1493Z" fill="white"/>
<path d="M26.3401 21.6598H19.5642C20.0379 19.0985 19.929 16.0058 19.5642 12.6797H26.3401C25.9851 16.0058 25.879 19.0985 26.3401 21.6598Z" fill="#E6E6E6"/>
<path d="M22.9931 18.5575C23.8948 18.5575 24.6258 17.8265 24.6258 16.9247C24.6258 16.023 23.8948 15.292 22.9931 15.292C22.0914 15.292 21.3604 16.023 21.3604 16.9247C21.3604 17.8265 22.0914 18.5575 22.9931 18.5575Z" fill="white"/>
<path d="M27.8914 20.5986H5.68604V23.0477H27.8914V20.5986Z" fill="#E6E6E6"/>
<path d="M27.8914 32.7627H5.68604V35.2118H27.8914V32.7627Z" fill="#E6E6E6"/>
<path d="M27.8914 44.9268H5.68604V47.3759H27.8914V44.9268Z" fill="#E6E6E6"/>
<path d="M66.5183 54.8625L60.9863 50.9497C62.8521 49.1322 64.549 46.5443 66.1719 43.6182L71.7039 47.5309C69.4934 50.0414 67.6208 52.5052 66.5183 54.8625Z" fill="#4ECDC4"/>
<path d="M66.52 50.6971C67.4217 50.6971 68.1527 49.9661 68.1527 49.0644C68.1527 48.1626 67.4217 47.4316 66.52 47.4316C65.6182 47.4316 64.8872 48.1626 64.8872 49.0644C64.8872 49.9661 65.6182 50.6971 66.52 50.6971Z" fill="white"/>
<path d="M39.8325 37.0078H39.2253C39.2039 37.0078 39.1835 37.0163 39.1684 37.0314C39.1533 37.0465 39.1448 37.067 39.1448 37.0883V37.3549C39.1448 37.3654 39.1469 37.3759 39.1509 37.3857C39.1549 37.3954 39.1609 37.4043 39.1684 37.4118C39.1758 37.4193 39.1847 37.4252 39.1945 37.4292C39.2042 37.4333 39.2147 37.4354 39.2253 37.4354H39.3259V37.8347H39.7319V37.4354H39.8325C39.8539 37.4354 39.8744 37.4269 39.8895 37.4118C39.9046 37.3967 39.913 37.3762 39.913 37.3549V37.0883C39.913 37.067 39.9046 37.0465 39.8895 37.0314C39.8744 37.0163 39.8539 37.0078 39.8325 37.0078Z" fill="#E6E6E6"/>
<path d="M40.4407 39.4469C40.0688 38.9027 39.8787 38.2548 39.8975 37.5959C39.8979 37.5807 39.893 37.5659 39.8836 37.5539C39.8742 37.5419 39.861 37.5335 39.8461 37.5302V37.415H39.2048V37.5286H39.196C39.1873 37.5286 39.1788 37.5303 39.1708 37.5337C39.1628 37.537 39.1556 37.5418 39.1495 37.5479C39.1434 37.5541 39.1385 37.5613 39.1352 37.5693C39.1319 37.5773 39.1302 37.5859 39.1303 37.5945C39.1303 37.5961 39.1303 37.5977 39.1304 37.5993C39.1896 38.2716 39.0083 38.9431 38.6186 39.4941C38.5961 39.5262 38.5845 39.5648 38.5858 39.604L38.6559 41.7732C38.6576 41.8216 38.6779 41.8675 38.7126 41.9013C38.7473 41.935 38.7937 41.9541 38.8421 41.9545H40.2927C40.3416 41.9541 40.3885 41.9346 40.4233 41.9001C40.4581 41.8657 40.4781 41.819 40.479 41.77L40.506 39.6639C40.5068 39.5866 40.484 39.5109 40.4407 39.4469Z" fill="#4ECDC4"/>
<path opacity="0.2" d="M39.706 37.0947C39.706 37.1408 39.6877 37.185 39.6552 37.2175C39.6226 37.2501 39.5784 37.2684 39.5323 37.2684C39.4863 37.2684 39.4421 37.2501 39.4095 37.2175C39.3769 37.185 39.3586 37.1408 39.3586 37.0947" fill="black"/>
<path d="M40.1582 39.8652H38.9336V40.6816H40.1582V39.8652Z" fill="white"/>
<path d="M59.0491 45.4824H57.9124C57.8725 45.4824 57.8341 45.4983 57.8059 45.5266C57.7776 45.5548 57.7617 45.5932 57.7617 45.6331V46.1321C57.7617 46.172 57.7776 46.2104 57.8059 46.2386C57.8341 46.2669 57.8725 46.2828 57.9124 46.2828H58.1008V47.0303H58.8608V46.2828H59.0491C59.0891 46.2828 59.1274 46.2669 59.1557 46.2386C59.184 46.2104 59.1998 46.172 59.1998 46.1321V45.6331C59.1998 45.5932 59.184 45.5548 59.1557 45.5266C59.1274 45.4983 59.0891 45.4824 59.0491 45.4824Z" fill="#E6E6E6"/>
<path d="M60.1877 50.0485C59.4915 49.0299 59.1356 47.817 59.171 46.5837C59.1716 46.5552 59.1624 46.5274 59.1449 46.505C59.1273 46.4826 59.1026 46.4669 59.0748 46.4607V46.2451H57.8743V46.4577H57.8577C57.8416 46.4577 57.8255 46.4609 57.8106 46.4671C57.7957 46.4734 57.7821 46.4824 57.7707 46.4939C57.7592 46.5054 57.7502 46.5189 57.744 46.5339C57.7379 46.5489 57.7347 46.5649 57.7347 46.5811C57.7347 46.584 57.7348 46.587 57.735 46.59C57.8296 47.9084 57.5103 49.0907 56.7769 50.137C56.7347 50.1971 56.7132 50.2693 56.7155 50.3427L56.8468 54.4033C56.8499 54.4938 56.8879 54.5797 56.9529 54.6429C57.0178 54.7061 57.1047 54.7418 57.1953 54.7425H59.9107C60.0023 54.7418 60.0901 54.7053 60.1552 54.6408C60.2203 54.5763 60.2577 54.4889 60.2594 54.3973L60.31 50.4548C60.3115 50.3101 60.2688 50.1684 60.1877 50.0485Z" fill="#4ECDC4"/>
<path opacity="0.2" d="M58.8121 45.6445C58.8121 45.7308 58.7779 45.8135 58.7169 45.8744C58.6559 45.9354 58.5732 45.9697 58.487 45.9697C58.4008 45.9697 58.3181 45.9354 58.2571 45.8744C58.1961 45.8135 58.1619 45.7308 58.1619 45.6445" fill="black"/>
<path d="M59.7578 51.3975H57.3943C57.3593 51.3975 57.3247 51.405 57.2929 51.4196C57.2611 51.4342 57.2329 51.4556 57.2101 51.4821C57.1873 51.5087 57.1706 51.5398 57.1609 51.5735C57.1513 51.6071 57.1491 51.6424 57.1544 51.677L57.5116 53.9986H59.5625L59.9963 51.6848C60.0029 51.6498 60.0016 51.6137 59.9927 51.5792C59.9837 51.5447 59.9673 51.5126 59.9445 51.4852C59.9218 51.4577 59.8932 51.4356 59.861 51.4205C59.8287 51.4053 59.7935 51.3975 59.7578 51.3975Z" fill="white"/>
<path d="M55.8059 54.8561H49.03C49.5038 52.2948 49.3948 49.2021 49.03 45.876H55.8059C55.4509 49.2021 55.3448 52.2948 55.8059 54.8561Z" fill="#4ECDC4"/>
<path d="M52.4587 51.7538C53.3604 51.7538 54.0914 51.0228 54.0914 50.121C54.0914 49.2193 53.3604 48.4883 52.4587 48.4883C51.5569 48.4883 50.8259 49.2193 50.8259 50.121C50.8259 51.0228 51.5569 51.7538 52.4587 51.7538Z" fill="white"/>
<path d="M28.0908 26.5948L29.6119 26.4565L30.58 24.1057L28.8514 23.1377L28.0908 26.5948Z" fill="#FFB8B8"/>
<path d="M42.0508 33.0486C42.1013 32.9225 42.1212 32.7861 42.1087 32.6508C42.0963 32.5155 42.0518 32.385 41.9791 32.2702C41.9063 32.1554 41.8073 32.0596 41.6902 31.9906C41.5732 31.9216 41.4414 31.8813 41.3057 31.8733L38.9439 31.7324L38.5962 32.8888L41.0275 33.5565C41.2307 33.6123 41.4473 33.5914 41.636 33.4977C41.8247 33.404 41.9723 33.2442 42.0508 33.0486Z" fill="#FFB8B8"/>
<path d="M39.5147 33.576L39.4888 31.4062L34.2427 30.5691L30.2013 25.934C29.991 25.6928 29.7004 25.536 29.3834 25.4927C29.0664 25.4493 28.7444 25.5223 28.4771 25.6982C28.3153 25.8047 28.1788 25.9454 28.0773 26.1104C27.9759 26.2754 27.9119 26.4607 27.8899 26.6532C27.8679 26.8457 27.8885 27.0406 27.9501 27.2243C28.0118 27.4079 28.113 27.5758 28.2467 27.716L31.5808 31.8192L39.5147 33.576Z" fill="#575A89"/>
<path d="M26.9155 57.9854H28.2984L31.7284 42.4776L35.2818 47.2683L37.356 57.6397H38.6698L38.3932 46.5077L33.7606 34.6152H29.1972C27.9502 36.8721 26.9719 39.1986 28.091 41.5986L26.9155 57.9854Z" fill="#2F2E41"/>
<path d="M36.5081 58.9275C36.4928 58.9765 36.4881 59.0281 36.4944 59.079C36.5006 59.1299 36.5176 59.1788 36.5442 59.2226C36.5708 59.2664 36.6065 59.3041 36.6488 59.333C36.6911 59.362 36.7391 59.3816 36.7895 59.3905L40.1734 59.991C40.3071 60.0155 40.4451 59.9902 40.5615 59.9199C40.6778 59.8496 40.7644 59.7392 40.805 59.6094C40.8444 59.4855 40.8389 59.3515 40.7894 59.2312C40.7399 59.1109 40.6496 59.0119 40.5344 58.9515C39.7903 58.5695 39.15 58.0128 38.6682 57.3291C38.2963 57.6754 37.8807 57.6428 37.4392 57.3876L36.9711 57.4461L36.5081 58.9275Z" fill="#2F2E41"/>
<path d="M26.2752 58.9275C26.2599 58.9765 26.2552 59.0281 26.2615 59.079C26.2677 59.1299 26.2847 59.1788 26.3113 59.2226C26.3379 59.2664 26.3736 59.3041 26.4159 59.333C26.4582 59.362 26.5062 59.3816 26.5566 59.3905L29.9405 59.991C30.0742 60.0155 30.2122 59.9902 30.3286 59.9199C30.4449 59.8496 30.5315 59.7392 30.5721 59.6094C30.6115 59.4855 30.606 59.3515 30.5565 59.2312C30.507 59.1109 30.4167 59.0119 30.3015 58.9515C29.5574 58.5695 28.9171 58.0128 28.4353 57.3291C28.0634 57.6754 27.6477 57.6428 27.2063 57.3876L26.7382 57.4461L26.2752 58.9275Z" fill="#2F2E41"/>
<path d="M30.6145 24.9696C31.6837 24.9696 32.5504 24.1029 32.5504 23.0336C32.5504 21.9644 31.6837 21.0977 30.6145 21.0977C29.5452 21.0977 28.6785 21.9644 28.6785 23.0336C28.6785 24.1029 29.5452 24.9696 30.6145 24.9696Z" fill="#FFB8B8"/>
<path d="M28.886 35.1335L33.9334 34.9952L32.451 30.3299C33.3722 28.8532 32.4451 27.3779 31.1331 25.903L30.0959 25.2115L28.4365 25.0732C27.7181 25.842 27.3249 26.859 27.3395 27.9111C27.3724 30.1642 27.7713 32.6168 28.886 35.1335Z" fill="#575A89"/>
<path d="M40.4825 38.2741C40.5787 38.178 40.6506 38.0604 40.6924 37.9311C40.7341 37.8018 40.7446 37.6644 40.7228 37.5302C40.7011 37.3961 40.6478 37.269 40.5673 37.1595C40.4868 37.05 40.3815 36.9612 40.2599 36.9004L38.144 35.8418L37.3694 36.7681L39.342 38.3385C39.5068 38.4697 39.7142 38.5357 39.9246 38.5238C40.1349 38.5119 40.3335 38.423 40.4825 38.2741Z" fill="#FFB8B8"/>
<path d="M37.9437 37.7608L38.7734 35.7557L34.2796 32.9224L32.3874 27.0711C32.289 26.7666 32.0835 26.5082 31.8091 26.3436C31.5347 26.1791 31.21 26.1196 30.895 26.1761C30.7044 26.2103 30.5235 26.286 30.3653 26.3978C30.2071 26.5096 30.0754 26.6548 29.9795 26.8231C29.8835 26.9914 29.8258 27.1787 29.8102 27.3718C29.7946 27.5649 29.8217 27.7591 29.8894 27.9406L31.3406 33.0245L37.9437 37.7608Z" fill="#575A89"/>
<path d="M27.4341 22.2734C27.4341 23.0267 27.9233 24.1933 28.5404 24.6934C28.9555 25.0298 29.5042 25.0157 29.7158 24.5551C29.9328 24.0826 30.6809 22.972 31.9975 22.2734C33.7526 21.3421 31.3751 19.7487 29.7158 19.9917C28.4689 20.1742 27.4341 21.0132 27.4341 22.2734Z" fill="#2F2E41"/>
<path d="M28.6094 21.2364C29.3731 21.2364 29.9923 20.6173 29.9923 19.8536C29.9923 19.0898 29.3731 18.4707 28.6094 18.4707C27.8457 18.4707 27.2266 19.0898 27.2266 19.8536C27.2266 20.6173 27.8457 21.2364 28.6094 21.2364Z" fill="#2F2E41"/>
<path d="M30.1998 19.3692C30.1997 19.0206 30.0678 18.6849 29.8305 18.4294C29.5933 18.1739 29.2683 18.0175 28.9207 17.9916C28.955 17.989 28.9894 17.9863 29.0244 17.9863C29.3911 17.9863 29.7429 18.132 30.0022 18.3914C30.2615 18.6507 30.4072 19.0024 30.4072 19.3692C30.4072 19.7359 30.2615 20.0877 30.0022 20.347C29.7429 20.6063 29.3911 20.752 29.0244 20.752C28.9894 20.752 28.955 20.7493 28.9207 20.7468C29.2683 20.7208 29.5933 20.5645 29.8305 20.309C30.0678 20.0535 30.1997 19.7178 30.1998 19.3692Z" fill="#2F2E41"/>
<path d="M30.649 23.7252C30.8209 23.7252 30.9602 23.5395 30.9602 23.3104C30.9602 23.0812 30.8209 22.8955 30.649 22.8955C30.4772 22.8955 30.3379 23.0812 30.3379 23.3104C30.3379 23.5395 30.4772 23.7252 30.649 23.7252Z" fill="#FFB8B8"/>
<path d="M69.8295 55.4498H48.3028L43.7444 33.9005H39.854V32.9336H44.5281L49.0866 54.4828H69.8295V55.4498Z" fill="#3F3D56"/>
<path d="M51.4575 59.3863C52.6019 59.3863 53.5296 58.4586 53.5296 57.3142C53.5296 56.1699 52.6019 55.2422 51.4575 55.2422C50.3132 55.2422 49.3855 56.1699 49.3855 57.3142C49.3855 58.4586 50.3132 59.3863 51.4575 59.3863Z" fill="#3F3D56"/>
<path d="M66.9287 59.3863C68.0731 59.3863 69.0008 58.4586 69.0008 57.3142C69.0008 56.1699 68.0731 55.2422 66.9287 55.2422C65.7844 55.2422 64.8567 56.1699 64.8567 57.3142C64.8567 58.4586 65.7844 59.3863 66.9287 59.3863Z" fill="#3F3D56"/>
<path d="M69.4373 54.9945H48.493L44.7976 36.7324H72.9052C73.0486 36.7324 73.1903 36.7635 73.3206 36.8235C73.4509 36.8835 73.5666 36.9711 73.6598 37.0801C73.753 37.1891 73.8215 37.3169 73.8606 37.4549C73.8997 37.5929 73.9084 37.7378 73.8862 37.8795L70.4181 54.1557C70.3823 54.3899 70.2636 54.6034 70.0836 54.7574C69.9035 54.9114 69.6742 54.9955 69.4373 54.9945ZM48.7205 54.7183H69.4373C69.6082 54.719 69.7738 54.6582 69.9037 54.5471C70.0336 54.436 70.1193 54.2819 70.1451 54.1128L73.6131 37.8366C73.6292 37.7343 73.623 37.6298 73.5948 37.5302C73.5666 37.4305 73.5171 37.3382 73.4499 37.2596C73.3826 37.1809 73.2991 37.1177 73.205 37.0744C73.111 37.0311 73.0087 37.0087 72.9052 37.0087H45.133L48.7205 54.7183Z" fill="#3F3D56"/>
<path d="M52.5646 54.9357L50.1445 36.8927L50.4171 36.8477L52.8372 54.8907L52.5646 54.9357Z" fill="#3F3D56"/>
<path d="M66.0211 54.7968L65.7483 54.7526L68.0977 36.8477L68.3705 36.8919L66.0211 54.7968Z" fill="#3F3D56"/>
<path d="M59.6098 36.8701H59.3335V54.9131H59.6098V36.8701Z" fill="#3F3D56"/>
<path d="M46.2087 41.7052L46.208 41.9814L72.9508 42.0462L72.9514 41.7699L46.2087 41.7052Z" fill="#3F3D56"/>
<path d="M71.0644 50.2388L47.5703 50.3994L47.5722 50.6757L71.0663 50.5151L71.0644 50.2388Z" fill="#3F3D56"/>
<path d="M40.2685 34.1078C41.1077 34.1078 41.788 33.7368 41.788 33.279C41.788 32.8213 41.1077 32.4502 40.2685 32.4502C39.4293 32.4502 38.749 32.8213 38.749 33.279C38.749 33.7368 39.4293 34.1078 40.2685 34.1078Z" fill="#3F3D56"/>
</g>
<defs>
<clipPath id="clip0_535_504">
<rect width="71.8981" height="60" fill="white" transform="translate(2)"/>
</clipPath>
</defs>
</svg>
