<svg width="90" height="61" viewBox="0 0 90 61" fill="none" xmlns="http://www.w3.org/2000/svg">
<g clip-path="url(#clip0_535_434)">
<path d="M21.6068 42.9561C21.2309 42.9565 20.8705 43.106 20.6047 43.3718C20.3389 43.6376 20.1894 43.998 20.189 44.3739V47.691C20.1894 48.0669 20.3389 48.4273 20.6047 48.6931C20.8705 48.9589 21.2309 49.1084 21.6068 49.1088H23.4052C23.7811 49.1084 24.1414 48.9589 24.4072 48.6931C24.673 48.4273 24.8226 48.0669 24.823 47.691V44.3739C24.8226 43.998 24.673 43.6376 24.4072 43.3718C24.1414 43.106 23.7811 42.9565 23.4052 42.9561H21.6068Z" fill="#3F3D56"/>
<path d="M54.8504 49.2191H53.0521C52.6469 49.2187 52.2585 49.0575 51.972 48.771C51.6855 48.4845 51.5244 48.0961 51.5239 47.691V44.3739C51.5244 43.9687 51.6855 43.5803 51.972 43.2938C52.2585 43.0073 52.6469 42.8462 53.0521 42.8457H54.8504C55.2556 42.8462 55.644 43.0073 55.9305 43.2938C56.217 43.5803 56.3781 43.9687 56.3786 44.3739V47.691C56.3781 48.0961 56.217 48.4845 55.9305 48.771C55.644 49.0575 55.2556 49.2187 54.8504 49.2191Z" fill="#3F3D56"/>
<path d="M53.657 46.5634H22.6897C21.2804 46.5634 20.1338 45.7325 20.1338 44.7113V38.7564L21.6709 37.1377H54.9748L56.2129 38.7598V44.7113C56.2129 45.7325 55.0663 46.5634 53.657 46.5634Z" fill="#CCCCCC"/>
<path d="M54.8302 40.1167H21.8474L21.5122 34.9772L21.7255 34.4513L22.9653 31.4004H53.4891L55.1655 34.8649L54.8302 40.1167Z" fill="#CCCCCC"/>
<path d="M55.1097 34.8761L54.8636 38.7378H47.6069V35.8691L54.9033 34.4502L55.1097 34.8761Z" fill="white"/>
<path d="M28.9606 35.8685V38.7372H21.8131L21.5681 34.9858L21.7767 34.4717L28.9606 35.8685Z" fill="white"/>
<path d="M53.3051 32.2832H23.1489L26.3653 21.562C26.4965 21.1192 26.7666 20.7303 27.1358 20.4529C27.505 20.1755 27.9537 20.0242 28.4155 20.0214L48.3869 19.8312C48.8694 19.8265 49.3397 19.9834 49.7227 20.277C50.1057 20.5705 50.3795 20.9838 50.5004 21.451L53.3051 32.2832Z" fill="#CCCCCC"/>
<path d="M50.9836 31.2693L25.4655 30.9667C25.4332 30.9664 25.4015 30.9584 25.3729 30.9435C25.3442 30.9287 25.3195 30.9073 25.3006 30.8811C25.2818 30.8549 25.2693 30.8247 25.2643 30.7928C25.2592 30.761 25.2617 30.7284 25.2716 30.6976L27.7179 23.0651C27.7312 23.0235 27.7574 22.9872 27.7927 22.9615C27.828 22.9357 27.8705 22.9219 27.9142 22.9219H48.439C48.4827 22.9219 48.5252 22.9357 48.5605 22.9615C48.5958 22.9872 48.622 23.0235 48.6353 23.0651L51.1824 31.0001C51.1924 31.0313 51.1948 31.0643 51.1895 31.0966C51.1842 31.1288 51.1713 31.1593 51.1519 31.1856C51.1325 31.2119 51.1071 31.2332 51.0779 31.2478C51.0486 31.2623 51.0163 31.2697 50.9836 31.2693Z" fill="white"/>
<path d="M41.6661 21.1393H34.788C34.73 21.1393 34.6774 21.0823 34.6508 20.9904C34.6242 20.8963 34.628 20.7962 34.6617 20.7044L35.2289 19.2701C35.2578 19.197 35.305 19.1533 35.3552 19.1533H41.0989C41.149 19.1533 41.1962 19.197 41.2251 19.2701L41.7923 20.7044C41.826 20.7962 41.8298 20.8963 41.8033 20.9904C41.7766 21.0823 41.724 21.1393 41.6661 21.1393Z" fill="#4ECDC4"/>
<path d="M23.168 32.0621H18.6443V31.0678C18.6446 30.7464 18.7725 30.4383 18.9998 30.211C19.2271 29.9837 19.5352 29.8558 19.8567 29.8555H23.168V32.0621Z" fill="#CCCCCC"/>
<path d="M57.8127 32.0621H53.2891V29.8555H56.6004C56.9218 29.8558 57.23 29.9837 57.4573 30.211C57.6845 30.4383 57.8124 30.7464 57.8127 31.0678V32.0621Z" fill="#CCCCCC"/>
<path d="M18.1151 47.5614L-4 55.5059L-3.90612 55.7672L18.209 47.8228L18.1151 47.5614Z" fill="#3F3D56"/>
<path d="M58.2027 47.5629L58.1089 47.8242L80.2246 55.7667L80.3185 55.5053L58.2027 47.5629Z" fill="#3F3D56"/>
<path d="M39.4575 53.3227H38.1338V51.613H39.4575V53.3227ZM39.4575 49.9031H38.1338V48.1934H39.4575V49.9031Z" fill="#E6E6E6"/>
<path d="M39.4575 60.4057H38.1338V58.696H39.4575V60.4057ZM39.4575 56.9861H38.1338V55.2764H39.4575V56.9861Z" fill="#E6E6E6"/>
<path d="M67.6209 54.4993H66.1631L65.4692 48.876H67.6209V54.4993Z" fill="#FFB8B8"/>
<path d="M67.9929 55.9127H63.292V55.8532C63.2925 55.3681 63.4855 54.903 63.8285 54.56C64.1716 54.2169 64.6367 54.024 65.1218 54.0234H67.9929L67.9929 55.9127Z" fill="#2F2E41"/>
<path d="M86.4215 51.7363L85.1718 52.4872L81.6809 48.0242L83.5253 46.916L86.4215 51.7363Z" fill="#FFB8B8"/>
<path d="M83.4386 55.1772L83.408 55.1262C83.1587 54.7101 83.0845 54.212 83.2019 53.7413C83.3193 53.2706 83.6185 52.8657 84.0341 52.6154L86.4952 51.1367L87.4682 52.7561L83.4386 55.1772Z" fill="#2F2E41"/>
<path d="M68.0001 53.3383L67.9749 53.3381C67.2657 53.3359 66.5571 53.2951 65.8523 53.216C65.5837 53.1894 65.2923 53.1606 64.9412 53.1318L64.9291 53.1296C64.6896 53.0584 64.6829 50.8118 64.7845 43.1217C64.8365 39.1828 64.8954 34.7186 64.8253 31.8755L64.8246 31.8476L64.8457 31.8291C67.4464 29.5671 70.7863 28.7192 74.2501 29.4416L74.2758 29.4469L74.2891 29.4695C75.722 31.894 77.8854 35.3861 79.9776 38.7634C84.7804 46.5161 86.1541 48.7962 86.0035 48.9682L85.9854 48.9822C85.6574 49.1462 85.4112 49.2724 85.2018 49.3798C84.5008 49.7392 84.2107 49.888 82.6517 50.53L82.6132 50.5458L82.5851 50.5151C77.7119 45.1751 73.6565 39.2101 71.1481 33.6958C70.855 35.5783 70.4993 38.0366 70.1233 40.6339C69.0424 48.1028 68.3118 53.0209 68.0177 53.3203L68.0001 53.3383Z" fill="#2F2E41"/>
<path d="M75.569 8.02979C76.0598 6.00337 76.4756 3.71778 75.55 1.85142C74.9078 0.556445 72.532 0.120355 71.1701 0.586883C69.8082 1.05341 68.8235 2.31913 68.3905 3.69917C67.9574 5.07921 68.0077 6.5663 68.1965 8.00095C70.7012 7.95283 73.2059 7.90471 75.569 8.02979Z" fill="#2F2E41"/>
<path d="M71.3424 8.02903C72.9555 8.02903 74.2632 6.72136 74.2632 5.10826C74.2632 3.49517 72.9555 2.1875 71.3424 2.1875C69.7293 2.1875 68.4216 3.49517 68.4216 5.10826C68.4216 6.72136 69.7293 8.02903 71.3424 8.02903Z" fill="#FFB8B8"/>
<path d="M74.9129 4.50639C74.9222 4.01482 74.8326 3.52639 74.6494 3.07013C74.4662 2.61388 74.1931 2.1991 73.8464 1.85046C73.4998 1.50181 73.0866 1.2264 72.6314 1.0406C72.1762 0.854799 71.6883 0.762392 71.1966 0.768873C70.705 0.775354 70.2197 0.880591 69.7696 1.07833C69.3194 1.27606 68.9136 1.56227 68.5762 1.91993C68.2389 2.2776 67.9769 2.69943 67.8058 3.16035C67.6346 3.62128 67.5579 4.1119 67.5802 4.60306C70.0801 4.60837 72.5801 4.61367 74.9129 4.50639Z" fill="#2F2E41"/>
<path d="M69.3131 32.4504C72.2189 32.4374 75.1055 32.9207 77.8486 33.8794C77.9441 29.2754 76.3591 24.6628 73.4931 21.2122L73.4717 21.1864L73.4827 21.1547C74.2482 18.9428 75.0394 16.6566 75.7464 14.3816L75.7357 14.3434C75.2398 12.5806 74.1755 10.7992 72.482 8.89748C72.2983 8.70716 72.0491 8.59382 71.7849 8.58044C71.5207 8.56706 71.2613 8.65463 71.0593 8.82542C68.0491 11.5849 66.4123 15.7196 66.7878 19.6159L66.7889 19.6273L66.7856 19.6384C65.4595 24.131 64.9782 26.4386 64.5534 28.4745C64.2436 29.9596 63.9754 31.2456 63.4368 33.083C65.3673 32.663 67.3373 32.4509 69.3131 32.4504Z" fill="#3F3D56"/>
<path opacity="0.1" d="M73.5914 18.248L69.2774 27.6399L66.813 25.1453L73.5914 18.248Z" fill="black"/>
<path d="M63.9083 23.4654L64.2091 24.0498C64.2119 24.0552 64.2124 24.0615 64.2105 24.0673C64.2087 24.0731 64.2046 24.0779 64.1992 24.0807L64.1847 24.0881L65.7516 27.1326C65.7949 27.2169 65.803 27.3149 65.7741 27.4051C65.7452 27.4954 65.6817 27.5704 65.5974 27.6138L63.6951 28.5928C63.6534 28.6143 63.6078 28.6273 63.5611 28.6312C63.5143 28.6351 63.4673 28.6297 63.4226 28.6154C63.3779 28.601 63.3365 28.5781 63.3007 28.5477C63.2649 28.5174 63.2355 28.4803 63.214 28.4386L61.7021 25.5009L61.6916 25.5063C61.6878 25.5083 61.6833 25.5086 61.6793 25.5073C61.6752 25.5061 61.6718 25.5032 61.6698 25.4994L61.4986 25.1668C61.4976 25.1649 61.4971 25.1628 61.4969 25.1607C61.4967 25.1586 61.4969 25.1564 61.4976 25.1544C61.4982 25.1524 61.4993 25.1505 61.5007 25.1489C61.502 25.1473 61.5037 25.1459 61.5056 25.1449L61.5161 25.1395L61.4516 25.0143L61.441 25.0197C61.437 25.0217 61.4324 25.0221 61.4281 25.0207C61.4238 25.0193 61.4203 25.0163 61.4182 25.0123L61.2494 24.6842C61.2473 24.6803 61.247 24.6756 61.2483 24.6713C61.2497 24.6671 61.2527 24.6635 61.2567 24.6615L61.2673 24.656L61.1792 24.485L61.1685 24.4905C61.1649 24.4924 61.1608 24.4927 61.157 24.4915C61.1533 24.4903 61.1501 24.4876 61.1483 24.4841L61.0561 24.305C61.0543 24.3015 61.0539 24.2973 61.0551 24.2935C61.0563 24.2897 61.059 24.2866 61.0626 24.2847L61.0733 24.2792L60.8868 23.9167C60.8434 23.8324 60.8353 23.7344 60.8642 23.6442C60.8931 23.554 60.9567 23.479 61.0409 23.4356L62.9432 22.4566C63.0275 22.4132 63.1255 22.4051 63.2157 22.434C63.3059 22.4629 63.381 22.5265 63.4243 22.6107L63.8629 23.4629L63.8775 23.4555C63.8829 23.4527 63.8891 23.4522 63.8949 23.4541C63.9007 23.4559 63.9055 23.46 63.9083 23.4654Z" fill="#3F3D56"/>
<path d="M63.3044 22.7519L65.6129 27.2373C65.6403 27.2908 65.6455 27.353 65.6271 27.4102C65.6088 27.4674 65.5684 27.515 65.515 27.5425L63.694 28.4797C63.6407 28.5073 63.5786 28.5125 63.5214 28.4943C63.4642 28.4761 63.4166 28.4359 63.3891 28.3826L63.3888 28.382L61.0803 23.8965C61.0667 23.8701 61.0584 23.8412 61.0559 23.8115C61.0535 23.7818 61.0569 23.752 61.066 23.7236C61.0751 23.6953 61.0896 23.669 61.1089 23.6463C61.1281 23.6236 61.1516 23.6049 61.1781 23.5913L61.4507 23.451L61.4687 23.4859C61.4799 23.5077 61.4953 23.5271 61.514 23.543C61.5327 23.5588 61.5543 23.5708 61.5777 23.5783C61.601 23.5858 61.6256 23.5886 61.65 23.5865C61.6744 23.5845 61.6982 23.5777 61.72 23.5665L62.6461 23.0899C62.6902 23.0672 62.7234 23.028 62.7385 22.9809C62.7536 22.9337 62.7493 22.8825 62.7267 22.8385L62.7087 22.8035L62.9991 22.6541C63.0526 22.6265 63.1147 22.6214 63.172 22.6397C63.2292 22.658 63.2768 22.6983 63.3043 22.7517L63.3044 22.7519Z" fill="#4ECDC4"/>
<path d="M63.9737 28.2318C64.1481 28.2197 64.3177 28.1694 64.4706 28.0847C64.6235 27.9999 64.7559 27.8826 64.8586 27.7411C64.9613 27.5996 65.0316 27.4373 65.0648 27.2657C65.098 27.094 65.0931 26.9172 65.0505 26.7476L68.6051 24.4188L66.5779 23.543L63.5132 25.8888C63.2331 25.9792 62.9959 26.1692 62.8465 26.4228C62.6971 26.6764 62.646 26.976 62.7027 27.2648C62.7595 27.5536 62.9202 27.8116 63.1545 27.9898C63.3887 28.168 63.6802 28.2541 63.9737 28.2318Z" fill="#FFB8B8"/>
<path d="M67.3938 26.5533L67.349 26.5216C66.503 25.8989 65.5639 25.255 64.6556 24.6323L64.6011 24.5949L64.644 24.5447C66.5826 22.2766 68.5232 19.9076 70.4002 17.6159C70.3988 17.6122 70.3976 17.6095 70.3966 17.6076L70.4143 17.5986L70.4218 17.5895L70.4258 17.5928L70.4371 17.5871L70.386 17.591L69.8074 13.054C69.2849 12.3411 69.1848 10.9258 69.8697 9.93776C70.579 8.9143 72.0797 8.57177 73.0812 9.20445C73.3436 9.3806 73.563 9.6135 73.7232 9.88592C73.8834 10.1583 73.9803 10.4633 74.0066 10.7782C74.0438 11.0588 74.0179 11.3441 73.9307 11.6134C73.8436 11.8826 73.6974 12.129 73.5028 12.3345C73.7487 14.7356 73.7581 16.8818 73.7673 18.9578L73.7674 18.9785L73.7545 18.9956C71.7535 21.5378 69.5554 24.0665 67.4298 26.5119L67.3938 26.5533Z" fill="#3F3D56"/>
<path d="M38.1886 14.1678C41.8156 14.1678 44.7559 11.2275 44.7559 7.60049C44.7559 3.97348 41.8156 1.0332 38.1886 1.0332C34.5616 1.0332 31.6213 3.97348 31.6213 7.60049C31.6213 11.2275 34.5616 14.1678 38.1886 14.1678Z" fill="#4ECDC4"/>
<path d="M37.5628 10.3728L35.5972 7.84544L36.7402 6.95637L37.671 8.15304L40.815 4.83398L41.8664 5.83012L37.5628 10.3728Z" fill="white"/>
<path d="M93.4268 56.0932H60.2363C60.1995 56.0932 60.1641 56.0786 60.1381 56.0525C60.112 56.0265 60.0974 55.9911 60.0974 55.9543C60.0974 55.9175 60.112 55.8822 60.1381 55.8561C60.1641 55.8301 60.1995 55.8154 60.2363 55.8154H93.4268C93.4637 55.8154 93.499 55.8301 93.525 55.8561C93.5511 55.8822 93.5657 55.9175 93.5657 55.9543C93.5657 55.9911 93.5511 56.0265 93.525 56.0525C93.499 56.0786 93.4637 56.0932 93.4268 56.0932Z" fill="#3F3D56"/>
</g>
<defs>
<clipPath id="clip0_535_434">
<rect width="90" height="60" fill="white" transform="translate(0 0.405273)"/>
</clipPath>
</defs>
</svg>
