<svg width="89" height="60" viewBox="0 0 89 60" fill="none" xmlns="http://www.w3.org/2000/svg">
<g clip-path="url(#clip0_535_315)">
<g clip-path="url(#clip1_535_315)">
<path d="M2.57177 55.2376C0.317542 56.4531 -0.650146 59.0329 -0.650146 59.0329C-0.650146 59.0329 2.03698 59.6419 4.29121 58.4264C6.54543 57.2108 7.51312 54.6311 7.51312 54.6311C7.51312 54.6311 4.826 54.0221 2.57177 55.2376Z" fill="#F2F2F2"/>
<path d="M3.31344 56.0733C1.99316 58.2679 -0.629306 59.113 -0.629306 59.113C-0.629306 59.113 -1.11115 56.4002 0.209137 54.2057C1.52942 52.0112 4.15187 51.166 4.15187 51.166C4.15187 51.166 4.63373 53.8788 3.31344 56.0733Z" fill="#F2F2F2"/>
<path d="M45.0349 6.22266H37.0366V10.9585H45.0349V6.22266Z" fill="#2F2E41"/>
<path d="M29.1128 6.98619H24.989V5.5482C24.989 5.00136 25.2062 4.47691 25.5929 4.09024C25.9796 3.70356 26.504 3.48633 27.0509 3.48633C27.5977 3.48633 28.1222 3.70356 28.5089 4.09024C28.8955 4.47691 29.1128 5.00136 29.1128 5.5482V6.98619ZM25.0803 6.89489H29.0215V5.5482C29.0215 5.02557 28.8138 4.52435 28.4443 4.15479C28.0747 3.78524 27.5735 3.57763 27.0509 3.57763C26.5283 3.57763 26.027 3.78524 25.6575 4.15479C25.2879 4.52435 25.0803 5.02557 25.0803 5.5482V6.89489Z" fill="#3F3D56"/>
<path d="M31.1519 6.78854V6.22656L20.6647 6.50755L20.3328 20.7423L21.8848 22.6596L31.1519 6.78854Z" fill="#3F3D56"/>
<path d="M33.0082 6.59082L21.6414 6.8495L21.8848 22.6597L32.8544 21.4773L33.0082 6.59082Z" fill="#4ECDC4"/>
<path d="M42.6726 57.8145H41.3823L40.7686 52.8379H42.6728L42.6726 57.8145Z" fill="#FFB6B6"/>
<path d="M43.0015 59.0656L38.8413 59.0654V59.0128C38.8413 58.5834 39.0119 58.1715 39.3156 57.8678C39.6193 57.5642 40.0311 57.3936 40.4606 57.3936L43.0016 57.3937L43.0015 59.0656Z" fill="#2F2E41"/>
<path d="M37.9367 57.8145H36.6465L36.0327 52.8379H37.9369L37.9367 57.8145Z" fill="#FFB6B6"/>
<path d="M38.2657 59.0656L34.1055 59.0654V59.0128C34.1055 58.5834 34.2761 58.1715 34.5798 57.8678C34.8834 57.5642 35.2953 57.3936 35.7247 57.3936L38.2658 57.3937L38.2657 59.0656Z" fill="#2F2E41"/>
<path d="M34.1477 26.6533C34.1477 26.6533 32.2626 30.7129 33.9656 38.8844C35.6686 47.0558 35.6827 56.0267 35.6827 56.0267L38.2868 56.0692L39.7496 36.7555L40.5155 55.7965H43.081L45.3421 37.0565C45.3421 37.0565 46.8299 28.6885 43.5119 27.1903L34.1477 26.6533Z" fill="#2F2E41"/>
<path d="M43.1709 12.3264L37.4693 11.8008C35.6813 13.104 34.6778 15.4447 34.8838 17.8598C35.1631 21.1343 35.0686 25.6407 32.8271 27.5984C32.8271 27.5984 38.9363 32.42 44.363 27.8457C44.363 27.8457 42.5074 22.8744 43.7814 20.8891C45.0555 18.9039 45.5151 13.3261 43.1709 12.3264Z" fill="#E4E4E4"/>
<path d="M26.2056 4.23567C26.1881 4.40003 26.2068 4.56622 26.2605 4.72253C26.3142 4.87885 26.4015 5.02149 26.5163 5.14041C26.6311 5.25934 26.7706 5.35165 26.9249 5.41084C27.0792 5.47003 27.2446 5.49467 27.4095 5.48302L34.9376 12.5086L36.2869 10.4533L28.4627 4.19365C28.4248 3.91798 28.287 3.6658 28.0756 3.48489C27.8641 3.30399 27.5937 3.20693 27.3155 3.21211C27.0372 3.21729 26.7706 3.32435 26.566 3.513C26.3615 3.70165 26.2332 3.95878 26.2056 4.23567Z" fill="#FFB6B6"/>
<path d="M33.5319 11.4234L35.3178 9.58886C35.3686 9.53666 35.4301 9.49603 35.498 9.46973C35.5659 9.44344 35.6387 9.43209 35.7114 9.43646C35.7842 9.44084 35.8551 9.46083 35.9194 9.49508C35.9837 9.52934 36.0398 9.57704 36.084 9.63496L37.6323 11.6643C37.8978 11.9258 38.0489 12.2819 38.0522 12.6546C38.0556 13.0272 37.9111 13.3861 37.6504 13.6523C37.3896 13.9186 37.0339 14.0706 36.6612 14.0751C36.2886 14.0795 35.9294 13.936 35.6623 13.676L33.5985 12.1881C33.5394 12.1455 33.4902 12.0906 33.4543 12.0273C33.4183 11.9639 33.3964 11.8936 33.3901 11.821C33.3838 11.7484 33.3932 11.6753 33.4176 11.6067C33.4421 11.5381 33.4811 11.4756 33.5319 11.4234Z" fill="#E4E4E4"/>
<path d="M54.1739 21.3444C54.1822 21.1793 54.1543 21.0144 54.092 20.8613C54.0297 20.7082 53.9346 20.5706 53.8134 20.4583C53.6922 20.3459 53.5478 20.2615 53.3904 20.211C53.2331 20.1604 53.0665 20.145 52.9025 20.1658L44.9957 13.5693L43.7627 15.6964L51.9226 21.5117C51.9758 21.7849 52.1273 22.029 52.3485 22.1979C52.5696 22.3667 52.8451 22.4486 53.1226 22.428C53.4001 22.4074 53.6604 22.2857 53.8542 22.0859C54.0479 21.8862 54.1617 21.6224 54.1739 21.3444Z" fill="#FFB6B6"/>
<path d="M46.4596 14.5747L44.7784 16.5056C44.7305 16.5606 44.6714 16.6045 44.6051 16.6346C44.5387 16.6646 44.4666 16.68 44.3938 16.6797C44.3209 16.6793 44.249 16.6633 44.1829 16.6327C44.1168 16.602 44.0581 16.5575 44.0108 16.5022L42.3521 14.562C42.0724 14.3157 41.9018 13.9685 41.8777 13.5965C41.8536 13.2246 41.978 12.8583 42.2235 12.5779C42.4691 12.2975 42.8158 12.126 43.1877 12.1009C43.5596 12.0757 43.9262 12.1991 44.2073 12.4439L46.3506 13.8149C46.4119 13.8542 46.4641 13.9062 46.5035 13.9674C46.543 14.0287 46.5687 14.0977 46.5791 14.1698C46.5894 14.2419 46.5841 14.3154 46.5635 14.3853C46.5429 14.4552 46.5074 14.5198 46.4596 14.5747Z" fill="#E4E4E4"/>
<path d="M54.9774 24.1335H51.8538V23.0442C51.8538 22.63 52.0183 22.2328 52.3112 21.9399C52.6041 21.647 53.0014 21.4824 53.4156 21.4824C53.8298 21.4824 54.227 21.647 54.5199 21.9399C54.8128 22.2328 54.9774 22.63 54.9774 23.0442L54.9774 24.1335ZM51.9229 24.0643H54.9082V23.0442C54.9082 22.6484 54.751 22.2687 54.471 21.9888C54.1911 21.7088 53.8114 21.5516 53.4156 21.5516C53.0197 21.5516 52.64 21.7088 52.3601 21.9888C52.0802 22.2687 51.9229 22.6484 51.9229 23.0442V24.0643Z" fill="#3F3D56"/>
<path d="M56.5218 23.9843V23.5586L48.5781 23.7715L48.3267 34.5539L49.5023 36.0062L56.5218 23.9843Z" fill="#3F3D56"/>
<path d="M57.928 23.834L49.3179 24.0299L49.5022 36.0057L57.8115 35.1101L57.928 23.834Z" fill="#4ECDC4"/>
<path d="M40.7202 10.8535C42.5801 10.8535 44.0879 9.34576 44.0879 7.48585C44.0879 5.62593 42.5801 4.11816 40.7202 4.11816C38.8603 4.11816 37.3525 5.62593 37.3525 7.48585C37.3525 9.34576 38.8603 10.8535 40.7202 10.8535Z" fill="#FFB6B6"/>
<path d="M39.1697 5.98475C40.3347 7.12644 42.362 7.23586 43.6431 6.2262C43.9987 7.45258 44.0377 8.74908 43.7563 9.9946C43.4749 11.2401 42.8825 12.394 42.0342 13.3484C42.7469 13.6059 43.5673 13.4365 44.2042 13.0261C44.8412 12.6157 45.313 11.989 45.669 11.3201C46.5502 9.6642 46.7708 7.64226 46.1474 5.8731C45.5239 4.10394 44.0303 2.63693 42.2156 2.16191C40.401 1.68688 38.3203 2.27366 37.108 3.705C35.8402 5.20174 35.6348 7.39485 36.1903 9.27603C36.7459 11.1572 37.9644 12.7727 39.3032 14.2063C38.6602 12.5527 38.2337 10.8229 38.0346 9.05985C37.9665 8.45606 37.9266 7.83367 38.0972 7.25048C38.2678 6.6673 38.6876 6.12409 39.2727 5.96022" fill="#2F2E41"/>
<path d="M59.5113 59.2642H19.4148C19.3869 59.2642 19.3601 59.2531 19.3404 59.2334C19.3207 59.2136 19.3096 59.1869 19.3096 59.159C19.3096 59.131 19.3207 59.1043 19.3404 59.0845C19.3601 59.0648 19.3869 59.0537 19.4148 59.0537H59.5113C59.5392 59.0537 59.5659 59.0648 59.5857 59.0845C59.6054 59.1043 59.6165 59.131 59.6165 59.159C59.6165 59.1869 59.6054 59.2136 59.5857 59.2334C59.5659 59.2531 59.5392 59.2642 59.5113 59.2642Z" fill="#CACACA"/>
<path d="M8.15413 59.2642H-8.89476C-8.92267 59.2642 -8.94944 59.2531 -8.96917 59.2334C-8.98891 59.2136 -9 59.1869 -9 59.159C-9 59.131 -8.98891 59.1043 -8.96917 59.0845C-8.94944 59.0648 -8.92267 59.0537 -8.89476 59.0537H8.15413C8.18204 59.0537 8.2088 59.0648 8.22854 59.0845C8.24828 59.1043 8.25937 59.131 8.25937 59.159C8.25937 59.1869 8.24828 59.2136 8.22854 59.2334C8.2088 59.2531 8.18204 59.2642 8.15413 59.2642Z" fill="#CACACA"/>
<path d="M53.2935 50.1276H50.1699V49.0384C50.1699 48.6242 50.3345 48.2269 50.6274 47.934C50.9203 47.6411 51.3175 47.4766 51.7317 47.4766C52.146 47.4766 52.5432 47.6411 52.8361 47.934C53.129 48.2269 53.2936 48.6242 53.2936 49.0384L53.2935 50.1276ZM50.2391 50.0585H53.2244V49.0384C53.2244 48.6425 53.0671 48.2628 52.7872 47.9829C52.5073 47.703 52.1276 47.5457 51.7317 47.5457C51.3358 47.5457 50.9562 47.703 50.6763 47.9829C50.3963 48.2628 50.2391 48.6425 50.2391 49.0384V50.0585Z" fill="#CACACA"/>
<path d="M54.838 49.9784V49.5527L46.8942 49.7656L46.6428 60.548L47.8185 62.0003L54.838 49.9784Z" fill="#CACACA"/>
<path d="M56.2441 49.8281L47.634 50.0241L47.8184 61.9999L56.1276 61.1043L56.2441 49.8281Z" fill="#E4E4E4"/>
</g>
</g>
<defs>
<clipPath id="clip0_535_315">
<rect width="89" height="60" fill="white"/>
</clipPath>
<clipPath id="clip1_535_315">
<rect width="68.6165" height="60" fill="white" transform="translate(-9 2)"/>
</clipPath>
</defs>
</svg>
