<svg width="393" height="808" viewBox="0 0 393 808" fill="none" xmlns="http://www.w3.org/2000/svg">
<path d="M614.98 379.987C603.33 369.99 499.068 282.297 426.506 282.297C336.044 282.297 292.372 361.188 281.891 402.912L280.306 409.294C266.81 416.993 254.147 426.066 242.519 436.371C230.116 447.435 219.077 459.939 209.638 473.62C208.885 470.032 208.146 466.444 207.232 462.977C196.563 423.995 179.444 389.514 160.994 356.001C146.078 329.516 129.604 304.186 112.35 279.475L113.197 277.768C131.257 241.326 147.207 153.323 78.4206 81.2044C22.3997 22.4422 -123.572 5.63187 -140.019 3.93875L-169.125 0.875L-166.263 30.9213C-164.623 48.175 -148.646 200.946 -92.7194 259.56C-61.5847 292.2 -22.6428 309.467 19.9138 309.467C54.8781 309.467 83.7016 297.884 96.5478 291.73C111.894 316.561 126.051 342.107 138.97 368.283C154.961 401.46 169.487 436.048 176.81 470.596C178.57 479.183 166.463 807.125 166.463 807.125H226.314C226.314 807.125 216.961 536.48 218.614 529.977C225.602 502.927 240.813 477.49 260.862 456.769C269.477 447.963 278.897 439.982 289 432.931C306.509 468.083 349.67 515.679 426.506 515.679C499.068 515.679 603.33 427.999 614.98 418.002L637.125 398.988L614.98 379.987Z" fill="#F7FFF7"/>
</svg>
